# vtk DataFile Version 3.0
this file was written using fslvtkio
ASCII
DATASET POLYDATA
POINTS 642 float
122.199 123.164 155.602
108.818 121.054 156.816
109.751 116.33 155.612
122.381 117.374 152.756
119.773 115.39 159.009
119.431 123.32 148.53
111.272 121.951 150.645
111.779 114.084 160.364
115.628 120.783 159.198
116.27 112.532 156.286
116.085 119.152 153.097
115.092 124.499 153.652
113.474 117.363 160.126
117.753 118.169 159.288
116.169 113.333 159.825
113.576 110.994 158.487
119.275 110.616 157.706
112.26 125.141 151.243
114.785 123.045 148.615
117.396 125.543 150.378
113.64 120.49 151.459
117.827 120.871 149.952
121.636 116.038 156.05
121.354 119.521 157.386
123.235 120.546 153.542
121.848 120.397 149.907
121.777 124.487 151.588
109.113 117.916 159.47
109.24 113.74 158.012
107.127 118.751 155.59
109.195 121.926 153.351
109.93 119.304 153.054
118.887 124.63 154.497
119.145 122.318 157.977
115.37 123.146 156.779
111.608 123.571 155.301
111.897 120.969 158.617
119.333 118.716 152.855
116.048 115.909 154.717
119.455 114.853 155.011
112.899 117.557 154.572
112.399 113.321 155.748
115.753 117.571 159.808
116.913 115.766 159.728
114.805 115.462 160.341
118.178 114.083 159.503
118.816 116.808 159.14
116.818 119.672 159.62
114.566 119.104 159.726
112.464 115.793 160.73
113.867 113.509 160.523
115.152 111.449 160.219
117.918 111.69 159.666
116.321 109.818 158.587
119.577 113.04 158.511
112.491 112.16 159.755
115.018 111.219 157.227
117.715 110.795 156.433
113.239 124.723 149.167
115.82 125.243 148.553
114.826 125.387 150.581
118.626 125.177 148.972
117.089 123.35 148.281
112.844 122.542 149.528
111.418 123.741 150.487
113.857 124.974 152.459
116.247 125.168 152.068
115.684 120.643 150.369
116.398 122.09 149.284
114.295 121.749 149.901
118.743 121.977 148.901
116.981 120.23 151.748
115.016 120.016 152.492
112.396 121.288 150.889
121.633 117.789 156.662
122.607 120.091 155.608
122.547 118.38 154.933
123.05 122.099 154.688
122.092 121.475 156.745
120.462 117.469 158.12
120.842 115.438 157.741
122.381 116.67 154.374
123.08 118.842 153.055
123.129 120.67 151.528
122.959 122.696 152.476
122.461 122.701 150.331
122.284 124.069 153.776
122.342 118.849 151.322
120.951 121.947 148.865
120.998 124.362 149.623
108.848 115.934 158.891
107.909 116.203 157.236
107.969 118.173 157.651
108.239 117.294 155.773
109.139 114.864 156.516
110.206 113.575 159.504
110.431 115.978 160.154
108.571 119.859 158.434
107.389 120.363 156.376
106.663 120.749 153.89
108.044 118.802 154.103
108.565 120.43 152.245
109.686 117.994 154.695
108.712 121.572 155.074
109.889 122.435 151.568
110.496 120.525 151.666
119.107 123.767 156.471
117.368 122.805 157.296
117.19 124.128 155.76
115.483 122.18 158.22
117.389 121.479 158.702
120.865 122.878 157.086
120.7 124.073 155.297
116.909 124.719 153.942
115.192 124.044 155.252
113.39 123.472 156.293
113.51 122.133 157.678
111.654 122.103 156.973
113.776 120.827 159.055
113.366 124.202 154.483
110.084 122.178 155.983
109.95 121.162 158.088
117.864 117.572 154.222
117.894 115.538 154.902
119.563 117.01 154.118
118.037 113.319 155.801
116.164 114.019 155.411
116.08 117.708 153.993
117.648 119.032 152.95
120.846 118.111 152.788
121.15 116.199 153.907
112.645 115.397 155.122
114.143 114.451 155.133
114.495 116.671 154.796
114.294 112.866 156.238
110.862 114.695 155.731
111.279 116.82 155.095
114.524 118.545 153.809
119.751 118.914 158.562
118.784 120.376 159.018
120.567 121.046 158.034
120.401 124.867 153.237
118.254 125.242 152.506
119.71 125.359 151.129
119.481 112.242 155.923
120.346 113.274 156.995
120.772 114.805 155.418
120.623 119.478 151.274
119.832 120.48 149.757
118.765 120.06 151.457
112.462 119.389 159.721
111.064 117.708 160.369
110.181 119.716 159.52
110.288 122.894 154.28
110.576 123.642 152.292
111.836 124.632 153.268
110.42 112.95 156.733
111.072 111.816 158.198
112.734 111.51 156.66
113.309 119.373 153.297
111.765 119.808 152.314
111.491 118.638 154.058
116.278 116.714 159.65
115.95 115.595 160.102
115.348 116.552 160.026
115.507 114.502 160.193
116.502 114.69 159.919
117.286 116.941 159.456
116.827 117.83 159.703
114.696 117.373 159.904
114.248 116.423 160.262
117.516 115.009 159.839
117.856 116.235 159.46
118.4 115.456 159.504
118.251 117.476 159.263
117.235 113.665 159.741
118.998 114.802 159.246
119.265 116.027 159.118
116.238 118.541 159.64
115.144 118.19 159.677
115.698 119.346 159.73
114.021 118.105 159.812
117.325 118.884 159.587
116.242 120.344 159.514
115.13 120.148 159.589
113.697 115.549 160.563
114.364 114.466 160.423
113.144 114.629 160.8
115.077 113.456 160.196
112.998 116.549 160.503
112.092 114.935 160.616
112.725 113.707 160.627
116.547 111.371 159.948
117.361 110.296 159.503
115.741 110.224 159.676
118.026 109.794 158.314
118.677 110.879 158.95
117.102 112.464 159.815
115.827 112.37 160.209
114.333 110.852 159.382
114.875 110.066 158.56
118.84 112.193 159.096
118.098 112.892 159.558
118.876 113.552 159.034
119.518 111.741 158.354
119.577 114.231 158.615
114.582 112.454 160.408
113.778 111.643 159.935
113.228 112.675 160.337
113.049 111.373 159.186
112.058 113.034 160.255
115.556 110.217 157.802
117.15 109.996 157.562
116.274 110.769 156.957
118.596 110.212 156.91
114.354 111.042 157.805
115.73 111.942 156.759
116.905 111.792 156.416
114.446 125.036 148.696
115.254 125.575 149.506
113.97 125.424 149.703
116.071 125.536 150.302
116.571 125.657 149.453
115.179 124.233 148.327
113.939 123.888 148.639
112.857 125.085 150.12
113.557 125.333 150.726
117.209 125.374 148.656
116.427 124.375 148.174
117.738 124.427 148.316
115.909 123.281 148.227
118.01 125.504 149.636
119.005 124.322 148.519
118.212 123.342 148.376
112.953 123.618 149.233
112.271 124.333 149.911
111.992 123.147 149.775
111.792 124.586 150.803
113.743 122.867 149.082
111.904 122.278 150.013
111.163 122.813 150.318
114.326 125.307 151.492
115.645 125.337 151.267
115.114 125.013 152.173
116.78 125.452 151.159
113.082 125.23 151.782
114.578 124.691 153.053
115.624 124.881 152.909
116.075 121.172 149.7
115.259 121.912 149.39
114.977 121.081 150.037
114.529 122.375 149.218
115.561 122.568 148.883
117.18 121.48 149.619
116.714 120.753 150.101
114.644 120.582 150.772
113.969 121.002 150.462
116.732 122.66 148.715
117.527 122.056 149.08
117.948 122.559 148.511
118.303 121.319 149.339
119.089 122.634 148.48
116.343 120.37 150.995
115.337 120.325 151.381
115.995 120.142 152.124
114.383 120.233 151.934
117.407 120.488 150.778
116.537 119.866 152.583
115.639 119.703 152.951
113.355 121.503 150.328
113.631 122.17 149.655
112.682 121.944 150.141
113.008 120.837 151.016
111.836 121.659 150.817
122.193 118.905 156.218
122.678 119.174 155.31
122.08 118.091 155.817
123.046 119.482 154.349
123.094 120.331 154.695
122.035 119.809 156.507
121.519 118.719 156.917
121.853 116.881 156.465
122.264 117.121 155.501
123.05 121.113 155.224
122.414 120.826 156.162
122.832 121.822 155.813
121.796 120.587 157.072
123.239 121.329 154.111
122.657 122.699 155.191
122.293 122.359 156.23
121.143 117.707 157.415
121.464 116.605 157.34
120.866 116.549 158.047
121.254 115.61 156.907
120.897 118.459 157.623
120.15 116.384 158.678
120.414 115.446 158.525
122.58 117.343 154.627
122.903 118.706 154.088
122.791 117.702 153.69
123.132 119.65 153.301
122.005 116.351 155.176
122.554 117.025 153.472
122.953 118.045 152.754
123.045 121.708 151.976
122.594 122.664 151.403
122.852 121.703 150.979
122.271 123.645 150.879
122.633 123.738 151.946
123.18 121.583 152.958
123.166 120.626 152.518
122.649 120.585 150.582
122.384 121.541 150.016
122.646 123.445 153.12
123.166 122.313 153.564
122.726 123.082 154.17
122.194 124.428 152.626
122.249 123.594 154.701
123.027 119.813 152.305
122.878 119.683 151.207
122.972 118.813 152.098
122.217 119.685 150.576
122.444 118.171 152.063
121.828 122.335 149.537
121.981 123.62 149.931
121.191 123.227 149.08
121.538 124.562 150.509
121.479 121.214 149.401
120.289 122.639 148.601
120.263 123.937 148.833
108.208 116.008 158.022
107.895 117.268 157.324
108.262 117.058 158.297
107.531 118.433 156.726
107.491 117.651 156.501
108.558 114.995 157.664
108.824 114.787 158.568
108.926 116.939 159.135
108.414 118.032 158.61
107.949 116.803 156.422
108.417 115.456 156.856
108.573 116.103 156.222
109.05 114.233 157.208
107.653 117.951 155.692
108.966 116.733 155.713
109.355 115.792 156.144
109.486 114.788 159.266
109.591 115.875 159.558
110.268 114.893 159.864
109.598 116.911 159.878
109.644 113.621 158.777
110.999 113.827 160.049
111.121 115.085 160.346
108.299 118.943 158.039
107.773 119.19 157.094
107.95 120.035 157.493
107.091 119.58 156.044
108.713 118.933 159.097
108.561 120.529 157.572
108.021 120.734 156.619
106.937 119.509 153.643
108.028 119.533 153.036
107.433 120.511 152.926
108.994 119.632 152.38
108.951 119.146 153.536
107.383 118.546 154.684
106.733 119.643 154.76
107.81 121.432 153.586
108.632 121.375 152.691
108.845 118.45 154.447
108.041 118.041 155.03
108.846 117.619 155.228
109.734 118.826 154.158
109.638 117.195 155.247
106.747 120.609 155.219
107.553 121.252 154.527
107.69 121.04 155.576
108.776 121.743 154.208
108.603 121.327 155.942
109.386 121.436 152.13
109.489 120.369 151.802
110.075 121.454 151.554
110.096 119.761 152.169
109.458 122.265 152.368
110.557 122.229 151.002
111.064 121.456 151.324
118.257 123.284 156.956
117.334 123.449 156.524
118.19 124.036 156.176
116.374 123.567 156.221
116.452 123.047 156.973
118.285 122.649 157.731
119.13 123.011 157.268
119.012 124.286 155.494
118.022 124.461 155.185
116.432 122.491 157.765
117.417 122.248 158.101
116.497 121.978 158.478
118.251 121.814 158.3
115.473 122.649 157.521
115.586 121.439 158.763
116.478 121.169 159.006
119.995 123.339 156.83
119.943 124.022 155.896
120.875 123.565 156.254
119.834 124.411 154.865
120.005 122.633 157.527
121.675 122.936 156.464
121.603 123.698 155.593
117.017 124.538 154.871
116.188 124.124 155.495
116.03 124.44 154.601
115.308 123.669 156.105
117.895 124.715 154.201
115.93 124.563 153.718
115.078 124.229 154.43
113.404 122.878 157.028
112.541 122.148 157.317
112.352 123.013 156.692
111.773 121.559 157.798
112.689 121.632 158.122
114.409 122.748 157.332
114.384 123.259 156.525
112.379 123.506 155.9
111.592 122.918 156.222
113.593 121.572 158.426
114.552 122.226 157.949
114.644 121.6 158.699
112.878 120.875 158.802
114.73 120.852 159.202
114.309 123.818 155.854
113.273 123.908 155.5
114.193 124.025 154.941
112.381 124.069 154.965
114.306 124.272 153.991
110.827 122.178 156.553
110.823 121.612 157.498
110.089 121.66 157.004
110.929 121.158 158.379
110.954 122.816 155.614
109.528 121.553 156.4
109.295 121.151 157.515
117.928 116.531 154.518
118.744 116.229 154.502
118.754 117.335 154.153
119.504 116.028 154.588
118.705 115.196 154.965
117.032 115.713 154.733
117.04 116.708 154.5
118.708 118.121 153.58
119.43 117.947 153.639
118.021 114.413 155.247
117.147 114.68 155.026
117.185 113.875 155.796
116.167 114.88 154.827
118.742 114.095 155.494
117.182 112.835 156.088
116.213 113.365 156.082
117.007 117.644 154.151
117.816 118.283 153.576
116.899 118.347 153.522
118.515 118.877 152.91
116.188 116.792 154.329
116.023 118.536 153.484
116.819 119.068 152.973
120.199 117.594 153.547
120.262 116.565 153.969
120.991 117.188 153.342
120.269 115.676 154.445
120.016 118.509 152.951
121.648 117.704 152.708
121.806 116.878 153.369
113.352 114.873 155.171
114.359 115.544 154.865
113.586 115.999 154.982
115.286 116.265 154.733
115.132 115.118 154.795
113.269 113.836 155.445
112.441 114.435 155.347
112.756 116.51 154.949
113.626 117.009 154.725
115.153 114.125 155.089
114.172 113.623 155.534
115.229 113.515 155.85
113.375 113.014 155.926
115.211 112.813 156.375
111.738 114.992 155.304
111.925 116.091 155.15
111.041 115.728 155.404
112.104 117.129 154.799
111.619 114.046 155.715
110.236 115.557 155.822
110.467 116.501 155.337
114.443 117.491 154.347
115.346 117.212 154.461
115.226 117.969 153.799
113.7 118.023 154.159
115.334 118.944 153.45
119.321 119.67 158.941
119.678 120.672 158.469
120.28 119.987 158.339
119.948 121.75 158.051
119.029 121.343 158.532
118.331 119.319 159.283
118.725 118.496 159.038
120.669 119.139 158.007
120.962 120.229 157.725
118.126 121.026 158.926
117.809 119.97 159.395
117.112 120.627 159.198
119.1 117.953 158.784
120.019 118.264 158.224
119.643 117.137 158.69
121.376 121.13 157.476
120.756 121.971 157.612
121.585 122.099 157.041
119.339 125.064 152.873
118.99 125.398 151.777
120.129 125.174 152.127
118.575 125.606 150.651
117.821 125.468 151.435
118.6 124.93 153.52
119.648 124.763 153.846
121.191 124.838 152.409
120.822 125.06 151.335
117.209 125.246 152.249
117.601 124.964 153.254
116.521 124.982 153.062
120.598 124.437 154.245
121.438 124.579 153.504
121.528 124.177 154.625
120.366 125.125 150.289
119.153 125.388 150.098
119.814 124.854 149.142
120.124 112.413 156.542
120.585 113.984 156.256
120.005 113.496 155.737
121.276 115.311 155.656
120.931 114.819 156.578
120.129 111.759 157.584
119.462 111.06 156.738
119.398 113.605 155.51
120.141 114.718 155.145
120.453 114.399 157.23
120.023 112.989 157.791
120.028 114.325 158.045
118.812 111.285 156.107
118.815 112.835 155.938
117.985 112.054 156.12
120.998 115.499 154.645
121.651 115.795 154.931
121.892 116.317 154.086
120.327 119.83 150.307
119.273 120.169 150.532
119.696 119.733 151.354
118.384 120.388 150.698
118.796 120.696 149.881
120.877 120.406 149.748
121.27 119.829 150.371
119.925 119.242 152.199
119.029 119.55 152.26
119.389 121.047 149.125
120.549 121.031 149.163
119.911 121.84 148.782
121.478 119.184 151.13
120.731 118.855 152.148
121.652 118.316 151.926
118.2 119.786 152.383
117.925 120.192 151.592
117.358 119.855 152.43
111.776 118.57 160.038
110.472 118.787 160.013
111.291 119.589 159.71
109.307 118.999 159.701
109.842 117.843 160.132
112.282 117.502 160.446
112.977 118.325 159.943
112.137 120.206 159.296
111.042 120.29 159.076
110.632 116.85 160.268
111.861 116.718 160.534
111.412 115.947 160.509
113.597 119.118 159.63
113.144 120.14 159.498
114.157 120.147 159.644
110.141 120.505 158.824
109.304 119.845 159.131
109.157 120.593 158.323
110.325 123.356 153.275
111.179 124.222 152.801
110.974 123.893 153.848
112.071 124.917 152.236
111.335 124.503 151.804
109.87 122.844 152.803
109.763 122.433 153.862
110.979 123.322 154.734
111.634 124.182 154.314
111.032 123.913 151.355
110.216 123.16 151.946
110.674 123.141 151.083
109.539 122.127 154.72
110.261 122.549 155.128
109.527 121.76 155.536
112.533 124.543 153.957
112.824 124.869 152.887
113.676 124.52 153.472
110.571 112.149 157.436
111.685 111.352 157.362
111.427 111.994 156.595
112.996 111.084 157.475
112.306 111.376 158.243
110.101 112.661 158.227
109.731 113.137 157.423
111.387 112.978 156.108
112.546 112.413 156.165
111.807 111.883 159.062
110.522 112.505 159.028
111.337 112.809 159.692
109.602 113.857 156.633
110.6 113.843 156.065
109.942 114.878 156.157
113.623 112.202 156.362
113.895 111.404 157.032
114.609 112.069 156.724
112.551 119.599 152.759
111.61 119.211 153.115
112.408 118.871 153.592
110.656 118.933 153.659
110.807 119.358 152.661
112.67 120.174 151.851
113.416 119.986 152.348
113.15 118.631 154.002
112.226 118.152 154.309
111.05 120.018 151.936
112.069 120.524 151.603
111.508 120.927 151.434
114.13 119.767 152.851
114.012 119.05 153.648
114.826 119.408 153.302
111.4 117.777 154.566
110.537 118.299 154.389
110.488 117.473 154.935
POLYGONS 1280  5120
3 164 162 163
3 163 44 164
3 162 43 163
3 164 42 162
3 166 165 163
3 163 43 166
3 165 44 163
3 166 14 165
3 168 167 162
3 162 42 168
3 167 43 162
3 168 13 167
3 170 169 164
3 164 44 170
3 169 42 164
3 170 12 169
3 173 171 172
3 172 46 173
3 171 43 172
3 173 45 171
3 167 174 172
3 172 43 167
3 174 46 172
3 167 13 174
3 175 166 171
3 171 45 175
3 166 43 171
3 175 14 166
3 177 176 173
3 173 46 177
3 176 45 173
3 177 4 176
3 180 178 179
3 179 48 180
3 178 42 179
3 180 47 178
3 169 181 179
3 179 42 169
3 181 48 179
3 169 12 181
3 182 168 178
3 178 47 182
3 168 42 178
3 182 13 168
3 184 183 180
3 180 48 184
3 183 47 180
3 184 8 183
3 187 185 186
3 186 50 187
3 185 44 186
3 187 49 185
3 165 188 186
3 186 44 165
3 188 50 186
3 165 14 188
3 189 170 185
3 185 49 189
3 170 44 185
3 189 12 170
3 191 190 187
3 187 50 191
3 190 49 187
3 191 7 190
3 194 192 193
3 193 53 194
3 192 52 193
3 194 51 192
3 196 195 193
3 193 52 196
3 195 53 193
3 196 16 195
3 198 197 192
3 192 51 198
3 197 52 192
3 198 14 197
3 200 199 194
3 194 53 200
3 199 51 194
3 200 15 199
3 203 201 202
3 202 45 203
3 201 52 202
3 203 54 201
3 197 175 202
3 202 52 197
3 175 45 202
3 197 14 175
3 204 196 201
3 201 54 204
3 196 52 201
3 204 16 196
3 176 205 203
3 203 45 176
3 205 54 203
3 176 4 205
3 208 206 207
3 207 55 208
3 206 51 207
3 208 50 206
3 199 209 207
3 207 51 199
3 209 55 207
3 199 15 209
3 188 198 206
3 206 50 188
3 198 51 206
3 188 14 198
3 210 191 208
3 208 55 210
3 191 50 208
3 210 7 191
3 213 211 212
3 212 57 213
3 211 53 212
3 213 56 211
3 195 214 212
3 212 53 195
3 214 57 212
3 195 16 214
3 215 200 211
3 211 56 215
3 200 53 211
3 215 15 200
3 217 216 213
3 213 57 217
3 216 56 213
3 217 9 216
3 220 218 219
3 219 60 220
3 218 59 219
3 220 58 218
3 222 221 219
3 219 59 222
3 221 60 219
3 222 19 221
3 224 223 218
3 218 58 224
3 223 59 218
3 224 18 223
3 226 225 220
3 220 60 226
3 225 58 220
3 226 17 225
3 229 227 228
3 228 62 229
3 227 59 228
3 229 61 227
3 223 230 228
3 228 59 223
3 230 62 228
3 223 18 230
3 231 222 227
3 227 61 231
3 222 59 227
3 231 19 222
3 233 232 229
3 229 62 233
3 232 61 229
3 233 5 232
3 236 234 235
3 235 64 236
3 234 58 235
3 236 63 234
3 225 237 235
3 235 58 225
3 237 64 235
3 225 17 237
3 238 224 234
3 234 63 238
3 224 58 234
3 238 18 224
3 240 239 236
3 236 64 240
3 239 63 236
3 240 6 239
3 243 241 242
3 242 66 243
3 241 60 242
3 243 65 241
3 221 244 242
3 242 60 221
3 244 66 242
3 221 19 244
3 245 226 241
3 241 65 245
3 226 60 241
3 245 17 226
3 247 246 243
3 243 66 247
3 246 65 243
3 247 11 246
3 250 248 249
3 249 69 250
3 248 68 249
3 250 67 248
3 252 251 249
3 249 68 252
3 251 69 249
3 252 18 251
3 254 253 248
3 248 67 254
3 253 68 248
3 254 21 253
3 256 255 250
3 250 69 256
3 255 67 250
3 256 20 255
3 259 257 258
3 258 70 259
3 257 68 258
3 259 62 257
3 253 260 258
3 258 68 253
3 260 70 258
3 253 21 260
3 230 252 257
3 257 62 230
3 252 68 257
3 230 18 252
3 261 233 259
3 259 70 261
3 233 62 259
3 261 5 233
3 264 262 263
3 263 72 264
3 262 67 263
3 264 71 262
3 255 265 263
3 263 67 255
3 265 72 263
3 255 20 265
3 266 254 262
3 262 71 266
3 254 67 262
3 266 21 254
3 268 267 264
3 264 72 268
3 267 71 264
3 268 10 267
3 271 269 270
3 270 63 271
3 269 69 270
3 271 73 269
3 251 238 270
3 270 69 251
3 238 63 270
3 251 18 238
3 272 256 269
3 269 73 272
3 256 69 269
3 272 20 256
3 239 273 271
3 271 63 239
3 273 73 271
3 239 6 273
3 276 274 275
3 275 76 276
3 274 75 275
3 276 74 274
3 278 277 275
3 275 75 278
3 277 76 275
3 278 24 277
3 280 279 274
3 274 74 280
3 279 75 274
3 280 23 279
3 282 281 276
3 276 76 282
3 281 74 276
3 282 22 281
3 285 283 284
3 284 78 285
3 283 75 284
3 285 77 283
3 279 286 284
3 284 75 279
3 286 78 284
3 279 23 286
3 287 278 283
3 283 77 287
3 278 75 283
3 287 24 278
3 289 288 285
3 285 78 289
3 288 77 285
3 289 0 288
3 292 290 291
3 291 80 292
3 290 74 291
3 292 79 290
3 281 293 291
3 291 74 281
3 293 80 291
3 281 22 293
3 294 280 290
3 290 79 294
3 280 74 290
3 294 23 280
3 296 295 292
3 292 80 296
3 295 79 292
3 296 4 295
3 299 297 298
3 298 82 299
3 297 76 298
3 299 81 297
3 277 300 298
3 298 76 277
3 300 82 298
3 277 24 300
3 301 282 297
3 297 81 301
3 282 76 297
3 301 22 282
3 303 302 299
3 299 82 303
3 302 81 299
3 303 3 302
3 306 304 305
3 305 85 306
3 304 84 305
3 306 83 304
3 308 307 305
3 305 84 308
3 307 85 305
3 308 26 307
3 310 309 304
3 304 83 310
3 309 84 304
3 310 24 309
3 312 311 306
3 306 85 312
3 311 83 306
3 312 25 311
3 315 313 314
3 314 77 315
3 313 84 314
3 315 86 313
3 309 287 314
3 314 84 309
3 287 77 314
3 309 24 287
3 316 308 313
3 313 86 316
3 308 84 313
3 316 26 308
3 288 317 315
3 315 77 288
3 317 86 315
3 288 0 317
3 320 318 319
3 319 87 320
3 318 83 319
3 320 82 318
3 311 321 319
3 319 83 311
3 321 87 319
3 311 25 321
3 300 310 318
3 318 82 300
3 310 83 318
3 300 24 310
3 322 303 320
3 320 87 322
3 303 82 320
3 322 3 303
3 325 323 324
3 324 89 325
3 323 85 324
3 325 88 323
3 307 326 324
3 324 85 307
3 326 89 324
3 307 26 326
3 327 312 323
3 323 88 327
3 312 85 323
3 327 25 312
3 329 328 325
3 325 89 329
3 328 88 325
3 329 5 328
3 332 330 331
3 331 92 332
3 330 91 331
3 332 90 330
3 334 333 331
3 331 91 334
3 333 92 331
3 334 29 333
3 336 335 330
3 330 90 336
3 335 91 330
3 336 28 335
3 338 337 332
3 332 92 338
3 337 90 332
3 338 27 337
3 341 339 340
3 340 94 341
3 339 91 340
3 341 93 339
3 335 342 340
3 340 91 335
3 342 94 340
3 335 28 342
3 343 334 339
3 339 93 343
3 334 91 339
3 343 29 334
3 345 344 341
3 341 94 345
3 344 93 341
3 345 2 344
3 348 346 347
3 347 96 348
3 346 90 347
3 348 95 346
3 337 349 347
3 347 90 337
3 349 96 347
3 337 27 349
3 350 336 346
3 346 95 350
3 336 90 346
3 350 28 336
3 352 351 348
3 348 96 352
3 351 95 348
3 352 7 351
3 355 353 354
3 354 98 355
3 353 92 354
3 355 97 353
3 333 356 354
3 354 92 333
3 356 98 354
3 333 29 356
3 357 338 353
3 353 97 357
3 338 92 353
3 357 27 338
3 359 358 355
3 355 98 359
3 358 97 355
3 359 1 358
3 362 360 361
3 361 101 362
3 360 100 361
3 362 99 360
3 364 363 361
3 361 100 364
3 363 101 361
3 364 31 363
3 366 365 360
3 360 99 366
3 365 100 360
3 366 29 365
3 368 367 362
3 362 101 368
3 367 99 362
3 368 30 367
3 371 369 370
3 370 93 371
3 369 100 370
3 371 102 369
3 365 343 370
3 370 100 365
3 343 93 370
3 365 29 343
3 372 364 369
3 369 102 372
3 364 100 369
3 372 31 364
3 344 373 371
3 371 93 344
3 373 102 371
3 344 2 373
3 376 374 375
3 375 103 376
3 374 99 375
3 376 98 374
3 367 377 375
3 375 99 367
3 377 103 375
3 367 30 377
3 356 366 374
3 374 98 356
3 366 99 374
3 356 29 366
3 378 359 376
3 376 103 378
3 359 98 376
3 378 1 359
3 381 379 380
3 380 105 381
3 379 101 380
3 381 104 379
3 363 382 380
3 380 101 363
3 382 105 380
3 363 31 382
3 383 368 379
3 379 104 383
3 368 101 379
3 383 30 368
3 385 384 381
3 381 105 385
3 384 104 381
3 385 6 384
3 388 386 387
3 387 108 388
3 386 107 387
3 388 106 386
3 390 389 387
3 387 107 390
3 389 108 387
3 390 34 389
3 392 391 386
3 386 106 392
3 391 107 386
3 392 33 391
3 394 393 388
3 388 108 394
3 393 106 388
3 394 32 393
3 397 395 396
3 396 110 397
3 395 107 396
3 397 109 395
3 391 398 396
3 396 107 391
3 398 110 396
3 391 33 398
3 399 390 395
3 395 109 399
3 390 107 395
3 399 34 390
3 401 400 397
3 397 110 401
3 400 109 397
3 401 8 400
3 404 402 403
3 403 112 404
3 402 106 403
3 404 111 402
3 393 405 403
3 403 106 393
3 405 112 403
3 393 32 405
3 406 392 402
3 402 111 406
3 392 106 402
3 406 33 392
3 408 407 404
3 404 112 408
3 407 111 404
3 408 0 407
3 411 409 410
3 410 114 411
3 409 108 410
3 411 113 409
3 389 412 410
3 410 108 389
3 412 114 410
3 389 34 412
3 413 394 409
3 409 113 413
3 394 108 409
3 413 32 394
3 415 414 411
3 411 114 415
3 414 113 411
3 415 11 414
3 418 416 417
3 417 117 418
3 416 116 417
3 418 115 416
3 420 419 417
3 417 116 420
3 419 117 417
3 420 36 419
3 422 421 416
3 416 115 422
3 421 116 416
3 422 34 421
3 424 423 418
3 418 117 424
3 423 115 418
3 424 35 423
3 427 425 426
3 426 109 427
3 425 116 426
3 427 118 425
3 421 399 426
3 426 116 421
3 399 109 426
3 421 34 399
3 428 420 425
3 425 118 428
3 420 116 425
3 428 36 420
3 400 429 427
3 427 109 400
3 429 118 427
3 400 8 429
3 432 430 431
3 431 119 432
3 430 115 431
3 432 114 430
3 423 433 431
3 431 115 423
3 433 119 431
3 423 35 433
3 412 422 430
3 430 114 412
3 422 115 430
3 412 34 422
3 434 415 432
3 432 119 434
3 415 114 432
3 434 11 415
3 437 435 436
3 436 121 437
3 435 117 436
3 437 120 435
3 419 438 436
3 436 117 419
3 438 121 436
3 419 36 438
3 439 424 435
3 435 120 439
3 424 117 435
3 439 35 424
3 441 440 437
3 437 121 441
3 440 120 437
3 441 1 440
3 444 442 443
3 443 124 444
3 442 123 443
3 444 122 442
3 446 445 443
3 443 123 446
3 445 124 443
3 446 39 445
3 448 447 442
3 442 122 448
3 447 123 442
3 448 38 447
3 450 449 444
3 444 124 450
3 449 122 444
3 450 37 449
3 453 451 452
3 452 126 453
3 451 123 452
3 453 125 451
3 447 454 452
3 452 123 447
3 454 126 452
3 447 38 454
3 455 446 451
3 451 125 455
3 446 123 451
3 455 39 446
3 457 456 453
3 453 126 457
3 456 125 453
3 457 9 456
3 460 458 459
3 459 128 460
3 458 122 459
3 460 127 458
3 449 461 459
3 459 122 449
3 461 128 459
3 449 37 461
3 462 448 458
3 458 127 462
3 448 122 458
3 462 38 448
3 464 463 460
3 460 128 464
3 463 127 460
3 464 10 463
3 467 465 466
3 466 130 467
3 465 124 466
3 467 129 465
3 445 468 466
3 466 124 445
3 468 130 466
3 445 39 468
3 469 450 465
3 465 129 469
3 450 124 465
3 469 37 450
3 471 470 467
3 467 130 471
3 470 129 467
3 471 3 470
3 474 472 473
3 473 133 474
3 472 132 473
3 474 131 472
3 476 475 473
3 473 132 476
3 475 133 473
3 476 38 475
3 478 477 472
3 472 131 478
3 477 132 472
3 478 41 477
3 480 479 474
3 474 133 480
3 479 131 474
3 480 40 479
3 483 481 482
3 482 134 483
3 481 132 482
3 483 126 481
3 477 484 482
3 482 132 477
3 484 134 482
3 477 41 484
3 454 476 481
3 481 126 454
3 476 132 481
3 454 38 476
3 485 457 483
3 483 134 485
3 457 126 483
3 485 9 457
3 488 486 487
3 487 136 488
3 486 131 487
3 488 135 486
3 479 489 487
3 487 131 479
3 489 136 487
3 479 40 489
3 490 478 486
3 486 135 490
3 478 131 486
3 490 41 478
3 492 491 488
3 488 136 492
3 491 135 488
3 492 2 491
3 495 493 494
3 494 127 495
3 493 133 494
3 495 137 493
3 475 462 494
3 494 133 475
3 462 127 494
3 475 38 462
3 496 480 493
3 493 137 496
3 480 133 493
3 496 40 480
3 463 497 495
3 495 127 463
3 497 137 495
3 463 10 497
3 500 498 499
3 499 140 500
3 498 139 499
3 500 138 498
3 502 501 499
3 499 139 502
3 501 140 499
3 502 33 501
3 504 503 498
3 498 138 504
3 503 139 498
3 504 13 503
3 506 505 500
3 500 140 506
3 505 138 500
3 506 23 505
3 509 507 508
3 508 47 509
3 507 139 508
3 509 110 507
3 503 182 508
3 508 139 503
3 182 47 508
3 503 13 182
3 398 502 507
3 507 110 398
3 502 139 507
3 398 33 502
3 183 401 509
3 509 47 183
3 401 110 509
3 183 8 401
3 512 510 511
3 511 79 512
3 510 138 511
3 512 46 510
3 505 294 511
3 511 138 505
3 294 79 511
3 505 23 294
3 174 504 510
3 510 46 174
3 504 138 510
3 174 13 504
3 295 177 512
3 512 79 295
3 177 46 512
3 295 4 177
3 515 513 514
3 514 111 515
3 513 140 514
3 515 78 513
3 501 406 514
3 514 140 501
3 406 111 514
3 501 33 406
3 286 506 513
3 513 78 286
3 506 140 513
3 286 23 506
3 407 289 515
3 515 111 407
3 289 78 515
3 407 0 289
3 518 516 517
3 517 143 518
3 516 142 517
3 518 141 516
3 520 519 517
3 517 142 520
3 519 143 517
3 520 19 519
3 522 521 516
3 516 141 522
3 521 142 516
3 522 32 521
3 524 523 518
3 518 143 524
3 523 141 518
3 524 26 523
3 527 525 526
3 526 113 527
3 525 142 526
3 527 66 525
3 521 413 526
3 526 142 521
3 413 113 526
3 521 32 413
3 244 520 525
3 525 66 244
3 520 142 525
3 244 19 520
3 414 247 527
3 527 113 414
3 247 66 527
3 414 11 247
3 530 528 529
3 529 86 530
3 528 141 529
3 530 112 528
3 523 316 529
3 529 141 523
3 316 86 529
3 523 26 316
3 405 522 528
3 528 112 405
3 522 141 528
3 405 32 522
3 317 408 530
3 530 86 317
3 408 112 530
3 317 0 408
3 533 531 532
3 532 61 533
3 531 143 532
3 533 89 531
3 519 231 532
3 532 143 519
3 231 61 532
3 519 19 231
3 326 524 531
3 531 89 326
3 524 143 531
3 326 26 524
3 232 329 533
3 533 61 232
3 329 89 533
3 232 5 329
3 536 534 535
3 535 146 536
3 534 145 535
3 536 144 534
3 538 537 535
3 535 145 538
3 537 146 535
3 538 22 537
3 540 539 534
3 534 144 540
3 539 145 534
3 540 16 539
3 542 541 536
3 536 146 542
3 541 144 536
3 542 39 541
3 545 543 544
3 544 54 545
3 543 145 544
3 545 80 543
3 539 204 544
3 544 145 539
3 204 54 544
3 539 16 204
3 293 538 543
3 543 80 293
3 538 145 543
3 293 22 538
3 205 296 545
3 545 54 205
3 296 80 545
3 205 4 296
3 548 546 547
3 547 125 548
3 546 144 547
3 548 57 546
3 541 455 547
3 547 144 541
3 455 125 547
3 541 39 455
3 214 540 546
3 546 57 214
3 540 144 546
3 214 16 540
3 456 217 548
3 548 125 456
3 217 57 548
3 456 9 217
3 551 549 550
3 550 81 551
3 549 146 550
3 551 130 549
3 537 301 550
3 550 146 537
3 301 81 550
3 537 22 301
3 468 542 549
3 549 130 468
3 542 146 549
3 468 39 542
3 302 471 551
3 551 81 302
3 471 130 551
3 302 3 471
3 554 552 553
3 553 149 554
3 552 148 553
3 554 147 552
3 556 555 553
3 553 148 556
3 555 149 553
3 556 21 555
3 558 557 552
3 552 147 558
3 557 148 552
3 558 25 557
3 560 559 554
3 554 149 560
3 559 147 554
3 560 37 559
3 563 561 562
3 562 88 563
3 561 148 562
3 563 70 561
3 557 327 562
3 562 148 557
3 327 88 562
3 557 25 327
3 260 556 561
3 561 70 260
3 556 148 561
3 260 21 556
3 328 261 563
3 563 88 328
3 261 70 563
3 328 5 261
3 566 564 565
3 565 129 566
3 564 147 565
3 566 87 564
3 559 469 565
3 565 147 559
3 469 129 565
3 559 37 469
3 321 558 564
3 564 87 321
3 558 147 564
3 321 25 558
3 470 322 566
3 566 129 470
3 322 87 566
3 470 3 322
3 569 567 568
3 568 71 569
3 567 149 568
3 569 128 567
3 555 266 568
3 568 149 555
3 266 71 568
3 555 21 266
3 461 560 567
3 567 128 461
3 560 149 567
3 461 37 560
3 267 464 569
3 569 71 267
3 464 128 569
3 267 10 464
3 572 570 571
3 571 152 572
3 570 151 571
3 572 150 570
3 574 573 571
3 571 151 574
3 573 152 571
3 574 27 573
3 576 575 570
3 570 150 576
3 575 151 570
3 576 12 575
3 578 577 572
3 572 152 578
3 577 150 572
3 578 36 577
3 581 579 580
3 580 49 581
3 579 151 580
3 581 96 579
3 575 189 580
3 580 151 575
3 189 49 580
3 575 12 189
3 349 574 579
3 579 96 349
3 574 151 579
3 349 27 574
3 190 352 581
3 581 49 190
3 352 96 581
3 190 7 352
3 584 582 583
3 583 118 584
3 582 150 583
3 584 48 582
3 577 428 583
3 583 150 577
3 428 118 583
3 577 36 428
3 181 576 582
3 582 48 181
3 576 150 582
3 181 12 576
3 429 184 584
3 584 118 429
3 184 48 584
3 429 8 184
3 587 585 586
3 586 97 587
3 585 152 586
3 587 121 585
3 573 357 586
3 586 152 573
3 357 97 586
3 573 27 357
3 438 578 585
3 585 121 438
3 578 152 585
3 438 36 578
3 358 441 587
3 587 97 358
3 441 121 587
3 358 1 441
3 590 588 589
3 589 155 590
3 588 154 589
3 590 153 588
3 592 591 589
3 589 154 592
3 591 155 589
3 592 17 591
3 594 593 588
3 588 153 594
3 593 154 588
3 594 30 593
3 596 595 590
3 590 155 596
3 595 153 590
3 596 35 595
3 599 597 598
3 598 104 599
3 597 154 598
3 599 64 597
3 593 383 598
3 598 154 593
3 383 104 598
3 593 30 383
3 237 592 597
3 597 64 237
3 592 154 597
3 237 17 592
3 384 240 599
3 599 104 384
3 240 64 599
3 384 6 240
3 602 600 601
3 601 120 602
3 600 153 601
3 602 103 600
3 595 439 601
3 601 153 595
3 439 120 601
3 595 35 439
3 377 594 600
3 600 103 377
3 594 153 600
3 377 30 594
3 440 378 602
3 602 120 440
3 378 103 602
3 440 1 378
3 605 603 604
3 604 65 605
3 603 155 604
3 605 119 603
3 591 245 604
3 604 155 591
3 245 65 604
3 591 17 245
3 433 596 603
3 603 119 433
3 596 155 603
3 433 35 596
3 246 434 605
3 605 65 246
3 434 119 605
3 246 11 434
3 608 606 607
3 607 158 608
3 606 157 607
3 608 156 606
3 610 609 607
3 607 157 610
3 609 158 607
3 610 15 609
3 612 611 606
3 606 156 612
3 611 157 606
3 612 28 611
3 614 613 608
3 608 158 614
3 613 156 608
3 614 41 613
3 617 615 616
3 616 95 617
3 615 157 616
3 617 55 615
3 611 350 616
3 616 157 611
3 350 95 616
3 611 28 350
3 209 610 615
3 615 55 209
3 610 157 615
3 209 15 610
3 351 210 617
3 617 95 351
3 210 55 617
3 351 7 210
3 620 618 619
3 619 135 620
3 618 156 619
3 620 94 618
3 613 490 619
3 619 156 613
3 490 135 619
3 613 41 490
3 342 612 618
3 618 94 342
3 612 156 618
3 342 28 612
3 491 345 620
3 620 135 491
3 345 94 620
3 491 2 345
3 623 621 622
3 622 56 623
3 621 158 622
3 623 134 621
3 609 215 622
3 622 158 609
3 215 56 622
3 609 15 215
3 484 614 621
3 621 134 484
3 614 158 621
3 484 41 614
3 216 485 623
3 623 56 216
3 485 134 623
3 216 9 485
3 626 624 625
3 625 161 626
3 624 160 625
3 626 159 624
3 628 627 625
3 625 160 628
3 627 161 625
3 628 31 627
3 630 629 624
3 624 159 630
3 629 160 624
3 630 20 629
3 632 631 626
3 626 161 632
3 631 159 626
3 632 40 631
3 635 633 634
3 634 73 635
3 633 160 634
3 635 105 633
3 629 272 634
3 634 160 629
3 272 73 634
3 629 20 272
3 382 628 633
3 633 105 382
3 628 160 633
3 382 31 628
3 273 385 635
3 635 73 273
3 385 105 635
3 273 6 385
3 638 636 637
3 637 137 638
3 636 159 637
3 638 72 636
3 631 496 637
3 637 159 631
3 496 137 637
3 631 40 496
3 265 630 636
3 636 72 265
3 630 159 636
3 265 20 630
3 497 268 638
3 638 137 497
3 268 72 638
3 497 10 268
3 641 639 640
3 640 102 641
3 639 161 640
3 641 136 639
3 627 372 640
3 640 161 627
3 372 102 640
3 627 31 372
3 489 632 639
3 639 136 489
3 632 161 639
3 489 40 632
3 373 492 641
3 641 102 373
3 492 136 641
3 373 2 492
