# vtk DataFile Version 3.0
this file was written using fslvtkio
ASCII
DATASET POLYDATA
POINTS 732 float
116.355 117.348 144.579
115.175 116.468 144.904
116.106 115.731 144.672
117.142 115.486 144.62
117.744 117.631 144.563
118.443 115.936 144.873
119.055 117.873 145.012
119.811 116.872 145.555
115.247 118.688 144.866
114.051 117.953 145.207
116.614 119.311 145.131
118.074 119.307 145.391
119.697 118.668 146.083
113.977 119.482 145.518
112.526 119.446 146.711
112.955 118.2 145.882
115.261 120.112 145.803
116.413 120.57 146.624
117.708 120.456 146.765
118.961 119.808 146.696
113.662 120.243 147.146
112.548 120.428 148.159
114.827 120.425 147.057
115.873 120.679 147.867
117.224 120.388 148.52
118.788 120.319 148.046
113.664 120.606 148.529
114.827 120.626 148.683
116.229 114.289 145.036
114.516 113.857 145.511
115.257 112.603 145.55
116.79 112.488 145.303
117.895 114.19 145.029
118.503 113.032 145.494
119.375 115.146 145.698
119.868 113.933 146.102
120.552 115.793 146.496
121.128 114.651 146.945
114.397 115.37 145.37
112.627 115.333 146.409
113.084 113.99 146.23
120.523 117.473 146.718
121.323 116.469 147.945
112.543 116.562 146.383
110.901 117.151 147.362
111.087 115.737 147.166
113.611 116.959 145.772
120.756 118.617 147.979
121.289 117.739 148.496
111.892 118.144 146.938
110.666 118.71 148.209
120.826 118.553 149.723
119.786 119.242 147.947
111.661 119.704 147.991
110.796 119.853 149.208
116.059 120.409 149.097
116.213 119.78 150.326
114.899 120.251 149.845
117.571 119.799 150.035
118.663 119.729 149.276
112.164 120.423 149.547
113.487 120.285 150.012
119.444 110.637 145.978
117.873 109.909 145.785
118.831 108.87 146.187
120.231 109.297 146.583
120.795 111.054 146.727
121.407 109.895 147.265
114.235 110.982 146.206
112.963 110.714 146.904
113.934 109.898 146.633
115.087 109.609 146.431
115.98 111.038 145.649
116.561 109.646 145.911
117.891 111.324 145.613
119.547 112.19 145.647
120.889 112.865 146.71
121.877 111.47 147.673
121.839 113.035 147.755
122.747 111.857 148.773
112.061 112.544 146.932
110.798 112.232 147.531
111.961 111.413 147.276
113.603 112.601 146.263
121.814 114.944 148.183
122.465 113.666 149.111
110.179 114.155 147.813
108.885 114.178 148.759
109.976 113.018 147.993
111.496 114.196 147.048
121.769 116.206 149.647
122.279 114.948 150.051
109.637 116.027 148.273
108.304 115.756 149.296
121.772 115.751 151.253
121.551 117.443 149.898
108.591 117.591 149.603
107.558 117.469 151.222
107.247 116.324 150.297
109.806 117.73 148.496
120.522 117.706 151.138
119.672 118.968 149.65
109.034 118.608 151.126
109.64 118.991 149.867
110.058 119.308 151.511
114.8 119.591 150.638
114.44 118.739 151.509
113.526 119.5 150.93
115.774 118.438 151.415
117.024 118.661 151.102
118.391 118.798 150.647
110.844 120.04 150.552
112.218 119.84 151.03
117.798 107.188 146.515
116.517 106.633 146.983
117.527 106.22 146.954
118.671 106.149 146.855
119.699 107.733 146.713
120.256 106.388 147.019
121.161 108.427 147.273
121.453 107.091 147.834
122.306 108.795 148.311
122.797 107.855 148.981
113.829 108.811 147.011
112.735 108.374 147.571
113.826 107.55 147.396
114.964 107.245 147.184
115.926 108.197 146.574
117.616 108.43 146.321
122.339 110.217 148.249
123.138 110.085 149.388
111.758 110.412 147.535
110.752 110.135 148.295
111.742 109.146 147.872
123.076 112.103 150.106
109.565 112.06 148.263
108.368 111.922 149.801
109.682 110.633 149.122
122.764 113.548 150.743
108.17 113.262 149.358
106.769 114.059 150.697
107.164 112.778 151.093
122.242 114.385 151.733
107.208 114.881 149.998
106.528 116.062 151.979
121.478 114.885 152.812
121.144 116.654 151.341
107.397 116.934 152.801
116.733 117.573 152.068
115.713 116.521 152.865
115.317 117.487 152.201
118.14 117.823 151.905
117.29 116.559 152.688
119.458 118.143 151.084
118.972 116.881 152.359
120.28 116.599 152.395
108.733 118.177 152.273
111.412 118.86 151.794
110.306 118.175 152.593
112.871 118.769 151.53
112.374 117.992 152.328
114.109 117.727 152.285
117.349 105.173 147.259
116.071 104.34 147.752
117.216 103.962 147.642
118.32 103.835 147.419
119.265 105.113 147.262
120.178 103.963 147.598
120.993 105.36 147.681
121.879 104.503 148.724
122.254 106.256 148.527
123.02 106.144 149.685
113.845 106.404 147.859
112.515 106.659 148.333
113.167 105.07 148.653
114.462 104.591 148.108
115.523 105.767 147.535
123.38 107.764 149.934
111.742 107.971 148.296
110.685 107.832 149.881
111.508 106.948 149.242
123.549 108.995 150.556
123.592 110.436 150.708
123.983 108.709 151.961
110.273 109.018 148.918
109.001 110.357 150.22
109.742 108.864 150.712
123.672 111.506 151.472
123.877 110.024 152.344
108.016 111.473 151.375
123.372 111.479 152.76
123.019 112.745 151.882
106.273 114.458 152.411
107.234 112.292 152.495
122.351 113.416 152.872
107.069 115.465 153.779
117.852 115.772 153.359
116.598 114.582 154.533
116.359 115.534 153.675
119.355 115.736 153.219
118.277 114.975 154.132
120.756 115.639 152.763
119.9 114.545 153.934
121.097 113.801 153.607
108.139 116.31 153.916
111.785 117.118 153.099
110.964 116.132 154.009
110.269 117.059 153.309
113.154 116.868 153.085
112.182 115.694 153.904
114.475 116.75 153.014
113.658 115.718 153.869
115.115 115.614 153.734
108.991 117.319 153.229
117.119 102.82 147.948
116.007 101.996 148.59
117.093 101.645 148.296
118.124 101.512 148.055
119.036 102.691 147.65
120.009 101.668 148.125
120.848 102.908 148.12
121.682 102.028 149.22
121.803 103.197 148.835
122.522 103.4 149.749
115.433 103.431 148.357
114.172 103.097 149.122
115.147 102.611 148.87
123.109 104.88 150.181
123.794 106.24 150.967
124.001 105.007 151.832
111.968 105.736 149.202
110.984 106.453 150.475
112.167 104.637 150.187
113.354 104.003 149.203
124.005 107.546 151.365
124.221 106.743 152.565
110.242 107.718 151.768
124.12 108.147 153.327
108.625 109.939 151.838
109.529 108.674 152.601
123.799 109.887 153.682
108.357 111.034 153.159
123.477 110.843 153.814
122.658 112.067 153.778
106.764 113.714 153.615
107.886 112.061 154.077
120.411 112.935 154.358
119.489 111.96 155.148
119.19 113.445 154.618
121.647 112.777 153.772
121.239 111.929 154.872
107.852 114.206 154.664
108.866 115.033 154.62
110.743 114.984 154.653
109.572 114.124 155.068
112.442 114.656 154.391
111.252 113.968 155.177
113.958 114.486 154.46
112.839 113.574 155.125
115.365 114.751 154.321
114.758 113.726 154.991
116.418 113.616 155.153
118.093 113.968 154.746
109.553 116.053 154.276
116.848 100.51 148.602
115.937 100.041 149.198
116.984 99.338 148.884
118.042 99.2393 148.587
118.748 100.274 148.192
119.717 99.2295 148.653
120.463 100.542 148.585
121.267 99.5976 149.504
121.533 100.754 149.321
122.401 100.873 150.32
114.776 101.71 149.186
113.935 101.356 149.889
115.073 100.684 149.556
123.011 102.171 150.536
123.503 103.774 151.055
123.952 102.956 152.082
112.944 103.144 150.285
112.689 102.641 151.517
113.095 102.007 150.466
124.183 104.837 153.031
111.321 105.6 151.587
112.275 104.541 151.72
124.239 106.435 153.92
110.876 107.046 152.678
111.679 106.037 153.12
123.771 108.324 154.446
109.365 109.882 153.723
110.501 108.344 153.96
123.226 110.368 154.597
123.247 108.869 154.881
122.365 109.608 155.436
109.422 111.494 154.675
110.405 109.983 154.834
122.349 111.288 155.004
121.317 110.065 155.827
120.683 111.005 155.76
108.52 113.005 155.027
110.237 112.96 155.291
111.145 111.378 155.259
111.823 112.522 155.492
113.727 112.707 155.295
112.747 111.468 155.357
115.265 112.618 155.335
114.364 111.379 155.449
116.934 112.62 155.357
116.012 111.446 155.557
118.227 112.513 155.166
117.593 111.41 155.679
119.271 111.031 155.781
119.061 96.9774 149.107
117.952 96.3286 149.24
119.064 95.8942 149.378
120.12 95.8042 149.777
120.822 97.3931 149.859
121.339 96.4629 150.659
117.012 98.1115 149.072
115.683 98.2937 149.844
116.424 96.9411 149.573
118.816 98.1534 148.705
120.588 98.2703 149.415
122.077 97.9194 150.683
122.461 99.4121 150.652
123.254 98.4229 151.57
123.655 99.952 151.838
124.037 99.2489 152.874
115.028 99.8063 149.852
113.881 99.6329 150.668
114.413 98.484 150.613
123.552 101.204 151.402
124.025 101.343 152.844
113.258 100.852 150.81
112.807 100.254 151.819
113.41 99.7902 151.275
124.256 103.058 153.382
113.079 101.715 152.661
113.206 103.169 152.795
114.073 102.774 153.736
124.201 104.64 154.28
112.845 104.43 152.832
113.797 104.039 153.778
123.767 106.502 154.901
111.803 107.58 154.388
112.567 105.953 153.926
122.956 108.09 155.287
123.108 106.929 155.567
122.06 107.662 156.162
111.689 108.815 155.023
113.069 107.303 155.072
113.491 108.755 155.452
115.36 108.954 155.804
114.522 107.663 155.677
117.018 109.047 156.275
116.07 107.644 156.06
118.589 109.002 156.652
117.694 107.686 156.617
120.056 108.921 156.566
119.156 107.808 156.952
121.412 108.903 156.036
120.671 107.732 156.725
111.793 110.274 155.394
113.19 110.017 155.41
114.93 110.146 155.594
116.465 110.267 155.939
117.975 110.161 156.185
119.659 109.893 156.264
119.135 94.9092 149.923
117.502 94.5359 149.682
118.45 93.4122 149.869
119.987 93.5987 150.434
121.127 95.0296 150.962
121.524 93.6943 151.694
122.386 95.6446 151.759
122.568 94.7446 152.42
115.262 95.7514 150.484
114.02 95.1815 150.943
115.104 94.5681 150.722
116.074 94.3666 150.218
116.961 95.6848 149.647
122.48 96.9659 151.509
123.135 96.5802 152.738
123.514 97.679 152.5
123.859 97.549 153.787
113.501 96.9843 151.093
112.335 97.1269 152.286
112.794 95.9018 151.684
114.855 97.0756 150.507
124.403 99.6991 153.963
113.06 98.5623 151.549
112.438 98.3957 153.159
124.367 101.431 154.269
113.03 99.8026 153.197
113.168 100.868 152.948
113.923 101.18 153.912
124.026 102.964 154.845
114.762 104.035 154.796
114.614 102.249 154.569
115.654 102.981 155.564
123.82 104.757 155.327
113.713 105.16 154.29
115.171 105.374 155.566
115.901 104.296 156.041
123.107 106.118 155.893
122.915 104.756 156.19
122.006 105.565 156.628
113.759 106.266 154.927
115.173 106.515 155.725
116.538 105.292 156.396
116.961 106.533 156.54
118.73 106.687 157.121
117.84 105.365 157.075
120.272 106.626 157.192
119.375 105.283 157.257
121.72 106.636 156.686
120.769 105.283 157.075
116.797 91.9065 150.158
115.712 91.2812 150.544
116.68 90.5997 150.306
117.798 90.6251 150.468
118.641 92.132 150.168
119.35 90.8206 150.858
120.285 92.4209 150.83
120.714 91.4174 151.743
121.47 92.4635 151.989
122.165 92.372 153.517
115.03 93.2575 150.575
113.242 93.4577 151.523
114.389 92.2281 151.228
116.889 93.1199 149.845
122.552 93.7177 153.1
123.198 95.7038 153.328
123.345 95.5878 154.081
113.108 94.6239 151.461
111.556 95.4046 152.717
111.572 93.7952 152.557
124.021 97.6953 154.909
111.852 96.4465 154.064
124.118 99.4143 155.207
112.856 97.6846 154.371
113.754 99.3362 154.222
114.738 99.4218 155.263
114.055 98.1326 155.255
115.515 98.7382 156.135
124.035 101.025 155.514
114.722 100.734 155.024
115.654 100.178 156.062
123.413 102.191 155.956
122.872 100.534 156.392
122.34 101.586 156.725
116.878 103.062 156.62
115.706 101.605 155.901
118.261 102.898 157.202
117.093 101.814 156.855
118.554 101.434 157.379
121.973 103.037 156.781
121.152 101.362 156.944
120.564 102.626 157.133
123.18 103.562 155.92
117.212 104.295 156.874
118.607 104.106 157.133
119.432 102.485 157.37
120.214 103.925 157.209
121.763 104.279 156.747
116.934 89.4878 150.734
115.515 89.2661 150.971
116.5 87.9338 151.23
117.981 88.1257 151.492
118.735 89.4972 151.157
119.606 88.4517 152.174
120.284 89.9272 151.731
120.983 89.45 152.922
121.464 91.0103 152.781
121.835 90.7445 154.028
113.51 90.8979 151.998
112.469 90.4411 152.497
113.449 89.4921 152.071
114.294 89.1963 151.448
114.819 90.7439 151.054
122.596 92.4296 154.992
111.458 92.3176 153.066
110.119 91.9907 153.987
111.064 90.6727 153.075
112.898 92.3143 151.947
123.097 93.803 154.373
123.376 95.3063 155.009
110.636 94.0089 154.507
111.443 94.6468 154.704
123.527 96.4544 155.676
123.196 95.0364 155.878
122.611 95.8161 156.559
112.499 95.6795 155.245
113.664 96.962 155.411
115.348 97.501 156.492
114.215 95.8623 156.181
116.777 97.6867 156.872
115.689 96.0686 156.767
116.899 96.1862 156.931
123.237 97.7303 156.094
121.945 97.1098 156.734
116.909 98.9771 156.766
117.924 97.2015 156.777
118.565 98.5852 156.729
120.344 98.4442 156.554
119.135 97.1598 156.595
121.98 98.512 156.448
120.578 97.1404 156.633
123.185 99.3344 156.008
116.673 100.507 156.9
118.077 100.218 157.312
119.575 99.5482 156.852
121.424 99.8713 156.735
119.952 100.798 157.124
115.432 86.5315 151.844
114.364 86.0573 152.305
115.405 85.3958 152.183
116.659 85.52 152.343
117.384 86.6692 151.883
118.314 85.6815 152.869
119.006 87.0636 152.377
119.523 86.2364 153.76
120.226 87.6774 153.289
120.459 87.2376 154.749
113.783 88.0388 152.144
112.236 87.8798 152.773
113.264 86.9833 152.393
115.193 87.6729 151.41
120.956 88.8806 154.102
121.86 90.4614 155.189
111.953 89.5787 152.693
109.631 90.5473 154.556
110.975 89.122 153.007
122.014 91.6561 155.927
110.424 91.9205 155.564
122.656 93.9666 155.864
121.948 93.0646 156.445
110.91 93.2362 155.395
113.275 94.7831 156.181
112.273 93.8537 156.066
115.096 94.928 157.043
114.056 93.6899 156.882
116.764 94.966 157.218
115.646 93.5648 157.359
118.683 94.6731 157.164
117.348 93.542 157.369
120.226 94.5656 157.066
119.062 93.2434 157.357
121.753 94.4482 156.827
120.614 93.1773 157.256
118.22 95.6733 156.778
119.627 95.8668 156.656
121.107 95.8073 156.732
115.485 84.4825 152.853
113.97 84.2362 153.06
115.079 83.4031 153.372
116.497 83.3067 153.842
117.321 84.537 153.192
118.002 83.7575 154.684
118.664 84.894 154.235
119.021 84.5914 156.033
113.146 86.0206 152.795
111.87 86.2395 153.285
112.873 84.9683 153.173
119.526 85.6623 155.237
120.264 86.9847 156.074
109.171 89.0709 153.673
107.769 88.5546 154.89
109.288 87.6064 153.751
110.586 86.8059 153.629
110.55 88.4092 153.103
121.268 88.9668 155.5
120.717 88.6477 156.433
108.511 90.4048 155.234
111.323 91.4495 156.496
110.199 90.3492 156.49
113.068 91.5026 157.206
112.075 90.3629 157.215
113.756 90.1035 157.673
121.222 90.3122 156.432
120.344 90.2572 157.381
111.833 92.6767 156.365
113.388 92.6845 156.981
114.587 91.0448 157.591
115.195 92.1829 157.498
116.781 92.2822 157.659
116.042 90.5853 157.758
118.44 92.1662 157.494
117.399 90.7306 157.841
120.335 91.7467 157.463
118.997 90.8004 157.62
121.512 92.0469 156.923
114.524 82.4111 153.848
113.019 82.1185 153.943
113.523 80.6098 155.01
115.009 81.1294 154.889
116.215 82.3975 154.68
116.498 81.6405 156.047
112.786 83.7458 153.446
111.432 83.1692 153.995
112.252 82.5034 154.045
117.694 82.9257 155.648
118.367 83.6736 156.9
109.122 86.2523 154.1
107.342 86.8893 154.962
108.515 85.1397 154.352
109.88 84.3193 154.127
111.179 85.19 153.723
119.544 86.3424 157.139
118.963 85.386 157.76
108.191 88.1989 156.72
108.589 89.5869 156.423
110.1 88.9174 157.082
110.28 87.7246 157.568
111.619 87.9812 157.967
118.848 87.851 158.17
118.374 86.7417 158.585
117.148 87.96 158.733
119.982 87.8838 157.242
111.735 89.162 157.401
115.351 89.4902 158.06
113.505 88.9569 158.008
117.277 89.0991 158.17
115.356 88.5049 158.516
118.467 89.6032 157.866
119.662 89.1222 157.548
112.123 81.2808 154.784
111.002 81.115 155.084
112.097 79.4925 155.96
113.853 79.8346 156.318
115.201 80.5641 156.494
116.224 81.3149 157.81
108.293 84.0341 154.682
107.504 83.3048 155.085
108.57 82.138 155.092
109.685 81.7054 154.959
110.255 82.6676 154.357
117.28 82.4293 157.315
117.983 84.019 158.201
106.532 85.9419 155.198
105.943 85.779 156.982
106.427 84.1585 155.337
117.766 85.7834 158.687
117.285 84.4697 158.87
116.47 85.3075 159.196
107.051 87.3804 156.797
108.514 86.8734 157.733
109.908 86.7472 158.093
113.06 87.9624 158.554
111.647 86.6024 158.555
114.729 87.6329 158.929
113.297 86.5115 159.121
116.369 86.9951 158.998
115.019 86.0762 159.336
108.839 80.359 155.614
107.649 80.6299 155.636
108.646 78.3939 156.437
110.364 78.6605 156.378
110.456 80.097 155.521
111.931 78.7305 157.526
113.219 79.2532 157.584
114.568 80.1494 158.062
115.637 81.2391 159.061
105.965 83.3972 156.312
105.224 82.219 157.085
105.737 81.4278 156.306
106.53 80.9175 155.883
106.832 82.8459 155.415
116.961 83.0951 158.919
115.981 82.9261 159.623
105.863 84.0658 158.052
107.655 86.2019 158.135
107.139 84.7701 158.784
109.417 85.6888 158.653
108.569 84.808 159.34
111.036 85.6426 159.119
110.08 84.5799 159.872
112.61 85.3066 159.441
111.367 84.5826 160.331
114.119 85.1222 159.648
112.598 84.1491 160.647
115.77 84.4053 159.529
114.332 83.9633 160.269
105.752 79.4087 156.474
104.124 78.2999 157.682
105.916 77.4976 158.116
107.198 77.9171 157.361
107.222 79.0884 156.048
108.935 78.272 158.218
110.239 78.422 157.996
111.461 78.7396 158.989
112.852 79.2743 159.18
114.256 80.6798 159.442
113.572 80.6618 160.305
104.61 80.4962 157.029
104.169 81.5107 158.301
103.356 79.5447 158.412
114.014 82.6274 160.578
112.966 81.5405 160.994
112.425 83.036 161.359
115.16 82.3341 159.97
104.978 82.5647 158.677
105.609 83.0163 159.668
106.611 83.6967 159.859
107.903 83.9003 160.371
109.402 83.9943 160.781
110.837 83.5153 161.555
104.553 77.629 159.34
106.137 77.944 160.078
107.255 78.1778 159.611
108.423 78.5581 159.451
109.983 79.0754 159.659
111.204 79.782 160.39
110.424 80.6039 161.31
112.375 80.207 160.629
104.172 81.0949 159.747
103.91 78.9662 159.96
111.517 81.7538 161.722
110.159 82.2358 162.128
105.038 81.3407 160.253
106.103 82.4982 160.924
107.414 82.8469 161.36
108.941 82.9915 161.728
105.377 79.1931 160.955
106.724 79.5922 161.044
107.879 79.7032 160.8
109.187 79.8253 160.71
105.37 80.8213 161.016
106.486 81.3096 161.693
107.821 81.5553 161.883
109.025 81.1918 161.877
POLYGONS 1460  5840
3 0 1 2
3 0 3 4
3 2 3 0
3 4 5 6
3 3 5 4
3 5 7 6
3 8 1 0
3 9 1 8
3 4 10 0
3 10 8 0
3 6 11 4
3 11 10 4
3 12 6 7
3 11 6 12
3 13 14 15
3 9 13 15
3 9 8 13
3 8 16 13
3 10 17 8
3 17 16 8
3 11 18 10
3 18 17 10
3 19 11 12
3 18 11 19
3 20 14 13
3 21 14 20
3 16 22 13
3 22 20 13
3 23 17 24
3 23 22 17
3 22 16 17
3 18 24 17
3 25 24 18
3 19 25 18
3 20 26 21
3 22 26 20
3 27 26 22
3 23 27 22
3 28 29 30
3 28 31 32
3 30 31 28
3 32 33 34
3 31 33 32
3 34 35 36
3 33 35 34
3 35 37 36
3 38 39 40
3 29 38 40
3 28 38 29
3 28 1 38
3 28 2 1
3 3 2 28
3 32 3 28
3 5 3 32
3 34 5 32
3 7 5 34
3 7 34 41
3 41 34 36
3 42 36 37
3 41 36 42
3 43 44 45
3 39 43 45
3 39 38 43
3 38 46 43
3 1 9 46
3 38 1 46
3 41 47 12
3 7 41 12
3 48 41 42
3 47 41 48
3 49 44 43
3 50 44 49
3 15 14 49
3 15 49 46
3 46 49 43
3 9 15 46
3 47 51 52
3 47 52 12
3 12 52 19
3 48 51 47
3 53 50 49
3 54 50 53
3 14 21 53
3 49 14 53
3 55 56 57
3 55 23 24
3 55 24 56
3 56 24 58
3 25 59 24
3 24 59 58
3 52 25 19
3 59 25 52
3 53 60 54
3 21 60 53
3 21 26 60
3 26 61 60
3 57 27 55
3 57 61 27
3 61 26 27
3 23 55 27
3 62 63 64
3 62 65 66
3 64 65 62
3 65 67 66
3 68 69 70
3 68 71 72
3 70 71 68
3 72 73 74
3 71 73 72
3 63 74 73
3 63 62 74
3 62 75 74
3 66 76 62
3 76 75 62
3 77 66 67
3 77 78 66
3 78 76 66
3 77 79 78
3 80 81 82
3 69 80 82
3 69 68 80
3 68 83 80
3 30 29 83
3 30 83 72
3 72 83 68
3 31 30 72
3 74 31 72
3 33 31 74
3 75 33 74
3 35 33 75
3 76 35 75
3 37 35 76
3 37 76 84
3 84 76 78
3 85 78 79
3 84 78 85
3 86 87 88
3 81 86 88
3 81 80 86
3 80 89 86
3 40 39 89
3 40 89 83
3 83 89 80
3 29 40 83
3 84 90 42
3 37 84 42
3 91 84 85
3 90 84 91
3 92 87 86
3 93 87 92
3 45 44 92
3 45 92 89
3 89 92 86
3 39 45 89
3 90 94 95
3 90 95 42
3 42 95 48
3 91 94 90
3 96 97 98
3 93 96 98
3 93 92 96
3 92 99 96
3 44 50 99
3 92 44 99
3 51 100 101
3 52 51 101
3 95 51 48
3 100 51 95
3 96 102 97
3 102 103 104
3 102 96 103
3 96 99 103
3 50 54 103
3 99 50 103
3 105 106 107
3 105 57 56
3 105 56 106
3 106 56 108
3 58 109 56
3 56 109 108
3 59 110 58
3 58 110 109
3 101 59 52
3 110 59 101
3 103 111 104
3 54 111 103
3 54 60 111
3 60 112 111
3 107 61 105
3 107 112 61
3 112 60 61
3 57 105 61
3 113 114 115
3 113 116 117
3 115 116 113
3 117 118 119
3 116 118 117
3 119 120 121
3 118 120 119
3 120 122 121
3 123 124 125
3 123 126 127
3 125 126 123
3 114 127 126
3 114 113 127
3 113 128 127
3 64 63 128
3 64 128 117
3 117 128 113
3 65 64 117
3 119 65 117
3 67 65 119
3 67 119 129
3 129 119 121
3 130 121 122
3 129 121 130
3 131 132 133
3 124 131 133
3 123 131 124
3 123 69 131
3 123 70 69
3 71 70 123
3 127 71 123
3 73 71 127
3 128 73 127
3 63 73 128
3 67 129 77
3 129 79 77
3 129 130 79
3 130 134 79
3 135 136 137
3 132 135 137
3 131 135 132
3 131 81 135
3 131 82 81
3 69 82 131
3 79 134 85
3 134 138 85
3 139 140 141
3 136 139 141
3 135 139 136
3 135 87 139
3 135 88 87
3 81 88 135
3 85 138 91
3 138 142 91
3 143 140 139
3 144 140 143
3 87 93 143
3 139 87 143
3 94 145 146
3 95 94 146
3 142 94 91
3 145 94 142
3 98 144 143
3 98 97 144
3 97 147 144
3 93 98 143
3 148 149 150
3 148 151 152
3 149 148 152
3 151 153 154
3 152 151 154
3 153 101 100
3 153 100 154
3 154 100 155
3 146 100 95
3 155 100 146
3 97 156 147
3 102 156 97
3 104 157 158
3 104 158 102
3 102 158 156
3 157 159 160
3 158 157 160
3 159 107 106
3 159 106 160
3 160 106 161
3 150 108 148
3 150 161 108
3 161 106 108
3 109 148 108
3 151 148 109
3 110 151 109
3 153 151 110
3 101 153 110
3 104 111 157
3 112 157 111
3 159 157 112
3 107 159 112
3 162 163 164
3 162 165 166
3 164 165 162
3 166 167 168
3 165 167 166
3 168 169 170
3 167 169 168
3 169 171 170
3 172 173 174
3 172 175 176
3 174 175 172
3 163 176 175
3 162 176 163
3 162 114 176
3 162 115 114
3 116 115 162
3 166 116 162
3 118 116 166
3 168 118 166
3 120 118 168
3 170 120 168
3 170 122 120
3 170 171 122
3 171 177 122
3 178 179 180
3 173 178 180
3 172 178 173
3 172 124 178
3 172 125 124
3 126 125 172
3 176 126 172
3 114 126 176
3 181 182 130
3 181 130 177
3 177 130 122
3 181 183 182
3 184 185 186
3 179 184 186
3 178 184 179
3 178 132 184
3 178 133 132
3 124 133 178
3 182 187 134
3 130 182 134
3 188 182 183
3 187 182 188
3 137 185 184
3 137 136 185
3 136 189 185
3 132 137 184
3 187 190 191
3 187 191 134
3 134 191 138
3 188 190 187
3 141 192 193
3 140 192 141
3 189 136 141
3 193 189 141
3 138 191 142
3 191 194 142
3 140 144 192
3 192 144 195
3 196 197 198
3 196 199 200
3 197 196 200
3 199 201 202
3 200 199 202
3 201 146 145
3 201 145 202
3 202 145 203
3 194 145 142
3 203 145 194
3 144 147 195
3 195 147 204
3 205 206 207
3 205 208 209
3 206 205 209
3 208 210 211
3 209 208 211
3 210 150 149
3 210 149 211
3 211 149 212
3 198 152 196
3 198 212 152
3 212 149 152
3 154 196 152
3 199 196 154
3 155 199 154
3 201 199 155
3 146 201 155
3 147 213 204
3 156 213 147
3 207 158 205
3 207 213 158
3 213 156 158
3 160 205 158
3 208 205 160
3 161 208 160
3 210 208 161
3 150 210 161
3 214 215 216
3 214 217 218
3 216 217 214
3 218 219 220
3 217 219 218
3 220 221 222
3 219 221 220
3 221 223 222
3 224 225 226
3 215 224 226
3 214 224 215
3 214 163 224
3 214 164 163
3 165 164 214
3 218 165 214
3 167 165 218
3 220 167 218
3 169 167 220
3 222 169 220
3 171 227 228
3 169 227 171
3 169 223 227
3 169 222 223
3 227 229 228
3 230 231 232
3 230 174 173
3 230 232 174
3 232 233 174
3 225 224 175
3 225 175 233
3 233 175 174
3 163 175 224
3 228 234 177
3 171 228 177
3 235 228 229
3 234 228 235
3 180 231 230
3 180 179 231
3 179 236 231
3 173 180 230
3 177 234 181
3 234 183 181
3 234 235 183
3 235 237 183
3 186 238 239
3 185 238 186
3 236 179 186
3 239 236 186
3 183 237 188
3 237 240 188
3 185 189 238
3 238 189 241
3 190 242 243
3 191 190 243
3 240 190 188
3 242 190 240
3 193 244 245
3 192 244 193
3 241 189 193
3 245 241 193
3 246 247 248
3 246 249 250
3 247 246 250
3 249 243 250
3 249 194 243
3 194 191 243
3 251 195 252
3 251 244 195
3 244 192 195
3 252 253 254
3 251 252 254
3 253 255 256
3 254 253 256
3 255 257 258
3 256 255 258
3 257 259 260
3 258 257 260
3 259 198 197
3 259 197 260
3 260 197 261
3 200 262 197
3 197 262 261
3 248 202 246
3 248 262 202
3 262 200 202
3 203 246 202
3 249 246 203
3 194 249 203
3 252 204 263
3 195 204 252
3 206 263 207
3 206 253 263
3 253 252 263
3 209 253 206
3 255 253 209
3 211 255 209
3 257 255 211
3 212 257 211
3 259 257 212
3 198 259 212
3 204 213 263
3 207 263 213
3 264 265 266
3 264 267 268
3 266 267 264
3 268 269 270
3 267 269 268
3 270 271 272
3 269 271 270
3 271 273 272
3 274 275 276
3 265 274 276
3 264 274 265
3 264 215 274
3 264 216 215
3 217 216 264
3 268 217 264
3 219 217 268
3 270 219 268
3 221 219 270
3 272 221 270
3 223 277 278
3 221 277 223
3 221 273 277
3 221 272 273
3 277 279 278
3 280 281 282
3 275 280 282
3 274 280 275
3 274 225 280
3 274 226 225
3 215 226 274
3 223 278 227
3 278 229 227
3 278 279 229
3 279 283 229
3 232 231 284
3 280 285 281
3 280 232 285
3 280 233 232
3 284 285 232
3 225 233 280
3 229 283 235
3 283 286 235
3 284 287 288
3 284 231 287
3 231 236 287
3 285 284 288
3 235 286 237
3 286 289 237
3 239 238 290
3 239 290 291
3 239 291 236
3 236 291 287
3 292 293 294
3 292 289 293
3 292 240 289
3 240 237 289
3 290 241 295
3 238 241 290
3 296 291 290
3 295 296 290
3 297 298 299
3 294 298 297
3 292 294 297
3 292 297 243
3 292 243 242
3 240 292 242
3 245 244 300
3 245 295 241
3 245 300 295
3 300 301 295
3 302 296 295
3 302 295 303
3 303 295 301
3 303 304 305
3 302 303 305
3 304 306 307
3 305 304 307
3 306 308 309
3 307 306 309
3 308 310 311
3 309 308 311
3 310 248 247
3 310 247 311
3 311 247 312
3 299 250 297
3 299 312 250
3 312 247 250
3 243 297 250
3 244 251 300
3 254 300 251
3 301 300 254
3 256 301 254
3 303 301 256
3 258 303 256
3 304 303 258
3 260 304 258
3 306 304 260
3 261 306 260
3 308 306 261
3 262 308 261
3 310 308 262
3 248 310 262
3 313 314 315
3 313 316 317
3 315 316 313
3 316 318 317
3 319 320 321
3 314 319 321
3 314 313 319
3 313 322 319
3 317 323 313
3 323 322 313
3 324 317 318
3 324 325 317
3 325 323 317
3 325 326 327
3 324 326 325
3 326 328 327
3 329 330 331
3 320 329 331
3 319 329 320
3 319 265 329
3 319 266 265
3 267 266 319
3 322 267 319
3 269 267 322
3 323 269 322
3 271 269 323
3 325 271 323
3 273 271 325
3 273 325 332
3 332 325 327
3 333 327 328
3 332 327 333
3 334 335 336
3 330 334 336
3 329 334 330
3 329 275 334
3 329 276 275
3 265 276 329
3 273 332 277
3 332 279 277
3 332 333 279
3 333 337 279
3 338 281 339
3 338 335 281
3 282 281 334
3 334 281 335
3 282 334 275
3 339 340 338
3 279 337 283
3 337 341 283
3 339 342 343
3 339 281 342
3 281 285 342
3 340 339 343
3 283 341 286
3 341 344 286
3 288 287 345
3 288 345 346
3 288 346 285
3 285 346 342
3 347 348 349
3 347 344 348
3 347 289 344
3 289 286 344
3 345 291 350
3 287 291 345
3 351 346 345
3 351 345 352
3 352 345 350
3 352 353 354
3 351 352 354
3 353 355 356
3 354 353 356
3 355 357 358
3 356 355 358
3 357 359 360
3 358 357 360
3 359 361 362
3 360 359 362
3 349 362 361
3 347 349 361
3 347 361 294
3 347 294 293
3 289 347 293
3 350 296 363
3 291 296 350
3 352 350 364
3 364 350 363
3 353 352 365
3 365 352 364
3 355 353 366
3 366 353 365
3 357 355 367
3 367 355 366
3 359 357 368
3 368 357 367
3 298 368 299
3 298 361 368
3 361 359 368
3 294 361 298
3 296 302 363
3 305 363 302
3 364 363 305
3 307 364 305
3 365 364 307
3 309 365 307
3 366 365 309
3 311 366 309
3 367 366 311
3 312 367 311
3 368 367 312
3 299 368 312
3 369 370 371
3 369 372 373
3 371 372 369
3 373 374 375
3 372 374 373
3 374 376 375
3 377 378 379
3 377 380 381
3 379 380 377
3 370 381 380
3 369 381 370
3 369 314 381
3 369 315 314
3 316 315 369
3 373 316 369
3 318 316 373
3 318 373 382
3 382 373 375
3 383 375 376
3 383 384 375
3 384 382 375
3 383 385 384
3 386 387 388
3 378 386 388
3 378 377 386
3 377 389 386
3 321 320 389
3 321 389 381
3 381 389 377
3 314 321 381
3 318 382 324
3 326 324 382
3 384 326 382
3 384 328 326
3 384 385 328
3 385 390 328
3 391 387 386
3 392 387 391
3 331 330 391
3 331 391 389
3 389 391 386
3 320 331 389
3 328 390 333
3 390 393 333
3 394 335 395
3 394 392 335
3 336 335 391
3 391 335 392
3 336 391 330
3 395 396 394
3 333 393 337
3 393 397 337
3 335 338 395
3 340 398 399
3 338 340 399
3 338 399 396
3 338 396 395
3 399 398 400
3 337 397 341
3 397 401 341
3 343 342 402
3 343 398 340
3 343 402 398
3 402 403 398
3 404 400 398
3 403 404 398
3 405 406 407
3 405 401 406
3 405 344 401
3 344 341 401
3 402 346 408
3 342 346 402
3 403 402 409
3 409 402 408
3 410 404 403
3 410 403 411
3 411 403 409
3 411 412 413
3 410 411 413
3 412 414 415
3 413 412 415
3 414 416 417
3 415 414 417
3 407 417 416
3 405 407 416
3 405 416 349
3 405 349 348
3 344 405 348
3 346 351 408
3 354 408 351
3 409 408 354
3 356 409 354
3 411 409 356
3 358 411 356
3 412 411 358
3 360 412 358
3 414 412 360
3 362 414 360
3 416 414 362
3 349 416 362
3 418 419 420
3 418 421 422
3 420 421 418
3 422 423 424
3 421 423 422
3 424 425 426
3 423 425 424
3 425 427 426
3 428 429 430
3 419 428 430
3 419 418 428
3 418 431 428
3 371 370 431
3 371 431 422
3 422 431 418
3 372 371 422
3 424 372 422
3 374 372 424
3 426 374 424
3 376 432 433
3 374 432 376
3 374 427 432
3 374 426 427
3 432 434 433
3 435 436 437
3 429 435 437
3 428 435 429
3 428 378 435
3 428 379 378
3 380 379 428
3 431 380 428
3 370 380 431
3 376 433 383
3 433 385 383
3 433 434 385
3 434 438 385
3 388 436 435
3 388 387 436
3 387 439 436
3 378 388 435
3 385 438 390
3 438 440 390
3 441 392 442
3 441 439 392
3 439 387 392
3 442 443 444
3 441 442 444
3 444 443 445
3 390 440 393
3 440 446 393
3 392 394 442
3 396 442 394
3 396 447 442
3 447 443 442
3 448 445 443
3 447 448 443
3 449 450 451
3 449 446 450
3 449 397 446
3 397 393 446
3 396 399 447
3 400 452 453
3 399 400 453
3 399 453 448
3 399 448 447
3 452 454 455
3 453 452 455
3 455 454 456
3 457 458 459
3 451 458 457
3 451 457 449
3 449 457 460
3 397 460 401
3 449 460 397
3 452 404 461
3 400 404 452
3 454 452 462
3 462 452 461
3 463 456 454
3 463 454 464
3 464 454 462
3 459 463 464
3 459 464 457
3 457 464 465
3 406 465 407
3 406 460 465
3 460 457 465
3 401 460 406
3 404 410 461
3 413 461 410
3 462 461 413
3 415 462 413
3 464 462 415
3 417 464 415
3 465 464 417
3 407 465 417
3 466 467 468
3 466 469 470
3 468 469 466
3 470 471 472
3 469 471 470
3 472 473 474
3 471 473 472
3 473 475 474
3 476 477 478
3 476 479 480
3 478 479 476
3 467 480 479
3 466 480 467
3 466 419 480
3 466 420 419
3 421 420 466
3 470 421 466
3 423 421 470
3 472 423 470
3 425 423 472
3 474 425 472
3 474 427 425
3 474 475 427
3 475 481 427
3 482 483 484
3 477 482 484
3 477 476 482
3 476 485 482
3 430 429 485
3 430 485 480
3 480 485 476
3 419 430 480
3 427 481 486
3 432 427 486
3 486 434 432
3 487 434 486
3 482 488 483
3 437 436 489
3 437 489 482
3 437 482 485
3 482 489 488
3 429 437 485
3 490 491 492
3 490 487 491
3 490 438 487
3 438 434 487
3 493 439 494
3 493 489 439
3 489 436 439
3 494 495 496
3 493 494 496
3 495 497 498
3 496 495 498
3 498 497 499
3 500 490 492
3 501 500 492
3 438 500 440
3 490 500 438
3 439 441 494
3 444 494 441
3 495 494 444
3 445 495 444
3 445 502 495
3 502 497 495
3 503 499 497
3 503 497 504
3 504 497 502
3 504 505 506
3 503 504 506
3 505 507 508
3 506 505 508
3 501 508 507
3 501 507 500
3 500 507 509
3 440 509 446
3 500 509 440
3 502 448 510
3 445 448 502
3 504 502 511
3 511 502 510
3 505 504 512
3 512 504 511
3 507 505 513
3 513 505 512
3 450 513 451
3 450 509 513
3 509 507 513
3 446 509 450
3 448 453 510
3 455 510 453
3 511 510 455
3 456 511 455
3 456 514 511
3 514 512 511
3 458 514 459
3 458 513 514
3 513 512 514
3 451 513 458
3 456 463 514
3 459 514 463
3 515 516 517
3 515 518 519
3 517 518 515
3 519 520 521
3 518 520 519
3 521 522 523
3 520 522 521
3 522 524 523
3 525 526 527
3 516 525 527
3 516 515 525
3 515 528 525
3 468 467 528
3 468 528 519
3 519 528 515
3 469 468 519
3 521 469 519
3 471 469 521
3 523 471 521
3 523 524 529
3 523 529 471
3 471 529 473
3 529 475 473
3 530 475 529
3 531 532 533
3 526 531 533
3 525 531 526
3 525 477 531
3 525 478 477
3 479 478 525
3 528 479 525
3 467 479 528
3 475 530 481
3 530 534 481
3 484 532 531
3 484 483 532
3 483 535 532
3 477 484 531
3 536 486 481
3 536 481 537
3 537 481 534
3 486 536 487
3 483 538 535
3 488 538 483
3 489 539 540
3 489 540 488
3 488 540 538
3 539 541 542
3 540 539 542
3 541 543 544
3 542 541 544
3 543 545 546
3 544 543 546
3 545 547 548
3 546 545 548
3 547 549 550
3 548 547 550
3 537 550 549
3 536 537 549
3 536 549 492
3 536 492 491
3 487 536 491
3 489 493 539
3 496 539 493
3 541 539 496
3 498 541 496
3 543 541 498
3 499 543 498
3 499 551 543
3 551 545 543
3 547 545 552
3 552 545 551
3 549 547 553
3 553 547 552
3 492 553 501
3 549 553 492
3 499 503 551
3 506 551 503
3 552 551 506
3 508 552 506
3 553 552 508
3 501 553 508
3 554 555 556
3 554 557 558
3 556 557 554
3 558 559 560
3 557 559 558
3 559 561 560
3 562 563 564
3 555 562 564
3 554 562 555
3 554 516 562
3 554 517 516
3 518 517 554
3 558 518 554
3 520 518 558
3 560 520 558
3 560 561 565
3 560 565 520
3 520 565 522
3 565 524 522
3 566 524 565
3 567 568 569
3 567 570 571
3 569 570 567
3 563 571 570
3 562 571 563
3 562 526 571
3 562 527 526
3 516 527 562
3 572 529 524
3 572 524 573
3 573 524 566
3 529 572 530
3 567 574 568
3 571 532 567
3 571 533 532
3 567 532 574
3 575 576 532
3 574 532 576
3 575 577 578
3 575 578 576
3 571 526 533
3 578 577 579
3 580 572 573
3 581 580 573
3 530 580 534
3 572 580 530
3 575 535 582
3 532 535 575
3 577 575 583
3 583 575 582
3 584 579 577
3 584 577 585
3 585 577 583
3 585 586 587
3 584 585 587
3 586 588 589
3 587 586 589
3 588 590 591
3 589 588 591
3 581 591 590
3 581 590 580
3 580 590 592
3 534 592 537
3 580 592 534
3 535 538 582
3 540 582 538
3 583 582 540
3 542 583 540
3 585 583 542
3 544 585 542
3 586 585 544
3 546 586 544
3 588 586 546
3 548 588 546
3 590 588 548
3 550 590 548
3 592 590 550
3 537 592 550
3 593 594 595
3 593 596 597
3 595 596 593
3 596 598 597
3 599 600 601
3 594 599 601
3 593 599 594
3 593 555 599
3 593 556 555
3 557 556 593
3 597 557 593
3 597 598 602
3 597 602 557
3 557 602 559
3 602 561 559
3 603 561 602
3 604 605 606
3 604 607 608
3 606 607 604
3 600 608 607
3 599 608 600
3 599 563 608
3 599 564 563
3 555 564 599
3 609 565 561
3 609 561 610
3 610 561 603
3 565 609 566
3 611 568 612
3 611 605 568
3 569 568 604
3 604 568 605
3 613 614 611
3 613 611 612
3 608 570 604
3 604 570 569
3 570 608 563
3 613 615 614
3 616 617 618
3 610 617 616
3 610 616 609
3 609 616 619
3 566 619 573
3 609 619 566
3 568 574 612
3 576 612 574
3 613 612 576
3 613 620 615
3 613 576 620
3 576 578 620
3 579 621 622
3 579 622 578
3 578 622 620
3 621 623 624
3 622 621 624
3 618 624 623
3 618 623 616
3 616 623 625
3 619 616 626
3 626 616 625
3 573 626 581
3 619 626 573
3 579 584 621
3 587 621 584
3 623 621 587
3 589 623 587
3 625 623 589
3 591 625 589
3 626 625 591
3 581 626 591
3 627 628 629
3 627 595 594
3 627 629 595
3 629 630 595
3 596 595 631
3 595 630 631
3 631 598 596
3 632 598 631
3 633 634 635
3 633 636 637
3 635 636 633
3 628 637 636
3 627 637 628
3 627 600 637
3 627 601 600
3 594 601 627
3 598 632 638
3 602 598 638
3 638 603 602
3 639 603 638
3 640 641 642
3 634 640 642
3 633 640 634
3 633 605 640
3 633 606 605
3 607 606 633
3 637 607 633
3 600 607 637
3 643 644 645
3 643 639 644
3 643 610 639
3 610 603 639
3 640 646 641
3 605 646 640
3 605 611 646
3 611 647 646
3 614 648 611
3 611 648 647
3 615 649 650
3 615 650 614
3 614 650 648
3 649 651 652
3 650 649 652
3 651 653 654
3 652 651 654
3 645 654 653
3 643 645 653
3 643 653 618
3 643 618 617
3 610 643 617
3 615 620 649
3 622 649 620
3 651 649 622
3 624 651 622
3 653 651 624
3 618 653 624
3 655 656 657
3 655 658 659
3 657 658 655
3 659 629 628
3 659 658 629
3 658 660 629
3 630 629 661
3 629 660 661
3 631 630 662
3 630 661 662
3 662 632 631
3 663 632 662
3 664 665 666
3 664 667 668
3 666 667 664
3 656 668 667
3 655 668 656
3 655 634 668
3 655 635 634
3 636 635 655
3 659 636 655
3 628 636 659
3 669 638 632
3 669 632 670
3 670 632 663
3 638 669 639
3 664 671 665
3 668 641 664
3 668 642 641
3 664 641 671
3 672 673 641
3 671 641 673
3 672 674 675
3 672 675 673
3 668 634 642
3 674 676 677
3 675 674 677
3 676 678 679
3 677 676 679
3 678 680 681
3 679 678 681
3 680 682 683
3 681 680 683
3 670 683 682
3 669 670 682
3 669 682 645
3 669 645 644
3 639 669 644
3 641 646 672
3 647 672 646
3 674 672 647
3 648 674 647
3 676 674 648
3 650 676 648
3 678 676 650
3 652 678 650
3 680 678 652
3 654 680 652
3 682 680 654
3 645 682 654
3 684 685 686
3 684 687 688
3 686 687 684
3 688 657 656
3 688 687 657
3 687 689 657
3 658 657 690
3 657 689 690
3 660 658 691
3 658 690 691
3 661 660 692
3 660 691 692
3 693 692 694
3 693 662 692
3 662 661 692
3 662 693 663
3 695 696 697
3 685 695 697
3 684 695 685
3 684 665 695
3 684 666 665
3 667 666 684
3 688 667 684
3 656 667 688
3 698 699 700
3 694 699 698
3 694 698 693
3 693 698 701
3 663 701 670
3 693 701 663
3 695 702 696
3 665 702 695
3 665 671 702
3 671 703 702
3 673 704 671
3 671 704 703
3 675 705 673
3 673 705 704
3 677 706 675
3 675 706 705
3 679 707 677
3 677 707 706
3 700 681 698
3 700 707 681
3 707 679 681
3 683 698 681
3 701 698 683
3 670 701 683
3 686 708 709
3 685 708 686
3 687 686 710
3 686 709 710
3 689 687 711
3 687 710 711
3 690 689 712
3 689 711 712
3 713 712 714
3 713 691 712
3 691 690 712
3 691 715 692
3 713 715 691
3 692 715 694
3 697 696 716
3 697 716 717
3 697 717 685
3 685 717 708
3 718 713 714
3 719 718 714
3 699 718 700
3 699 715 718
3 715 713 718
3 694 715 699
3 696 702 716
3 716 720 717
3 716 702 720
3 702 703 720
3 704 721 703
3 703 721 720
3 705 722 704
3 704 722 721
3 706 723 705
3 705 723 722
3 719 707 718
3 719 723 707
3 723 706 707
3 700 718 707
3 709 708 724
3 709 725 710
3 724 725 709
3 710 726 711
3 725 726 710
3 711 727 712
3 726 727 711
3 712 727 714
3 724 717 728
3 708 717 724
3 725 724 729
3 729 724 728
3 726 725 730
3 730 725 729
3 727 726 731
3 731 726 730
3 714 731 719
3 727 731 714
3 717 720 728
3 721 728 720
3 729 728 721
3 722 729 721
3 730 729 722
3 723 730 722
3 731 730 723
3 719 731 723
