# vtk DataFile Version 3.0
this file was written using fslvtkio
ASCII
DATASET POLYDATA
POINTS 642 float
85.1207 122.745 172.572
74.0968 119.98 171.432
70.8251 109.796 167.967
79.6373 113.852 169.376
80.0439 115.854 175.682
81.5802 118.326 165.341
74.5638 116.393 166.14
74.6342 114.015 174.944
78.9778 124.165 177.54
74.8602 105.911 171.543
75.4446 108.164 164.535
79.6887 125.692 170.081
76.9049 119.224 177.004
80.5877 120.256 177.89
77.1509 114.144 177.124
73.8815 109.005 174.195
77.0809 110.991 173.523
76.9319 121.678 167.604
77.9266 117.348 165.75
81.4426 122.355 168.485
74.093 111.697 163.965
78.3727 113.116 164.802
79.9625 114.662 172.437
83.106 119.919 175.104
83.31 118.04 170.431
81.5662 115.926 167.048
84.3661 121.182 168.249
74.0081 117.244 173.554
72.1687 110.833 171.696
71.8001 114.921 169.397
73.5855 119.254 168.127
71.3686 112.573 165.346
84.1217 127.152 171.426
82.9497 125.374 175.866
79.9292 126.668 174.252
76.2309 123.885 170.74
76.3564 122.579 174.597
77.846 109.61 166.759
74.0922 104.639 167.07
77.33 108.808 169.981
71.2458 106.709 164.476
71.6269 105.578 169.721
78.5102 119.795 178.37
78.8905 117.141 177.985
76.9606 116.76 177.683
78.7111 114.91 176.622
80.5243 117.713 177.132
79.9041 122.386 178.208
77.9095 121.748 177.547
75.7255 116.663 176.118
75.6964 114.104 176.46
75.5008 111.606 175.9
77.3813 112.41 175.564
75.6669 109.645 174.36
78.6435 113.494 174.665
74.2697 111.521 174.572
74.1923 106.896 173.214
76.0476 108.265 172.557
77.6435 119.672 166.696
79.686 120.413 166.629
79.1889 122.089 168.065
81.5501 120.574 166.664
79.7103 118.06 165.491
76.2075 116.847 165.936
75.7802 119.226 166.879
78.2142 123.703 168.848
80.6034 124.121 169.452
76.3377 112.449 164.103
78.1575 115.333 164.874
76.0076 114.503 164.79
79.9988 115.844 165.149
77.0322 110.595 164.363
74.7786 109.905 163.982
74.2113 114.081 164.799
81.5625 117.422 173.659
83.0579 119.012 172.792
81.8611 116.426 171.73
84.1914 120.352 171.503
84.2368 121.333 173.972
81.6296 117.862 175.502
80.0167 115.358 174.04
79.992 114.143 170.901
81.765 115.812 169.902
82.843 116.737 168.518
84.4298 119.405 169.22
83.9274 118.281 166.969
84.8557 122.068 170.412
80.4783 114.823 168.276
81.9351 116.742 165.79
83.21 119.87 166.444
72.9085 114.145 172.613
71.7934 113.013 170.781
72.6756 115.912 171.572
71.0582 112.467 168.718
71.3825 110.219 169.908
73.3283 112.444 173.323
74.3236 115.759 174.343
73.9602 118.609 172.518
72.8552 117.5 170.501
72.4944 117.12 168.731
71.2824 114.097 167.383
72.3221 115.986 166.851
70.7334 111.283 166.545
73.7326 119.68 169.783
73.9986 117.943 167.032
72.7667 114.609 165.455
84.3251 127.037 173.984
81.5691 127.178 175.696
82.1164 127.862 172.813
79.2507 125.757 176.157
80.9471 124.983 177.256
84.5191 124.178 174.421
85.3408 125.058 172.059
81.7401 126.787 170.623
79.7991 126.519 171.889
78.1619 125.493 172.57
78.0426 124.846 174.499
76.3722 123.559 172.806
77.7017 123.293 176.133
77.7402 125.06 170.287
74.8985 122.121 171.188
75.0407 121.352 173.07
76.3251 106.511 166.512
76.0669 105.943 168.625
77.6136 108.86 168.285
76.3541 107.177 170.804
74.3526 104.811 169.497
74.8534 105.965 165.201
77.0416 108.652 165.367
78.5521 112.002 168.099
78.3704 111.585 169.714
70.8397 105.172 166.747
72.4742 103.966 168.612
72.6907 104.909 165.121
72.9296 105.181 171.531
71.1047 107.58 168.663
70.6972 108.085 166.277
73.3862 107.339 164.183
82.0129 119.92 176.772
81.7988 122.939 177.192
83.4356 122.628 175.795
84.3528 124.184 170.253
82.5852 124.997 170.109
82.9836 121.924 168.273
77.1845 109.986 171.711
78.4916 112.87 172.993
78.3843 112.018 171.17
79.089 113.332 167.111
79.8037 114.519 166.025
78.2549 111.38 165.713
76.527 120.973 175.905
75.5251 118.308 175.257
75.1321 119.98 174.211
74.6266 121.796 169.396
74.9522 120.878 167.558
76.2169 123.212 168.749
71.7702 108.042 170.695
72.992 109.798 172.964
72.4595 106.933 172.418
72.5915 109.209 163.968
72.552 112.064 164.284
70.9913 109.554 164.809
78.7111 118.468 178.388
77.832 116.904 178.091
77.6884 118.293 178.166
77.1024 115.431 177.665
78.0214 115.687 177.697
79.6781 118.666 178.045
79.5299 119.89 178.235
77.6312 119.491 177.847
77.0291 118.104 177.461
78.8451 115.878 177.452
79.7701 117.489 177.675
79.6723 116.244 177.012
80.5774 118.944 177.626
77.9769 114.607 177.006
79.3803 115.383 176.181
80.2987 116.659 176.448
79.1852 121.036 178.417
78.0652 120.842 178.221
78.7927 122.106 178.251
77.4168 120.483 177.384
80.2245 121.273 178.148
79.4054 123.37 178.087
78.457 122.946 177.693
76.3868 116.838 176.951
76.34 115.425 177.181
75.7851 115.454 176.346
76.3215 114.085 177.086
76.4354 117.914 176.597
75.1795 115.31 175.573
75.187 114.138 175.745
76.4821 111.97 175.861
76.4432 111.073 174.888
75.6164 110.533 175.235
76.4254 110.302 174.001
77.1816 111.644 174.54
77.314 113.164 176.501
76.3429 112.868 176.579
74.7388 110.36 175.164
74.7751 109.252 174.546
78.0082 112.874 175.145
78.0694 113.683 176.195
78.7425 114.169 175.673
77.8418 112.311 174.162
79.3252 114.735 175.221
75.5638 112.903 176.331
74.8314 111.575 175.325
74.9577 112.855 175.466
74.0799 110.311 174.51
74.4688 112.819 174.755
74.949 108.289 173.84
75.8512 108.97 173.48
75.2415 107.54 173.066
76.4849 109.714 173.044
73.9985 107.887 173.865
74.6477 106.327 172.488
75.5109 107.02 172.121
78.6502 120.095 166.684
79.4584 121.255 167.308
78.3828 120.994 167.253
80.2807 122.175 168.162
80.5171 121.432 167.429
78.7959 119.084 166.185
77.9112 118.646 166.261
77.4034 120.754 167.112
78.0374 121.83 167.805
80.625 120.576 166.652
79.648 119.305 166.063
80.5971 119.475 165.933
78.8141 117.928 165.697
81.4765 121.507 167.508
81.4956 119.462 165.874
80.6247 118.259 165.391
77.0089 118.308 166.38
76.7405 119.521 166.794
76.11 118.055 166.51
76.3865 120.541 167.091
77.093 117.125 165.852
75.4126 116.63 166.078
75.2718 117.819 166.591
78.6661 122.84 168.544
79.8986 123.009 168.751
79.4209 123.913 169.152
81.0118 123.168 168.996
77.5924 122.674 168.204
78.9374 124.731 169.386
80.1517 124.977 169.723
77.2429 113.84 164.473
77.0931 114.894 164.88
76.1267 113.496 164.378
76.9783 115.934 165.292
77.9787 116.35 165.23
78.2065 114.172 164.661
77.4214 112.802 164.335
75.2561 112.152 163.993
75.0893 113.168 164.226
78.8441 116.793 165.193
79.033 115.552 164.978
79.8653 116.954 165.082
79.1431 114.509 165.041
80.807 117.104 165.125
76.7092 111.554 164.138
75.5519 111.222 163.903
75.948 110.323 164.055
74.4587 110.832 163.859
77.6838 111.816 164.524
76.2443 109.365 164.34
75.1654 109.049 164.189
75.143 114.261 164.793
76.1592 115.768 165.374
75.2256 115.441 165.469
74.1549 112.946 164.242
74.4143 115.213 165.49
82.3033 118.247 173.244
82.3821 117.726 172.17
81.5945 116.87 172.65
82.6036 117.31 171.19
83.0974 118.432 171.666
83.0356 119.337 173.942
82.4294 118.63 174.329
80.8618 116.111 172.993
80.9484 115.688 172.221
83.6251 119.651 172.147
83.67 120.091 173.444
84.212 120.796 172.728
83.6814 120.561 174.562
83.7001 119.122 171.075
84.6531 121.508 172.01
84.7072 121.985 173.236
81.6742 117.76 174.582
80.8349 116.374 173.874
80.8807 116.583 174.742
80.0831 115.129 173.221
82.4129 118.968 175.324
80.8294 116.781 175.594
80.059 115.617 174.861
80.9997 115.253 171.411
81.9312 116.081 170.85
80.9431 114.979 170.521
82.6817 116.854 170.221
80.0331 114.438 171.712
79.8996 113.997 170.105
80.7116 114.925 169.647
83.7466 118.085 168.821
84.3435 118.839 168.073
83.5583 117.446 167.794
84.3597 119.68 167.402
84.6313 120.253 168.608
83.8476 118.722 169.849
83.1544 117.337 169.45
82.4222 116.363 167.659
83.0399 117.01 166.888
84.6817 120.595 169.773
84.1885 119.729 170.46
84.6409 121.141 170.959
84.6331 121.647 169.345
85.1011 122.454 171.505
82.276 116.283 169.308
81.8136 115.816 168.369
81.1329 115.298 169.017
81.0511 115.429 167.693
80.0152 114.342 168.873
83.0375 117.404 166.212
83.717 118.992 166.563
82.849 118.302 165.722
83.8724 120.491 167.267
81.938 116.344 166.419
81.8106 117.486 165.371
82.3787 119.103 165.842
72.3038 113.586 171.732
72.1687 114.534 171.193
72.8201 115.126 172.151
72.1644 115.268 170.534
71.75 114.037 170.221
72.0396 112.047 171.312
72.5148 112.569 172.113
73.3269 115.699 172.986
73.277 116.463 172.599
71.394 112.754 169.797
71.5523 111.64 170.406
71.1477 111.416 169.41
71.7878 110.545 170.843
71.4143 113.69 169.156
70.8699 111.145 168.379
71.076 110.07 168.933
73.0827 113.256 172.946
73.57 115.004 173.453
73.7854 114.158 173.826
74.0841 116.416 173.881
72.6911 111.608 172.488
73.9927 113.289 174.133
74.4952 114.906 174.694
73.2584 117.238 172.152
72.7233 116.632 171.032
73.3127 117.958 171.566
72.2916 116.164 170.008
73.9379 117.857 173.007
73.9351 119.219 171.923
73.4594 118.687 170.954
71.8106 115.643 168.131
71.7226 115.103 167.098
72.3508 116.724 167.834
71.6792 114.387 166.076
71.2248 113.523 166.364
71.5259 114.576 168.404
72.0564 116.035 169.033
72.9695 118.126 168.328
72.8882 117.593 167.555
70.9123 112.787 166.918
71.1557 113.355 168.08
70.7881 111.977 167.65
70.9753 111.959 165.872
70.7291 110.576 167.302
72.5879 117.225 169.648
73.0208 118.422 169.213
73.2099 118.595 170.107
73.5925 119.457 168.923
73.8259 119.776 170.626
73.1162 116.995 166.925
72.4306 115.281 166.067
73.412 116.262 166.376
71.9049 113.639 165.267
73.6513 118.585 167.494
74.323 117.198 166.597
73.6684 115.562 165.801
83.0203 127.421 174.826
82.1374 127.703 174.314
83.3207 127.822 173.511
81.1027 127.479 173.712
80.8351 127.27 174.943
82.4556 126.555 175.804
83.6563 126.435 175.082
84.3733 127.368 172.718
83.2051 127.809 172.145
80.3054 126.786 176.034
81.3411 126.249 176.588
80.0425 125.814 177.024
81.9985 125.36 176.608
79.5795 126.427 175.203
78.9719 124.959 176.891
79.8663 124.65 177.55
84.4984 125.736 174.332
85.0225 126.215 173.069
85.1053 124.738 173.36
84.9286 126.274 171.867
83.8755 125.068 175.154
84.9477 123.34 173.572
85.4179 123.822 172.399
81.955 127.591 171.61
80.9226 127.3 172.469
80.7125 126.818 171.156
80.1935 126.854 173.149
82.9012 127.28 170.999
80.7007 126.273 170.256
79.6438 126.153 170.871
78.1258 125.349 173.57
77.23 124.274 173.651
77.1524 124.592 172.693
76.4354 123.234 173.72
77.1695 123.704 174.46
78.8956 125.902 174.402
79.138 126.207 173.366
77.1249 124.701 171.751
76.3922 123.862 171.843
77.81 124.079 175.26
78.6523 125.41 175.29
78.3649 124.602 176.161
77.0485 123.021 175.303
78.3158 123.698 176.933
79.0306 126.15 172.338
77.8933 125.261 171.49
78.7398 125.727 171.12
77.0122 124.578 170.616
78.6572 125.404 170.046
75.6071 122.948 172
75.6612 122.585 172.998
74.9829 121.819 172.167
75.7596 122.1 173.817
75.5607 123.121 170.997
74.4989 121.015 171.341
74.5545 120.635 172.258
76.1827 106.114 167.539
77.0406 107.107 168.356
77.1413 107.395 167.471
77.3953 108.485 169.097
76.8494 107.126 169.314
75.1484 105.201 167.829
75.27 105.458 166.754
77.2317 107.772 166.576
77.7023 108.96 167.415
76.246 106.453 169.821
75.2936 105.338 169.001
75.459 105.745 170.251
74.2735 104.577 168.335
76.8643 107.847 170.292
75.7228 106.59 171.209
74.557 105.278 170.674
75.6517 106.138 165.838
76.7586 107.523 165.801
76.0466 107.224 165.123
77.4954 108.884 166.093
74.4789 105.119 166
75.2207 107.115 164.717
76.3224 108.477 164.899
78.0588 110.325 168.151
77.8924 110.127 169.041
78.4372 111.647 168.879
77.7714 110.095 169.773
78.209 110.746 167.476
78.9859 113.037 168.781
78.9464 112.819 169.584
71.5126 104.151 167.452
72.457 104.077 166.647
71.5502 104.436 165.866
73.3815 104.574 166.03
73.2792 104.146 167.792
71.718 104.501 169.176
71.0728 105.138 168.203
70.8892 105.492 165.48
71.8202 105.428 164.801
73.5767 104.276 169.108
72.576 104.293 170.016
73.5594 104.918 170.5
72.1448 105.12 170.675
73.9123 105.419 171.796
70.8585 106.328 167.771
70.7188 106.541 166.368
70.7187 107.806 167.49
70.7447 107.065 165.339
71.2612 106.308 168.937
70.957 108.75 168.402
70.7358 108.988 167.168
72.9544 106.025 164.657
73.9058 105.41 165.222
74.2564 106.723 164.603
72.2418 106.815 164.301
74.4686 107.819 164.286
82.0412 121.496 177.112
82.6411 122.88 176.496
82.7893 121.331 176.421
83.2849 124.083 175.812
82.3451 124.225 176.514
81.2268 121.604 177.638
81.3617 120.181 177.379
82.6405 120.038 176.029
83.3626 121.163 175.627
81.4648 124.024 177.277
80.793 122.545 177.801
80.3435 123.735 177.825
81.2506 118.841 176.993
81.952 118.763 176.208
81.083 117.614 176.338
83.9268 121.823 175.033
83.9857 123.499 175.197
84.4212 122.651 174.272
83.5166 124.798 170.249
82.8314 123.521 169.41
83.5991 123.185 169.42
82.2922 122.25 168.502
81.9904 123.608 169.367
83.382 126.3 170.627
84.3643 125.773 170.983
84.2503 122.613 169.394
83.7107 121.76 168.301
81.5174 124.369 169.805
82.2745 126.021 170.329
81.1064 125.503 170.032
84.9478 124.71 171.018
84.709 122.878 170.151
85.2674 123.461 171.28
83.1696 120.962 167.23
82.2523 121.342 167.368
82.3091 120.185 166.519
77.6909 111.56 172.353
78.4078 112.515 172.058
77.7916 111.023 171.448
79.1231 113.358 171.833
79.1989 113.782 172.666
77.7894 111.941 173.273
77.1355 110.589 172.642
77.296 109.43 170.839
77.8032 110.503 170.573
79.3207 114.171 173.468
78.5576 113.14 173.813
79.3494 114.427 174.396
76.6686 109.266 172.192
76.8385 108.601 171.193
76.2389 107.803 171.689
78.3404 111.665 170.427
79.206 113.197 171.14
79.105 113.009 170.321
79.4999 114.026 166.646
78.8951 113.042 165.905
78.6198 112.246 166.467
78.3204 112.246 165.246
79.0336 113.764 165.458
80.6825 115.294 166.574
80.2703 114.784 167.171
78.3772 111.481 166.934
78.1219 110.436 166.208
79.8648 115.036 165.569
80.916 115.723 166.06
80.9792 116.312 165.422
79.763 114.215 167.681
78.6982 112.573 167.576
79.2516 113.679 168.274
77.777 109.939 165.509
77.7703 111.011 164.979
77.0911 109.632 164.811
76.0599 119.653 175.611
75.2678 119.138 174.762
75.8117 120.554 175.082
74.601 118.608 173.921
74.7001 117.842 174.424
76.2442 118.748 176.097
76.7052 120.098 176.488
76.3765 121.793 175.255
75.6759 121.295 174.462
74.7679 117.102 174.811
75.6524 117.508 175.707
75.0047 116.193 175.227
77.2108 121.264 176.749
77.0348 122.186 176.007
77.7556 122.554 176.878
75.1297 120.735 173.677
74.5661 119.215 173.365
74.5035 119.94 172.794
74.6935 121.481 168.381
75.4984 122.168 168.078
75.3516 122.636 169.053
76.5265 122.513 168.05
75.8921 121.362 167.464
74.188 120.265 167.87
74.0879 120.647 168.711
75.3661 122.901 170.033
76.1208 123.647 169.715
75.4038 120.185 167.066
74.4039 119.465 167.324
74.8737 118.589 166.955
74.1183 120.713 169.58
74.8222 121.985 170.316
74.2955 120.792 170.502
76.9083 124.151 169.578
77.1628 123.466 168.641
77.898 124.538 169.415
72.2979 108.763 171.92
72.6577 108.315 172.683
72.0999 107.377 171.493
73.0915 107.955 173.424
73.3641 109.377 173.633
72.5412 110.164 172.277
71.9997 109.413 171.27
71.6082 106.73 170.206
71.9787 106.1 171.118
73.5886 110.671 173.808
73.0855 111.127 173.083
73.8108 112.022 173.951
71.5763 109.214 170.423
71.4083 107.652 169.694
71.2503 108.919 169.377
72.5523 105.873 172.038
73.2644 107.004 173.192
73.7044 105.91 172.562
72.4316 110.623 163.964
71.6392 110.801 164.3
71.6629 109.256 164.19
71.0826 111.017 164.993
71.7907 112.157 164.639
73.2857 111.87 164.11
73.3327 110.466 163.895
71.8328 107.872 164.075
70.9637 108.098 164.586
72.4974 113.35 164.757
73.3552 113.127 164.438
73.5091 114.39 165.174
73.717 109.728 163.954
72.8715 108.184 164.064
74.0904 108.692 164.132
70.7318 108.763 165.472
70.7813 110.581 165.696
70.7355 109.748 166.498
POLYGONS 1280  5120
3 164 162 163
3 163 44 164
3 162 43 163
3 164 42 162
3 166 165 163
3 163 43 166
3 165 44 163
3 166 14 165
3 168 167 162
3 162 42 168
3 167 43 162
3 168 13 167
3 170 169 164
3 164 44 170
3 169 42 164
3 170 12 169
3 173 171 172
3 172 46 173
3 171 43 172
3 173 45 171
3 167 174 172
3 172 43 167
3 174 46 172
3 167 13 174
3 175 166 171
3 171 45 175
3 166 43 171
3 175 14 166
3 177 176 173
3 173 46 177
3 176 45 173
3 177 4 176
3 180 178 179
3 179 48 180
3 178 42 179
3 180 47 178
3 169 181 179
3 179 42 169
3 181 48 179
3 169 12 181
3 182 168 178
3 178 47 182
3 168 42 178
3 182 13 168
3 184 183 180
3 180 48 184
3 183 47 180
3 184 8 183
3 187 185 186
3 186 50 187
3 185 44 186
3 187 49 185
3 165 188 186
3 186 44 165
3 188 50 186
3 165 14 188
3 189 170 185
3 185 49 189
3 170 44 185
3 189 12 170
3 191 190 187
3 187 50 191
3 190 49 187
3 191 7 190
3 194 192 193
3 193 53 194
3 192 52 193
3 194 51 192
3 196 195 193
3 193 52 196
3 195 53 193
3 196 16 195
3 198 197 192
3 192 51 198
3 197 52 192
3 198 14 197
3 200 199 194
3 194 53 200
3 199 51 194
3 200 15 199
3 203 201 202
3 202 45 203
3 201 52 202
3 203 54 201
3 197 175 202
3 202 52 197
3 175 45 202
3 197 14 175
3 204 196 201
3 201 54 204
3 196 52 201
3 204 16 196
3 176 205 203
3 203 45 176
3 205 54 203
3 176 4 205
3 208 206 207
3 207 55 208
3 206 51 207
3 208 50 206
3 199 209 207
3 207 51 199
3 209 55 207
3 199 15 209
3 188 198 206
3 206 50 188
3 198 51 206
3 188 14 198
3 210 191 208
3 208 55 210
3 191 50 208
3 210 7 191
3 213 211 212
3 212 57 213
3 211 53 212
3 213 56 211
3 195 214 212
3 212 53 195
3 214 57 212
3 195 16 214
3 215 200 211
3 211 56 215
3 200 53 211
3 215 15 200
3 217 216 213
3 213 57 217
3 216 56 213
3 217 9 216
3 220 218 219
3 219 60 220
3 218 59 219
3 220 58 218
3 222 221 219
3 219 59 222
3 221 60 219
3 222 19 221
3 224 223 218
3 218 58 224
3 223 59 218
3 224 18 223
3 226 225 220
3 220 60 226
3 225 58 220
3 226 17 225
3 229 227 228
3 228 62 229
3 227 59 228
3 229 61 227
3 223 230 228
3 228 59 223
3 230 62 228
3 223 18 230
3 231 222 227
3 227 61 231
3 222 59 227
3 231 19 222
3 233 232 229
3 229 62 233
3 232 61 229
3 233 5 232
3 236 234 235
3 235 64 236
3 234 58 235
3 236 63 234
3 225 237 235
3 235 58 225
3 237 64 235
3 225 17 237
3 238 224 234
3 234 63 238
3 224 58 234
3 238 18 224
3 240 239 236
3 236 64 240
3 239 63 236
3 240 6 239
3 243 241 242
3 242 66 243
3 241 60 242
3 243 65 241
3 221 244 242
3 242 60 221
3 244 66 242
3 221 19 244
3 245 226 241
3 241 65 245
3 226 60 241
3 245 17 226
3 247 246 243
3 243 66 247
3 246 65 243
3 247 11 246
3 250 248 249
3 249 69 250
3 248 68 249
3 250 67 248
3 252 251 249
3 249 68 252
3 251 69 249
3 252 18 251
3 254 253 248
3 248 67 254
3 253 68 248
3 254 21 253
3 256 255 250
3 250 69 256
3 255 67 250
3 256 20 255
3 259 257 258
3 258 70 259
3 257 68 258
3 259 62 257
3 253 260 258
3 258 68 253
3 260 70 258
3 253 21 260
3 230 252 257
3 257 62 230
3 252 68 257
3 230 18 252
3 261 233 259
3 259 70 261
3 233 62 259
3 261 5 233
3 264 262 263
3 263 72 264
3 262 67 263
3 264 71 262
3 255 265 263
3 263 67 255
3 265 72 263
3 255 20 265
3 266 254 262
3 262 71 266
3 254 67 262
3 266 21 254
3 268 267 264
3 264 72 268
3 267 71 264
3 268 10 267
3 271 269 270
3 270 63 271
3 269 69 270
3 271 73 269
3 251 238 270
3 270 69 251
3 238 63 270
3 251 18 238
3 272 256 269
3 269 73 272
3 256 69 269
3 272 20 256
3 239 273 271
3 271 63 239
3 273 73 271
3 239 6 273
3 276 274 275
3 275 76 276
3 274 75 275
3 276 74 274
3 278 277 275
3 275 75 278
3 277 76 275
3 278 24 277
3 280 279 274
3 274 74 280
3 279 75 274
3 280 23 279
3 282 281 276
3 276 76 282
3 281 74 276
3 282 22 281
3 285 283 284
3 284 78 285
3 283 75 284
3 285 77 283
3 279 286 284
3 284 75 279
3 286 78 284
3 279 23 286
3 287 278 283
3 283 77 287
3 278 75 283
3 287 24 278
3 289 288 285
3 285 78 289
3 288 77 285
3 289 0 288
3 292 290 291
3 291 80 292
3 290 74 291
3 292 79 290
3 281 293 291
3 291 74 281
3 293 80 291
3 281 22 293
3 294 280 290
3 290 79 294
3 280 74 290
3 294 23 280
3 296 295 292
3 292 80 296
3 295 79 292
3 296 4 295
3 299 297 298
3 298 82 299
3 297 76 298
3 299 81 297
3 277 300 298
3 298 76 277
3 300 82 298
3 277 24 300
3 301 282 297
3 297 81 301
3 282 76 297
3 301 22 282
3 303 302 299
3 299 82 303
3 302 81 299
3 303 3 302
3 306 304 305
3 305 85 306
3 304 84 305
3 306 83 304
3 308 307 305
3 305 84 308
3 307 85 305
3 308 26 307
3 310 309 304
3 304 83 310
3 309 84 304
3 310 24 309
3 312 311 306
3 306 85 312
3 311 83 306
3 312 25 311
3 315 313 314
3 314 77 315
3 313 84 314
3 315 86 313
3 309 287 314
3 314 84 309
3 287 77 314
3 309 24 287
3 316 308 313
3 313 86 316
3 308 84 313
3 316 26 308
3 288 317 315
3 315 77 288
3 317 86 315
3 288 0 317
3 320 318 319
3 319 87 320
3 318 83 319
3 320 82 318
3 311 321 319
3 319 83 311
3 321 87 319
3 311 25 321
3 300 310 318
3 318 82 300
3 310 83 318
3 300 24 310
3 322 303 320
3 320 87 322
3 303 82 320
3 322 3 303
3 325 323 324
3 324 89 325
3 323 85 324
3 325 88 323
3 307 326 324
3 324 85 307
3 326 89 324
3 307 26 326
3 327 312 323
3 323 88 327
3 312 85 323
3 327 25 312
3 329 328 325
3 325 89 329
3 328 88 325
3 329 5 328
3 332 330 331
3 331 92 332
3 330 91 331
3 332 90 330
3 334 333 331
3 331 91 334
3 333 92 331
3 334 29 333
3 336 335 330
3 330 90 336
3 335 91 330
3 336 28 335
3 338 337 332
3 332 92 338
3 337 90 332
3 338 27 337
3 341 339 340
3 340 94 341
3 339 91 340
3 341 93 339
3 335 342 340
3 340 91 335
3 342 94 340
3 335 28 342
3 343 334 339
3 339 93 343
3 334 91 339
3 343 29 334
3 345 344 341
3 341 94 345
3 344 93 341
3 345 2 344
3 348 346 347
3 347 96 348
3 346 90 347
3 348 95 346
3 337 349 347
3 347 90 337
3 349 96 347
3 337 27 349
3 350 336 346
3 346 95 350
3 336 90 346
3 350 28 336
3 352 351 348
3 348 96 352
3 351 95 348
3 352 7 351
3 355 353 354
3 354 98 355
3 353 92 354
3 355 97 353
3 333 356 354
3 354 92 333
3 356 98 354
3 333 29 356
3 357 338 353
3 353 97 357
3 338 92 353
3 357 27 338
3 359 358 355
3 355 98 359
3 358 97 355
3 359 1 358
3 362 360 361
3 361 101 362
3 360 100 361
3 362 99 360
3 364 363 361
3 361 100 364
3 363 101 361
3 364 31 363
3 366 365 360
3 360 99 366
3 365 100 360
3 366 29 365
3 368 367 362
3 362 101 368
3 367 99 362
3 368 30 367
3 371 369 370
3 370 93 371
3 369 100 370
3 371 102 369
3 365 343 370
3 370 100 365
3 343 93 370
3 365 29 343
3 372 364 369
3 369 102 372
3 364 100 369
3 372 31 364
3 344 373 371
3 371 93 344
3 373 102 371
3 344 2 373
3 376 374 375
3 375 103 376
3 374 99 375
3 376 98 374
3 367 377 375
3 375 99 367
3 377 103 375
3 367 30 377
3 356 366 374
3 374 98 356
3 366 99 374
3 356 29 366
3 378 359 376
3 376 103 378
3 359 98 376
3 378 1 359
3 381 379 380
3 380 105 381
3 379 101 380
3 381 104 379
3 363 382 380
3 380 101 363
3 382 105 380
3 363 31 382
3 383 368 379
3 379 104 383
3 368 101 379
3 383 30 368
3 385 384 381
3 381 105 385
3 384 104 381
3 385 6 384
3 388 386 387
3 387 108 388
3 386 107 387
3 388 106 386
3 390 389 387
3 387 107 390
3 389 108 387
3 390 34 389
3 392 391 386
3 386 106 392
3 391 107 386
3 392 33 391
3 394 393 388
3 388 108 394
3 393 106 388
3 394 32 393
3 397 395 396
3 396 110 397
3 395 107 396
3 397 109 395
3 391 398 396
3 396 107 391
3 398 110 396
3 391 33 398
3 399 390 395
3 395 109 399
3 390 107 395
3 399 34 390
3 401 400 397
3 397 110 401
3 400 109 397
3 401 8 400
3 404 402 403
3 403 112 404
3 402 106 403
3 404 111 402
3 393 405 403
3 403 106 393
3 405 112 403
3 393 32 405
3 406 392 402
3 402 111 406
3 392 106 402
3 406 33 392
3 408 407 404
3 404 112 408
3 407 111 404
3 408 0 407
3 411 409 410
3 410 114 411
3 409 108 410
3 411 113 409
3 389 412 410
3 410 108 389
3 412 114 410
3 389 34 412
3 413 394 409
3 409 113 413
3 394 108 409
3 413 32 394
3 415 414 411
3 411 114 415
3 414 113 411
3 415 11 414
3 418 416 417
3 417 117 418
3 416 116 417
3 418 115 416
3 420 419 417
3 417 116 420
3 419 117 417
3 420 36 419
3 422 421 416
3 416 115 422
3 421 116 416
3 422 34 421
3 424 423 418
3 418 117 424
3 423 115 418
3 424 35 423
3 427 425 426
3 426 109 427
3 425 116 426
3 427 118 425
3 421 399 426
3 426 116 421
3 399 109 426
3 421 34 399
3 428 420 425
3 425 118 428
3 420 116 425
3 428 36 420
3 400 429 427
3 427 109 400
3 429 118 427
3 400 8 429
3 432 430 431
3 431 119 432
3 430 115 431
3 432 114 430
3 423 433 431
3 431 115 423
3 433 119 431
3 423 35 433
3 412 422 430
3 430 114 412
3 422 115 430
3 412 34 422
3 434 415 432
3 432 119 434
3 415 114 432
3 434 11 415
3 437 435 436
3 436 121 437
3 435 117 436
3 437 120 435
3 419 438 436
3 436 117 419
3 438 121 436
3 419 36 438
3 439 424 435
3 435 120 439
3 424 117 435
3 439 35 424
3 441 440 437
3 437 121 441
3 440 120 437
3 441 1 440
3 444 442 443
3 443 124 444
3 442 123 443
3 444 122 442
3 446 445 443
3 443 123 446
3 445 124 443
3 446 39 445
3 448 447 442
3 442 122 448
3 447 123 442
3 448 38 447
3 450 449 444
3 444 124 450
3 449 122 444
3 450 37 449
3 453 451 452
3 452 126 453
3 451 123 452
3 453 125 451
3 447 454 452
3 452 123 447
3 454 126 452
3 447 38 454
3 455 446 451
3 451 125 455
3 446 123 451
3 455 39 446
3 457 456 453
3 453 126 457
3 456 125 453
3 457 9 456
3 460 458 459
3 459 128 460
3 458 122 459
3 460 127 458
3 449 461 459
3 459 122 449
3 461 128 459
3 449 37 461
3 462 448 458
3 458 127 462
3 448 122 458
3 462 38 448
3 464 463 460
3 460 128 464
3 463 127 460
3 464 10 463
3 467 465 466
3 466 130 467
3 465 124 466
3 467 129 465
3 445 468 466
3 466 124 445
3 468 130 466
3 445 39 468
3 469 450 465
3 465 129 469
3 450 124 465
3 469 37 450
3 471 470 467
3 467 130 471
3 470 129 467
3 471 3 470
3 474 472 473
3 473 133 474
3 472 132 473
3 474 131 472
3 476 475 473
3 473 132 476
3 475 133 473
3 476 38 475
3 478 477 472
3 472 131 478
3 477 132 472
3 478 41 477
3 480 479 474
3 474 133 480
3 479 131 474
3 480 40 479
3 483 481 482
3 482 134 483
3 481 132 482
3 483 126 481
3 477 484 482
3 482 132 477
3 484 134 482
3 477 41 484
3 454 476 481
3 481 126 454
3 476 132 481
3 454 38 476
3 485 457 483
3 483 134 485
3 457 126 483
3 485 9 457
3 488 486 487
3 487 136 488
3 486 131 487
3 488 135 486
3 479 489 487
3 487 131 479
3 489 136 487
3 479 40 489
3 490 478 486
3 486 135 490
3 478 131 486
3 490 41 478
3 492 491 488
3 488 136 492
3 491 135 488
3 492 2 491
3 495 493 494
3 494 127 495
3 493 133 494
3 495 137 493
3 475 462 494
3 494 133 475
3 462 127 494
3 475 38 462
3 496 480 493
3 493 137 496
3 480 133 493
3 496 40 480
3 463 497 495
3 495 127 463
3 497 137 495
3 463 10 497
3 500 498 499
3 499 140 500
3 498 139 499
3 500 138 498
3 502 501 499
3 499 139 502
3 501 140 499
3 502 33 501
3 504 503 498
3 498 138 504
3 503 139 498
3 504 13 503
3 506 505 500
3 500 140 506
3 505 138 500
3 506 23 505
3 509 507 508
3 508 47 509
3 507 139 508
3 509 110 507
3 503 182 508
3 508 139 503
3 182 47 508
3 503 13 182
3 398 502 507
3 507 110 398
3 502 139 507
3 398 33 502
3 183 401 509
3 509 47 183
3 401 110 509
3 183 8 401
3 512 510 511
3 511 79 512
3 510 138 511
3 512 46 510
3 505 294 511
3 511 138 505
3 294 79 511
3 505 23 294
3 174 504 510
3 510 46 174
3 504 138 510
3 174 13 504
3 295 177 512
3 512 79 295
3 177 46 512
3 295 4 177
3 515 513 514
3 514 111 515
3 513 140 514
3 515 78 513
3 501 406 514
3 514 140 501
3 406 111 514
3 501 33 406
3 286 506 513
3 513 78 286
3 506 140 513
3 286 23 506
3 407 289 515
3 515 111 407
3 289 78 515
3 407 0 289
3 518 516 517
3 517 143 518
3 516 142 517
3 518 141 516
3 520 519 517
3 517 142 520
3 519 143 517
3 520 19 519
3 522 521 516
3 516 141 522
3 521 142 516
3 522 32 521
3 524 523 518
3 518 143 524
3 523 141 518
3 524 26 523
3 527 525 526
3 526 113 527
3 525 142 526
3 527 66 525
3 521 413 526
3 526 142 521
3 413 113 526
3 521 32 413
3 244 520 525
3 525 66 244
3 520 142 525
3 244 19 520
3 414 247 527
3 527 113 414
3 247 66 527
3 414 11 247
3 530 528 529
3 529 86 530
3 528 141 529
3 530 112 528
3 523 316 529
3 529 141 523
3 316 86 529
3 523 26 316
3 405 522 528
3 528 112 405
3 522 141 528
3 405 32 522
3 317 408 530
3 530 86 317
3 408 112 530
3 317 0 408
3 533 531 532
3 532 61 533
3 531 143 532
3 533 89 531
3 519 231 532
3 532 143 519
3 231 61 532
3 519 19 231
3 326 524 531
3 531 89 326
3 524 143 531
3 326 26 524
3 232 329 533
3 533 61 232
3 329 89 533
3 232 5 329
3 536 534 535
3 535 146 536
3 534 145 535
3 536 144 534
3 538 537 535
3 535 145 538
3 537 146 535
3 538 22 537
3 540 539 534
3 534 144 540
3 539 145 534
3 540 16 539
3 542 541 536
3 536 146 542
3 541 144 536
3 542 39 541
3 545 543 544
3 544 54 545
3 543 145 544
3 545 80 543
3 539 204 544
3 544 145 539
3 204 54 544
3 539 16 204
3 293 538 543
3 543 80 293
3 538 145 543
3 293 22 538
3 205 296 545
3 545 54 205
3 296 80 545
3 205 4 296
3 548 546 547
3 547 125 548
3 546 144 547
3 548 57 546
3 541 455 547
3 547 144 541
3 455 125 547
3 541 39 455
3 214 540 546
3 546 57 214
3 540 144 546
3 214 16 540
3 456 217 548
3 548 125 456
3 217 57 548
3 456 9 217
3 551 549 550
3 550 81 551
3 549 146 550
3 551 130 549
3 537 301 550
3 550 146 537
3 301 81 550
3 537 22 301
3 468 542 549
3 549 130 468
3 542 146 549
3 468 39 542
3 302 471 551
3 551 81 302
3 471 130 551
3 302 3 471
3 554 552 553
3 553 149 554
3 552 148 553
3 554 147 552
3 556 555 553
3 553 148 556
3 555 149 553
3 556 21 555
3 558 557 552
3 552 147 558
3 557 148 552
3 558 25 557
3 560 559 554
3 554 149 560
3 559 147 554
3 560 37 559
3 563 561 562
3 562 88 563
3 561 148 562
3 563 70 561
3 557 327 562
3 562 148 557
3 327 88 562
3 557 25 327
3 260 556 561
3 561 70 260
3 556 148 561
3 260 21 556
3 328 261 563
3 563 88 328
3 261 70 563
3 328 5 261
3 566 564 565
3 565 129 566
3 564 147 565
3 566 87 564
3 559 469 565
3 565 147 559
3 469 129 565
3 559 37 469
3 321 558 564
3 564 87 321
3 558 147 564
3 321 25 558
3 470 322 566
3 566 129 470
3 322 87 566
3 470 3 322
3 569 567 568
3 568 71 569
3 567 149 568
3 569 128 567
3 555 266 568
3 568 149 555
3 266 71 568
3 555 21 266
3 461 560 567
3 567 128 461
3 560 149 567
3 461 37 560
3 267 464 569
3 569 71 267
3 464 128 569
3 267 10 464
3 572 570 571
3 571 152 572
3 570 151 571
3 572 150 570
3 574 573 571
3 571 151 574
3 573 152 571
3 574 27 573
3 576 575 570
3 570 150 576
3 575 151 570
3 576 12 575
3 578 577 572
3 572 152 578
3 577 150 572
3 578 36 577
3 581 579 580
3 580 49 581
3 579 151 580
3 581 96 579
3 575 189 580
3 580 151 575
3 189 49 580
3 575 12 189
3 349 574 579
3 579 96 349
3 574 151 579
3 349 27 574
3 190 352 581
3 581 49 190
3 352 96 581
3 190 7 352
3 584 582 583
3 583 118 584
3 582 150 583
3 584 48 582
3 577 428 583
3 583 150 577
3 428 118 583
3 577 36 428
3 181 576 582
3 582 48 181
3 576 150 582
3 181 12 576
3 429 184 584
3 584 118 429
3 184 48 584
3 429 8 184
3 587 585 586
3 586 97 587
3 585 152 586
3 587 121 585
3 573 357 586
3 586 152 573
3 357 97 586
3 573 27 357
3 438 578 585
3 585 121 438
3 578 152 585
3 438 36 578
3 358 441 587
3 587 97 358
3 441 121 587
3 358 1 441
3 590 588 589
3 589 155 590
3 588 154 589
3 590 153 588
3 592 591 589
3 589 154 592
3 591 155 589
3 592 17 591
3 594 593 588
3 588 153 594
3 593 154 588
3 594 30 593
3 596 595 590
3 590 155 596
3 595 153 590
3 596 35 595
3 599 597 598
3 598 104 599
3 597 154 598
3 599 64 597
3 593 383 598
3 598 154 593
3 383 104 598
3 593 30 383
3 237 592 597
3 597 64 237
3 592 154 597
3 237 17 592
3 384 240 599
3 599 104 384
3 240 64 599
3 384 6 240
3 602 600 601
3 601 120 602
3 600 153 601
3 602 103 600
3 595 439 601
3 601 153 595
3 439 120 601
3 595 35 439
3 377 594 600
3 600 103 377
3 594 153 600
3 377 30 594
3 440 378 602
3 602 120 440
3 378 103 602
3 440 1 378
3 605 603 604
3 604 65 605
3 603 155 604
3 605 119 603
3 591 245 604
3 604 155 591
3 245 65 604
3 591 17 245
3 433 596 603
3 603 119 433
3 596 155 603
3 433 35 596
3 246 434 605
3 605 65 246
3 434 119 605
3 246 11 434
3 608 606 607
3 607 158 608
3 606 157 607
3 608 156 606
3 610 609 607
3 607 157 610
3 609 158 607
3 610 15 609
3 612 611 606
3 606 156 612
3 611 157 606
3 612 28 611
3 614 613 608
3 608 158 614
3 613 156 608
3 614 41 613
3 617 615 616
3 616 95 617
3 615 157 616
3 617 55 615
3 611 350 616
3 616 157 611
3 350 95 616
3 611 28 350
3 209 610 615
3 615 55 209
3 610 157 615
3 209 15 610
3 351 210 617
3 617 95 351
3 210 55 617
3 351 7 210
3 620 618 619
3 619 135 620
3 618 156 619
3 620 94 618
3 613 490 619
3 619 156 613
3 490 135 619
3 613 41 490
3 342 612 618
3 618 94 342
3 612 156 618
3 342 28 612
3 491 345 620
3 620 135 491
3 345 94 620
3 491 2 345
3 623 621 622
3 622 56 623
3 621 158 622
3 623 134 621
3 609 215 622
3 622 158 609
3 215 56 622
3 609 15 215
3 484 614 621
3 621 134 484
3 614 158 621
3 484 41 614
3 216 485 623
3 623 56 216
3 485 134 623
3 216 9 485
3 626 624 625
3 625 161 626
3 624 160 625
3 626 159 624
3 628 627 625
3 625 160 628
3 627 161 625
3 628 31 627
3 630 629 624
3 624 159 630
3 629 160 624
3 630 20 629
3 632 631 626
3 626 161 632
3 631 159 626
3 632 40 631
3 635 633 634
3 634 73 635
3 633 160 634
3 635 105 633
3 629 272 634
3 634 160 629
3 272 73 634
3 629 20 272
3 382 628 633
3 633 105 382
3 628 160 633
3 382 31 628
3 273 385 635
3 635 73 273
3 385 105 635
3 273 6 385
3 638 636 637
3 637 137 638
3 636 159 637
3 638 72 636
3 631 496 637
3 637 159 631
3 496 137 637
3 631 40 496
3 265 630 636
3 636 72 265
3 630 159 636
3 265 20 630
3 497 268 638
3 638 137 497
3 268 72 638
3 497 10 268
3 641 639 640
3 640 102 641
3 639 161 640
3 641 136 639
3 627 372 640
3 640 161 627
3 372 102 640
3 627 31 372
3 489 632 639
3 639 136 489
3 632 161 639
3 489 40 632
3 373 492 641
3 641 102 373
3 492 136 641
3 373 2 492
