# vtk DataFile Version 3.0
this file was written using fslvtkio
ASCII
DATASET POLYDATA
POINTS 642 float
90.5974 136.905 172.738
83.1108 138.01 172.675
84.4194 132.185 170.028
90.8222 129.839 170.552
90.1061 133.781 174.4
89.5223 134.342 167.081
84.7294 135.104 166.793
86.7898 135.217 173.235
87.3385 139.462 176.326
87.7058 128.87 172.103
86.9666 129.131 166.915
86.5109 139.704 171.73
86.8272 137.361 175.09
89.3997 136.9 176.715
88.5602 134.707 174.04
87.147 131.883 172.712
89.1877 130.424 173.437
85.6376 137.508 169.502
87.2506 134.585 165.751
88.2778 137.223 169.194
85.1469 131.609 164.74
88.2195 130.994 166.085
91.1099 130.954 173.016
91.1671 135.608 174.562
91.1798 133.357 171.313
90.2521 131.687 168.428
90.2735 135.604 169.88
84.824 136.785 173.39
85.2597 133.612 172.111
83.6487 135.069 171.128
83.7659 136.964 170.264
84.0612 133.307 167.824
88.8983 139.233 172.481
89.9435 139.322 175.507
86.4131 141.134 174.57
83.7076 140.071 172.501
84.2846 139.368 174.856
89.3539 128.541 168.523
87.4135 128.139 169.649
89.9935 128.148 171.759
85.4995 130.216 167.932
85.6033 130.25 171.195
88.1248 137.238 175.931
88.9417 135.968 175.34
87.8559 136.119 174.775
89.3718 134.209 174.293
89.8685 135.374 175.537
88.5686 138.433 176.684
87.0614 138.495 175.826
86.7774 136.165 174.175
87.6931 134.985 173.59
87.9486 133.19 173.263
88.7604 132.553 173.614
88.1406 131.188 173.152
89.6745 132.162 173.848
87.0016 133.777 172.93
87.1602 130.188 172.755
88.5195 129.419 172.934
86.5579 136.04 167.478
87.7729 135.881 167.458
86.9508 137.393 169.078
89.0467 135.814 167.938
88.5572 134.521 166.246
85.7784 134.833 165.984
85.4256 136.154 168.148
86.0344 138.81 170.65
87.3949 138.444 170.66
87.0167 131.173 165.026
87.8603 132.817 165.223
86.2192 133.222 164.643
89.113 132.641 166.232
87.5846 129.809 166.368
86.2822 130.123 165.728
84.6592 133.682 165.287
91.303 133.433 173.566
91.1909 134.325 172.869
91.3214 132.159 172.251
91.1111 135.267 171.938
91.0481 136.421 173.663
90.7316 134.525 174.754
90.6844 132.569 173.956
91.1661 130.157 171.85
90.9799 131.461 170.875
90.9072 132.583 169.839
90.9134 134.42 170.447
90.6339 133.797 168.968
90.5645 136.447 171.305
90.4337 130.608 169.48
90.0053 132.983 167.55
90.0208 135 168.429
85.3006 135.51 172.454
84.3889 134.478 171.751
84.152 136.021 172.31
83.9884 133.672 170.503
84.5069 132.661 171.315
86.1449 134.633 172.542
85.9407 136.089 173.256
83.8513 137.406 173.176
83.205 136.605 171.875
83.4563 135.942 170.563
83.8454 134.22 169.638
83.9336 135.046 168.987
84.2933 132.689 168.912
82.9494 137.676 171.499
84.4814 135.907 168.662
84.0472 134.205 166.967
89.2699 139.599 174.031
88.4231 140.649 175.254
87.9741 140.671 173.723
86.7484 140.494 175.809
88.6851 139.644 176.415
90.3452 138.183 174.122
89.8627 138.125 172.649
87.802 139.81 172.039
86.3438 140.831 173.08
84.6118 141.094 173.634
84.828 140.811 175.114
82.9702 140.6 174.153
85.7599 139.562 175.718
85.176 140.238 172.042
82.8649 139.229 172.731
83.4785 138.826 173.798
88.51 127.791 169.091
88.7552 127.553 170.923
89.909 127.878 170.292
88.8451 128.117 171.974
87.622 128.08 171.025
86.9923 128.37 167.973
88.1109 128.624 167.457
90.4722 128.907 169.463
90.8228 128.693 171.211
85.6611 130.032 169.516
86.6244 128.965 170.125
86.4906 129.17 168.542
86.6715 129.493 171.692
84.6856 131.08 170.644
84.7249 131.209 169.076
86.2756 129.51 167.202
90.6591 136.349 176.066
90.0847 138.251 176.655
90.8734 137.474 175.232
89.5616 137.432 171.206
88.5178 138.117 170.987
89.4188 136.639 169.533
89.7216 128.824 173.197
90.2856 130.375 173.416
90.8505 129.085 172.709
89.9127 129.878 168.235
89.3969 131.147 167.175
88.751 129.644 167.227
85.5587 138.41 175.05
85.715 137.251 174.261
84.3691 138.052 174.34
83.4817 138.757 171.269
84.5702 137.436 169.912
84.664 139.033 171.127
85.1165 131.533 171.789
86.2262 132.745 172.274
86.1068 130.82 172.356
85.0095 130.638 166.228
84.1577 132.437 166.068
84.3363 131.615 167.592
88.5662 136.607 175.687
88.4039 136.043 175.024
87.9593 136.682 175.325
88.3139 135.496 174.359
88.7242 135.326 174.658
89.0802 136.423 176.09
88.7746 137.106 176.34
87.4639 137.284 175.546
87.3386 136.769 175.014
89.2062 135.166 174.805
89.4439 135.783 175.492
89.5468 134.795 174.978
89.7002 136.162 176.176
88.9775 134.48 174.194
89.7334 133.955 174.387
89.9723 134.46 174.978
88.3646 137.841 176.347
87.6359 137.906 175.914
87.7852 138.453 176.323
86.9938 137.968 175.433
89.0716 137.717 176.767
87.9479 139.017 176.558
87.159 138.982 176.173
87.3377 136.19 174.479
87.8497 135.548 174.096
87.3316 135.624 173.829
88.1561 134.898 173.812
86.8242 136.795 174.591
86.7827 135.707 173.647
87.2419 135.106 173.393
88.4063 132.916 173.392
88.5349 131.852 173.271
88.0891 132.189 173.066
88.6148 130.78 173.287
88.9538 131.457 173.488
88.672 133.641 173.792
88.2757 133.962 173.617
87.6032 132.485 172.938
87.6506 131.536 172.904
89.2109 132.307 173.739
89.0901 133.434 173.92
89.4811 133.253 174.009
89.4692 131.286 173.584
89.8963 133.13 174.085
87.8517 134.157 173.432
87.4895 133.424 173.12
87.3994 134.308 173.258
87.1233 132.841 172.772
86.9468 134.543 173.042
87.6335 130.575 173
88.207 130.212 173.153
87.7888 129.8 172.926
88.8412 129.865 173.291
87.0979 130.979 172.776
87.3931 129.513 172.482
88.0936 129.097 172.492
87.1593 135.923 167.375
87.3707 136.684 168.254
86.7426 136.777 168.292
87.6207 137.298 169.091
87.9748 136.614 168.358
87.5999 135.326 166.504
86.9204 135.272 166.476
86.1359 136.791 168.564
86.2925 137.489 169.218
88.4301 135.931 167.676
88.2372 135.378 166.697
88.8831 135.323 166.989
87.9491 134.586 165.916
88.6107 136.487 168.566
89.3789 135.162 167.38
89.0762 134.416 166.681
86.2475 135.397 166.646
85.972 136.133 167.811
85.658 135.503 167.03
85.5906 136.801 168.871
86.4923 134.671 165.754
85.2061 134.96 166.385
85.1056 135.547 167.452
86.4861 138.069 169.883
87.147 137.897 169.867
86.7324 138.578 170.575
87.7834 137.791 169.961
85.831 138.254 169.99
86.2679 139.327 171.242
86.959 139.145 171.211
87.3856 131.94 165.068
87.1286 133.016 164.775
86.5979 132.059 164.717
86.8143 133.965 165.075
87.6432 133.865 165.206
88.1054 131.846 165.486
87.6266 131.091 165.532
86.1905 131.321 164.715
85.6854 132.348 164.598
88.327 133.743 165.578
88.5425 132.699 165.655
88.9042 133.62 166.037
88.7029 131.757 166.016
89.3896 133.484 166.591
87.296 130.434 165.636
86.6519 130.522 165.147
86.9483 129.999 165.986
85.72 130.616 165.044
87.8391 130.381 166.291
87.2722 129.362 166.562
86.6977 129.667 166.47
85.3658 133.48 164.78
85.9704 134.124 165.152
85.2276 134.27 165.543
84.7472 132.707 164.822
84.6862 134.461 166.045
91.308 133.886 173.247
91.2486 133.245 172.534
91.3702 132.74 172.915
91.2625 132.782 171.822
91.1451 133.767 172.102
91.2816 135.071 173.697
91.1638 134.521 174.028
91.2682 132.281 173.284
91.3566 131.557 172.661
91.149 134.784 172.414
91.2016 135.461 173.271
91.1487 135.819 172.753
91.1129 136.036 174.138
91.0982 134.267 171.617
90.9037 136.154 172.317
90.845 136.678 173.163
91.0068 134.02 174.205
91.0709 133.007 173.849
90.7097 133.624 174.23
90.946 131.804 173.516
91.0965 135.073 174.803
90.4293 134.144 174.603
90.3559 133.271 174.178
91.2229 131.143 172.043
91.2288 131.787 171.558
91.1026 130.855 171.371
91.2319 132.416 171.02
91.2505 130.468 172.484
91.0565 129.939 171.178
90.7616 130.533 170.712
90.9962 133.539 170.111
90.7647 134.137 169.74
90.8026 133.211 169.372
90.5216 134.71 169.396
90.6471 135.042 170.1
91.1041 133.896 170.88
91.078 132.97 170.564
90.6752 132.163 169.105
90.5807 132.777 168.633
90.7803 135.398 170.821
90.9685 134.772 171.208
90.8627 135.781 171.585
90.4748 136.083 170.579
90.618 136.706 172.022
90.9924 132.051 170.332
90.6195 131.557 169.628
90.6781 131.025 170.175
90.3462 131.133 168.912
90.6179 130.16 170.007
90.4322 133.447 168.226
90.4244 134.463 168.653
90.3003 134.105 167.866
90.1845 135.287 169.169
90.184 132.344 167.961
89.8335 133.688 167.235
89.8059 134.713 167.729
84.9001 135.026 172.095
84.3505 135.25 171.891
84.7441 135.758 172.395
83.8171 135.533 171.713
84.0057 134.83 171.423
84.841 134.113 171.989
85.3169 134.688 172.254
85.0983 136.135 172.87
84.5128 136.453 172.828
84.0969 134.112 171.202
84.4282 133.594 171.549
84.2489 133.244 170.942
84.8566 133.046 171.751
83.8888 134.44 170.798
84.2264 132.873 170.213
84.3759 132.385 170.675
85.755 135.151 172.48
85.673 135.871 172.783
86.0813 135.43 172.85
85.4146 136.417 173.34
85.7233 134.24 172.379
86.536 134.944 172.815
86.4124 135.673 173.214
83.9861 136.73 172.781
83.6283 136.247 172.113
83.51 137.007 172.563
83.3843 135.809 171.478
84.3093 137.15 173.321
83.4459 137.699 172.96
83.1314 137.307 172.273
83.7185 135.063 170.097
83.8443 134.572 169.25
83.7283 135.531 169.82
83.9677 134.114 168.32
83.9347 133.76 168.734
83.746 134.689 170.435
83.5143 135.462 170.804
83.5357 136.483 170.372
83.9684 136.016 169.715
83.9971 133.497 169.212
83.8599 133.956 170.074
84.1117 133.176 169.727
84.1485 132.975 168.366
84.4292 132.458 169.489
83.101 136.216 171.188
83.0944 136.785 170.959
82.9473 137.093 171.658
83.2994 137.324 170.784
82.9603 137.9 172.128
84.2025 135.553 168.842
84.0557 134.549 168.025
84.3307 135.04 167.855
84.0266 133.716 167.355
84.2252 136.389 169.601
84.6454 135.406 167.731
84.3394 134.71 166.793
88.9077 140.106 174.672
88.2056 140.786 174.479
88.6447 140.153 173.903
87.2938 141.109 174.17
87.4032 140.987 174.893
89.2095 140.037 175.425
89.6174 139.573 174.768
88.9984 139.468 173.311
88.4874 139.989 173.122
87.5871 140.624 175.605
88.6438 140.256 175.967
87.8396 140.147 176.177
89.3947 139.569 176.088
86.5431 140.904 175.217
87.0773 139.972 176.141
87.9983 139.595 176.42
89.8627 138.957 174.089
89.5192 138.872 173.374
90.0504 138.246 173.408
89.3247 138.645 172.605
90.1973 138.828 174.817
90.5065 137.514 173.405
90.2974 137.516 172.715
87.8936 140.375 172.864
87.1924 140.909 173.438
87.1825 140.472 172.597
86.3712 141.135 173.822
88.3317 139.589 172.309
87.1352 139.813 171.844
86.4659 140.314 172.279
84.6438 141.017 174.406
83.8305 140.882 174.699
83.7469 141.008 173.881
83.6225 140.04 174.701
84.3691 140.131 175.101
85.5655 140.994 174.851
85.475 141.133 174.131
83.9707 140.832 173.045
83.2331 140.602 173.333
85.1684 140.186 175.548
85.7981 140.766 175.446
86.1361 140.159 175.922
84.8895 139.45 175.346
86.5536 139.522 176.079
85.5179 141.053 173.341
84.8214 140.813 172.841
85.6203 140.501 172.626
84.4085 140.287 172.182
85.8999 139.98 171.872
82.7325 139.952 173.444
83.0402 139.575 174.114
82.9344 139.098 173.411
83.7749 139.043 174.362
83.0665 139.804 172.584
82.984 138.624 172.77
83.2596 138.437 173.302
88.6616 127.57 170.021
89.363 127.565 170.657
89.2174 127.725 169.703
89.9624 127.845 171.149
89.4283 127.731 171.337
88.0818 127.751 170.261
87.9273 127.755 169.425
89.0142 128.105 168.78
89.6129 128.134 169.367
88.8849 127.747 171.447
88.1448 127.742 170.972
88.2139 127.951 171.504
87.5887 128.102 170.358
89.4727 128.039 171.886
88.2439 128.454 171.98
87.6815 128.464 171.605
87.7791 128.02 168.51
88.3402 128.211 168.2
87.6186 128.434 167.715
88.7799 128.539 167.964
87.2312 128.243 168.846
86.9202 128.794 167.331
87.4373 128.91 167.137
90.1305 128.371 169.866
90.3789 128.234 170.752
90.6354 128.667 170.319
90.4606 128.352 171.526
89.8916 128.634 169
90.8095 129.39 170.017
90.9892 129.2 170.826
86.1928 129.568 169.808
86.5271 128.986 169.371
86.2133 129.704 168.963
86.8162 128.584 169.12
86.9757 128.462 169.833
86.1045 129.58 170.634
85.6369 130.126 170.329
85.7018 130.115 168.688
86.1174 129.694 168.187
87.0729 128.449 170.534
86.5755 129.118 170.995
87.1376 128.748 171.279
86.1549 129.866 171.48
87.2235 129.148 171.915
85.1516 130.545 170.117
85.0789 130.506 169.289
84.7452 131.136 169.875
85.0031 130.623 168.5
85.1755 130.671 170.895
84.4799 131.609 170.314
84.526 131.735 169.594
86.3464 129.305 167.889
86.6661 128.799 168.331
86.5183 128.977 167.587
85.8867 129.87 167.491
86.5318 129.297 167.024
90.5548 137.289 176.461
90.54 137.921 176.012
90.8818 136.879 175.707
90.4515 138.459 175.439
90.0671 138.848 176.113
89.7789 137.586 176.881
90.1404 136.541 176.619
91.0187 136.035 175.335
91.0479 136.501 174.945
89.3941 139.112 176.587
89.3121 138.422 176.84
88.6114 139.118 176.61
90.2576 135.835 175.915
90.7776 135.497 175.463
90.3402 134.919 175.314
90.8975 136.929 174.47
90.6833 137.955 174.719
90.6808 137.259 173.956
89.0451 137.801 171.114
88.9826 137.389 170.214
89.4768 136.992 170.349
88.9256 137.023 169.352
88.4455 137.66 170.075
88.7053 138.742 171.738
89.1437 138.283 171.867
90.0337 136.625 170.478
89.8604 136.164 169.69
88.0183 138.342 170.791
88.2302 139.078 171.531
87.649 139.18 171.308
89.6904 137.813 171.931
90.1921 137.01 171.194
90.2011 137.266 171.979
89.7702 135.873 168.982
89.2409 136.256 168.752
89.6227 135.529 168.166
90.0128 129.492 173.489
90.6416 129.662 173.356
90.3696 128.867 173.063
91.1158 129.952 172.975
90.6573 130.605 173.195
89.6934 130.299 173.623
89.4069 129.554 173.494
89.9015 128.261 172.569
90.4917 128.56 172.279
90.4883 131.485 173.585
89.9734 131.288 173.638
90.1988 132.257 173.897
89.0781 129.04 173.099
89.2846 128.319 172.659
88.7155 128.69 172.488
90.8103 128.861 171.963
91.1016 129.543 172.269
91.0691 129.323 171.559
89.6109 130.507 167.747
89.0382 130.354 167.171
89.3596 129.72 167.749
88.3766 130.339 166.742
88.7844 131.016 166.614
89.8859 131.372 167.786
90.0187 130.754 168.288
89.6584 129.091 168.297
89.1054 129.02 167.784
89.3026 131.852 166.586
89.7383 132.017 167.334
89.5947 132.701 166.906
90.2763 130.209 168.812
90.1993 129.308 168.787
90.5453 129.721 169.396
88.5186 129.006 167.27
88.1013 129.772 166.836
87.8459 129.257 166.905
85.6222 137.867 174.703
85.0694 137.688 174.269
84.9344 138.297 174.645
84.5866 137.41 173.879
85.2222 137.037 173.824
86.2819 137.377 174.663
86.2137 137.986 175.097
84.8846 138.873 174.971
84.2883 138.642 174.593
85.7883 136.598 173.837
86.2881 136.73 174.228
86.334 136.167 173.715
86.2851 138.422 175.454
85.6258 138.958 175.394
86.3285 138.98 175.888
83.8452 138.376 174.156
84.1086 137.728 173.788
83.6823 138.07 173.571
84.0605 138.177 170.583
84.5866 138.345 170.473
84.0391 139.011 171.23
85.165 138.328 170.255
85.1068 137.539 169.696
84.1633 137.245 170.162
83.5739 137.823 170.637
83.5029 139.505 171.8
84.1999 139.651 171.733
85.0608 136.737 169.083
84.5672 136.618 169.338
84.8937 136.098 168.407
83.1791 138.247 171.364
83.0584 139.154 171.985
82.9665 138.557 172.084
84.8578 139.695 171.565
85.3249 138.867 170.907
85.61 139.56 171.334
85.6169 132.084 172.154
86.1798 131.762 172.324
85.5852 131.108 172.113
86.6193 131.378 172.562
86.7438 132.365 172.461
85.669 133.13 172.232
85.1918 132.56 171.957
85.254 130.746 171.604
85.7968 130.432 171.857
86.6602 133.311 172.573
86.1783 133.724 172.41
86.5901 134.167 172.66
84.7392 132.093 171.588
84.8089 131.187 171.311
84.4773 131.728 171.019
86.3717 130.18 172.073
86.6431 130.506 172.588
86.8898 129.835 172.308
84.4137 131.505 166.009
84.168 132.018 166.837
84.5374 131.092 166.907
84.2649 132.477 167.593
84.1497 132.854 166.95
84.4317 132.011 165.294
84.8632 130.959 165.301
85.2271 130.407 167.103
84.7659 130.82 167.751
84.1287 133.351 166.467
84.2452 133.068 165.508
84.2406 133.962 166.092
85.5762 130.316 165.811
85.6809 130.069 166.676
86.2453 129.846 166.493
84.5361 131.359 168.325
84.3593 132.18 168.23
84.5362 131.957 168.905
POLYGONS 1280  5120
3 164 162 163
3 163 44 164
3 162 43 163
3 164 42 162
3 166 165 163
3 163 43 166
3 165 44 163
3 166 14 165
3 168 167 162
3 162 42 168
3 167 43 162
3 168 13 167
3 170 169 164
3 164 44 170
3 169 42 164
3 170 12 169
3 173 171 172
3 172 46 173
3 171 43 172
3 173 45 171
3 167 174 172
3 172 43 167
3 174 46 172
3 167 13 174
3 175 166 171
3 171 45 175
3 166 43 171
3 175 14 166
3 177 176 173
3 173 46 177
3 176 45 173
3 177 4 176
3 180 178 179
3 179 48 180
3 178 42 179
3 180 47 178
3 169 181 179
3 179 42 169
3 181 48 179
3 169 12 181
3 182 168 178
3 178 47 182
3 168 42 178
3 182 13 168
3 184 183 180
3 180 48 184
3 183 47 180
3 184 8 183
3 187 185 186
3 186 50 187
3 185 44 186
3 187 49 185
3 165 188 186
3 186 44 165
3 188 50 186
3 165 14 188
3 189 170 185
3 185 49 189
3 170 44 185
3 189 12 170
3 191 190 187
3 187 50 191
3 190 49 187
3 191 7 190
3 194 192 193
3 193 53 194
3 192 52 193
3 194 51 192
3 196 195 193
3 193 52 196
3 195 53 193
3 196 16 195
3 198 197 192
3 192 51 198
3 197 52 192
3 198 14 197
3 200 199 194
3 194 53 200
3 199 51 194
3 200 15 199
3 203 201 202
3 202 45 203
3 201 52 202
3 203 54 201
3 197 175 202
3 202 52 197
3 175 45 202
3 197 14 175
3 204 196 201
3 201 54 204
3 196 52 201
3 204 16 196
3 176 205 203
3 203 45 176
3 205 54 203
3 176 4 205
3 208 206 207
3 207 55 208
3 206 51 207
3 208 50 206
3 199 209 207
3 207 51 199
3 209 55 207
3 199 15 209
3 188 198 206
3 206 50 188
3 198 51 206
3 188 14 198
3 210 191 208
3 208 55 210
3 191 50 208
3 210 7 191
3 213 211 212
3 212 57 213
3 211 53 212
3 213 56 211
3 195 214 212
3 212 53 195
3 214 57 212
3 195 16 214
3 215 200 211
3 211 56 215
3 200 53 211
3 215 15 200
3 217 216 213
3 213 57 217
3 216 56 213
3 217 9 216
3 220 218 219
3 219 60 220
3 218 59 219
3 220 58 218
3 222 221 219
3 219 59 222
3 221 60 219
3 222 19 221
3 224 223 218
3 218 58 224
3 223 59 218
3 224 18 223
3 226 225 220
3 220 60 226
3 225 58 220
3 226 17 225
3 229 227 228
3 228 62 229
3 227 59 228
3 229 61 227
3 223 230 228
3 228 59 223
3 230 62 228
3 223 18 230
3 231 222 227
3 227 61 231
3 222 59 227
3 231 19 222
3 233 232 229
3 229 62 233
3 232 61 229
3 233 5 232
3 236 234 235
3 235 64 236
3 234 58 235
3 236 63 234
3 225 237 235
3 235 58 225
3 237 64 235
3 225 17 237
3 238 224 234
3 234 63 238
3 224 58 234
3 238 18 224
3 240 239 236
3 236 64 240
3 239 63 236
3 240 6 239
3 243 241 242
3 242 66 243
3 241 60 242
3 243 65 241
3 221 244 242
3 242 60 221
3 244 66 242
3 221 19 244
3 245 226 241
3 241 65 245
3 226 60 241
3 245 17 226
3 247 246 243
3 243 66 247
3 246 65 243
3 247 11 246
3 250 248 249
3 249 69 250
3 248 68 249
3 250 67 248
3 252 251 249
3 249 68 252
3 251 69 249
3 252 18 251
3 254 253 248
3 248 67 254
3 253 68 248
3 254 21 253
3 256 255 250
3 250 69 256
3 255 67 250
3 256 20 255
3 259 257 258
3 258 70 259
3 257 68 258
3 259 62 257
3 253 260 258
3 258 68 253
3 260 70 258
3 253 21 260
3 230 252 257
3 257 62 230
3 252 68 257
3 230 18 252
3 261 233 259
3 259 70 261
3 233 62 259
3 261 5 233
3 264 262 263
3 263 72 264
3 262 67 263
3 264 71 262
3 255 265 263
3 263 67 255
3 265 72 263
3 255 20 265
3 266 254 262
3 262 71 266
3 254 67 262
3 266 21 254
3 268 267 264
3 264 72 268
3 267 71 264
3 268 10 267
3 271 269 270
3 270 63 271
3 269 69 270
3 271 73 269
3 251 238 270
3 270 69 251
3 238 63 270
3 251 18 238
3 272 256 269
3 269 73 272
3 256 69 269
3 272 20 256
3 239 273 271
3 271 63 239
3 273 73 271
3 239 6 273
3 276 274 275
3 275 76 276
3 274 75 275
3 276 74 274
3 278 277 275
3 275 75 278
3 277 76 275
3 278 24 277
3 280 279 274
3 274 74 280
3 279 75 274
3 280 23 279
3 282 281 276
3 276 76 282
3 281 74 276
3 282 22 281
3 285 283 284
3 284 78 285
3 283 75 284
3 285 77 283
3 279 286 284
3 284 75 279
3 286 78 284
3 279 23 286
3 287 278 283
3 283 77 287
3 278 75 283
3 287 24 278
3 289 288 285
3 285 78 289
3 288 77 285
3 289 0 288
3 292 290 291
3 291 80 292
3 290 74 291
3 292 79 290
3 281 293 291
3 291 74 281
3 293 80 291
3 281 22 293
3 294 280 290
3 290 79 294
3 280 74 290
3 294 23 280
3 296 295 292
3 292 80 296
3 295 79 292
3 296 4 295
3 299 297 298
3 298 82 299
3 297 76 298
3 299 81 297
3 277 300 298
3 298 76 277
3 300 82 298
3 277 24 300
3 301 282 297
3 297 81 301
3 282 76 297
3 301 22 282
3 303 302 299
3 299 82 303
3 302 81 299
3 303 3 302
3 306 304 305
3 305 85 306
3 304 84 305
3 306 83 304
3 308 307 305
3 305 84 308
3 307 85 305
3 308 26 307
3 310 309 304
3 304 83 310
3 309 84 304
3 310 24 309
3 312 311 306
3 306 85 312
3 311 83 306
3 312 25 311
3 315 313 314
3 314 77 315
3 313 84 314
3 315 86 313
3 309 287 314
3 314 84 309
3 287 77 314
3 309 24 287
3 316 308 313
3 313 86 316
3 308 84 313
3 316 26 308
3 288 317 315
3 315 77 288
3 317 86 315
3 288 0 317
3 320 318 319
3 319 87 320
3 318 83 319
3 320 82 318
3 311 321 319
3 319 83 311
3 321 87 319
3 311 25 321
3 300 310 318
3 318 82 300
3 310 83 318
3 300 24 310
3 322 303 320
3 320 87 322
3 303 82 320
3 322 3 303
3 325 323 324
3 324 89 325
3 323 85 324
3 325 88 323
3 307 326 324
3 324 85 307
3 326 89 324
3 307 26 326
3 327 312 323
3 323 88 327
3 312 85 323
3 327 25 312
3 329 328 325
3 325 89 329
3 328 88 325
3 329 5 328
3 332 330 331
3 331 92 332
3 330 91 331
3 332 90 330
3 334 333 331
3 331 91 334
3 333 92 331
3 334 29 333
3 336 335 330
3 330 90 336
3 335 91 330
3 336 28 335
3 338 337 332
3 332 92 338
3 337 90 332
3 338 27 337
3 341 339 340
3 340 94 341
3 339 91 340
3 341 93 339
3 335 342 340
3 340 91 335
3 342 94 340
3 335 28 342
3 343 334 339
3 339 93 343
3 334 91 339
3 343 29 334
3 345 344 341
3 341 94 345
3 344 93 341
3 345 2 344
3 348 346 347
3 347 96 348
3 346 90 347
3 348 95 346
3 337 349 347
3 347 90 337
3 349 96 347
3 337 27 349
3 350 336 346
3 346 95 350
3 336 90 346
3 350 28 336
3 352 351 348
3 348 96 352
3 351 95 348
3 352 7 351
3 355 353 354
3 354 98 355
3 353 92 354
3 355 97 353
3 333 356 354
3 354 92 333
3 356 98 354
3 333 29 356
3 357 338 353
3 353 97 357
3 338 92 353
3 357 27 338
3 359 358 355
3 355 98 359
3 358 97 355
3 359 1 358
3 362 360 361
3 361 101 362
3 360 100 361
3 362 99 360
3 364 363 361
3 361 100 364
3 363 101 361
3 364 31 363
3 366 365 360
3 360 99 366
3 365 100 360
3 366 29 365
3 368 367 362
3 362 101 368
3 367 99 362
3 368 30 367
3 371 369 370
3 370 93 371
3 369 100 370
3 371 102 369
3 365 343 370
3 370 100 365
3 343 93 370
3 365 29 343
3 372 364 369
3 369 102 372
3 364 100 369
3 372 31 364
3 344 373 371
3 371 93 344
3 373 102 371
3 344 2 373
3 376 374 375
3 375 103 376
3 374 99 375
3 376 98 374
3 367 377 375
3 375 99 367
3 377 103 375
3 367 30 377
3 356 366 374
3 374 98 356
3 366 99 374
3 356 29 366
3 378 359 376
3 376 103 378
3 359 98 376
3 378 1 359
3 381 379 380
3 380 105 381
3 379 101 380
3 381 104 379
3 363 382 380
3 380 101 363
3 382 105 380
3 363 31 382
3 383 368 379
3 379 104 383
3 368 101 379
3 383 30 368
3 385 384 381
3 381 105 385
3 384 104 381
3 385 6 384
3 388 386 387
3 387 108 388
3 386 107 387
3 388 106 386
3 390 389 387
3 387 107 390
3 389 108 387
3 390 34 389
3 392 391 386
3 386 106 392
3 391 107 386
3 392 33 391
3 394 393 388
3 388 108 394
3 393 106 388
3 394 32 393
3 397 395 396
3 396 110 397
3 395 107 396
3 397 109 395
3 391 398 396
3 396 107 391
3 398 110 396
3 391 33 398
3 399 390 395
3 395 109 399
3 390 107 395
3 399 34 390
3 401 400 397
3 397 110 401
3 400 109 397
3 401 8 400
3 404 402 403
3 403 112 404
3 402 106 403
3 404 111 402
3 393 405 403
3 403 106 393
3 405 112 403
3 393 32 405
3 406 392 402
3 402 111 406
3 392 106 402
3 406 33 392
3 408 407 404
3 404 112 408
3 407 111 404
3 408 0 407
3 411 409 410
3 410 114 411
3 409 108 410
3 411 113 409
3 389 412 410
3 410 108 389
3 412 114 410
3 389 34 412
3 413 394 409
3 409 113 413
3 394 108 409
3 413 32 394
3 415 414 411
3 411 114 415
3 414 113 411
3 415 11 414
3 418 416 417
3 417 117 418
3 416 116 417
3 418 115 416
3 420 419 417
3 417 116 420
3 419 117 417
3 420 36 419
3 422 421 416
3 416 115 422
3 421 116 416
3 422 34 421
3 424 423 418
3 418 117 424
3 423 115 418
3 424 35 423
3 427 425 426
3 426 109 427
3 425 116 426
3 427 118 425
3 421 399 426
3 426 116 421
3 399 109 426
3 421 34 399
3 428 420 425
3 425 118 428
3 420 116 425
3 428 36 420
3 400 429 427
3 427 109 400
3 429 118 427
3 400 8 429
3 432 430 431
3 431 119 432
3 430 115 431
3 432 114 430
3 423 433 431
3 431 115 423
3 433 119 431
3 423 35 433
3 412 422 430
3 430 114 412
3 422 115 430
3 412 34 422
3 434 415 432
3 432 119 434
3 415 114 432
3 434 11 415
3 437 435 436
3 436 121 437
3 435 117 436
3 437 120 435
3 419 438 436
3 436 117 419
3 438 121 436
3 419 36 438
3 439 424 435
3 435 120 439
3 424 117 435
3 439 35 424
3 441 440 437
3 437 121 441
3 440 120 437
3 441 1 440
3 444 442 443
3 443 124 444
3 442 123 443
3 444 122 442
3 446 445 443
3 443 123 446
3 445 124 443
3 446 39 445
3 448 447 442
3 442 122 448
3 447 123 442
3 448 38 447
3 450 449 444
3 444 124 450
3 449 122 444
3 450 37 449
3 453 451 452
3 452 126 453
3 451 123 452
3 453 125 451
3 447 454 452
3 452 123 447
3 454 126 452
3 447 38 454
3 455 446 451
3 451 125 455
3 446 123 451
3 455 39 446
3 457 456 453
3 453 126 457
3 456 125 453
3 457 9 456
3 460 458 459
3 459 128 460
3 458 122 459
3 460 127 458
3 449 461 459
3 459 122 449
3 461 128 459
3 449 37 461
3 462 448 458
3 458 127 462
3 448 122 458
3 462 38 448
3 464 463 460
3 460 128 464
3 463 127 460
3 464 10 463
3 467 465 466
3 466 130 467
3 465 124 466
3 467 129 465
3 445 468 466
3 466 124 445
3 468 130 466
3 445 39 468
3 469 450 465
3 465 129 469
3 450 124 465
3 469 37 450
3 471 470 467
3 467 130 471
3 470 129 467
3 471 3 470
3 474 472 473
3 473 133 474
3 472 132 473
3 474 131 472
3 476 475 473
3 473 132 476
3 475 133 473
3 476 38 475
3 478 477 472
3 472 131 478
3 477 132 472
3 478 41 477
3 480 479 474
3 474 133 480
3 479 131 474
3 480 40 479
3 483 481 482
3 482 134 483
3 481 132 482
3 483 126 481
3 477 484 482
3 482 132 477
3 484 134 482
3 477 41 484
3 454 476 481
3 481 126 454
3 476 132 481
3 454 38 476
3 485 457 483
3 483 134 485
3 457 126 483
3 485 9 457
3 488 486 487
3 487 136 488
3 486 131 487
3 488 135 486
3 479 489 487
3 487 131 479
3 489 136 487
3 479 40 489
3 490 478 486
3 486 135 490
3 478 131 486
3 490 41 478
3 492 491 488
3 488 136 492
3 491 135 488
3 492 2 491
3 495 493 494
3 494 127 495
3 493 133 494
3 495 137 493
3 475 462 494
3 494 133 475
3 462 127 494
3 475 38 462
3 496 480 493
3 493 137 496
3 480 133 493
3 496 40 480
3 463 497 495
3 495 127 463
3 497 137 495
3 463 10 497
3 500 498 499
3 499 140 500
3 498 139 499
3 500 138 498
3 502 501 499
3 499 139 502
3 501 140 499
3 502 33 501
3 504 503 498
3 498 138 504
3 503 139 498
3 504 13 503
3 506 505 500
3 500 140 506
3 505 138 500
3 506 23 505
3 509 507 508
3 508 47 509
3 507 139 508
3 509 110 507
3 503 182 508
3 508 139 503
3 182 47 508
3 503 13 182
3 398 502 507
3 507 110 398
3 502 139 507
3 398 33 502
3 183 401 509
3 509 47 183
3 401 110 509
3 183 8 401
3 512 510 511
3 511 79 512
3 510 138 511
3 512 46 510
3 505 294 511
3 511 138 505
3 294 79 511
3 505 23 294
3 174 504 510
3 510 46 174
3 504 138 510
3 174 13 504
3 295 177 512
3 512 79 295
3 177 46 512
3 295 4 177
3 515 513 514
3 514 111 515
3 513 140 514
3 515 78 513
3 501 406 514
3 514 140 501
3 406 111 514
3 501 33 406
3 286 506 513
3 513 78 286
3 506 140 513
3 286 23 506
3 407 289 515
3 515 111 407
3 289 78 515
3 407 0 289
3 518 516 517
3 517 143 518
3 516 142 517
3 518 141 516
3 520 519 517
3 517 142 520
3 519 143 517
3 520 19 519
3 522 521 516
3 516 141 522
3 521 142 516
3 522 32 521
3 524 523 518
3 518 143 524
3 523 141 518
3 524 26 523
3 527 525 526
3 526 113 527
3 525 142 526
3 527 66 525
3 521 413 526
3 526 142 521
3 413 113 526
3 521 32 413
3 244 520 525
3 525 66 244
3 520 142 525
3 244 19 520
3 414 247 527
3 527 113 414
3 247 66 527
3 414 11 247
3 530 528 529
3 529 86 530
3 528 141 529
3 530 112 528
3 523 316 529
3 529 141 523
3 316 86 529
3 523 26 316
3 405 522 528
3 528 112 405
3 522 141 528
3 405 32 522
3 317 408 530
3 530 86 317
3 408 112 530
3 317 0 408
3 533 531 532
3 532 61 533
3 531 143 532
3 533 89 531
3 519 231 532
3 532 143 519
3 231 61 532
3 519 19 231
3 326 524 531
3 531 89 326
3 524 143 531
3 326 26 524
3 232 329 533
3 533 61 232
3 329 89 533
3 232 5 329
3 536 534 535
3 535 146 536
3 534 145 535
3 536 144 534
3 538 537 535
3 535 145 538
3 537 146 535
3 538 22 537
3 540 539 534
3 534 144 540
3 539 145 534
3 540 16 539
3 542 541 536
3 536 146 542
3 541 144 536
3 542 39 541
3 545 543 544
3 544 54 545
3 543 145 544
3 545 80 543
3 539 204 544
3 544 145 539
3 204 54 544
3 539 16 204
3 293 538 543
3 543 80 293
3 538 145 543
3 293 22 538
3 205 296 545
3 545 54 205
3 296 80 545
3 205 4 296
3 548 546 547
3 547 125 548
3 546 144 547
3 548 57 546
3 541 455 547
3 547 144 541
3 455 125 547
3 541 39 455
3 214 540 546
3 546 57 214
3 540 144 546
3 214 16 540
3 456 217 548
3 548 125 456
3 217 57 548
3 456 9 217
3 551 549 550
3 550 81 551
3 549 146 550
3 551 130 549
3 537 301 550
3 550 146 537
3 301 81 550
3 537 22 301
3 468 542 549
3 549 130 468
3 542 146 549
3 468 39 542
3 302 471 551
3 551 81 302
3 471 130 551
3 302 3 471
3 554 552 553
3 553 149 554
3 552 148 553
3 554 147 552
3 556 555 553
3 553 148 556
3 555 149 553
3 556 21 555
3 558 557 552
3 552 147 558
3 557 148 552
3 558 25 557
3 560 559 554
3 554 149 560
3 559 147 554
3 560 37 559
3 563 561 562
3 562 88 563
3 561 148 562
3 563 70 561
3 557 327 562
3 562 148 557
3 327 88 562
3 557 25 327
3 260 556 561
3 561 70 260
3 556 148 561
3 260 21 556
3 328 261 563
3 563 88 328
3 261 70 563
3 328 5 261
3 566 564 565
3 565 129 566
3 564 147 565
3 566 87 564
3 559 469 565
3 565 147 559
3 469 129 565
3 559 37 469
3 321 558 564
3 564 87 321
3 558 147 564
3 321 25 558
3 470 322 566
3 566 129 470
3 322 87 566
3 470 3 322
3 569 567 568
3 568 71 569
3 567 149 568
3 569 128 567
3 555 266 568
3 568 149 555
3 266 71 568
3 555 21 266
3 461 560 567
3 567 128 461
3 560 149 567
3 461 37 560
3 267 464 569
3 569 71 267
3 464 128 569
3 267 10 464
3 572 570 571
3 571 152 572
3 570 151 571
3 572 150 570
3 574 573 571
3 571 151 574
3 573 152 571
3 574 27 573
3 576 575 570
3 570 150 576
3 575 151 570
3 576 12 575
3 578 577 572
3 572 152 578
3 577 150 572
3 578 36 577
3 581 579 580
3 580 49 581
3 579 151 580
3 581 96 579
3 575 189 580
3 580 151 575
3 189 49 580
3 575 12 189
3 349 574 579
3 579 96 349
3 574 151 579
3 349 27 574
3 190 352 581
3 581 49 190
3 352 96 581
3 190 7 352
3 584 582 583
3 583 118 584
3 582 150 583
3 584 48 582
3 577 428 583
3 583 150 577
3 428 118 583
3 577 36 428
3 181 576 582
3 582 48 181
3 576 150 582
3 181 12 576
3 429 184 584
3 584 118 429
3 184 48 584
3 429 8 184
3 587 585 586
3 586 97 587
3 585 152 586
3 587 121 585
3 573 357 586
3 586 152 573
3 357 97 586
3 573 27 357
3 438 578 585
3 585 121 438
3 578 152 585
3 438 36 578
3 358 441 587
3 587 97 358
3 441 121 587
3 358 1 441
3 590 588 589
3 589 155 590
3 588 154 589
3 590 153 588
3 592 591 589
3 589 154 592
3 591 155 589
3 592 17 591
3 594 593 588
3 588 153 594
3 593 154 588
3 594 30 593
3 596 595 590
3 590 155 596
3 595 153 590
3 596 35 595
3 599 597 598
3 598 104 599
3 597 154 598
3 599 64 597
3 593 383 598
3 598 154 593
3 383 104 598
3 593 30 383
3 237 592 597
3 597 64 237
3 592 154 597
3 237 17 592
3 384 240 599
3 599 104 384
3 240 64 599
3 384 6 240
3 602 600 601
3 601 120 602
3 600 153 601
3 602 103 600
3 595 439 601
3 601 153 595
3 439 120 601
3 595 35 439
3 377 594 600
3 600 103 377
3 594 153 600
3 377 30 594
3 440 378 602
3 602 120 440
3 378 103 602
3 440 1 378
3 605 603 604
3 604 65 605
3 603 155 604
3 605 119 603
3 591 245 604
3 604 155 591
3 245 65 604
3 591 17 245
3 433 596 603
3 603 119 433
3 596 155 603
3 433 35 596
3 246 434 605
3 605 65 246
3 434 119 605
3 246 11 434
3 608 606 607
3 607 158 608
3 606 157 607
3 608 156 606
3 610 609 607
3 607 157 610
3 609 158 607
3 610 15 609
3 612 611 606
3 606 156 612
3 611 157 606
3 612 28 611
3 614 613 608
3 608 158 614
3 613 156 608
3 614 41 613
3 617 615 616
3 616 95 617
3 615 157 616
3 617 55 615
3 611 350 616
3 616 157 611
3 350 95 616
3 611 28 350
3 209 610 615
3 615 55 209
3 610 157 615
3 209 15 610
3 351 210 617
3 617 95 351
3 210 55 617
3 351 7 210
3 620 618 619
3 619 135 620
3 618 156 619
3 620 94 618
3 613 490 619
3 619 156 613
3 490 135 619
3 613 41 490
3 342 612 618
3 618 94 342
3 612 156 618
3 342 28 612
3 491 345 620
3 620 135 491
3 345 94 620
3 491 2 345
3 623 621 622
3 622 56 623
3 621 158 622
3 623 134 621
3 609 215 622
3 622 158 609
3 215 56 622
3 609 15 215
3 484 614 621
3 621 134 484
3 614 158 621
3 484 41 614
3 216 485 623
3 623 56 216
3 485 134 623
3 216 9 485
3 626 624 625
3 625 161 626
3 624 160 625
3 626 159 624
3 628 627 625
3 625 160 628
3 627 161 625
3 628 31 627
3 630 629 624
3 624 159 630
3 629 160 624
3 630 20 629
3 632 631 626
3 626 161 632
3 631 159 626
3 632 40 631
3 635 633 634
3 634 73 635
3 633 160 634
3 635 105 633
3 629 272 634
3 634 160 629
3 272 73 634
3 629 20 272
3 382 628 633
3 633 105 382
3 628 160 633
3 382 31 628
3 273 385 635
3 635 73 273
3 385 105 635
3 273 6 385
3 638 636 637
3 637 137 638
3 636 159 637
3 638 72 636
3 631 496 637
3 637 159 631
3 496 137 637
3 631 40 496
3 265 630 636
3 636 72 265
3 630 159 636
3 265 20 630
3 497 268 638
3 638 137 497
3 268 72 638
3 497 10 268
3 641 639 640
3 640 102 641
3 639 161 640
3 641 136 639
3 627 372 640
3 640 161 627
3 372 102 640
3 627 31 372
3 489 632 639
3 639 136 489
3 632 161 639
3 489 40 632
3 373 492 641
3 641 102 373
3 492 136 641
3 373 2 492
