# vtk DataFile Version 3.0
this file was written using fslvtkio
ASCII
DATASET POLYDATA
POINTS 642 float
111.329 107.501 174.077
95.7535 109.072 173.789
99.1907 93.7868 168.521
115.047 92.4781 167.472
111.593 98.4256 179.695
109.703 101.485 164.031
99.6583 102.547 163.783
100.762 98.8524 179.793
104.383 112.962 181.697
107.689 88.3212 171.503
107.923 87.6166 159.051
103.017 116.518 169.351
102.088 106.365 182.36
108.75 106.531 182.745
106.909 98.1681 181.941
104.188 92.2834 176.271
111.041 90.9893 177.247
99.8003 111.251 165.63
104.9 101.389 162.777
105.756 108.801 167.246
104.056 93.9279 162.717
110.076 93.1296 162.123
114.353 94.025 174.056
112.355 103.971 177.829
114.271 99.7897 170.925
112.95 95.4628 164.701
110.753 105.007 168.696
97.6306 104.829 178.139
98.9903 95.8301 174.377
95.8113 101.333 171.163
96.0699 107.475 167.456
97.8441 97.0919 164.825
107.496 112.882 172.544
109.105 112.826 179.217
102.486 117.111 175.987
97.3297 115.938 170.573
98.7711 112.638 178.57
115.705 88.5651 159.894
108.188 85.1329 164.093
113.416 88.2688 169.333
101.979 88.3621 163.073
102.135 87.9867 169.718
105.613 106.354 183.506
107.846 102.388 183.412
104.536 102.276 182.534
109.694 97.8147 181.748
110.243 102.6 181.558
106.889 110.189 183.017
103.259 109.798 182.315
101.211 102.549 181.662
103.662 98.3192 181.153
105.373 94.8269 179.67
108.846 94.3304 179.92
107.541 91.397 177.384
111.689 94.544 178.595
102.293 95.3639 178.259
105.737 89.497 174.241
109.39 88.8995 174.822
102.422 106.717 164.802
104.976 105.423 165.056
102.935 110.224 166.29
107.621 104.902 165.853
107.281 101.629 163.192
102.339 102.285 163.574
99.6587 106.987 164.498
101.534 114.174 166.988
104.477 112.779 168.288
107.074 93.0639 162.105
107.594 97.5851 161.533
104.399 97.8309 161.928
109.958 97.6979 162.346
109.296 90.7578 159.111
105.568 90.6019 160.066
101.71 98.2546 162.871
113.724 98.9544 176.003
113.317 101.355 174.422
114.326 97.2983 172.67
112.655 103.454 172.622
111.932 105.824 176.026
112.247 101.259 178.989
113.204 96.4391 177.099
115.065 93.1859 170.962
114.878 96.1416 169.096
114.319 98.2709 167.471
112.723 102.241 169.729
112.896 100.744 166.464
111.291 106.484 171.251
114.203 93.5832 165.387
111.862 99.0033 164.178
110.174 103.294 166.412
97.839 100.232 176.295
96.7726 98.3416 173.125
95.9417 102.681 174.9
96.9023 97.138 169.889
98.8759 94.5989 171.444
99.7631 97.2149 177.152
98.9852 101.862 179.267
96.2191 106.781 176.161
95.42 105.125 172.596
95.9668 104.346 169.167
96.7993 99.2685 167.851
96.7916 102.123 166.145
98.1442 95.0351 166.533
95.6317 108.411 170.556
97.2096 105.07 164.733
98.5323 99.6257 163.727
108.396 113.757 175.929
106.303 115.858 178.353
105.582 116.567 174.399
103.309 115.61 179.301
107.171 113.518 181.274
110.444 110.371 176.569
109.751 110.357 173.389
105.495 114.731 170.988
102.383 117.563 172.346
99.3894 117.609 172.896
100.105 115.618 177.061
97.4498 114.844 174.69
101.334 113.023 180.271
99.6677 117.227 168.733
96.0677 112.561 172.618
96.9857 111.069 176.334
112.322 86.283 161.632
110.762 87.1264 166.065
114.249 87.8588 164.376
110.426 88.0258 170.45
107.678 86.9853 167.764
108.011 85.5475 160.869
112.056 88.1747 158.423
115.806 90.3441 164.221
115.526 89.9112 168.533
101.582 86.9646 166.089
104.925 86.014 166.683
104.522 85.177 163.062
104.865 88.034 170.573
100.42 90.4281 169.089
100.406 90.7871 165.966
104.454 87.7943 160.652
110.991 105.639 180.632
109.33 109.995 181.345
110.987 108.568 178.695
109.258 109.122 170.665
106.948 111.135 169.573
108.402 107.298 167.964
112.435 88.67 173.634
113.549 92.1941 175.989
114.99 90.1131 172.024
114.664 91.5433 161.829
111.456 94.632 163.278
112.945 91.1199 158.729
100.042 109.89 181.502
99.1634 105.697 181.242
97.8799 108.882 178.777
95.9248 112.077 169.309
97.3289 109.542 165.808
98.0344 114.769 167.082
100.757 91.9558 172.12
101.42 93.5881 175.357
102.994 90.2553 173.019
102.742 91.2382 162.141
100.928 95.9426 163.917
100.393 93.0384 164.487
106.706 104.334 183.757
106.11 102.281 183.251
105.013 104.293 183.157
105.833 100.292 182.392
107.258 100.386 182.983
108.337 104.495 183.566
107.303 106.373 183.507
103.969 106.255 182.939
103.43 104.482 182.578
108.695 100.256 182.708
109.154 102.545 182.748
109.784 100.424 181.935
109.586 104.646 182.474
108.317 98.0662 182.227
110.656 98.1522 180.869
110.777 100.34 180.815
106.291 108.218 183.514
104.489 108.112 183.107
105.194 109.722 183.174
102.724 108.011 182.458
107.872 108.427 183.124
105.611 111.463 182.598
103.956 111.221 182.199
102.928 102.577 182.107
104.173 100.326 181.952
102.567 100.528 181.546
105.307 98.3263 181.568
101.691 104.434 182.252
101.089 100.494 180.969
102.158 98.5952 180.651
107.094 94.5963 179.809
108.114 92.8028 178.751
106.364 93.0114 178.58
109.279 91.1473 177.589
109.827 92.5458 178.804
107.838 96.0826 181.086
106.195 96.4698 180.848
104.841 93.3322 178.126
105.807 91.9089 177.119
110.387 94.1984 179.532
109.289 95.9414 181.194
110.797 96.0991 180.402
111.396 92.6062 178.18
111.719 96.5762 179.349
104.486 96.5279 180.492
103.76 94.8869 179.026
102.821 96.6332 179.896
103.462 93.8022 177.454
101.484 97.1401 179.216
106.586 90.4627 175.948
108.478 90.0152 176.277
107.505 89.257 174.802
110.315 89.7283 176.233
104.992 90.8591 175.42
106.801 88.7769 173.024
108.482 88.5469 173.316
103.867 106.163 164.858
104.046 107.883 165.931
102.66 108.452 165.556
104.289 109.381 166.811
105.25 107.402 166.222
104.7 103.432 164.211
103.58 104.252 164.138
101.167 109.018 165.374
101.456 110.705 165.842
106.221 105.25 165.485
105.911 103.215 164.434
107.129 103.256 164.877
106.053 101.539 162.87
106.708 106.939 166.424
108.411 102.842 165.137
108.429 101.617 163.668
102.342 104.522 164.079
101.017 107.007 164.734
100.979 104.835 164.011
99.7868 109.125 165.269
103.595 102.083 163.25
101.03 102.541 163.709
99.7224 104.697 164.017
102.34 112.102 166.501
103.997 111.471 167.092
103.071 113.628 167.528
105.143 110.774 167.716
100.77 112.599 166.201
102.405 115.607 167.976
103.871 114.731 168.703
107.171 95.6758 161.953
105.979 97.625 161.578
105.79 95.7511 162.099
104.722 99.5678 162.165
106.26 99.2822 161.935
108.679 95.416 162.045
108.454 93.362 161.926
105.673 93.4806 162.337
104.392 95.8243 162.419
107.379 99.8748 162.23
108.67 97.6267 161.96
108.757 99.8273 162.616
109.846 95.6016 162.188
109.843 99.7071 163.111
108.153 91.7513 160.787
106.466 91.8006 160.993
107.463 90.6934 159.377
105.031 92.0972 161.747
109.609 91.9448 160.89
108.515 89.1738 158.632
106.642 89.1935 159.19
103.128 97.9513 162.496
103.391 100.105 162.599
102.057 100.161 162.983
103.032 96.2331 163.021
100.703 100.501 163.332
113.696 100.292 175.291
114.224 99.362 173.63
114.133 98.074 174.378
114.61 98.6457 171.966
114.027 100.544 172.784
112.919 102.405 176.137
113.019 101.292 176.802
114.001 96.5757 174.943
114.234 95.8153 173.438
113.076 102.439 173.517
112.703 103.461 175.265
112.305 104.447 174.327
112.198 104.807 176.904
113.408 101.492 171.897
112.001 105.414 173.266
111.68 106.601 174.95
112.928 100.179 177.539
113.508 97.7221 176.593
112.813 98.8748 178.145
113.839 95.2636 175.536
112.312 102.586 178.301
111.92 99.9073 179.5
112.544 97.5002 178.56
114.552 95.1707 171.831
114.628 96.742 171.038
114.804 94.8726 170.184
114.728 98.0411 170.039
114.671 93.5711 172.545
115.094 93.0428 169.275
114.819 94.3313 168.31
113.618 100.471 168.736
112.642 101.699 168.212
113.606 99.6161 167.069
111.756 102.568 167.688
111.809 103.563 169.007
113.575 100.861 170.231
114.339 99.1323 169.064
113.783 97.1173 165.935
113.493 98.4365 165.452
111.821 104.117 170.467
112.902 102.811 171.14
111.91 104.753 171.811
111.165 105.784 169.924
111.445 106.977 172.643
114.625 97.1819 168.153
114.127 95.8005 166.371
114.583 95.0384 167.178
113.499 94.4123 164.943
114.772 93.1751 166.417
112.561 99.8131 165.183
111.623 102.012 166.366
111.461 101.4 164.999
110.382 103.935 167.602
112.735 97.3751 164.367
110.977 100.59 163.917
109.828 102.448 165.343
97.1863 99.2262 174.774
96.2469 100.483 174.024
96.8244 101.385 175.653
95.7342 101.837 173.142
96.0479 99.9109 172.364
97.7227 97.1211 173.966
98.0756 97.9789 175.452
97.6 102.516 177.153
96.7217 103.519 176.51
96.6786 97.7494 171.534
97.7728 96.4633 172.359
97.9129 95.9064 170.713
98.8071 95.2188 172.946
96.1495 99.2435 170.646
98.0163 95.4281 169.149
99.0326 94.1209 169.944
98.7979 98.7341 176.769
98.4673 101.101 177.73
99.2694 99.5878 178.305
98.3082 103.433 178.663
99.2026 96.5042 175.794
100.241 98.0518 178.498
99.7744 100.387 179.852
96.0278 104.708 175.646
95.4984 103.793 173.791
95.5184 105.89 174.448
95.4757 103.166 171.918
96.8698 105.691 177.195
95.7937 107.875 175.006
95.4905 107.106 173.238
96.2598 101.726 168.729
96.8059 100.694 167.091
96.4353 103.166 167.786
97.2646 99.7036 165.502
97.2717 98.1762 166.182
96.2123 100.445 169.567
95.8018 102.746 170.103
95.9632 105.842 168.241
96.4973 104.656 166.916
97.2369 97.0822 167.186
96.6141 98.2587 168.954
97.4179 96.1795 168.154
97.8952 96.0473 165.713
98.653 94.4594 167.581
95.6198 104.646 170.855
95.752 106.342 169.82
95.5968 106.665 171.513
95.6583 108.084 168.94
95.6502 108.696 172.21
96.9506 103.609 165.48
97.3512 100.907 164.673
97.7053 102.313 164.087
97.9811 98.4714 164.229
96.6729 106.259 166.173
98.3644 103.834 163.965
99.0946 101.078 163.549
107.699 115.315 177.151
106.072 116.245 176.395
107.249 115.372 175.373
104.294 116.958 175.448
104.608 116.523 177.2
107.86 114.821 178.943
108.691 113.692 177.686
107.601 113.841 174.237
106.63 115.256 173.53
104.865 115.912 178.969
106.821 115.054 180.114
105.372 114.902 180.629
108.107 113.48 180.211
102.937 116.453 177.643
103.613 114.542 180.659
105.671 113.539 181.749
109.351 112.121 176.373
108.83 112.244 174.589
110.051 110.649 174.96
108.503 111.872 173.203
109.728 111.864 177.9
110.852 108.983 175.319
110.609 108.933 173.716
105.531 116.071 172.446
104.063 117.119 173.415
104.262 116.938 171.548
102.585 117.438 174.24
106.613 113.997 171.873
104.487 115.58 170.134
102.629 117.341 170.65
99.5098 116.86 175.033
98.6878 115.56 175.621
98.2038 116.59 173.777
98.103 113.924 176.505
99.1468 114.429 177.58
101.012 116.693 176.487
100.855 117.357 174.565
98.0899 117.126 171.686
97.2514 115.625 172.769
100.544 114.456 178.625
101.709 115.786 178.139
102.122 114.445 179.687
99.844 113.069 179.519
102.911 112.821 181.043
101.062 117.796 172.916
99.4135 117.769 171.023
100.95 117.804 170.676
98.2815 117.209 169.589
101.317 117.136 169.011
96.5851 113.818 173.833
97.0724 113.007 175.825
96.3825 111.783 174.577
97.8612 112.096 177.394
96.6956 114.296 171.748
95.9425 110.794 173.315
96.2058 109.964 175.176
111.409 86.4101 164.171
112.339 87.5426 165.315
113.209 87.125 163.078
113.651 87.8729 166.637
112.215 87.6535 167.558
109.699 85.5844 164.721
110.577 85.6193 162.674
114.157 87.1827 160.585
115.083 87.8306 162.12
110.582 87.5433 168.252
109.188 86.8288 166.631
108.988 87.4969 168.917
107.827 85.7418 165.97
111.922 88.0444 169.847
109.033 88.1268 170.994
107.557 87.6527 169.745
110.433 85.7042 160.802
112.486 86.7857 159.686
110.281 86.5165 159.277
114.089 88.1242 158.635
108.337 85.228 162.456
107.739 86.3718 159.755
109.856 87.8267 158.621
115.363 88.6833 164.464
115.013 88.5184 166.803
115.821 90.1267 166.41
114.62 88.6056 168.629
116.097 89.0937 162.311
115.31 91.3926 165.961
115.523 91.3381 168.155
103.102 86.0333 166.204
104.581 85.0773 164.982
102.858 85.5845 164.512
106.323 85.0178 163.61
106.391 85.1882 165.438
103.377 86.8285 167.965
101.868 87.163 167.77
101.76 87.1292 164.322
102.908 86.2545 162.893
106.317 86.3817 167.224
104.75 87.0726 168.579
106.193 87.4022 169.187
103.507 87.8024 169.906
106.224 88.1111 171.103
100.684 88.443 167.582
100.808 88.6041 165.834
100.221 90.3599 167.44
101.047 89.2072 164.475
101.115 88.8491 169.262
99.819 92.1173 168.853
99.8352 92.3447 167.347
104.337 86.0899 161.599
106.229 85.2944 161.925
105.952 86.1954 160.581
103.15 87.8023 161.848
106.094 87.8297 159.723
110.302 107.884 181.126
110.401 109.41 180.095
111.205 107.145 179.666
110.242 110.729 179.005
109.397 111.46 180.238
109.133 108.445 182.187
109.918 106.187 181.798
111.778 105.025 179.246
111.58 106.252 178.325
108.343 111.95 181.214
108.215 110.135 182.296
106.884 112.084 182.21
110.686 104.213 181.18
111.642 103.384 179.688
111.409 101.874 180.403
111.491 107.255 177.384
110.854 109.77 177.721
111.218 108.142 176.297
108.164 110.308 170.165
107.585 109.163 168.911
108.901 108.219 169.317
107.06 108.035 167.623
106.324 109.951 168.363
107.328 112.091 171.032
108.468 111.083 171.609
110.062 107.129 169.632
109.77 106.398 168.266
105.779 111.789 168.936
106.238 112.915 170.426
105.041 113.727 169.544
109.36 109.892 172.113
110.294 107.809 170.925
110.53 108.477 172.338
109.405 105.377 167.206
108.041 106.331 166.798
108.852 104.139 166.149
113.305 90.027 174.93
114.294 90.8738 174.113
114.012 89.0883 173.051
114.807 91.9414 173.22
114.156 92.9705 175.031
112.356 91.5346 176.517
111.875 89.6465 175.625
113.044 88.3257 171.629
114.498 88.6981 170.95
113.461 94.4082 176.415
112.609 93.3748 177.329
112.538 95.6162 177.895
110.942 88.6369 174.443
111.473 88.2963 172.107
109.892 88.2946 172.757
115.331 89.6862 170.26
115.174 91.7331 171.628
115.365 91.4952 169.854
112.765 92.137 162.372
112.551 91.6888 161.032
114.607 91.1013 159.985
111.219 91.7185 160.962
110.842 93.9882 162.648
112.143 94.9029 163.904
113.061 93.0006 163.681
116.112 90.0568 160.57
114.71 89.7537 158.335
110.711 96.2964 162.77
111.742 96.9317 163.538
110.811 98.6283 163.365
114.226 92.3989 163.729
115.754 90.8421 162.594
115.037 91.8326 164.709
112.567 89.688 158.071
110.871 91.4465 159.58
110.127 89.5573 158.302
99.4956 107.84 181.581
98.5004 107.545 180.259
98.8104 109.389 180.46
97.7917 106.876 178.765
98.3495 105.536 179.808
100.428 106.077 182.196
100.973 108.131 182.132
99.2181 111.321 180.271
98.2856 110.737 179.002
98.8454 103.792 180.2
100.057 104.233 181.637
99.9201 102.218 180.675
101.561 109.778 181.881
100.481 111.641 181.013
102.178 111.443 181.4
97.4127 110.15 177.69
97.1997 107.736 177.449
96.597 108.884 176.366
96.601 111.237 167.448
97.4552 112.246 166.591
97.0333 113.357 168.14
98.8299 112.881 166.111
98.527 110.385 165.618
96.5363 108.727 166.711
95.852 109.845 168.372
96.6035 113.969 170.017
97.5066 115.409 168.835
98.4132 108.218 164.821
97.149 107.281 165.269
98.3971 105.957 164.312
95.6022 110.14 170.029
95.8809 112.403 171.027
95.7248 110.41 171.721
98.5705 116.23 167.902
99.8871 114.13 166.711
100.88 115.887 167.744
100.944 92.8559 173.755
102.244 92.032 174.222
101.747 90.9117 172.574
103.481 91.2627 174.723
102.796 92.9762 175.827
100.222 94.5684 174.794
99.813 93.8883 173.387
101.503 89.9063 170.934
102.632 89.1985 171.342
101.903 94.3636 176.792
100.536 95.4093 176.166
100.928 96.1814 177.746
99.7429 93.258 171.861
100.588 90.9726 170.595
99.7665 92.6244 170.345
103.89 88.9708 171.754
104.295 89.9098 173.717
105.344 88.9196 172.39
102.119 93.5832 163.499
100.588 94.6037 164.271
101.511 92.1537 163.345
99.1324 95.1161 164.883
99.1908 96.605 164.246
102.49 94.948 163.274
103.438 92.6312 162.653
102.214 89.8396 162.38
101.192 90.6633 163.754
99.5713 97.7882 163.502
101.392 97.0432 163.338
100.168 99.2152 163.305
104.04 91.1376 161.194
103.284 89.4345 161.203
104.807 89.3615 160.105
100.446 91.7815 165.106
99.2767 94.1035 165.598
99.6681 93.2312 166.574
POLYGONS 1280  5120
3 164 162 163
3 163 44 164
3 162 43 163
3 164 42 162
3 166 165 163
3 163 43 166
3 165 44 163
3 166 14 165
3 168 167 162
3 162 42 168
3 167 43 162
3 168 13 167
3 170 169 164
3 164 44 170
3 169 42 164
3 170 12 169
3 173 171 172
3 172 46 173
3 171 43 172
3 173 45 171
3 167 174 172
3 172 43 167
3 174 46 172
3 167 13 174
3 175 166 171
3 171 45 175
3 166 43 171
3 175 14 166
3 177 176 173
3 173 46 177
3 176 45 173
3 177 4 176
3 180 178 179
3 179 48 180
3 178 42 179
3 180 47 178
3 169 181 179
3 179 42 169
3 181 48 179
3 169 12 181
3 182 168 178
3 178 47 182
3 168 42 178
3 182 13 168
3 184 183 180
3 180 48 184
3 183 47 180
3 184 8 183
3 187 185 186
3 186 50 187
3 185 44 186
3 187 49 185
3 165 188 186
3 186 44 165
3 188 50 186
3 165 14 188
3 189 170 185
3 185 49 189
3 170 44 185
3 189 12 170
3 191 190 187
3 187 50 191
3 190 49 187
3 191 7 190
3 194 192 193
3 193 53 194
3 192 52 193
3 194 51 192
3 196 195 193
3 193 52 196
3 195 53 193
3 196 16 195
3 198 197 192
3 192 51 198
3 197 52 192
3 198 14 197
3 200 199 194
3 194 53 200
3 199 51 194
3 200 15 199
3 203 201 202
3 202 45 203
3 201 52 202
3 203 54 201
3 197 175 202
3 202 52 197
3 175 45 202
3 197 14 175
3 204 196 201
3 201 54 204
3 196 52 201
3 204 16 196
3 176 205 203
3 203 45 176
3 205 54 203
3 176 4 205
3 208 206 207
3 207 55 208
3 206 51 207
3 208 50 206
3 199 209 207
3 207 51 199
3 209 55 207
3 199 15 209
3 188 198 206
3 206 50 188
3 198 51 206
3 188 14 198
3 210 191 208
3 208 55 210
3 191 50 208
3 210 7 191
3 213 211 212
3 212 57 213
3 211 53 212
3 213 56 211
3 195 214 212
3 212 53 195
3 214 57 212
3 195 16 214
3 215 200 211
3 211 56 215
3 200 53 211
3 215 15 200
3 217 216 213
3 213 57 217
3 216 56 213
3 217 9 216
3 220 218 219
3 219 60 220
3 218 59 219
3 220 58 218
3 222 221 219
3 219 59 222
3 221 60 219
3 222 19 221
3 224 223 218
3 218 58 224
3 223 59 218
3 224 18 223
3 226 225 220
3 220 60 226
3 225 58 220
3 226 17 225
3 229 227 228
3 228 62 229
3 227 59 228
3 229 61 227
3 223 230 228
3 228 59 223
3 230 62 228
3 223 18 230
3 231 222 227
3 227 61 231
3 222 59 227
3 231 19 222
3 233 232 229
3 229 62 233
3 232 61 229
3 233 5 232
3 236 234 235
3 235 64 236
3 234 58 235
3 236 63 234
3 225 237 235
3 235 58 225
3 237 64 235
3 225 17 237
3 238 224 234
3 234 63 238
3 224 58 234
3 238 18 224
3 240 239 236
3 236 64 240
3 239 63 236
3 240 6 239
3 243 241 242
3 242 66 243
3 241 60 242
3 243 65 241
3 221 244 242
3 242 60 221
3 244 66 242
3 221 19 244
3 245 226 241
3 241 65 245
3 226 60 241
3 245 17 226
3 247 246 243
3 243 66 247
3 246 65 243
3 247 11 246
3 250 248 249
3 249 69 250
3 248 68 249
3 250 67 248
3 252 251 249
3 249 68 252
3 251 69 249
3 252 18 251
3 254 253 248
3 248 67 254
3 253 68 248
3 254 21 253
3 256 255 250
3 250 69 256
3 255 67 250
3 256 20 255
3 259 257 258
3 258 70 259
3 257 68 258
3 259 62 257
3 253 260 258
3 258 68 253
3 260 70 258
3 253 21 260
3 230 252 257
3 257 62 230
3 252 68 257
3 230 18 252
3 261 233 259
3 259 70 261
3 233 62 259
3 261 5 233
3 264 262 263
3 263 72 264
3 262 67 263
3 264 71 262
3 255 265 263
3 263 67 255
3 265 72 263
3 255 20 265
3 266 254 262
3 262 71 266
3 254 67 262
3 266 21 254
3 268 267 264
3 264 72 268
3 267 71 264
3 268 10 267
3 271 269 270
3 270 63 271
3 269 69 270
3 271 73 269
3 251 238 270
3 270 69 251
3 238 63 270
3 251 18 238
3 272 256 269
3 269 73 272
3 256 69 269
3 272 20 256
3 239 273 271
3 271 63 239
3 273 73 271
3 239 6 273
3 276 274 275
3 275 76 276
3 274 75 275
3 276 74 274
3 278 277 275
3 275 75 278
3 277 76 275
3 278 24 277
3 280 279 274
3 274 74 280
3 279 75 274
3 280 23 279
3 282 281 276
3 276 76 282
3 281 74 276
3 282 22 281
3 285 283 284
3 284 78 285
3 283 75 284
3 285 77 283
3 279 286 284
3 284 75 279
3 286 78 284
3 279 23 286
3 287 278 283
3 283 77 287
3 278 75 283
3 287 24 278
3 289 288 285
3 285 78 289
3 288 77 285
3 289 0 288
3 292 290 291
3 291 80 292
3 290 74 291
3 292 79 290
3 281 293 291
3 291 74 281
3 293 80 291
3 281 22 293
3 294 280 290
3 290 79 294
3 280 74 290
3 294 23 280
3 296 295 292
3 292 80 296
3 295 79 292
3 296 4 295
3 299 297 298
3 298 82 299
3 297 76 298
3 299 81 297
3 277 300 298
3 298 76 277
3 300 82 298
3 277 24 300
3 301 282 297
3 297 81 301
3 282 76 297
3 301 22 282
3 303 302 299
3 299 82 303
3 302 81 299
3 303 3 302
3 306 304 305
3 305 85 306
3 304 84 305
3 306 83 304
3 308 307 305
3 305 84 308
3 307 85 305
3 308 26 307
3 310 309 304
3 304 83 310
3 309 84 304
3 310 24 309
3 312 311 306
3 306 85 312
3 311 83 306
3 312 25 311
3 315 313 314
3 314 77 315
3 313 84 314
3 315 86 313
3 309 287 314
3 314 84 309
3 287 77 314
3 309 24 287
3 316 308 313
3 313 86 316
3 308 84 313
3 316 26 308
3 288 317 315
3 315 77 288
3 317 86 315
3 288 0 317
3 320 318 319
3 319 87 320
3 318 83 319
3 320 82 318
3 311 321 319
3 319 83 311
3 321 87 319
3 311 25 321
3 300 310 318
3 318 82 300
3 310 83 318
3 300 24 310
3 322 303 320
3 320 87 322
3 303 82 320
3 322 3 303
3 325 323 324
3 324 89 325
3 323 85 324
3 325 88 323
3 307 326 324
3 324 85 307
3 326 89 324
3 307 26 326
3 327 312 323
3 323 88 327
3 312 85 323
3 327 25 312
3 329 328 325
3 325 89 329
3 328 88 325
3 329 5 328
3 332 330 331
3 331 92 332
3 330 91 331
3 332 90 330
3 334 333 331
3 331 91 334
3 333 92 331
3 334 29 333
3 336 335 330
3 330 90 336
3 335 91 330
3 336 28 335
3 338 337 332
3 332 92 338
3 337 90 332
3 338 27 337
3 341 339 340
3 340 94 341
3 339 91 340
3 341 93 339
3 335 342 340
3 340 91 335
3 342 94 340
3 335 28 342
3 343 334 339
3 339 93 343
3 334 91 339
3 343 29 334
3 345 344 341
3 341 94 345
3 344 93 341
3 345 2 344
3 348 346 347
3 347 96 348
3 346 90 347
3 348 95 346
3 337 349 347
3 347 90 337
3 349 96 347
3 337 27 349
3 350 336 346
3 346 95 350
3 336 90 346
3 350 28 336
3 352 351 348
3 348 96 352
3 351 95 348
3 352 7 351
3 355 353 354
3 354 98 355
3 353 92 354
3 355 97 353
3 333 356 354
3 354 92 333
3 356 98 354
3 333 29 356
3 357 338 353
3 353 97 357
3 338 92 353
3 357 27 338
3 359 358 355
3 355 98 359
3 358 97 355
3 359 1 358
3 362 360 361
3 361 101 362
3 360 100 361
3 362 99 360
3 364 363 361
3 361 100 364
3 363 101 361
3 364 31 363
3 366 365 360
3 360 99 366
3 365 100 360
3 366 29 365
3 368 367 362
3 362 101 368
3 367 99 362
3 368 30 367
3 371 369 370
3 370 93 371
3 369 100 370
3 371 102 369
3 365 343 370
3 370 100 365
3 343 93 370
3 365 29 343
3 372 364 369
3 369 102 372
3 364 100 369
3 372 31 364
3 344 373 371
3 371 93 344
3 373 102 371
3 344 2 373
3 376 374 375
3 375 103 376
3 374 99 375
3 376 98 374
3 367 377 375
3 375 99 367
3 377 103 375
3 367 30 377
3 356 366 374
3 374 98 356
3 366 99 374
3 356 29 366
3 378 359 376
3 376 103 378
3 359 98 376
3 378 1 359
3 381 379 380
3 380 105 381
3 379 101 380
3 381 104 379
3 363 382 380
3 380 101 363
3 382 105 380
3 363 31 382
3 383 368 379
3 379 104 383
3 368 101 379
3 383 30 368
3 385 384 381
3 381 105 385
3 384 104 381
3 385 6 384
3 388 386 387
3 387 108 388
3 386 107 387
3 388 106 386
3 390 389 387
3 387 107 390
3 389 108 387
3 390 34 389
3 392 391 386
3 386 106 392
3 391 107 386
3 392 33 391
3 394 393 388
3 388 108 394
3 393 106 388
3 394 32 393
3 397 395 396
3 396 110 397
3 395 107 396
3 397 109 395
3 391 398 396
3 396 107 391
3 398 110 396
3 391 33 398
3 399 390 395
3 395 109 399
3 390 107 395
3 399 34 390
3 401 400 397
3 397 110 401
3 400 109 397
3 401 8 400
3 404 402 403
3 403 112 404
3 402 106 403
3 404 111 402
3 393 405 403
3 403 106 393
3 405 112 403
3 393 32 405
3 406 392 402
3 402 111 406
3 392 106 402
3 406 33 392
3 408 407 404
3 404 112 408
3 407 111 404
3 408 0 407
3 411 409 410
3 410 114 411
3 409 108 410
3 411 113 409
3 389 412 410
3 410 108 389
3 412 114 410
3 389 34 412
3 413 394 409
3 409 113 413
3 394 108 409
3 413 32 394
3 415 414 411
3 411 114 415
3 414 113 411
3 415 11 414
3 418 416 417
3 417 117 418
3 416 116 417
3 418 115 416
3 420 419 417
3 417 116 420
3 419 117 417
3 420 36 419
3 422 421 416
3 416 115 422
3 421 116 416
3 422 34 421
3 424 423 418
3 418 117 424
3 423 115 418
3 424 35 423
3 427 425 426
3 426 109 427
3 425 116 426
3 427 118 425
3 421 399 426
3 426 116 421
3 399 109 426
3 421 34 399
3 428 420 425
3 425 118 428
3 420 116 425
3 428 36 420
3 400 429 427
3 427 109 400
3 429 118 427
3 400 8 429
3 432 430 431
3 431 119 432
3 430 115 431
3 432 114 430
3 423 433 431
3 431 115 423
3 433 119 431
3 423 35 433
3 412 422 430
3 430 114 412
3 422 115 430
3 412 34 422
3 434 415 432
3 432 119 434
3 415 114 432
3 434 11 415
3 437 435 436
3 436 121 437
3 435 117 436
3 437 120 435
3 419 438 436
3 436 117 419
3 438 121 436
3 419 36 438
3 439 424 435
3 435 120 439
3 424 117 435
3 439 35 424
3 441 440 437
3 437 121 441
3 440 120 437
3 441 1 440
3 444 442 443
3 443 124 444
3 442 123 443
3 444 122 442
3 446 445 443
3 443 123 446
3 445 124 443
3 446 39 445
3 448 447 442
3 442 122 448
3 447 123 442
3 448 38 447
3 450 449 444
3 444 124 450
3 449 122 444
3 450 37 449
3 453 451 452
3 452 126 453
3 451 123 452
3 453 125 451
3 447 454 452
3 452 123 447
3 454 126 452
3 447 38 454
3 455 446 451
3 451 125 455
3 446 123 451
3 455 39 446
3 457 456 453
3 453 126 457
3 456 125 453
3 457 9 456
3 460 458 459
3 459 128 460
3 458 122 459
3 460 127 458
3 449 461 459
3 459 122 449
3 461 128 459
3 449 37 461
3 462 448 458
3 458 127 462
3 448 122 458
3 462 38 448
3 464 463 460
3 460 128 464
3 463 127 460
3 464 10 463
3 467 465 466
3 466 130 467
3 465 124 466
3 467 129 465
3 445 468 466
3 466 124 445
3 468 130 466
3 445 39 468
3 469 450 465
3 465 129 469
3 450 124 465
3 469 37 450
3 471 470 467
3 467 130 471
3 470 129 467
3 471 3 470
3 474 472 473
3 473 133 474
3 472 132 473
3 474 131 472
3 476 475 473
3 473 132 476
3 475 133 473
3 476 38 475
3 478 477 472
3 472 131 478
3 477 132 472
3 478 41 477
3 480 479 474
3 474 133 480
3 479 131 474
3 480 40 479
3 483 481 482
3 482 134 483
3 481 132 482
3 483 126 481
3 477 484 482
3 482 132 477
3 484 134 482
3 477 41 484
3 454 476 481
3 481 126 454
3 476 132 481
3 454 38 476
3 485 457 483
3 483 134 485
3 457 126 483
3 485 9 457
3 488 486 487
3 487 136 488
3 486 131 487
3 488 135 486
3 479 489 487
3 487 131 479
3 489 136 487
3 479 40 489
3 490 478 486
3 486 135 490
3 478 131 486
3 490 41 478
3 492 491 488
3 488 136 492
3 491 135 488
3 492 2 491
3 495 493 494
3 494 127 495
3 493 133 494
3 495 137 493
3 475 462 494
3 494 133 475
3 462 127 494
3 475 38 462
3 496 480 493
3 493 137 496
3 480 133 493
3 496 40 480
3 463 497 495
3 495 127 463
3 497 137 495
3 463 10 497
3 500 498 499
3 499 140 500
3 498 139 499
3 500 138 498
3 502 501 499
3 499 139 502
3 501 140 499
3 502 33 501
3 504 503 498
3 498 138 504
3 503 139 498
3 504 13 503
3 506 505 500
3 500 140 506
3 505 138 500
3 506 23 505
3 509 507 508
3 508 47 509
3 507 139 508
3 509 110 507
3 503 182 508
3 508 139 503
3 182 47 508
3 503 13 182
3 398 502 507
3 507 110 398
3 502 139 507
3 398 33 502
3 183 401 509
3 509 47 183
3 401 110 509
3 183 8 401
3 512 510 511
3 511 79 512
3 510 138 511
3 512 46 510
3 505 294 511
3 511 138 505
3 294 79 511
3 505 23 294
3 174 504 510
3 510 46 174
3 504 138 510
3 174 13 504
3 295 177 512
3 512 79 295
3 177 46 512
3 295 4 177
3 515 513 514
3 514 111 515
3 513 140 514
3 515 78 513
3 501 406 514
3 514 140 501
3 406 111 514
3 501 33 406
3 286 506 513
3 513 78 286
3 506 140 513
3 286 23 506
3 407 289 515
3 515 111 407
3 289 78 515
3 407 0 289
3 518 516 517
3 517 143 518
3 516 142 517
3 518 141 516
3 520 519 517
3 517 142 520
3 519 143 517
3 520 19 519
3 522 521 516
3 516 141 522
3 521 142 516
3 522 32 521
3 524 523 518
3 518 143 524
3 523 141 518
3 524 26 523
3 527 525 526
3 526 113 527
3 525 142 526
3 527 66 525
3 521 413 526
3 526 142 521
3 413 113 526
3 521 32 413
3 244 520 525
3 525 66 244
3 520 142 525
3 244 19 520
3 414 247 527
3 527 113 414
3 247 66 527
3 414 11 247
3 530 528 529
3 529 86 530
3 528 141 529
3 530 112 528
3 523 316 529
3 529 141 523
3 316 86 529
3 523 26 316
3 405 522 528
3 528 112 405
3 522 141 528
3 405 32 522
3 317 408 530
3 530 86 317
3 408 112 530
3 317 0 408
3 533 531 532
3 532 61 533
3 531 143 532
3 533 89 531
3 519 231 532
3 532 143 519
3 231 61 532
3 519 19 231
3 326 524 531
3 531 89 326
3 524 143 531
3 326 26 524
3 232 329 533
3 533 61 232
3 329 89 533
3 232 5 329
3 536 534 535
3 535 146 536
3 534 145 535
3 536 144 534
3 538 537 535
3 535 145 538
3 537 146 535
3 538 22 537
3 540 539 534
3 534 144 540
3 539 145 534
3 540 16 539
3 542 541 536
3 536 146 542
3 541 144 536
3 542 39 541
3 545 543 544
3 544 54 545
3 543 145 544
3 545 80 543
3 539 204 544
3 544 145 539
3 204 54 544
3 539 16 204
3 293 538 543
3 543 80 293
3 538 145 543
3 293 22 538
3 205 296 545
3 545 54 205
3 296 80 545
3 205 4 296
3 548 546 547
3 547 125 548
3 546 144 547
3 548 57 546
3 541 455 547
3 547 144 541
3 455 125 547
3 541 39 455
3 214 540 546
3 546 57 214
3 540 144 546
3 214 16 540
3 456 217 548
3 548 125 456
3 217 57 548
3 456 9 217
3 551 549 550
3 550 81 551
3 549 146 550
3 551 130 549
3 537 301 550
3 550 146 537
3 301 81 550
3 537 22 301
3 468 542 549
3 549 130 468
3 542 146 549
3 468 39 542
3 302 471 551
3 551 81 302
3 471 130 551
3 302 3 471
3 554 552 553
3 553 149 554
3 552 148 553
3 554 147 552
3 556 555 553
3 553 148 556
3 555 149 553
3 556 21 555
3 558 557 552
3 552 147 558
3 557 148 552
3 558 25 557
3 560 559 554
3 554 149 560
3 559 147 554
3 560 37 559
3 563 561 562
3 562 88 563
3 561 148 562
3 563 70 561
3 557 327 562
3 562 148 557
3 327 88 562
3 557 25 327
3 260 556 561
3 561 70 260
3 556 148 561
3 260 21 556
3 328 261 563
3 563 88 328
3 261 70 563
3 328 5 261
3 566 564 565
3 565 129 566
3 564 147 565
3 566 87 564
3 559 469 565
3 565 147 559
3 469 129 565
3 559 37 469
3 321 558 564
3 564 87 321
3 558 147 564
3 321 25 558
3 470 322 566
3 566 129 470
3 322 87 566
3 470 3 322
3 569 567 568
3 568 71 569
3 567 149 568
3 569 128 567
3 555 266 568
3 568 149 555
3 266 71 568
3 555 21 266
3 461 560 567
3 567 128 461
3 560 149 567
3 461 37 560
3 267 464 569
3 569 71 267
3 464 128 569
3 267 10 464
3 572 570 571
3 571 152 572
3 570 151 571
3 572 150 570
3 574 573 571
3 571 151 574
3 573 152 571
3 574 27 573
3 576 575 570
3 570 150 576
3 575 151 570
3 576 12 575
3 578 577 572
3 572 152 578
3 577 150 572
3 578 36 577
3 581 579 580
3 580 49 581
3 579 151 580
3 581 96 579
3 575 189 580
3 580 151 575
3 189 49 580
3 575 12 189
3 349 574 579
3 579 96 349
3 574 151 579
3 349 27 574
3 190 352 581
3 581 49 190
3 352 96 581
3 190 7 352
3 584 582 583
3 583 118 584
3 582 150 583
3 584 48 582
3 577 428 583
3 583 150 577
3 428 118 583
3 577 36 428
3 181 576 582
3 582 48 181
3 576 150 582
3 181 12 576
3 429 184 584
3 584 118 429
3 184 48 584
3 429 8 184
3 587 585 586
3 586 97 587
3 585 152 586
3 587 121 585
3 573 357 586
3 586 152 573
3 357 97 586
3 573 27 357
3 438 578 585
3 585 121 438
3 578 152 585
3 438 36 578
3 358 441 587
3 587 97 358
3 441 121 587
3 358 1 441
3 590 588 589
3 589 155 590
3 588 154 589
3 590 153 588
3 592 591 589
3 589 154 592
3 591 155 589
3 592 17 591
3 594 593 588
3 588 153 594
3 593 154 588
3 594 30 593
3 596 595 590
3 590 155 596
3 595 153 590
3 596 35 595
3 599 597 598
3 598 104 599
3 597 154 598
3 599 64 597
3 593 383 598
3 598 154 593
3 383 104 598
3 593 30 383
3 237 592 597
3 597 64 237
3 592 154 597
3 237 17 592
3 384 240 599
3 599 104 384
3 240 64 599
3 384 6 240
3 602 600 601
3 601 120 602
3 600 153 601
3 602 103 600
3 595 439 601
3 601 153 595
3 439 120 601
3 595 35 439
3 377 594 600
3 600 103 377
3 594 153 600
3 377 30 594
3 440 378 602
3 602 120 440
3 378 103 602
3 440 1 378
3 605 603 604
3 604 65 605
3 603 155 604
3 605 119 603
3 591 245 604
3 604 155 591
3 245 65 604
3 591 17 245
3 433 596 603
3 603 119 433
3 596 155 603
3 433 35 596
3 246 434 605
3 605 65 246
3 434 119 605
3 246 11 434
3 608 606 607
3 607 158 608
3 606 157 607
3 608 156 606
3 610 609 607
3 607 157 610
3 609 158 607
3 610 15 609
3 612 611 606
3 606 156 612
3 611 157 606
3 612 28 611
3 614 613 608
3 608 158 614
3 613 156 608
3 614 41 613
3 617 615 616
3 616 95 617
3 615 157 616
3 617 55 615
3 611 350 616
3 616 157 611
3 350 95 616
3 611 28 350
3 209 610 615
3 615 55 209
3 610 157 615
3 209 15 610
3 351 210 617
3 617 95 351
3 210 55 617
3 351 7 210
3 620 618 619
3 619 135 620
3 618 156 619
3 620 94 618
3 613 490 619
3 619 156 613
3 490 135 619
3 613 41 490
3 342 612 618
3 618 94 342
3 612 156 618
3 342 28 612
3 491 345 620
3 620 135 491
3 345 94 620
3 491 2 345
3 623 621 622
3 622 56 623
3 621 158 622
3 623 134 621
3 609 215 622
3 622 158 609
3 215 56 622
3 609 15 215
3 484 614 621
3 621 134 484
3 614 158 621
3 484 41 614
3 216 485 623
3 623 56 216
3 485 134 623
3 216 9 485
3 626 624 625
3 625 161 626
3 624 160 625
3 626 159 624
3 628 627 625
3 625 160 628
3 627 161 625
3 628 31 627
3 630 629 624
3 624 159 630
3 629 160 624
3 630 20 629
3 632 631 626
3 626 161 632
3 631 159 626
3 632 40 631
3 635 633 634
3 634 73 635
3 633 160 634
3 635 105 633
3 629 272 634
3 634 160 629
3 272 73 634
3 629 20 272
3 382 628 633
3 633 105 382
3 628 160 633
3 382 31 628
3 273 385 635
3 635 73 273
3 385 105 635
3 273 6 385
3 638 636 637
3 637 137 638
3 636 159 637
3 638 72 636
3 631 496 637
3 637 159 631
3 496 137 637
3 631 40 496
3 265 630 636
3 636 72 265
3 630 159 636
3 265 20 630
3 497 268 638
3 638 137 497
3 268 72 638
3 497 10 268
3 641 639 640
3 640 102 641
3 639 161 640
3 641 136 639
3 627 372 640
3 640 161 627
3 372 102 640
3 627 31 372
3 489 632 639
3 639 136 489
3 632 161 639
3 489 40 632
3 373 492 641
3 641 102 373
3 492 136 641
3 373 2 492
