# vtk DataFile Version 3.0
this file was written using fslvtkio
ASCII
DATASET POLYDATA
POINTS 970 float
109.295 140.558 172.115
108.088 139.965 172.786
109.004 139.391 172.72
109.782 139.262 172.461
110.61 140.347 171.769
110.974 138.729 171.936
111.968 139.706 171.713
112.405 138.321 172.045
108.747 141.546 172.503
108.007 141.749 173.265
110.053 141.709 172.44
111.529 141.211 172.127
112.811 139.798 172.465
109.354 142.848 173.401
111.039 142.545 173.079
112.448 141.395 172.968
104.263 130.423 170.5
102.751 130.38 171.298
103.172 128.831 170.398
104.642 128.879 170.094
105.484 130.499 170.159
105.772 129.375 170.622
106.356 130.695 171.023
106.183 129.627 171.791
104.16 131.599 171.481
102.801 131.537 172.307
105.412 131.928 170.829
106.523 132.084 170.666
107.07 130.713 171.811
107.573 131.973 171.433
107.873 131.417 172.522
104.357 132.668 172.413
103.01 132.351 172.906
105.63 133.125 171.571
106.837 133.663 170.753
107.973 133.29 171.096
108.432 132.724 172.491
103.389 133.171 173.281
105.346 133.854 172.374
104.605 134.082 173.127
106.788 134.512 171.441
108.338 134.571 171.163
108.923 133.922 172.185
105.648 134.883 172.828
106.951 135.747 172.221
108.195 136.202 171.557
107.614 137.043 172.877
109.433 134.918 172.057
109.673 136.153 171.459
110.479 135.727 172.576
111.19 136.545 172.014
111.263 136.285 173.111
108.742 138.291 173.101
107.591 138.2 173.882
109.673 137.55 172.199
111.243 137.375 171.743
112.201 137.152 172.794
107.681 139.113 173.67
106.589 139.829 174.407
106.686 138.421 174.627
113.27 138.452 173.096
107.172 140.829 173.715
106.593 141.143 174.828
113.547 140.272 173.502
107.858 142.285 174.35
108.957 143.174 174.68
110.67 143.267 174.201
112.279 142.373 173.833
101.445 127.164 171.037
100.831 127.842 172.132
100.856 126.096 171.926
102.086 125.764 170.873
102.618 127.429 170.555
103.507 126.342 170.726
101.575 129.104 171.22
100.773 129.271 172.761
104.349 127.457 170.439
105.366 128.426 171.337
105.969 128.948 172.669
101.608 130.673 172.482
100.732 130.708 173.752
106.953 130.362 172.821
107.907 131.203 173.74
101.854 131.931 173.541
100.788 132.223 174.738
108.539 132.331 173.638
108.973 133.612 173.463
109.284 133.153 174.458
102.235 133.368 174.279
103.984 134.244 173.761
102.858 134.255 174.812
109.805 134.383 173.26
110.336 134.06 174.573
104.203 135.14 174.191
105.093 136.116 174.085
104.154 136.128 175.007
106.154 136.247 173.189
110.716 135.253 173.708
111.787 136.251 174.201
105.524 137.529 175.23
104.336 136.823 175.641
106.28 137.163 174.044
112.837 137.126 174.155
104.487 137.525 176.09
105.879 139.079 175.551
113.784 138.556 174.322
106.384 141.064 175.94
113.964 140.236 174.554
107.558 142.25 175.724
109.117 143.013 175.855
108.856 142.613 176.844
110.471 143.626 175.448
112.092 143.314 174.942
113.281 141.877 174.506
110.398 143.329 176.794
111.699 143.527 176.386
112.919 143.102 175.859
100.668 127.511 173.428
100.861 125.641 172.983
101.842 124.833 171.924
103.387 125.376 171.708
104.217 126.608 171.795
104.642 126.42 173.317
100.299 129.054 174.253
104.992 127.611 172.193
106.068 128.584 173.775
100.313 130.636 175.108
106.798 130.178 173.987
107.843 130.993 175.207
100.246 131.873 175.994
108.759 132.047 174.766
109.609 133.142 175.528
101.322 133.668 175.35
100.591 133.3 176.56
110.542 134.136 176.025
101.623 134.764 176.396
101.234 134.555 177.716
102.75 134.992 175.461
111.098 135.293 175.151
112.137 136.137 175.758
101.91 135.757 176.939
103.014 136.201 176.049
102.581 136.712 177.035
113.066 137.073 175.554
103.642 137.467 177.097
104.946 138.665 176.506
104.734 139.113 177.499
113.732 138.248 175.53
114.288 139.519 175.42
114.522 138.931 176.474
105.666 140.094 176.596
105.667 140.395 177.678
114.133 140.988 175.479
114.639 140.177 176.508
107.018 141.181 176.987
108.017 141.915 177.33
109.202 142.206 177.911
113.64 142.16 175.872
114.408 141.448 176.954
110.332 142.735 177.937
111.595 143.222 178.045
112.878 143.15 177.589
113.853 142.591 177.204
101.653 124.553 173.382
101.193 126.056 174.345
101.49 124.315 174.717
102.74 123.781 174.106
103 124.554 172.769
103.629 124.644 174.118
103.958 125.37 173.173
104.484 125.455 174.677
100.954 127.51 175.045
105.254 126.388 175.03
100.564 128.952 175.687
105.399 127.465 173.938
106.337 128.58 175.246
100.344 130.364 176.551
106.992 129.919 175.226
108.018 130.846 176.504
100.53 131.881 177.354
109.106 131.797 175.951
110.055 132.807 176.739
100.828 133.179 178.13
111.164 133.638 177.176
101.408 134.165 178.949
111.563 135.084 176.54
112.823 135.729 177.23
101.908 136.185 178.009
101.954 135.574 179.157
113.369 136.814 176.835
113.804 137.848 176.428
114.304 137.732 177.472
102.768 137.258 178.433
103.892 138.371 178.168
103.896 138.144 179.291
114.981 139.122 177.565
104.923 139.669 178.809
105.103 139.209 179.773
114.98 140.394 177.831
106.426 140.413 178.619
107.444 141.141 178.56
108.541 141.661 178.499
108.401 141.194 179.468
114.739 141.679 178.292
109.808 141.94 179.135
110.882 142.384 179.641
111.746 142.763 179.411
113.027 143.117 179.104
114.134 142.719 178.606
101.514 125.738 175.809
101.688 123.812 175.856
102.647 123.077 174.947
103.953 124.103 175.144
104.944 125.112 176.239
101.279 127.361 176.517
105.808 126.155 176.626
100.758 128.653 177.178
105.892 127.333 175.742
106.816 128.148 176.61
100.666 130.06 177.971
107.441 129.521 176.499
108.474 130.357 177.786
100.791 131.5 178.816
109.263 131.503 177.257
110.282 132.285 177.906
101.086 132.783 179.656
111.532 133.105 178.282
101.92 134.026 180.19
112.19 134.607 177.776
113.255 135.246 178.815
102.53 135.389 180.488
113.842 136.501 177.965
114.733 137.646 178.653
103.087 136.811 179.622
104.209 137.781 180.34
115.127 138.997 178.742
105.404 138.489 181.017
115.111 140.136 179.185
106.249 139.69 180.079
107.215 140.362 179.893
108.338 140.758 180.783
114.923 141.615 179.574
109.496 141.416 180.327
110.701 141.931 180.691
111.923 142.4 180.885
113.044 142.791 180.57
114.206 142.664 180.101
102.466 122.587 176.335
102.033 124.103 176.951
102.519 122.492 177.574
103.499 121.63 176.846
103.593 122.925 175.934
104.375 122.41 176.871
104.431 123.786 176.31
105.077 123.288 177.232
101.728 125.656 177.341
105.716 124.555 177.586
101.528 127.177 177.972
106.213 125.669 177.852
100.958 128.271 178.687
106.47 126.965 177.542
107.267 128.022 177.987
100.99 129.681 179.46
107.892 129.052 177.687
108.888 129.626 179.006
101.21 131.047 180.243
109.627 130.85 178.456
110.835 131.616 178.987
101.555 132.429 181
111.762 132.658 179.353
102.3 133.725 181.472
112.545 133.996 178.86
113.532 134.136 179.979
102.992 134.892 181.793
114.095 136.223 179.073
114.164 135.434 180.231
103.561 136.48 181.009
104.516 137.209 181.673
114.807 136.923 179.628
115.324 138.373 179.871
105.587 137.963 182.292
115.325 139.974 180.396
106.486 139.164 181.475
107.458 139.937 181.409
108.573 140.413 182.16
115.082 141.434 180.9
109.598 140.981 181.595
110.831 141.323 181.812
112.108 141.695 182.027
113.215 142.178 182.066
114.238 142.286 181.563
102.382 123.935 178.35
102.654 121.816 178.687
103.128 120.778 177.612
104.718 121.146 177.563
105.621 122.62 178.288
101.945 125.476 178.628
106.121 123.555 178.641
106.53 124.757 178.832
107.07 123.8 179.699
101.77 126.634 179.473
106.677 125.875 178.477
107.28 125.584 179.315
101.481 127.9 180.141
107.393 126.925 178.974
108.148 128.303 178.701
108.734 127.665 179.613
101.409 129.323 180.869
109.669 128.736 179.972
101.7 130.7 181.607
110.143 130.298 179.696
111.548 131.239 179.896
102.165 132.019 182.298
112.273 132.224 180.207
112.683 133.226 179.806
113.381 132.595 180.881
102.702 133.272 182.812
114.236 133.982 181.139
103.502 134.346 183.131
114.929 135.521 181.5
103.867 135.924 182.347
104.844 136.716 183.053
115.203 136.847 180.651
115.599 138.428 181.243
106.159 137.53 183.343
115.325 139.729 181.626
106.761 138.859 182.763
108.03 139.608 182.81
109.257 140.065 183.349
115.064 141.084 181.917
109.81 140.531 182.753
111.076 140.666 182.905
112.254 140.896 183.073
113.555 141.066 183.055
114.39 141.215 182.608
103.333 120.033 178.571
102.838 119.674 179.683
103.535 118.878 179.15
104.856 118.814 179.086
104.67 119.799 178.196
105.653 119.808 178.872
102.662 122.933 179.456
102.904 121.097 179.843
105.835 121.169 178.744
106.472 122.494 179.178
107.054 121.818 179.984
102.362 124.676 179.775
102.797 122.722 180.745
107.972 123.464 180.355
102.145 126.126 180.726
108.336 124.789 180.137
101.939 127.543 181.518
108.565 126.158 180.028
109.592 126.975 180.53
101.987 128.998 182.239
110.606 127.788 180.837
110.434 129.096 180.276
111.111 129.29 180.812
102.427 130.313 182.917
111.654 130.335 180.662
112.584 131.367 180.842
113.191 130.689 181.656
102.874 131.524 183.594
114.154 132.141 181.828
103.293 132.782 184.102
114.928 133.573 182.185
104.017 133.84 184.219
115.42 134.916 182.704
104.478 135.187 183.585
105.53 136.337 184.003
115.488 137.164 181.862
115.714 136.541 182.895
106.864 136.85 184.36
107.143 138.297 183.769
107.782 137.856 184.563
115.589 138.52 182.75
115.548 138.627 183.79
108.226 139.062 183.934
110.744 140.044 183.912
109.703 139.502 184.29
112.223 140.308 184.129
111.491 139.62 185
113.636 140.325 183.99
113.086 139.879 185.204
114.871 140.08 183.592
114.631 139.588 184.695
115.162 140.191 182.603
103.847 117.804 179.46
103.156 118.212 180.398
103.793 117.032 180.312
104.851 116.793 179.86
104.851 117.806 179.364
105.707 117.752 179.753
103.053 119.782 180.979
106.46 118.595 180.037
106.508 120.367 179.665
107.203 119.979 180.708
103.293 121.283 181.395
107.818 121.769 180.907
102.556 124.341 181.197
103.05 122.641 182.095
108.675 122.284 181.554
108.761 123.851 181.079
109.377 123.122 181.949
102.436 125.802 182.093
108.969 124.883 180.538
109.535 124.831 181.035
102.408 127.265 182.911
110.137 125.81 181.359
110.413 126.843 181.212
111.119 126.677 181.835
102.537 128.582 183.648
111.676 128.121 181.707
112.189 129.565 181.595
112.836 128.95 182.511
102.944 129.931 184.312
113.958 130.334 182.575
103.713 131.075 184.89
114.517 131.677 182.844
104.144 132.495 185.097
115.068 132.532 183.324
115.483 133.689 183.55
115.364 132.25 184.502
104.54 133.424 185.141
104.732 134.187 184.516
105.472 133.807 185.471
115.818 135.233 183.867
115.739 133.634 184.758
106.185 136.101 184.604
105.497 135.038 184.652
106.822 135.949 185.22
115.871 136.702 184.257
115.783 135.267 185.037
108.714 138.255 184.973
108.087 136.878 185.274
109.246 137.404 185.71
115.52 136.876 185.209
115.582 138.053 184.618
109.764 138.752 185.171
111.237 139.127 185.796
112.869 139.246 186.117
114.394 139.121 185.704
104.508 115.918 180.678
103.471 116.845 181.207
104.181 115.361 181.646
105.305 114.907 181.306
105.743 116.265 180.503
106.176 115.265 181.2
106.693 116.185 180.887
107.049 115.539 181.452
103.412 118.163 181.783
106.553 117.25 180.474
107.28 117.091 181.262
103.49 119.752 182.309
107.664 118.45 181.222
108.004 120.158 181.564
108.764 119.411 182.254
103.516 121.224 183.04
108.372 121.197 181.787
109.207 120.847 182.278
102.938 124.195 182.678
103.352 122.619 183.485
110.123 121.632 182.617
110.092 123.643 182.286
110.848 122.855 182.934
102.876 125.631 183.401
110.213 124.658 181.943
110.943 124.581 182.555
103.009 126.779 184.283
111.51 125.588 182.818
112.013 127.368 182.504
112.624 126.975 183.212
103.269 128.082 184.891
113.482 128.493 183.393
103.712 129.311 185.531
114.105 129.179 183.661
114.569 130.347 183.753
114.568 129.067 184.687
104.336 130.279 185.88
104.742 131.428 185.984
105.634 130.213 186.733
114.897 131.377 184.059
115.092 130.479 185.104
105.105 132.663 185.838
105.847 131.871 186.69
115.783 131.933 185.58
106.304 133.388 186.244
115.843 133.648 185.89
106.386 134.675 185.635
107.545 135.359 186.003
115.517 135.545 185.937
108.3 136.203 185.979
110.202 137.694 186.095
109.754 136.481 186.41
111.074 137.086 186.762
115.353 136.74 186.021
115.106 138.099 185.969
111.16 138.17 186.28
112.455 138.472 186.81
113.939 138.547 186.81
103.68 116.471 182.508
104.211 114.621 182.319
105.216 113.845 181.844
106.546 114.089 181.787
107.698 115.167 181.892
104.013 118.109 182.986
108.438 115.937 182.327
108.049 117.232 181.866
108.788 117.228 182.517
103.912 119.429 183.657
109.155 118.267 182.467
109.877 119.43 182.968
110.509 118.395 183.661
103.936 120.722 184.381
110.291 120.447 183.061
111.095 119.845 183.964
103.57 123.736 184.105
103.8 122.176 184.891
111.177 121.396 183.517
111.754 122.994 183.479
112.347 122.043 184.204
103.43 125.052 184.56
103.79 123.701 185.436
111.877 124.203 183.268
112.662 123.905 183.804
103.73 126.186 185.585
112.567 125.496 183.706
113.35 126.886 184.059
113.947 125.89 184.788
103.934 127.53 186.123
113.998 128.019 184.333
114.533 127.152 185.264
104.436 128.348 186.557
104.836 129.392 186.546
105.686 128.607 187.445
115.207 128.611 185.644
106.594 130.076 187.595
115.614 130.248 186.271
106.88 131.498 187.41
106.912 132.635 186.949
107.844 132.352 187.692
115.703 131.965 186.706
106.874 133.68 186.52
107.642 133.589 187.187
115.618 134.287 186.732
108.755 135.534 186.632
107.805 134.492 186.63
109.576 135.725 186.99
109.201 134.914 187.39
110.441 135.558 187.429
115.134 136.442 186.684
115.251 134.809 187.444
114.634 135.952 187.633
112.231 137.458 187.303
111.344 136.211 187.376
113.465 137.711 187.563
112.669 136.459 187.913
114.637 137.593 187.207
113.882 136.513 187.975
104.705 113.161 182.691
104.307 114.872 183.341
104.49 113.184 183.782
105.119 111.872 183.176
106.033 112.722 182.28
106.802 111.841 182.651
107.521 113.316 182.303
108.145 112.144 182.756
108.737 113.401 182.84
109.248 112.858 183.466
104.269 116.464 183.767
108.549 114.494 182.566
109.608 114.484 183.433
104.311 117.766 184.449
109.676 115.903 183.321
109.892 117.311 183.275
110.875 116.604 184.069
104.371 119.152 185.055
111.679 117.923 184.253
104.197 120.693 185.696
112.35 118.822 184.887
111.932 120.592 184.421
112.783 120.585 185.193
104.455 121.956 186.381
113.076 122.401 184.895
104.027 124.831 186.291
104.423 123.277 186.666
113.68 123.544 184.965
104.606 126.178 187.005
104.944 124.945 187.505
113.54 124.751 184.597
114.783 125.356 185.73
104.799 127.481 187.315
105.881 126.663 188.07
115.371 126.824 186.271
106.662 128.311 188.166
115.659 128.533 186.853
107.397 129.394 188.505
107.708 131.014 188.053
108.586 131.295 188.404
108.376 129.81 188.649
109.11 130.228 189.082
115.518 130.259 187.436
108.908 132.827 188.093
109.38 131.756 188.882
115.437 131.669 187.612
115.209 131.064 188.555
115.094 132.564 188.293
108.748 133.98 187.559
110.063 132.932 188.604
109.933 134.134 187.93
110.891 133.873 188.499
115.446 133.253 187.406
114.812 134.092 188.279
111.324 134.636 188.424
114.264 135.453 188.605
111.469 135.374 188.054
112.316 135.596 188.447
113.397 135.718 188.83
106.941 109.555 183.676
105.875 110.141 184.214
106.365 108.804 184.541
107.135 107.83 183.981
108.12 109.481 183.558
108.308 107.805 183.764
109.231 109.633 183.744
109.341 107.959 184.098
106.241 110.945 183.46
105.361 111.424 184.545
107.691 110.928 183.461
109.105 111.392 183.598
110.039 109.437 184.009
110.192 111.417 184.117
110.859 109.713 184.394
104.656 114.79 184.457
105.067 112.924 184.842
110.346 113.355 184.217
111.237 111.022 184.718
111.307 112.543 184.863
111.94 111.277 185.514
104.962 116.13 185.126
110.817 115.083 184.195
111.6 114.308 185.019
112.317 113.24 185.644
104.791 117.522 185.894
111.979 116.157 184.997
112.645 115.223 185.801
104.565 119.264 186.278
112.481 117.391 185.018
113.045 117.164 186.027
104.81 120.664 187.049
113.208 119.02 185.779
113.604 121.1 185.757
114.044 120.021 186.369
105.287 122.043 187.772
114.184 122.658 185.785
114.685 121.822 186.488
105.372 123.58 187.96
114.462 124.106 185.52
115.102 123.792 186.526
105.98 125.028 188.324
115.333 125.272 186.989
107.051 125.511 188.932
107.092 127.121 188.844
107.744 126.158 189.491
115.455 126.819 187.53
107.761 128.33 188.805
108.213 127.452 189.265
115.433 128.489 188.057
109.054 128.592 189.415
109.861 129.768 189.543
115.218 129.643 188.729
110.203 130.773 189.406
110.129 131.866 189.048
110.694 131.601 189.476
114.675 130.7 189.41
114.457 132.067 189.182
111.973 133.688 189.178
111.184 132.623 189.237
113.099 133.536 189.621
112.264 132.332 189.76
114.056 133.287 189.173
113.429 132.068 189.833
112.058 134.719 188.807
112.85 134.748 189.214
113.908 134.517 189.15
107.597 106.229 184.225
106.692 106.83 184.878
107.122 105.528 185.175
107.629 104.345 184.437
108.801 106.229 184.182
108.847 104.564 183.971
109.993 106.203 184.389
110.092 104.671 184.211
106.045 109.834 185.276
106.626 108.141 185.579
110.333 107.945 184.459
110.852 105.982 184.802
111.247 107.617 185.112
111.773 106.553 185.428
105.932 111.062 185.865
111.525 109.415 185.068
112.076 109.079 185.899
105.342 114.204 185.621
105.885 112.641 186.053
112.631 111.325 186.277
105.535 115.74 186.372
105.798 114.098 186.934
113.081 113.535 186.479
105.384 117.12 186.946
106.005 115.738 187.768
113.545 115.467 186.731
105.108 118.73 187.24
105.822 117.286 188.024
113.959 116.988 187.248
105.532 120.096 188.029
113.888 118.525 186.783
114.478 120.122 187.276
106.332 120.562 188.788
106.224 122.301 188.739
107.125 121.445 189.331
115.046 122.169 187.505
106.433 123.644 188.81
107.311 122.797 189.565
115.358 123.724 187.82
106.975 124.503 188.881
107.676 124.021 189.539
115.276 125.214 188.337
108.656 126.464 189.96
108.345 124.862 189.996
109.384 125.821 190.424
115.234 126.824 188.707
109.013 127.432 189.593
109.739 127.257 190.122
115.032 128.237 189.184
110.979 129.83 189.938
110.224 128.517 190.049
112.113 129.584 190.487
111.384 128.434 190.606
113.168 129.481 190.603
112.547 128.11 191.053
114.026 129.185 190.196
113.664 127.975 190.899
114.642 129.349 189.612
114.382 128.005 190.135
111.66 131.082 190.006
112.787 130.898 190.285
113.843 130.695 190.034
110.261 95.5927 181.825
109.417 96.6706 182.925
110.222 94.5892 183.098
111.067 93.5298 181.938
111.563 96.0541 181.946
112.297 94.3523 181.976
112.422 96.0958 182.727
113.033 95.037 183.06
109.791 98.1401 182.737
108.851 98.2617 183.679
110.939 97.8214 182.541
112.097 97.8294 183.034
112.856 96.8831 183.719
109.465 99.971 183.629
108.588 99.6991 184.728
110.661 99.5714 183.183
111.911 99.663 183.718
112.708 98.8412 184.356
108.663 101.333 184.062
107.866 102.083 185.107
108.397 100.929 185.473
110.093 101.803 183.931
111.237 101.257 183.977
112.312 101.35 184.861
112.855 100.457 185.449
108.408 102.984 184.3
107.802 103.359 185.659
109.755 103.172 184.184
111.482 103.234 184.532
112.37 102.948 185.258
107.254 106.67 186.254
107.644 104.739 186.232
111.175 104.588 184.71
112.237 105.043 185.626
106.622 109.658 186.418
107.126 108.08 186.891
112.564 107.228 186.209
106.515 111.168 187.047
112.669 109.307 186.786
106.432 112.639 187.514
113.213 111.496 187.109
106.442 114.108 188.169
113.718 113.615 187.462
106.936 115.569 188.776
114.086 115.373 187.964
106.016 118.598 188.443
106.785 117.088 188.949
114.477 116.967 188.624
106.333 119.466 188.698
107.098 118.736 189.297
114.367 118.496 187.893
114.778 120.323 188.249
108.124 121.549 190.042
107.421 120.131 189.562
108.519 120.413 190.43
114.875 121.816 188.658
108.59 122.706 190.275
109.364 121.475 190.829
115.148 123.348 188.926
108.587 123.718 190.154
109.531 123.208 190.837
115.065 124.348 189.361
114.841 123.144 189.659
114.631 123.824 190.284
110.501 126.111 190.847
109.752 124.536 190.624
110.713 124.835 191.258
115.09 125.554 189.681
114.495 125.191 190.805
110.851 127.333 190.686
111.444 125.817 191.445
111.989 126.956 191.21
113.345 126.849 191.337
112.575 125.788 191.643
114.382 126.545 190.561
113.695 125.552 191.42
114.811 126.978 189.614
109.53 96.6143 184.152
110.655 95.1781 184.536
111.43 93.5437 183.818
112.544 93.4506 183.193
113.17 95.1526 184.069
109.189 98.3698 185.156
113.318 97.283 184.818
109.286 99.9433 186.388
113.109 98.9249 185.653
108.738 102.476 186.636
109.1 101.27 186.642
112.922 100.278 186.805
113.03 102.249 186.43
108.596 103.91 187.278
112.717 104.095 186.317
108.043 106.207 187.248
108.485 105.174 187.73
112.81 105.814 186.768
107.265 109.524 187.644
107.965 107.626 188.001
113.192 107.643 187.219
107.179 111.063 188.271
108.116 109.277 188.77
113.17 109.551 187.68
107.243 112.615 188.746
108.126 111.023 189.352
113.607 111.556 188.105
107.33 114.218 189.33
108.189 112.751 189.765
113.944 113.312 188.604
107.74 116.054 189.727
108.354 114.369 189.983
114.209 114.995 189.201
107.991 117.611 189.882
108.749 115.556 190.469
108.9 116.809 190.686
109.859 115.814 191.007
114.327 116.38 189.784
108.286 119.114 190.249
109.285 118.252 190.739
110.447 117.275 191.237
114.535 118.626 188.905
114.341 118.061 189.922
109.608 119.872 190.965
110.587 118.921 191.406
114.647 119.884 189.521
114.34 119.957 190.564
110.432 121.949 191.21
110.767 120.619 191.459
114.75 121.679 189.862
114.22 121.369 190.998
110.847 123.432 191.302
111.417 121.994 191.83
111.976 123.273 191.85
113.368 123.259 191.899
112.55 122.167 192.242
114.252 122.832 190.925
113.666 121.904 191.918
111.766 124.591 191.798
112.893 124.653 192.144
113.949 124.23 191.344
110.03 96.8439 185.275
110.921 95.7217 185.659
111.642 94.4726 185.366
112.881 94.0736 184.751
113.208 95.8267 185.275
110.05 98.2808 186.177
113.224 97.422 185.982
110.364 99.4011 187.126
113.055 98.7182 186.647
109.974 101.824 187.736
110.493 100.661 187.691
111.518 101.576 188.721
112.905 101.538 187.853
112.238 100.319 188.262
112.905 99.1745 187.615
109.691 103.263 188.176
110.962 102.783 189.021
112.389 102.467 189.272
112.961 102.867 187.848
113.098 104.221 187.439
108.918 106.372 188.53
109.631 104.948 188.757
113.26 106.119 188.063
109.176 107.974 189.088
110.087 106.666 189.522
113.151 107.906 188.406
109.2 109.661 189.674
110.307 108.465 190.008
113.466 109.735 188.799
109.242 111.445 190.083
110.275 110.27 190.389
113.61 111.524 189.329
109.367 113.154 190.492
110.459 112.045 190.778
113.837 113.185 189.833
109.489 114.545 190.669
110.578 113.823 191.053
113.934 114.691 190.363
110.916 115.53 191.391
113.933 116.339 190.697
111.343 116.62 191.63
111.727 118.03 191.842
113.053 117.863 191.909
112.259 116.669 191.897
113.847 117.602 191.011
113.358 116.424 191.703
111.691 119.68 191.716
112.819 119.243 191.901
113.879 118.958 191.19
111.8 120.997 191.953
112.836 120.757 192.229
113.817 120.392 191.685
110.815 96.9717 186.44
111.688 95.7411 186.611
112.693 94.9685 186.042
111.087 98.2492 187.326
111.931 97.1351 187.523
112.894 96.3243 186.668
111.277 99.5316 187.96
112.137 98.6474 188.185
112.906 97.804 187.316
111.008 104.478 189.318
112.14 103.962 189.726
113.012 103.781 188.874
111.051 106.013 190.021
112.312 105.485 190.256
113.071 105.094 188.968
111.213 107.655 190.449
112.428 107.106 190.656
113.156 106.727 189.407
111.347 109.438 190.8
112.419 108.881 190.764
112.993 108.405 189.69
111.418 111.105 191.115
112.506 110.57 191.081
113.241 110.168 190.062
111.437 112.773 191.667
112.617 112.217 191.543
113.334 111.799 190.561
111.569 114.439 191.711
112.642 113.817 191.904
113.468 113.416 191.047
111.76 115.665 191.753
112.556 115.272 191.867
113.457 115.004 191.359
POLYGONS 1936  7744
3 0 1 2
3 0 3 4
3 2 3 0
3 4 5 6
3 3 5 4
3 5 7 6
3 8 1 0
3 9 1 8
3 4 10 0
3 10 8 0
3 6 11 4
3 11 10 4
3 12 6 7
3 11 6 12
3 8 13 9
3 10 13 8
3 14 13 10
3 11 14 10
3 15 14 11
3 12 15 11
3 16 17 18
3 16 19 20
3 18 19 16
3 20 21 22
3 19 21 20
3 21 23 22
3 24 17 16
3 25 17 24
3 20 26 16
3 26 24 16
3 22 27 20
3 27 26 20
3 28 22 23
3 28 29 22
3 29 27 22
3 28 30 29
3 31 25 24
3 32 25 31
3 26 33 24
3 33 31 24
3 27 34 26
3 34 33 26
3 29 35 27
3 35 34 27
3 36 29 30
3 35 29 36
3 31 37 32
3 37 38 39
3 37 31 38
3 31 33 38
3 34 40 33
3 40 38 33
3 35 41 34
3 41 40 34
3 42 35 36
3 41 35 42
3 38 43 39
3 40 43 38
3 44 43 40
3 44 45 46
3 44 40 45
3 40 41 45
3 47 41 42
3 47 48 41
3 48 45 41
3 48 49 50
3 47 49 48
3 49 51 50
3 52 46 45
3 53 46 52
3 48 54 45
3 54 52 45
3 50 55 48
3 55 54 48
3 56 50 51
3 55 50 56
3 57 58 59
3 53 57 59
3 52 57 53
3 52 1 57
3 52 2 1
3 3 2 52
3 54 3 52
3 5 3 54
3 55 5 54
3 55 7 5
3 55 56 7
3 56 60 7
3 61 58 57
3 62 58 61
3 1 9 61
3 57 1 61
3 7 60 12
3 60 63 12
3 61 64 62
3 9 64 61
3 9 13 64
3 13 65 64
3 14 66 13
3 13 66 65
3 15 67 14
3 14 67 66
3 63 15 12
3 67 15 63
3 68 69 70
3 68 71 72
3 70 71 68
3 71 73 72
3 74 69 68
3 75 69 74
3 18 17 74
3 18 74 72
3 72 74 68
3 72 73 76
3 72 76 18
3 18 76 19
3 21 19 77
3 19 76 77
3 77 23 21
3 78 23 77
3 79 75 74
3 80 75 79
3 17 25 79
3 74 17 79
3 23 78 81
3 28 23 81
3 81 30 28
3 82 30 81
3 83 80 79
3 84 80 83
3 25 32 83
3 79 25 83
3 85 86 36
3 85 36 82
3 82 36 30
3 85 87 86
3 83 88 84
3 89 90 88
3 37 89 88
3 37 88 83
3 37 83 32
3 37 39 89
3 86 91 42
3 36 86 42
3 92 86 87
3 91 86 92
3 89 93 90
3 94 95 93
3 43 94 93
3 43 93 89
3 43 89 39
3 43 44 96
3 94 43 96
3 44 46 96
3 42 91 47
3 91 92 97
3 91 97 47
3 47 97 49
3 97 51 49
3 98 51 97
3 99 95 94
3 100 95 99
3 96 101 94
3 101 99 94
3 46 53 101
3 96 46 101
3 51 98 56
3 98 102 56
3 99 103 100
3 59 58 104
3 59 104 99
3 59 99 101
3 99 104 103
3 53 59 101
3 56 102 60
3 102 105 60
3 58 62 104
3 104 62 106
3 60 105 63
3 105 107 63
3 62 108 106
3 64 108 62
3 109 110 108
3 109 108 65
3 65 108 64
3 65 66 111
3 109 65 111
3 66 67 112
3 111 66 112
3 67 113 112
3 67 63 113
3 63 107 113
3 109 114 110
3 111 114 109
3 115 114 111
3 112 115 111
3 116 115 112
3 113 116 112
3 70 117 118
3 69 117 70
3 71 70 119
3 70 118 119
3 73 120 121
3 73 71 120
3 71 119 120
3 120 122 121
3 69 75 117
3 117 75 123
3 73 121 76
3 121 122 124
3 121 124 76
3 76 124 77
3 124 78 77
3 125 78 124
3 75 80 123
3 123 80 126
3 78 125 127
3 81 78 127
3 127 82 81
3 128 82 127
3 80 84 126
3 126 84 129
3 82 128 130
3 85 82 130
3 130 87 85
3 131 87 130
3 132 84 88
3 132 133 84
3 133 129 84
3 88 90 132
3 87 131 92
3 131 134 92
3 135 133 132
3 136 133 135
3 90 93 137
3 90 137 132
3 132 137 135
3 93 95 137
3 92 134 138
3 97 92 138
3 138 98 97
3 139 98 138
3 135 140 136
3 140 141 142
3 140 135 141
3 135 137 141
3 95 100 141
3 137 95 141
3 98 139 102
3 139 143 102
3 141 144 142
3 145 146 144
3 103 145 144
3 103 144 141
3 103 141 100
3 103 104 145
3 147 148 105
3 147 105 143
3 143 105 102
3 147 149 148
3 150 146 145
3 151 146 150
3 104 106 150
3 145 104 150
3 148 152 107
3 105 148 107
3 153 148 149
3 152 148 153
3 150 154 151
3 106 154 150
3 106 108 154
3 108 155 154
3 155 108 110
3 156 155 110
3 152 157 113
3 107 152 113
3 158 152 153
3 157 152 158
3 110 159 156
3 114 159 110
3 115 160 114
3 114 160 159
3 116 161 115
3 115 161 160
3 157 116 113
3 157 162 116
3 162 161 116
3 158 162 157
3 163 164 165
3 163 166 167
3 165 166 163
3 167 168 169
3 166 168 167
3 168 170 169
3 118 164 163
3 118 117 164
3 117 171 164
3 119 118 163
3 167 119 163
3 120 119 167
3 169 120 167
3 169 122 120
3 169 170 122
3 170 172 122
3 117 123 171
3 171 123 173
3 122 172 174
3 124 122 174
3 174 125 124
3 175 125 174
3 123 126 173
3 173 126 176
3 125 175 177
3 127 125 177
3 177 128 127
3 178 128 177
3 126 129 176
3 176 129 179
3 128 178 180
3 130 128 180
3 180 131 130
3 181 131 180
3 129 133 179
3 179 133 182
3 131 181 134
3 181 183 134
3 133 136 182
3 182 136 184
3 134 183 185
3 138 134 185
3 185 139 138
3 186 139 185
3 187 136 140
3 187 188 136
3 188 184 136
3 140 142 187
3 189 190 143
3 189 143 186
3 186 143 139
3 189 191 190
3 187 192 188
3 193 194 192
3 144 193 192
3 144 192 187
3 144 187 142
3 144 146 193
3 143 190 147
3 190 149 147
3 190 191 149
3 191 195 149
3 196 194 193
3 197 194 196
3 146 151 196
3 193 146 196
3 149 195 153
3 195 198 153
3 196 199 197
3 151 199 196
3 151 154 199
3 154 200 199
3 201 202 200
3 201 200 155
3 155 200 154
3 155 156 201
3 153 198 158
3 198 203 158
3 201 204 202
3 156 204 201
3 156 159 204
3 159 205 204
3 160 206 159
3 159 206 205
3 161 207 160
3 160 207 206
3 162 208 161
3 161 208 207
3 203 162 158
3 208 162 203
3 165 209 210
3 164 209 165
3 166 165 211
3 165 210 211
3 168 166 212
3 166 211 212
3 212 170 168
3 213 170 212
3 164 171 209
3 209 171 214
3 170 213 172
3 213 215 172
3 171 173 214
3 214 173 216
3 172 215 217
3 174 172 217
3 217 175 174
3 218 175 217
3 173 176 216
3 216 176 219
3 175 218 220
3 177 175 220
3 220 178 177
3 221 178 220
3 176 179 219
3 219 179 222
3 178 221 223
3 180 178 223
3 223 181 180
3 224 181 223
3 179 182 222
3 222 182 225
3 181 224 183
3 224 226 183
3 182 184 225
3 225 184 227
3 183 226 228
3 185 183 228
3 228 186 185
3 229 186 228
3 184 188 227
3 227 188 230
3 186 229 231
3 189 186 231
3 231 191 189
3 232 191 231
3 188 233 230
3 192 233 188
3 233 192 194
3 234 233 194
3 191 232 195
3 232 235 195
3 194 197 234
3 234 197 236
3 195 235 198
3 235 237 198
3 197 238 236
3 199 238 197
3 200 239 199
3 199 239 238
3 239 200 202
3 240 239 202
3 198 237 203
3 237 241 203
3 202 242 240
3 204 242 202
3 205 243 204
3 204 243 242
3 206 244 205
3 205 244 243
3 207 245 206
3 206 245 244
3 208 246 207
3 207 246 245
3 241 208 203
3 246 208 241
3 247 248 249
3 247 250 251
3 249 250 247
3 251 252 253
3 250 252 251
3 252 254 253
3 210 248 247
3 210 209 248
3 209 255 248
3 211 210 247
3 251 211 247
3 212 211 251
3 253 212 251
3 253 213 212
3 253 254 213
3 254 256 213
3 209 214 255
3 255 214 257
3 213 256 215
3 256 258 215
3 214 216 257
3 257 216 259
3 215 258 260
3 217 215 260
3 260 218 217
3 261 218 260
3 216 219 259
3 259 219 262
3 218 261 263
3 220 218 263
3 263 221 220
3 264 221 263
3 219 222 262
3 262 222 265
3 221 264 266
3 223 221 266
3 266 224 223
3 267 224 266
3 222 225 265
3 265 225 268
3 224 267 226
3 267 269 226
3 225 227 268
3 268 227 270
3 226 269 271
3 228 226 271
3 271 229 228
3 272 229 271
3 227 230 270
3 270 230 273
3 274 231 229
3 274 229 275
3 275 229 272
3 231 274 232
3 230 276 273
3 233 276 230
3 276 233 234
3 277 276 234
3 274 275 278
3 278 232 274
3 278 279 232
3 279 235 232
3 234 236 277
3 277 236 280
3 235 279 237
3 279 281 237
3 236 282 280
3 238 282 236
3 239 283 238
3 238 283 282
3 283 239 240
3 284 283 240
3 237 281 241
3 281 285 241
3 240 286 284
3 242 286 240
3 243 287 242
3 242 287 286
3 244 288 243
3 243 288 287
3 245 289 244
3 244 289 288
3 246 290 245
3 245 290 289
3 285 246 241
3 290 246 285
3 249 291 292
3 248 291 249
3 250 249 293
3 249 292 293
3 252 250 294
3 250 293 294
3 294 254 252
3 295 254 294
3 248 255 291
3 291 255 296
3 297 298 256
3 297 256 295
3 295 256 254
3 297 299 298
3 255 257 296
3 296 257 300
3 298 301 258
3 256 298 258
3 302 298 299
3 301 298 302
3 257 259 300
3 300 259 303
3 258 301 260
3 261 304 305
3 260 304 261
3 260 302 304
3 260 301 302
3 304 306 305
3 259 262 303
3 303 262 307
3 261 305 263
3 305 264 263
3 305 306 264
3 306 308 264
3 262 265 307
3 307 265 309
3 264 308 310
3 266 264 310
3 310 267 266
3 311 267 310
3 265 268 309
3 309 268 312
3 313 314 269
3 313 269 311
3 311 269 267
3 313 315 314
3 268 270 312
3 312 270 316
3 269 314 271
3 314 272 271
3 314 315 272
3 315 317 272
3 270 273 316
3 316 273 318
3 272 317 275
3 317 319 275
3 273 320 318
3 276 320 273
3 320 276 277
3 321 320 277
3 275 319 322
3 278 275 322
3 322 279 278
3 323 279 322
3 277 280 321
3 321 280 324
3 279 323 281
3 323 325 281
3 280 326 324
3 282 326 280
3 283 327 282
3 282 327 326
3 327 283 284
3 328 327 284
3 281 325 285
3 325 329 285
3 284 330 328
3 286 330 284
3 287 331 286
3 286 331 330
3 288 332 287
3 287 332 331
3 289 333 288
3 288 333 332
3 290 334 289
3 289 334 333
3 329 290 285
3 334 290 329
3 335 336 337
3 335 338 339
3 337 338 335
3 338 340 339
3 292 291 341
3 335 342 336
3 335 292 342
3 335 293 292
3 341 342 292
3 294 293 335
3 339 294 335
3 295 343 344
3 294 343 295
3 294 340 343
3 294 339 340
3 343 345 344
3 341 346 347
3 341 291 346
3 291 296 346
3 342 341 347
3 295 344 297
3 344 299 297
3 344 345 299
3 345 348 299
3 296 300 346
3 346 300 349
3 299 348 302
3 348 350 302
3 300 303 349
3 349 303 351
3 302 350 352
3 304 302 352
3 352 306 304
3 353 306 352
3 303 307 351
3 351 307 354
3 355 356 308
3 355 308 353
3 353 308 306
3 355 357 356
3 307 309 354
3 354 309 358
3 308 356 310
3 311 359 360
3 310 359 311
3 310 357 359
3 310 356 357
3 359 361 360
3 309 312 358
3 358 312 362
3 311 360 313
3 360 315 313
3 360 361 315
3 361 363 315
3 312 316 362
3 362 316 364
3 315 363 317
3 363 365 317
3 316 318 364
3 364 318 366
3 317 365 319
3 365 367 319
3 318 368 366
3 320 368 318
3 368 320 321
3 369 368 321
3 370 322 319
3 370 319 371
3 371 319 367
3 322 370 323
3 372 324 373
3 372 369 324
3 369 321 324
3 372 373 374
3 375 370 371
3 376 375 371
3 323 375 325
3 370 375 323
3 324 326 373
3 373 377 374
3 373 326 377
3 326 327 377
3 328 378 379
3 328 379 327
3 327 379 377
3 378 380 381
3 379 378 381
3 380 382 383
3 381 380 383
3 382 384 385
3 383 382 385
3 376 385 384
3 376 384 375
3 375 384 386
3 325 386 329
3 375 386 325
3 328 330 378
3 331 378 330
3 380 378 331
3 332 380 331
3 382 380 332
3 333 382 332
3 384 382 333
3 334 384 333
3 386 384 334
3 329 386 334
3 387 388 389
3 387 390 391
3 389 390 387
3 390 392 391
3 337 388 387
3 337 336 388
3 336 393 388
3 338 337 387
3 391 338 387
3 340 394 395
3 338 394 340
3 338 392 394
3 338 391 392
3 394 396 395
3 336 342 393
3 393 342 397
3 340 395 343
3 395 345 343
3 395 396 345
3 396 398 345
3 347 399 400
3 346 399 347
3 397 342 347
3 400 397 347
3 401 402 348
3 401 348 398
3 398 348 345
3 401 403 402
3 346 349 399
3 399 349 404
3 402 405 350
3 348 402 350
3 406 402 403
3 405 402 406
3 349 351 404
3 404 351 407
3 350 405 352
3 353 408 409
3 352 408 353
3 352 406 408
3 352 405 406
3 408 410 409
3 351 354 407
3 407 354 411
3 353 409 355
3 357 412 413
3 355 412 357
3 355 410 412
3 355 409 410
3 412 414 413
3 354 358 411
3 411 358 415
3 357 413 359
3 413 361 359
3 413 414 361
3 414 416 361
3 358 362 415
3 415 362 417
3 361 416 363
3 416 418 363
3 362 364 417
3 417 364 419
3 420 421 365
3 420 365 418
3 418 365 363
3 420 422 421
3 423 366 424
3 423 419 366
3 419 364 366
3 423 424 425
3 421 426 367
3 365 421 367
3 427 421 422
3 426 421 427
3 366 368 424
3 369 428 429
3 368 369 429
3 368 429 425
3 368 425 424
3 429 428 430
3 426 431 371
3 367 426 371
3 432 426 427
3 431 426 432
3 369 372 428
3 374 433 434
3 372 374 434
3 372 434 430
3 372 430 428
3 434 433 435
3 431 436 437
3 431 437 371
3 371 437 376
3 432 436 431
3 374 377 433
3 433 438 435
3 433 377 438
3 377 379 438
3 381 439 379
3 379 439 438
3 383 440 381
3 381 440 439
3 385 441 383
3 383 441 440
3 437 385 376
3 441 385 437
3 442 443 444
3 442 445 446
3 444 445 442
3 446 447 448
3 445 447 446
3 447 449 448
3 389 443 442
3 389 388 443
3 388 450 443
3 390 389 442
3 446 390 442
3 392 390 446
3 392 446 451
3 451 446 448
3 452 448 449
3 451 448 452
3 388 393 450
3 450 393 453
3 392 451 394
3 396 454 455
3 394 454 396
3 394 452 454
3 394 451 452
3 454 456 455
3 393 397 453
3 453 397 457
3 455 458 398
3 396 455 398
3 459 455 456
3 458 455 459
3 400 460 461
3 399 460 400
3 457 397 400
3 461 457 400
3 398 458 401
3 403 462 463
3 401 462 403
3 401 459 462
3 401 458 459
3 462 464 463
3 399 404 460
3 460 404 465
3 463 466 406
3 403 463 406
3 467 463 464
3 466 463 467
3 404 407 465
3 465 407 468
3 406 466 408
3 410 469 470
3 408 469 410
3 408 467 469
3 408 466 467
3 469 471 470
3 407 411 468
3 468 411 472
3 410 470 412
3 470 414 412
3 470 471 414
3 471 473 414
3 411 415 472
3 472 415 474
3 475 476 416
3 475 416 473
3 473 416 414
3 475 477 476
3 478 417 479
3 478 474 417
3 474 415 417
3 478 479 480
3 476 481 418
3 416 476 418
3 482 476 477
3 481 476 482
3 479 419 483
3 417 419 479
3 484 480 479
3 483 484 479
3 418 481 420
3 481 422 420
3 481 482 422
3 482 485 422
3 419 423 483
3 483 423 425
3 483 425 484
3 484 425 486
3 422 485 427
3 485 487 427
3 425 488 486
3 429 488 425
3 488 429 430
3 489 488 430
3 427 487 432
3 487 490 432
3 430 491 489
3 434 491 430
3 435 492 493
3 435 493 434
3 434 493 491
3 493 492 494
3 436 495 496
3 437 436 496
3 490 436 432
3 495 436 490
3 435 438 492
3 492 497 494
3 492 438 497
3 438 439 497
3 440 498 439
3 439 498 497
3 441 499 440
3 440 499 498
3 496 441 437
3 499 441 496
3 444 500 501
3 443 500 444
3 445 444 502
3 444 501 502
3 447 445 503
3 445 502 503
3 503 449 447
3 504 449 503
3 443 450 500
3 500 450 505
3 506 507 452
3 506 452 504
3 504 452 449
3 506 508 507
3 450 453 505
3 505 453 509
3 452 507 454
3 456 510 511
3 454 510 456
3 454 508 510
3 454 507 508
3 510 512 511
3 453 457 509
3 509 457 513
3 511 514 459
3 456 511 459
3 515 511 512
3 514 511 515
3 461 460 516
3 461 516 517
3 461 517 457
3 457 517 513
3 459 514 462
3 464 518 519
3 462 518 464
3 462 515 518
3 462 514 515
3 518 520 519
3 516 521 522
3 516 460 521
3 460 465 521
3 517 516 522
3 519 523 467
3 464 519 467
3 524 519 520
3 523 519 524
3 465 468 521
3 521 468 525
3 467 523 469
3 471 526 527
3 469 526 471
3 469 524 526
3 469 523 524
3 526 528 527
3 468 472 525
3 525 472 529
3 527 530 473
3 471 527 473
3 531 527 528
3 530 527 531
3 532 474 533
3 532 529 474
3 529 472 474
3 532 533 534
3 473 530 475
3 530 477 475
3 530 531 477
3 531 535 477
3 474 478 533
3 533 478 480
3 533 480 534
3 534 480 536
3 477 535 482
3 535 537 482
3 538 484 539
3 538 536 484
3 536 480 484
3 538 539 540
3 482 537 485
3 537 541 485
3 539 486 542
3 484 486 539
3 543 540 539
3 542 543 539
3 485 541 487
3 541 544 487
3 486 488 542
3 489 545 546
3 488 489 546
3 488 546 543
3 488 543 542
3 545 547 548
3 546 545 548
3 548 547 549
3 550 551 552
3 550 544 551
3 550 490 544
3 490 487 544
3 489 491 545
3 493 545 491
3 547 545 493
3 494 553 554
3 493 494 554
3 493 554 549
3 493 549 547
3 553 555 556
3 554 553 556
3 555 557 558
3 556 555 558
3 552 558 557
3 550 552 557
3 550 557 496
3 550 496 495
3 490 550 495
3 494 497 553
3 498 553 497
3 555 553 498
3 499 555 498
3 557 555 499
3 496 557 499
3 559 560 561
3 559 562 563
3 561 562 559
3 563 564 565
3 562 564 563
3 565 566 567
3 564 566 565
3 566 568 567
3 501 560 559
3 501 500 560
3 500 569 560
3 502 501 559
3 563 502 559
3 503 502 563
3 565 503 563
3 504 503 565
3 504 565 570
3 570 565 567
3 571 567 568
3 570 567 571
3 500 505 569
3 569 505 572
3 504 570 506
3 508 573 574
3 506 573 508
3 506 571 573
3 506 570 571
3 573 575 574
3 505 509 572
3 572 509 576
3 508 574 510
3 574 512 510
3 574 575 512
3 575 577 512
3 509 513 576
3 576 513 578
3 579 580 515
3 579 515 577
3 577 515 512
3 579 581 580
3 513 517 578
3 578 517 582
3 515 580 518
3 580 520 518
3 580 581 520
3 581 583 520
3 522 521 584
3 522 584 585
3 522 585 517
3 517 585 582
3 520 583 524
3 583 586 524
3 584 525 587
3 521 525 584
3 588 585 584
3 587 588 584
3 524 586 589
3 526 524 589
3 589 528 526
3 590 528 589
3 587 529 591
3 525 529 587
3 592 588 587
3 591 592 587
3 528 590 531
3 590 593 531
3 529 532 591
3 591 532 534
3 591 534 592
3 592 534 594
3 531 593 535
3 593 595 535
3 596 536 597
3 596 594 536
3 594 534 536
3 597 598 599
3 596 597 599
3 599 598 600
3 535 595 537
3 595 601 537
3 536 538 597
3 540 597 538
3 540 602 597
3 602 598 597
3 603 600 598
3 602 603 598
3 604 605 606
3 604 601 605
3 604 541 601
3 541 537 601
3 602 543 607
3 540 543 602
3 608 603 602
3 608 602 609
3 609 602 607
3 608 609 610
3 611 604 606
3 612 611 606
3 541 611 544
3 604 611 541
3 543 546 607
3 548 607 546
3 609 607 548
3 609 548 549
3 609 549 610
3 610 549 613
3 551 611 612
3 551 612 552
3 552 612 614
3 544 611 551
3 549 615 613
3 554 615 549
3 556 616 554
3 554 616 615
3 558 617 556
3 556 617 616
3 614 558 552
3 617 558 614
3 618 619 620
3 618 621 622
3 620 621 618
3 622 623 624
3 621 623 622
3 623 625 624
3 626 619 618
3 627 619 626
3 622 628 618
3 628 626 618
3 624 629 622
3 629 628 622
3 630 624 625
3 630 631 624
3 631 629 624
3 630 632 631
3 561 633 634
3 560 633 561
3 627 626 562
3 627 562 634
3 634 562 561
3 564 562 626
3 628 564 626
3 566 564 628
3 629 566 628
3 568 566 629
3 568 629 635
3 635 629 631
3 636 631 632
3 636 637 631
3 637 635 631
3 636 638 637
3 560 569 633
3 633 569 639
3 635 640 571
3 568 635 571
3 637 641 635
3 641 640 635
3 642 637 638
3 641 637 642
3 569 572 639
3 639 572 643
3 571 640 573
3 575 573 640
3 575 640 644
3 644 640 641
3 645 641 642
3 644 641 645
3 572 576 643
3 643 576 646
3 644 647 577
3 575 644 577
3 648 644 645
3 647 644 648
3 576 578 646
3 646 578 649
3 577 647 579
3 581 650 651
3 579 650 581
3 579 648 650
3 579 647 648
3 650 652 651
3 578 582 649
3 649 582 653
3 651 654 583
3 581 651 583
3 655 651 652
3 654 651 655
3 582 585 653
3 653 585 656
3 654 657 586
3 583 654 586
3 658 654 655
3 657 654 658
3 585 588 656
3 656 588 659
3 586 657 589
3 657 590 589
3 657 658 590
3 658 660 590
3 661 592 662
3 661 659 592
3 659 588 592
3 661 662 663
3 590 660 593
3 660 664 593
3 662 594 665
3 592 594 662
3 666 663 662
3 665 666 662
3 593 664 595
3 664 667 595
3 594 596 665
3 665 668 666
3 665 596 668
3 596 599 668
3 668 599 600
3 669 668 600
3 595 667 601
3 667 670 601
3 671 603 672
3 671 669 603
3 669 600 603
3 671 672 673
3 605 674 675
3 606 605 675
3 670 605 601
3 674 605 670
3 603 608 672
3 610 676 677
3 608 610 677
3 608 677 673
3 608 673 672
3 676 678 679
3 677 676 679
3 678 680 681
3 679 678 681
3 680 675 681
3 680 612 675
3 612 606 675
3 676 613 682
3 610 613 676
3 678 676 683
3 683 676 682
3 680 678 684
3 684 678 683
3 612 684 614
3 680 684 612
3 613 615 682
3 616 682 615
3 683 682 616
3 617 683 616
3 684 683 617
3 614 684 617
3 685 686 687
3 685 688 689
3 687 688 685
3 689 690 691
3 688 690 689
3 690 692 691
3 620 693 694
3 619 693 620
3 686 685 621
3 686 621 694
3 694 621 620
3 623 621 685
3 689 623 685
3 625 623 689
3 625 689 695
3 695 689 691
3 696 691 692
3 696 697 691
3 697 695 691
3 696 698 697
3 619 627 693
3 693 627 699
3 625 695 630
3 632 630 695
3 632 695 700
3 700 695 697
3 701 697 698
3 700 697 701
3 634 633 702
3 634 702 703
3 634 703 627
3 627 703 699
3 632 700 636
3 700 638 636
3 700 701 638
3 701 704 638
3 702 639 705
3 633 639 702
3 706 703 702
3 705 706 702
3 638 704 642
3 704 707 642
3 705 643 708
3 639 643 705
3 709 706 705
3 708 709 705
3 642 707 645
3 707 710 645
3 708 711 712
3 708 643 711
3 643 646 711
3 709 708 712
3 645 710 648
3 710 713 648
3 646 649 711
3 711 649 714
3 648 713 715
3 650 648 715
3 715 652 650
3 716 652 715
3 717 653 718
3 717 714 653
3 714 649 653
3 717 718 719
3 652 716 655
3 716 720 655
3 718 656 721
3 653 656 718
3 722 719 718
3 721 722 718
3 655 720 658
3 720 723 658
3 721 659 724
3 656 659 721
3 725 722 721
3 724 725 721
3 658 723 660
3 723 726 660
3 659 661 724
3 663 727 728
3 661 663 728
3 661 728 725
3 661 725 724
3 728 727 729
3 660 726 664
3 726 730 664
3 727 666 731
3 663 666 727
3 732 729 727
3 731 732 727
3 664 730 667
3 730 733 667
3 666 668 731
3 669 734 735
3 668 669 735
3 668 735 732
3 668 732 731
3 734 736 737
3 735 734 737
3 736 738 739
3 737 736 739
3 738 740 741
3 739 738 741
3 740 742 743
3 741 740 743
3 742 733 743
3 742 670 733
3 670 667 733
3 669 671 734
3 673 734 671
3 673 744 734
3 744 736 734
3 738 736 745
3 745 736 744
3 740 738 746
3 746 738 745
3 674 746 675
3 674 742 746
3 742 740 746
3 670 742 674
3 673 677 744
3 679 744 677
3 745 744 679
3 681 745 679
3 746 745 681
3 675 746 681
3 747 748 749
3 747 750 751
3 749 750 747
3 751 752 753
3 750 752 751
3 752 754 753
3 755 748 747
3 756 748 755
3 751 757 747
3 757 755 747
3 753 758 751
3 758 757 751
3 759 753 754
3 758 753 759
3 760 756 755
3 761 756 760
3 757 762 755
3 762 760 755
3 758 763 757
3 763 762 757
3 764 758 759
3 763 758 764
3 765 766 767
3 761 765 767
3 761 760 765
3 760 768 765
3 762 769 760
3 769 768 760
3 770 763 771
3 770 769 763
3 769 762 763
3 764 771 763
3 772 766 765
3 773 766 772
3 768 774 765
3 774 772 765
3 769 775 768
3 775 774 768
3 776 769 770
3 775 769 776
3 687 777 778
3 686 777 687
3 773 772 688
3 773 688 778
3 778 688 687
3 690 688 772
3 774 690 772
3 692 690 774
3 692 774 779
3 779 774 775
3 780 775 776
3 779 775 780
3 694 781 782
3 693 781 694
3 777 686 694
3 782 777 694
3 692 779 696
3 779 698 696
3 779 780 698
3 780 783 698
3 693 699 781
3 781 699 784
3 698 783 701
3 783 785 701
3 699 703 784
3 784 703 786
3 701 785 704
3 785 787 704
3 703 706 786
3 786 706 788
3 704 787 707
3 787 789 707
3 706 709 788
3 788 709 790
3 707 789 710
3 789 791 710
3 712 711 792
3 712 792 793
3 712 793 709
3 709 793 790
3 710 791 713
3 791 794 713
3 792 714 795
3 711 714 792
3 796 793 792
3 795 796 792
3 713 794 797
3 715 713 797
3 797 716 715
3 798 716 797
3 714 717 795
3 719 799 800
3 717 719 800
3 717 800 796
3 717 796 795
3 800 799 801
3 716 798 720
3 798 802 720
3 799 722 803
3 719 722 799
3 804 801 799
3 803 804 799
3 720 802 723
3 802 805 723
3 803 725 806
3 722 725 803
3 807 804 803
3 806 807 803
3 808 809 810
3 808 805 809
3 808 726 805
3 726 723 805
3 725 728 806
3 729 811 812
3 728 729 812
3 728 812 807
3 728 807 806
3 812 811 813
3 814 808 810
3 815 814 810
3 726 814 730
3 808 814 726
3 811 732 816
3 729 732 811
3 817 813 811
3 817 811 818
3 818 811 816
3 818 819 820
3 817 818 820
3 819 821 822
3 820 819 822
3 815 822 821
3 815 821 814
3 814 821 823
3 730 823 733
3 814 823 730
3 732 735 816
3 737 816 735
3 818 816 737
3 739 818 737
3 819 818 739
3 741 819 739
3 821 819 741
3 743 821 741
3 823 821 743
3 733 823 743
3 749 824 825
3 748 824 749
3 750 749 826
3 749 825 826
3 752 750 827
3 750 826 827
3 827 754 752
3 828 754 827
3 748 756 824
3 824 756 829
3 754 828 759
3 828 830 759
3 756 761 829
3 829 761 831
3 759 830 764
3 830 832 764
3 767 833 834
3 766 833 767
3 831 761 767
3 834 831 767
3 771 835 836
3 770 771 836
3 832 771 764
3 835 771 832
3 766 773 833
3 833 773 837
3 770 836 776
3 836 838 776
3 778 839 840
3 777 839 778
3 837 773 778
3 840 837 778
3 776 838 780
3 838 841 780
3 782 781 842
3 782 842 843
3 782 843 777
3 777 843 839
3 780 841 783
3 841 844 783
3 842 784 845
3 781 784 842
3 846 843 842
3 845 846 842
3 783 844 785
3 844 847 785
3 845 786 848
3 784 786 845
3 849 846 845
3 848 849 845
3 785 847 787
3 847 850 787
3 848 788 851
3 786 788 848
3 852 849 848
3 851 852 848
3 787 850 789
3 850 853 789
3 851 790 854
3 788 790 851
3 855 852 851
3 854 855 851
3 789 853 791
3 853 856 791
3 854 793 857
3 790 793 854
3 858 855 854
3 858 854 859
3 859 854 857
3 858 859 860
3 791 856 794
3 856 861 794
3 857 796 862
3 793 796 857
3 859 857 863
3 863 857 862
3 864 860 859
3 863 864 859
3 865 797 794
3 865 794 866
3 866 794 861
3 797 865 798
3 796 800 862
3 801 862 800
3 801 867 862
3 867 863 862
3 868 864 863
3 867 868 863
3 869 865 866
3 870 869 866
3 798 869 802
3 865 869 798
3 867 804 871
3 801 804 867
3 872 868 867
3 871 872 867
3 873 869 870
3 874 873 870
3 802 873 805
3 869 873 802
3 871 807 875
3 804 807 871
3 876 872 871
3 876 871 877
3 877 871 875
3 877 878 879
3 876 877 879
3 878 880 881
3 879 878 881
3 874 881 880
3 873 874 880
3 873 880 810
3 873 810 809
3 805 873 809
3 807 812 875
3 813 875 812
3 813 882 875
3 882 877 875
3 878 877 883
3 883 877 882
3 880 878 884
3 884 878 883
3 810 884 815
3 880 884 810
3 813 817 882
3 820 882 817
3 883 882 820
3 822 883 820
3 884 883 822
3 815 884 822
3 825 885 886
3 824 885 825
3 826 825 887
3 825 886 887
3 827 826 888
3 826 887 888
3 888 828 827
3 889 828 888
3 824 829 885
3 885 829 890
3 828 889 830
3 889 891 830
3 829 831 890
3 890 831 892
3 830 891 832
3 891 893 832
3 834 833 894
3 895 892 831
3 895 831 894
3 895 894 896
3 894 831 834
3 896 897 898
3 895 896 898
3 897 836 835
3 897 835 898
3 898 835 899
3 893 835 832
3 899 835 893
3 894 900 901
3 894 833 900
3 833 837 900
3 896 894 901
3 902 896 901
3 897 896 902
3 903 897 902
3 903 836 897
3 903 904 836
3 904 838 836
3 840 839 905
3 840 905 906
3 840 906 837
3 837 906 900
3 838 904 841
3 904 907 841
3 905 843 908
3 839 843 905
3 909 906 905
3 908 909 905
3 841 907 844
3 907 910 844
3 908 846 911
3 843 846 908
3 912 909 908
3 911 912 908
3 844 910 847
3 910 913 847
3 911 849 914
3 846 849 911
3 915 912 911
3 914 915 911
3 847 913 850
3 913 916 850
3 914 852 917
3 849 852 914
3 918 915 914
3 917 918 914
3 850 916 853
3 916 919 853
3 917 855 920
3 852 855 917
3 921 918 917
3 920 921 917
3 853 919 856
3 919 922 856
3 855 858 920
3 920 858 860
3 920 860 921
3 921 860 923
3 856 922 861
3 922 924 861
3 925 864 926
3 925 923 864
3 923 860 864
3 926 927 928
3 925 926 928
3 927 929 930
3 928 927 930
3 929 924 930
3 929 866 924
3 866 861 924
3 926 868 931
3 864 868 926
3 927 926 932
3 932 926 931
3 929 927 933
3 933 927 932
3 866 933 870
3 929 933 866
3 931 872 934
3 868 872 931
3 932 931 935
3 935 931 934
3 933 932 936
3 936 932 935
3 870 936 874
3 933 936 870
3 872 876 934
3 879 934 876
3 935 934 879
3 881 935 879
3 936 935 881
3 874 936 881
3 886 885 937
3 886 938 887
3 937 938 886
3 887 939 888
3 938 939 887
3 888 939 889
3 937 890 940
3 885 890 937
3 938 937 941
3 941 937 940
3 939 938 942
3 942 938 941
3 889 942 891
3 939 942 889
3 940 892 943
3 890 892 940
3 941 940 944
3 944 940 943
3 942 941 945
3 945 941 944
3 891 945 893
3 942 945 891
3 892 895 943
3 898 943 895
3 944 943 898
3 899 944 898
3 945 944 899
3 893 945 899
3 901 900 946
3 901 947 902
3 946 947 901
3 902 948 903
3 947 948 902
3 903 948 904
3 946 906 949
3 900 906 946
3 947 946 950
3 950 946 949
3 948 947 951
3 951 947 950
3 904 951 907
3 948 951 904
3 949 909 952
3 906 909 949
3 950 949 953
3 953 949 952
3 951 950 954
3 954 950 953
3 907 954 910
3 951 954 907
3 952 912 955
3 909 912 952
3 953 952 956
3 956 952 955
3 954 953 957
3 957 953 956
3 910 957 913
3 954 957 910
3 955 915 958
3 912 915 955
3 956 955 959
3 959 955 958
3 957 956 960
3 960 956 959
3 913 960 916
3 957 960 913
3 958 918 961
3 915 918 958
3 959 958 962
3 962 958 961
3 960 959 963
3 963 959 962
3 916 963 919
3 960 963 916
3 961 921 964
3 918 921 961
3 962 961 965
3 965 961 964
3 963 962 966
3 966 962 965
3 919 966 922
3 963 966 919
3 964 923 967
3 921 923 964
3 965 964 968
3 968 964 967
3 966 965 969
3 969 965 968
3 922 969 924
3 966 969 922
3 923 925 967
3 928 967 925
3 968 967 928
3 930 968 928
3 969 968 930
3 924 969 930
