# vtk DataFile Version 3.0
this file was written using fslvtkio
ASCII
DATASET POLYDATA
POINTS 642 float
116.528 120.111 171.12
106.564 119.92 170.338
110.97 112.674 168.644
119.63 108.99 167.833
115.683 114.131 175.13
116.525 115.512 165.476
109.621 116.412 164.602
110.439 114.898 174.67
110.831 124.32 176.063
115.032 106.3 170.892
114.721 107.696 163.729
110.822 124.163 168.685
109.99 119.607 176.803
113.644 119.872 177.033
113.263 113.599 177.107
113.064 110.29 173.485
116.412 108.5 174.451
109.679 120.433 166.498
113.297 115.713 164.98
114.117 120.359 166.975
112.585 112.055 164.297
116.872 110.591 163.665
118.02 110.258 171.75
116.222 117.631 173.596
118.693 114.457 169.4
119.16 111.611 165.187
117.287 118.718 167.494
108.028 118.804 173.837
110.707 113.424 171.715
107.77 116.234 169.209
106.32 118.952 166.132
109.679 114.449 166.412
113.81 123.496 169.937
113.544 123.259 173.867
109.108 126.881 172.177
106.983 123.413 169.438
106.949 123.542 173.51
119.307 105.449 163.315
114.967 105.47 166.575
118.602 104.644 169.326
112.295 109.296 166.064
112.832 108.774 169.595
111.86 119.892 177.488
113.503 116.787 177.637
111.527 116.664 177.17
114.905 113.811 176.786
114.63 117.084 176.225
112.501 122.379 177.062
110.24 122.047 176.514
109.694 117.04 176.104
111.554 114.207 176.069
112.74 111.962 175.591
114.885 111.266 176.473
114.428 109.12 174.621
116.105 111.409 174.865
111.684 112.715 173.995
113.891 108.444 172.153
115.699 107.06 172.92
111.605 118.499 165.483
113.554 118.003 165.837
112.062 120.23 166.717
115.133 117.886 166.106
114.89 115.523 165.194
111.561 116.282 164.67
109.789 118.601 165.227
110.587 121.772 167.928
112.553 122.161 167.844
114.622 111.481 163.783
114.938 113.26 164.274
112.788 113.957 164.42
116.501 113.115 164.453
115.857 109.191 163.552
113.643 109.961 164.099
111.137 114.383 164.827
117.43 113.976 172.75
117.671 115.911 171.649
118.511 112.616 170.924
117.691 117.246 170.288
116.512 118.926 172.434
115.915 115.925 174.37
116.951 112.25 173.449
118.942 109.6 169.985
119.229 111.847 168.828
119.246 113.3 167.317
118.126 116.619 168.422
118.537 115.249 166.48
116.951 119.403 169.302
119.703 110.667 166.551
118.001 113.853 165.148
117.078 117.308 166.208
109.194 116.163 172.714
109.123 115.034 170.847
108.179 117.171 171.507
109.276 114.516 169.121
110.599 113.054 170.184
110.663 114.379 173.137
108.974 116.715 174.347
107.506 119.152 171.895
107.073 117.871 169.742
106.734 117.245 167.64
108.567 115.164 167.716
107.451 116.419 165.988
110.435 113.474 167.521
106.052 119.229 168.168
107.873 117.84 165.03
109.416 115.14 165.314
113.539 123.974 171.932
111.696 125.945 173.522
111.282 125.884 171.113
109.952 126.004 174.588
112.543 124.176 175.455
115.241 121.847 172.611
115.433 121.927 170.517
112.506 124.13 169.012
109.666 126.342 169.664
107.725 126.135 170.024
107.65 125.918 173.263
105.701 123.975 171.292
108.753 123.968 175.04
109.002 123.649 168.799
106.076 121.539 169.783
106.427 121.546 172.195
116.891 104.125 164.134
116.899 103.709 167.564
119.55 104.318 165.999
116.738 104.818 170.512
114.779 105.693 168.841
114.545 106.327 164.738
116.765 106.467 163.307
119.848 107.239 165.747
119.286 106.989 168.593
112.541 108.859 167.696
113.435 106.6 168.077
113.396 106.85 166.013
113.704 107.604 170.378
112.009 110.747 169.084
111.814 111.151 167.373
113.051 108.569 164.684
114.836 118.804 175.239
113.707 121.709 175.577
115.186 120.75 173.931
115.777 121.162 168.685
114.266 122.31 168.059
115.929 119.526 166.765
117.497 105.975 172.22
117.094 109.342 173.1
118.44 107.275 170.731
119.577 108.395 164.441
118.075 111.371 164.122
117.961 107.887 163.224
108.473 121.792 175.267
108.668 118.982 175.555
107.197 121.032 173.654
106.824 120.799 167.929
108.07 119.588 165.819
108.513 121.767 168.121
111.81 111.363 170.572
111.88 111.996 172.532
112.735 109.866 171.504
112.201 110.779 165.103
111.15 113.108 165.372
111.467 112.045 166.434
112.627 118.391 177.709
112.475 116.816 177.445
111.67 118.276 177.529
112.395 115.287 177.209
113.26 115.365 177.493
113.514 118.431 177.594
112.838 119.763 177.57
110.928 119.585 177.321
110.817 118.152 177.2
114.18 115.394 177.403
114.123 117.073 177.117
114.662 115.639 176.7
114.072 118.454 176.796
114.069 113.921 177.235
115.156 114.263 176.048
115.092 115.582 175.849
112.179 121.079 177.466
111.004 120.943 177.173
111.375 122.158 176.925
110.061 120.856 176.82
113.112 121.16 177.238
111.697 123.425 176.76
110.574 123.199 176.418
110.546 117.006 176.821
111.48 115.396 176.76
110.572 115.683 176.212
112.332 114.015 176.683
109.987 118.201 176.692
110.057 115.779 175.534
110.936 114.621 175.466
113.724 111.534 176.26
114.574 110.149 175.724
113.61 110.538 175.333
115.384 108.773 174.936
115.578 109.954 175.604
114.107 112.412 176.94
112.877 112.735 176.493
112.975 110.947 174.656
113.696 109.715 174.259
115.62 111.281 175.85
114.876 112.699 176.879
115.526 112.886 175.715
116.191 110.054 174.922
115.89 112.859 175.008
112.069 113.109 175.829
112.212 112.134 174.667
111.421 113.465 174.942
112.523 111.408 173.863
111.016 113.958 174.425
114.067 108.828 173.41
115.014 108.079 173.951
114.678 107.859 172.829
116.065 107.546 173.868
113.484 109.343 172.968
114.462 107.374 171.8
115.174 106.802 172.04
112.633 118.231 165.606
112.848 119.251 166.185
111.804 119.395 166.065
113.109 120.208 166.779
113.699 119.213 166.399
113.316 116.984 165.341
112.5 117.291 165.171
110.753 119.618 165.993
110.996 120.217 166.536
114.323 118.015 165.971
114.127 116.72 165.4
115.004 116.66 165.596
114.054 115.67 165.089
114.576 119.163 166.494
115.799 116.634 165.806
115.703 115.506 165.336
111.659 117.379 164.993
110.681 118.714 165.408
110.726 117.459 164.835
109.784 119.672 165.778
112.435 116.225 164.88
110.627 116.454 164.537
109.872 117.414 164.761
111.29 120.919 167.292
112.353 121.04 167.346
111.581 122.006 167.935
113.302 121.198 167.364
110.271 120.872 167.195
110.787 122.916 168.328
111.724 123.123 168.266
114.775 112.374 163.904
113.83 113.614 164.284
113.644 112.705 163.973
113.091 114.827 164.747
114.097 114.418 164.673
115.83 111.997 163.789
115.728 111.099 163.673
113.566 111.828 163.921
112.769 112.923 164.195
114.754 114.497 164.787
115.688 113.154 164.305
115.646 114.391 164.867
116.636 111.878 163.922
116.421 114.389 164.988
115.283 110.427 163.725
114.097 110.79 163.862
114.723 109.607 163.775
113.191 111.054 164.065
116.395 109.924 163.544
115.258 108.465 163.548
114.2 108.86 163.879
111.985 114.087 164.631
112.259 115.243 164.727
111.243 115.326 164.697
111.95 113.2 164.57
110.384 115.522 164.67
117.562 115.066 172.253
118.217 114.338 171.287
117.998 113.336 171.857
118.562 113.736 170.363
118.267 114.997 170.606
117.043 116.575 172.667
117.008 115.752 173.079
117.766 112.237 172.317
118.218 111.647 171.499
117.744 116.492 170.957
117.093 117.355 172.08
117.163 118.035 171.425
116.46 118.134 172.983
118.197 115.736 169.907
117.19 118.635 170.699
116.616 119.486 171.742
116.73 115.022 173.539
117.169 113.13 173.125
116.427 114.227 174.027
117.544 111.172 172.603
116.252 116.626 173.867
115.702 115.134 174.851
116.279 113.23 174.266
118.695 111.174 170.602
118.88 112.36 169.947
119.08 110.895 169.578
118.97 113.19 169.239
118.47 109.978 170.929
119.338 109.526 168.998
119.463 110.487 168.458
118.757 114.974 167.972
118.422 116.047 167.457
118.954 114.366 166.922
118.057 116.887 167.001
117.84 117.581 167.834
118.49 115.512 168.9
118.999 114.007 168.382
119.265 112.782 166.249
118.929 113.618 165.933
117.669 117.977 168.785
117.964 116.776 169.384
117.438 118.337 169.748
117.173 118.992 168.396
116.868 119.605 170.237
119.295 112.768 168.212
119.456 112.074 166.904
119.534 111.328 167.754
119.482 111.277 165.802
119.695 109.941 167.333
118.342 114.575 165.78
117.935 116.355 166.265
117.551 115.586 165.679
117.414 117.954 166.731
118.718 112.863 165.186
117.227 114.718 165.314
116.739 116.468 165.847
109.298 115.397 171.745
108.56 115.98 171.168
108.7 116.641 172.165
107.925 116.524 170.541
108.319 115.709 170.168
109.89 114.45 171.522
109.94 115.009 172.191
108.502 117.363 173.145
108.212 117.814 172.598
109.045 114.758 170.024
109.865 114.097 170.683
109.923 113.812 169.752
110.512 113.293 171.007
108.459 115.404 169.276
110.09 113.71 168.905
110.709 112.959 169.346
109.951 115.295 172.969
109 116.484 173.513
109.833 115.648 173.826
108.432 117.773 174.03
110.621 114.09 172.39
110.542 114.677 173.898
109.743 115.856 174.679
107.935 118.206 171.755
107.628 117.462 170.65
107.358 118.544 170.766
107.409 116.965 169.619
107.824 118.866 172.909
107.048 119.576 171.071
106.808 118.905 169.955
107.623 116.081 167.758
107.923 115.671 166.931
106.962 116.758 166.818
108.365 115.524 166.123
108.936 114.952 166.843
108.138 115.702 168.469
107.332 116.692 168.4
106.15 117.901 166.766
106.621 117.527 165.931
109.434 114.452 167.536
108.939 114.847 168.502
109.932 113.996 168.238
110.032 113.942 166.972
110.747 113.107 168.151
107.033 117.382 168.822
106.256 118.068 167.854
106.502 118.44 169.005
105.976 119.039 167.09
106.301 119.424 169.236
107.409 117.087 165.359
108.271 115.848 165.418
108.384 116.458 164.893
109.457 114.867 165.9
106.963 118.349 165.474
108.892 117.065 164.77
109.48 115.604 164.862
112.504 125.105 172.636
111.454 126.097 172.292
112.428 125.06 171.63
110.335 126.773 171.706
110.536 126.64 172.973
112.66 124.748 173.603
113.397 123.944 172.937
113.42 124.059 170.94
112.411 124.816 170.613
111.118 126.171 174.186
112.265 124.975 174.482
111.406 125.498 175.35
113.03 123.836 174.56
109.683 126.474 173.549
110.305 125.188 175.442
111.828 124.421 176.053
114.36 123.021 172.286
114.374 123.083 171.16
115.236 122.059 171.55
114.543 122.824 170.268
114.287 122.759 173.179
115.96 121.016 171.955
116.089 121.07 170.885
111.766 125.117 169.999
110.516 126.288 170.474
110.977 125.333 169.349
109.353 126.975 170.837
113.042 124.073 169.615
111.815 124.115 168.759
110.226 125.14 168.986
107.438 126.37 171.732
106.643 125.483 172.078
106.684 125.604 170.987
106.206 124.145 172.362
106.982 124.875 173.225
108.371 126.582 172.837
108.272 126.826 170.917
107.151 124.849 169.929
106.111 124.22 170.333
107.967 125.063 174.143
108.807 126.076 173.963
109.211 125.133 174.982
107.712 123.958 174.218
109.765 124.076 175.691
108.803 126.57 169.664
108.176 125.031 169.412
109.382 124.989 168.964
107.93 123.832 169.235
109.924 123.808 168.645
105.606 122.973 170.432
105.91 122.82 171.953
106.101 121.547 170.983
106.454 122.788 172.891
106.3 122.728 169.575
106.244 120.603 170.069
106.64 120.642 171.352
116.945 103.611 165.811
118.368 103.02 166.659
118.383 103.266 164.683
119.129 104.101 167.552
118.111 103.482 168.265
116.005 104.268 166.741
115.997 104.381 165.379
118.244 104.274 163.552
119.534 104.235 164.391
116.957 103.892 169.111
115.889 104.612 168.167
115.845 105.062 169.6
115.076 105.354 167.652
117.795 104.187 169.895
115.693 105.675 170.682
114.618 106.163 169.776
115.664 105.222 164.516
116.869 105.149 163.441
115.487 106.467 163.967
118.037 105.547 163.068
115.026 105.43 165.426
114.406 107.073 164.208
115.701 107.21 163.543
119.878 105.573 165.623
119.435 105.576 167.369
119.691 107.314 167.277
119.047 105.509 168.686
119.868 105.841 164.43
119.79 108.23 166.806
119.453 108.153 168.412
112.863 107.559 167.766
113.459 106.502 166.947
112.789 107.715 166.879
114.142 105.861 166.126
114.187 105.848 167.372
113.01 107.658 168.751
112.687 108.649 168.554
112.471 108.866 166.839
112.705 108.009 166.157
114.075 106.045 168.417
113.419 107.129 169.13
114.012 106.639 169.646
113.231 108.057 169.861
114.292 106.961 170.863
112.295 109.795 168.418
112.162 109.955 167.485
111.88 110.959 168.197
112.105 110.045 166.741
112.495 109.657 169.263
111.483 111.737 168.856
111.483 111.984 168.046
113.077 107.759 165.426
113.92 106.319 165.347
113.63 107.346 164.687
112.611 108.773 165.4
113.761 108.164 164.106
114.28 120.262 175.489
114.471 121.212 174.755
115.104 119.717 174.589
114.431 122.091 173.954
113.744 122.479 174.733
113.699 120.836 176.363
114.194 119.313 176.141
115.551 118.299 174.431
115.71 119.178 173.85
113.184 122.966 175.446
113.216 122.037 176.456
112.574 123.421 176.398
114.717 118.002 175.749
115.455 117.318 174.652
115.285 116.453 175.304
115.867 119.681 173.233
115.218 121.446 173.329
116.018 120.416 172.567
115.129 121.975 168.321
115.157 120.988 167.325
116.013 120.511 167.615
115.054 119.989 166.859
114.263 121.281 167.46
114.081 123.054 168.985
114.932 122.405 169.371
116.578 119.985 168.072
116.776 119.324 167.008
113.5 122.157 167.807
113.48 123.372 168.573
112.606 123.229 168.254
115.593 121.6 169.656
116.372 120.209 168.986
116.285 120.577 170.038
116.551 118.444 166.406
115.408 118.733 166.385
116.071 117.494 166.126
117.509 107.594 172.725
117.83 108.24 171.964
118.067 106.485 171.462
118.163 108.801 171.291
117.585 109.731 172.441
116.813 108.847 173.781
117.062 107.12 173.374
118.061 105.047 170.865
118.606 105.821 170.129
117.064 110.855 173.25
116.576 110.271 174.051
116.5 111.916 174.176
116.499 106.56 172.892
117.093 105.197 171.429
115.836 106.081 171.61
118.844 106.817 169.61
118.638 108.538 170.455
119.128 108.342 169.408
118.935 109.68 164.048
118.233 109.483 163.552
119.032 107.873 163.448
117.451 109.363 163.424
117.464 111.103 163.894
118.663 111.426 164.548
119.393 110.082 164.795
119.71 106.774 163.871
118.661 106.498 163.037
117.309 112.383 164.247
118.122 112.721 164.659
117.145 113.661 164.869
119.683 110.067 165.546
119.777 107.879 165.018
119.798 109.239 166.39
117.513 107.019 163.035
116.762 108.832 163.415
116.156 107.944 163.402
108.458 120.405 175.558
107.902 120.124 174.703
107.765 121.468 174.553
107.592 119.899 173.772
108.258 118.878 174.735
109.318 119.205 176.216
109.196 120.629 176.173
107.705 122.783 174.393
106.99 122.26 173.603
108.637 117.736 174.805
109.158 118.047 175.883
109.319 116.699 175.184
109.348 121.708 175.988
108.558 122.917 175.114
109.575 122.997 175.866
106.797 121.193 172.948
107.433 119.623 172.862
106.965 120.119 171.988
107.346 120.288 166.808
108.241 120.638 166.992
107.65 121.35 167.993
109.059 120.966 167.27
108.829 120.084 166.163
107.179 119.34 165.907
106.505 119.936 166.878
107.06 122.069 168.863
107.831 122.665 168.819
109.048 119.109 165.514
107.95 118.675 165.359
109.039 117.926 164.951
106.287 119.982 167.854
106.524 121.341 168.906
106.22 120.25 169.084
108.784 122.626 168.585
109.654 121.415 167.822
109.904 122.581 168.403
111.813 111.738 171.516
112.368 110.903 172.056
112.251 110.587 170.939
112.909 110.002 172.556
112.426 111.189 173.033
111.288 112.657 172.015
111.194 112.365 171.125
112.344 110.12 170.038
112.718 109.482 170.482
111.786 112.333 173.283
111.206 113.246 172.648
111.109 113.62 173.581
111.175 112.272 170.37
111.899 111.087 169.769
111.279 112.08 169.49
113.093 108.928 170.61
113.206 109.253 171.801
113.771 108.122 171.192
111.782 112.017 165.307
111.227 112.738 165.967
111.84 111.344 165.858
110.639 113.318 166.469
110.39 113.748 165.928
111.841 112.598 164.823
112.39 111.429 164.642
112.178 110.024 165.523
111.931 110.615 166.277
110.268 114.239 165.598
111.163 113.65 165.032
110.3 114.789 164.978
112.79 110.519 164.498
112.524 109.723 164.978
113.328 109.3 164.326
111.664 111.519 166.866
110.939 112.907 166.941
111.235 112.449 167.566
POLYGONS 1280  5120
3 164 162 163
3 163 44 164
3 162 43 163
3 164 42 162
3 166 165 163
3 163 43 166
3 165 44 163
3 166 14 165
3 168 167 162
3 162 42 168
3 167 43 162
3 168 13 167
3 170 169 164
3 164 44 170
3 169 42 164
3 170 12 169
3 173 171 172
3 172 46 173
3 171 43 172
3 173 45 171
3 167 174 172
3 172 43 167
3 174 46 172
3 167 13 174
3 175 166 171
3 171 45 175
3 166 43 171
3 175 14 166
3 177 176 173
3 173 46 177
3 176 45 173
3 177 4 176
3 180 178 179
3 179 48 180
3 178 42 179
3 180 47 178
3 169 181 179
3 179 42 169
3 181 48 179
3 169 12 181
3 182 168 178
3 178 47 182
3 168 42 178
3 182 13 168
3 184 183 180
3 180 48 184
3 183 47 180
3 184 8 183
3 187 185 186
3 186 50 187
3 185 44 186
3 187 49 185
3 165 188 186
3 186 44 165
3 188 50 186
3 165 14 188
3 189 170 185
3 185 49 189
3 170 44 185
3 189 12 170
3 191 190 187
3 187 50 191
3 190 49 187
3 191 7 190
3 194 192 193
3 193 53 194
3 192 52 193
3 194 51 192
3 196 195 193
3 193 52 196
3 195 53 193
3 196 16 195
3 198 197 192
3 192 51 198
3 197 52 192
3 198 14 197
3 200 199 194
3 194 53 200
3 199 51 194
3 200 15 199
3 203 201 202
3 202 45 203
3 201 52 202
3 203 54 201
3 197 175 202
3 202 52 197
3 175 45 202
3 197 14 175
3 204 196 201
3 201 54 204
3 196 52 201
3 204 16 196
3 176 205 203
3 203 45 176
3 205 54 203
3 176 4 205
3 208 206 207
3 207 55 208
3 206 51 207
3 208 50 206
3 199 209 207
3 207 51 199
3 209 55 207
3 199 15 209
3 188 198 206
3 206 50 188
3 198 51 206
3 188 14 198
3 210 191 208
3 208 55 210
3 191 50 208
3 210 7 191
3 213 211 212
3 212 57 213
3 211 53 212
3 213 56 211
3 195 214 212
3 212 53 195
3 214 57 212
3 195 16 214
3 215 200 211
3 211 56 215
3 200 53 211
3 215 15 200
3 217 216 213
3 213 57 217
3 216 56 213
3 217 9 216
3 220 218 219
3 219 60 220
3 218 59 219
3 220 58 218
3 222 221 219
3 219 59 222
3 221 60 219
3 222 19 221
3 224 223 218
3 218 58 224
3 223 59 218
3 224 18 223
3 226 225 220
3 220 60 226
3 225 58 220
3 226 17 225
3 229 227 228
3 228 62 229
3 227 59 228
3 229 61 227
3 223 230 228
3 228 59 223
3 230 62 228
3 223 18 230
3 231 222 227
3 227 61 231
3 222 59 227
3 231 19 222
3 233 232 229
3 229 62 233
3 232 61 229
3 233 5 232
3 236 234 235
3 235 64 236
3 234 58 235
3 236 63 234
3 225 237 235
3 235 58 225
3 237 64 235
3 225 17 237
3 238 224 234
3 234 63 238
3 224 58 234
3 238 18 224
3 240 239 236
3 236 64 240
3 239 63 236
3 240 6 239
3 243 241 242
3 242 66 243
3 241 60 242
3 243 65 241
3 221 244 242
3 242 60 221
3 244 66 242
3 221 19 244
3 245 226 241
3 241 65 245
3 226 60 241
3 245 17 226
3 247 246 243
3 243 66 247
3 246 65 243
3 247 11 246
3 250 248 249
3 249 69 250
3 248 68 249
3 250 67 248
3 252 251 249
3 249 68 252
3 251 69 249
3 252 18 251
3 254 253 248
3 248 67 254
3 253 68 248
3 254 21 253
3 256 255 250
3 250 69 256
3 255 67 250
3 256 20 255
3 259 257 258
3 258 70 259
3 257 68 258
3 259 62 257
3 253 260 258
3 258 68 253
3 260 70 258
3 253 21 260
3 230 252 257
3 257 62 230
3 252 68 257
3 230 18 252
3 261 233 259
3 259 70 261
3 233 62 259
3 261 5 233
3 264 262 263
3 263 72 264
3 262 67 263
3 264 71 262
3 255 265 263
3 263 67 255
3 265 72 263
3 255 20 265
3 266 254 262
3 262 71 266
3 254 67 262
3 266 21 254
3 268 267 264
3 264 72 268
3 267 71 264
3 268 10 267
3 271 269 270
3 270 63 271
3 269 69 270
3 271 73 269
3 251 238 270
3 270 69 251
3 238 63 270
3 251 18 238
3 272 256 269
3 269 73 272
3 256 69 269
3 272 20 256
3 239 273 271
3 271 63 239
3 273 73 271
3 239 6 273
3 276 274 275
3 275 76 276
3 274 75 275
3 276 74 274
3 278 277 275
3 275 75 278
3 277 76 275
3 278 24 277
3 280 279 274
3 274 74 280
3 279 75 274
3 280 23 279
3 282 281 276
3 276 76 282
3 281 74 276
3 282 22 281
3 285 283 284
3 284 78 285
3 283 75 284
3 285 77 283
3 279 286 284
3 284 75 279
3 286 78 284
3 279 23 286
3 287 278 283
3 283 77 287
3 278 75 283
3 287 24 278
3 289 288 285
3 285 78 289
3 288 77 285
3 289 0 288
3 292 290 291
3 291 80 292
3 290 74 291
3 292 79 290
3 281 293 291
3 291 74 281
3 293 80 291
3 281 22 293
3 294 280 290
3 290 79 294
3 280 74 290
3 294 23 280
3 296 295 292
3 292 80 296
3 295 79 292
3 296 4 295
3 299 297 298
3 298 82 299
3 297 76 298
3 299 81 297
3 277 300 298
3 298 76 277
3 300 82 298
3 277 24 300
3 301 282 297
3 297 81 301
3 282 76 297
3 301 22 282
3 303 302 299
3 299 82 303
3 302 81 299
3 303 3 302
3 306 304 305
3 305 85 306
3 304 84 305
3 306 83 304
3 308 307 305
3 305 84 308
3 307 85 305
3 308 26 307
3 310 309 304
3 304 83 310
3 309 84 304
3 310 24 309
3 312 311 306
3 306 85 312
3 311 83 306
3 312 25 311
3 315 313 314
3 314 77 315
3 313 84 314
3 315 86 313
3 309 287 314
3 314 84 309
3 287 77 314
3 309 24 287
3 316 308 313
3 313 86 316
3 308 84 313
3 316 26 308
3 288 317 315
3 315 77 288
3 317 86 315
3 288 0 317
3 320 318 319
3 319 87 320
3 318 83 319
3 320 82 318
3 311 321 319
3 319 83 311
3 321 87 319
3 311 25 321
3 300 310 318
3 318 82 300
3 310 83 318
3 300 24 310
3 322 303 320
3 320 87 322
3 303 82 320
3 322 3 303
3 325 323 324
3 324 89 325
3 323 85 324
3 325 88 323
3 307 326 324
3 324 85 307
3 326 89 324
3 307 26 326
3 327 312 323
3 323 88 327
3 312 85 323
3 327 25 312
3 329 328 325
3 325 89 329
3 328 88 325
3 329 5 328
3 332 330 331
3 331 92 332
3 330 91 331
3 332 90 330
3 334 333 331
3 331 91 334
3 333 92 331
3 334 29 333
3 336 335 330
3 330 90 336
3 335 91 330
3 336 28 335
3 338 337 332
3 332 92 338
3 337 90 332
3 338 27 337
3 341 339 340
3 340 94 341
3 339 91 340
3 341 93 339
3 335 342 340
3 340 91 335
3 342 94 340
3 335 28 342
3 343 334 339
3 339 93 343
3 334 91 339
3 343 29 334
3 345 344 341
3 341 94 345
3 344 93 341
3 345 2 344
3 348 346 347
3 347 96 348
3 346 90 347
3 348 95 346
3 337 349 347
3 347 90 337
3 349 96 347
3 337 27 349
3 350 336 346
3 346 95 350
3 336 90 346
3 350 28 336
3 352 351 348
3 348 96 352
3 351 95 348
3 352 7 351
3 355 353 354
3 354 98 355
3 353 92 354
3 355 97 353
3 333 356 354
3 354 92 333
3 356 98 354
3 333 29 356
3 357 338 353
3 353 97 357
3 338 92 353
3 357 27 338
3 359 358 355
3 355 98 359
3 358 97 355
3 359 1 358
3 362 360 361
3 361 101 362
3 360 100 361
3 362 99 360
3 364 363 361
3 361 100 364
3 363 101 361
3 364 31 363
3 366 365 360
3 360 99 366
3 365 100 360
3 366 29 365
3 368 367 362
3 362 101 368
3 367 99 362
3 368 30 367
3 371 369 370
3 370 93 371
3 369 100 370
3 371 102 369
3 365 343 370
3 370 100 365
3 343 93 370
3 365 29 343
3 372 364 369
3 369 102 372
3 364 100 369
3 372 31 364
3 344 373 371
3 371 93 344
3 373 102 371
3 344 2 373
3 376 374 375
3 375 103 376
3 374 99 375
3 376 98 374
3 367 377 375
3 375 99 367
3 377 103 375
3 367 30 377
3 356 366 374
3 374 98 356
3 366 99 374
3 356 29 366
3 378 359 376
3 376 103 378
3 359 98 376
3 378 1 359
3 381 379 380
3 380 105 381
3 379 101 380
3 381 104 379
3 363 382 380
3 380 101 363
3 382 105 380
3 363 31 382
3 383 368 379
3 379 104 383
3 368 101 379
3 383 30 368
3 385 384 381
3 381 105 385
3 384 104 381
3 385 6 384
3 388 386 387
3 387 108 388
3 386 107 387
3 388 106 386
3 390 389 387
3 387 107 390
3 389 108 387
3 390 34 389
3 392 391 386
3 386 106 392
3 391 107 386
3 392 33 391
3 394 393 388
3 388 108 394
3 393 106 388
3 394 32 393
3 397 395 396
3 396 110 397
3 395 107 396
3 397 109 395
3 391 398 396
3 396 107 391
3 398 110 396
3 391 33 398
3 399 390 395
3 395 109 399
3 390 107 395
3 399 34 390
3 401 400 397
3 397 110 401
3 400 109 397
3 401 8 400
3 404 402 403
3 403 112 404
3 402 106 403
3 404 111 402
3 393 405 403
3 403 106 393
3 405 112 403
3 393 32 405
3 406 392 402
3 402 111 406
3 392 106 402
3 406 33 392
3 408 407 404
3 404 112 408
3 407 111 404
3 408 0 407
3 411 409 410
3 410 114 411
3 409 108 410
3 411 113 409
3 389 412 410
3 410 108 389
3 412 114 410
3 389 34 412
3 413 394 409
3 409 113 413
3 394 108 409
3 413 32 394
3 415 414 411
3 411 114 415
3 414 113 411
3 415 11 414
3 418 416 417
3 417 117 418
3 416 116 417
3 418 115 416
3 420 419 417
3 417 116 420
3 419 117 417
3 420 36 419
3 422 421 416
3 416 115 422
3 421 116 416
3 422 34 421
3 424 423 418
3 418 117 424
3 423 115 418
3 424 35 423
3 427 425 426
3 426 109 427
3 425 116 426
3 427 118 425
3 421 399 426
3 426 116 421
3 399 109 426
3 421 34 399
3 428 420 425
3 425 118 428
3 420 116 425
3 428 36 420
3 400 429 427
3 427 109 400
3 429 118 427
3 400 8 429
3 432 430 431
3 431 119 432
3 430 115 431
3 432 114 430
3 423 433 431
3 431 115 423
3 433 119 431
3 423 35 433
3 412 422 430
3 430 114 412
3 422 115 430
3 412 34 422
3 434 415 432
3 432 119 434
3 415 114 432
3 434 11 415
3 437 435 436
3 436 121 437
3 435 117 436
3 437 120 435
3 419 438 436
3 436 117 419
3 438 121 436
3 419 36 438
3 439 424 435
3 435 120 439
3 424 117 435
3 439 35 424
3 441 440 437
3 437 121 441
3 440 120 437
3 441 1 440
3 444 442 443
3 443 124 444
3 442 123 443
3 444 122 442
3 446 445 443
3 443 123 446
3 445 124 443
3 446 39 445
3 448 447 442
3 442 122 448
3 447 123 442
3 448 38 447
3 450 449 444
3 444 124 450
3 449 122 444
3 450 37 449
3 453 451 452
3 452 126 453
3 451 123 452
3 453 125 451
3 447 454 452
3 452 123 447
3 454 126 452
3 447 38 454
3 455 446 451
3 451 125 455
3 446 123 451
3 455 39 446
3 457 456 453
3 453 126 457
3 456 125 453
3 457 9 456
3 460 458 459
3 459 128 460
3 458 122 459
3 460 127 458
3 449 461 459
3 459 122 449
3 461 128 459
3 449 37 461
3 462 448 458
3 458 127 462
3 448 122 458
3 462 38 448
3 464 463 460
3 460 128 464
3 463 127 460
3 464 10 463
3 467 465 466
3 466 130 467
3 465 124 466
3 467 129 465
3 445 468 466
3 466 124 445
3 468 130 466
3 445 39 468
3 469 450 465
3 465 129 469
3 450 124 465
3 469 37 450
3 471 470 467
3 467 130 471
3 470 129 467
3 471 3 470
3 474 472 473
3 473 133 474
3 472 132 473
3 474 131 472
3 476 475 473
3 473 132 476
3 475 133 473
3 476 38 475
3 478 477 472
3 472 131 478
3 477 132 472
3 478 41 477
3 480 479 474
3 474 133 480
3 479 131 474
3 480 40 479
3 483 481 482
3 482 134 483
3 481 132 482
3 483 126 481
3 477 484 482
3 482 132 477
3 484 134 482
3 477 41 484
3 454 476 481
3 481 126 454
3 476 132 481
3 454 38 476
3 485 457 483
3 483 134 485
3 457 126 483
3 485 9 457
3 488 486 487
3 487 136 488
3 486 131 487
3 488 135 486
3 479 489 487
3 487 131 479
3 489 136 487
3 479 40 489
3 490 478 486
3 486 135 490
3 478 131 486
3 490 41 478
3 492 491 488
3 488 136 492
3 491 135 488
3 492 2 491
3 495 493 494
3 494 127 495
3 493 133 494
3 495 137 493
3 475 462 494
3 494 133 475
3 462 127 494
3 475 38 462
3 496 480 493
3 493 137 496
3 480 133 493
3 496 40 480
3 463 497 495
3 495 127 463
3 497 137 495
3 463 10 497
3 500 498 499
3 499 140 500
3 498 139 499
3 500 138 498
3 502 501 499
3 499 139 502
3 501 140 499
3 502 33 501
3 504 503 498
3 498 138 504
3 503 139 498
3 504 13 503
3 506 505 500
3 500 140 506
3 505 138 500
3 506 23 505
3 509 507 508
3 508 47 509
3 507 139 508
3 509 110 507
3 503 182 508
3 508 139 503
3 182 47 508
3 503 13 182
3 398 502 507
3 507 110 398
3 502 139 507
3 398 33 502
3 183 401 509
3 509 47 183
3 401 110 509
3 183 8 401
3 512 510 511
3 511 79 512
3 510 138 511
3 512 46 510
3 505 294 511
3 511 138 505
3 294 79 511
3 505 23 294
3 174 504 510
3 510 46 174
3 504 138 510
3 174 13 504
3 295 177 512
3 512 79 295
3 177 46 512
3 295 4 177
3 515 513 514
3 514 111 515
3 513 140 514
3 515 78 513
3 501 406 514
3 514 140 501
3 406 111 514
3 501 33 406
3 286 506 513
3 513 78 286
3 506 140 513
3 286 23 506
3 407 289 515
3 515 111 407
3 289 78 515
3 407 0 289
3 518 516 517
3 517 143 518
3 516 142 517
3 518 141 516
3 520 519 517
3 517 142 520
3 519 143 517
3 520 19 519
3 522 521 516
3 516 141 522
3 521 142 516
3 522 32 521
3 524 523 518
3 518 143 524
3 523 141 518
3 524 26 523
3 527 525 526
3 526 113 527
3 525 142 526
3 527 66 525
3 521 413 526
3 526 142 521
3 413 113 526
3 521 32 413
3 244 520 525
3 525 66 244
3 520 142 525
3 244 19 520
3 414 247 527
3 527 113 414
3 247 66 527
3 414 11 247
3 530 528 529
3 529 86 530
3 528 141 529
3 530 112 528
3 523 316 529
3 529 141 523
3 316 86 529
3 523 26 316
3 405 522 528
3 528 112 405
3 522 141 528
3 405 32 522
3 317 408 530
3 530 86 317
3 408 112 530
3 317 0 408
3 533 531 532
3 532 61 533
3 531 143 532
3 533 89 531
3 519 231 532
3 532 143 519
3 231 61 532
3 519 19 231
3 326 524 531
3 531 89 326
3 524 143 531
3 326 26 524
3 232 329 533
3 533 61 232
3 329 89 533
3 232 5 329
3 536 534 535
3 535 146 536
3 534 145 535
3 536 144 534
3 538 537 535
3 535 145 538
3 537 146 535
3 538 22 537
3 540 539 534
3 534 144 540
3 539 145 534
3 540 16 539
3 542 541 536
3 536 146 542
3 541 144 536
3 542 39 541
3 545 543 544
3 544 54 545
3 543 145 544
3 545 80 543
3 539 204 544
3 544 145 539
3 204 54 544
3 539 16 204
3 293 538 543
3 543 80 293
3 538 145 543
3 293 22 538
3 205 296 545
3 545 54 205
3 296 80 545
3 205 4 296
3 548 546 547
3 547 125 548
3 546 144 547
3 548 57 546
3 541 455 547
3 547 144 541
3 455 125 547
3 541 39 455
3 214 540 546
3 546 57 214
3 540 144 546
3 214 16 540
3 456 217 548
3 548 125 456
3 217 57 548
3 456 9 217
3 551 549 550
3 550 81 551
3 549 146 550
3 551 130 549
3 537 301 550
3 550 146 537
3 301 81 550
3 537 22 301
3 468 542 549
3 549 130 468
3 542 146 549
3 468 39 542
3 302 471 551
3 551 81 302
3 471 130 551
3 302 3 471
3 554 552 553
3 553 149 554
3 552 148 553
3 554 147 552
3 556 555 553
3 553 148 556
3 555 149 553
3 556 21 555
3 558 557 552
3 552 147 558
3 557 148 552
3 558 25 557
3 560 559 554
3 554 149 560
3 559 147 554
3 560 37 559
3 563 561 562
3 562 88 563
3 561 148 562
3 563 70 561
3 557 327 562
3 562 148 557
3 327 88 562
3 557 25 327
3 260 556 561
3 561 70 260
3 556 148 561
3 260 21 556
3 328 261 563
3 563 88 328
3 261 70 563
3 328 5 261
3 566 564 565
3 565 129 566
3 564 147 565
3 566 87 564
3 559 469 565
3 565 147 559
3 469 129 565
3 559 37 469
3 321 558 564
3 564 87 321
3 558 147 564
3 321 25 558
3 470 322 566
3 566 129 470
3 322 87 566
3 470 3 322
3 569 567 568
3 568 71 569
3 567 149 568
3 569 128 567
3 555 266 568
3 568 149 555
3 266 71 568
3 555 21 266
3 461 560 567
3 567 128 461
3 560 149 567
3 461 37 560
3 267 464 569
3 569 71 267
3 464 128 569
3 267 10 464
3 572 570 571
3 571 152 572
3 570 151 571
3 572 150 570
3 574 573 571
3 571 151 574
3 573 152 571
3 574 27 573
3 576 575 570
3 570 150 576
3 575 151 570
3 576 12 575
3 578 577 572
3 572 152 578
3 577 150 572
3 578 36 577
3 581 579 580
3 580 49 581
3 579 151 580
3 581 96 579
3 575 189 580
3 580 151 575
3 189 49 580
3 575 12 189
3 349 574 579
3 579 96 349
3 574 151 579
3 349 27 574
3 190 352 581
3 581 49 190
3 352 96 581
3 190 7 352
3 584 582 583
3 583 118 584
3 582 150 583
3 584 48 582
3 577 428 583
3 583 150 577
3 428 118 583
3 577 36 428
3 181 576 582
3 582 48 181
3 576 150 582
3 181 12 576
3 429 184 584
3 584 118 429
3 184 48 584
3 429 8 184
3 587 585 586
3 586 97 587
3 585 152 586
3 587 121 585
3 573 357 586
3 586 152 573
3 357 97 586
3 573 27 357
3 438 578 585
3 585 121 438
3 578 152 585
3 438 36 578
3 358 441 587
3 587 97 358
3 441 121 587
3 358 1 441
3 590 588 589
3 589 155 590
3 588 154 589
3 590 153 588
3 592 591 589
3 589 154 592
3 591 155 589
3 592 17 591
3 594 593 588
3 588 153 594
3 593 154 588
3 594 30 593
3 596 595 590
3 590 155 596
3 595 153 590
3 596 35 595
3 599 597 598
3 598 104 599
3 597 154 598
3 599 64 597
3 593 383 598
3 598 154 593
3 383 104 598
3 593 30 383
3 237 592 597
3 597 64 237
3 592 154 597
3 237 17 592
3 384 240 599
3 599 104 384
3 240 64 599
3 384 6 240
3 602 600 601
3 601 120 602
3 600 153 601
3 602 103 600
3 595 439 601
3 601 153 595
3 439 120 601
3 595 35 439
3 377 594 600
3 600 103 377
3 594 153 600
3 377 30 594
3 440 378 602
3 602 120 440
3 378 103 602
3 440 1 378
3 605 603 604
3 604 65 605
3 603 155 604
3 605 119 603
3 591 245 604
3 604 155 591
3 245 65 604
3 591 17 245
3 433 596 603
3 603 119 433
3 596 155 603
3 433 35 596
3 246 434 605
3 605 65 246
3 434 119 605
3 246 11 434
3 608 606 607
3 607 158 608
3 606 157 607
3 608 156 606
3 610 609 607
3 607 157 610
3 609 158 607
3 610 15 609
3 612 611 606
3 606 156 612
3 611 157 606
3 612 28 611
3 614 613 608
3 608 158 614
3 613 156 608
3 614 41 613
3 617 615 616
3 616 95 617
3 615 157 616
3 617 55 615
3 611 350 616
3 616 157 611
3 350 95 616
3 611 28 350
3 209 610 615
3 615 55 209
3 610 157 615
3 209 15 610
3 351 210 617
3 617 95 351
3 210 55 617
3 351 7 210
3 620 618 619
3 619 135 620
3 618 156 619
3 620 94 618
3 613 490 619
3 619 156 613
3 490 135 619
3 613 41 490
3 342 612 618
3 618 94 342
3 612 156 618
3 342 28 612
3 491 345 620
3 620 135 491
3 345 94 620
3 491 2 345
3 623 621 622
3 622 56 623
3 621 158 622
3 623 134 621
3 609 215 622
3 622 158 609
3 215 56 622
3 609 15 215
3 484 614 621
3 621 134 484
3 614 158 621
3 484 41 614
3 216 485 623
3 623 56 216
3 485 134 623
3 216 9 485
3 626 624 625
3 625 161 626
3 624 160 625
3 626 159 624
3 628 627 625
3 625 160 628
3 627 161 625
3 628 31 627
3 630 629 624
3 624 159 630
3 629 160 624
3 630 20 629
3 632 631 626
3 626 161 632
3 631 159 626
3 632 40 631
3 635 633 634
3 634 73 635
3 633 160 634
3 635 105 633
3 629 272 634
3 634 160 629
3 272 73 634
3 629 20 272
3 382 628 633
3 633 105 382
3 628 160 633
3 382 31 628
3 273 385 635
3 635 73 273
3 385 105 635
3 273 6 385
3 638 636 637
3 637 137 638
3 636 159 637
3 638 72 636
3 631 496 637
3 637 159 631
3 496 137 637
3 631 40 496
3 265 630 636
3 636 72 265
3 630 159 636
3 265 20 630
3 497 268 638
3 638 137 497
3 268 72 638
3 497 10 268
3 641 639 640
3 640 102 641
3 639 161 640
3 641 136 639
3 627 372 640
3 640 161 627
3 372 102 640
3 627 31 372
3 489 632 639
3 639 136 489
3 632 161 639
3 489 40 632
3 373 492 641
3 641 102 373
3 492 136 641
3 373 2 492
