# vtk DataFile Version 3.0
this file was written using fslvtkio
ASCII
DATASET POLYDATA
POINTS 642 float
123.465 127.118 173.26
112.766 127.736 174.978
118.544 114.597 172.31
124.353 109.178 168.041
123.48 113.879 178.898
121.195 123.395 165.111
113.095 125.48 166.7
116.609 114.967 181.559
119.251 131.089 181.76
119.883 98.8975 173.035
120.285 107.611 162.538
114.742 137.94 170.058
118.331 122.067 183.898
122.043 122.642 181.561
120.986 111.431 183.028
118.34 106.242 178.896
122.371 103.944 176.592
109.267 131.5 165.432
116.435 124.891 164.816
117.199 132.124 166.73
120.186 115.479 165.576
122.045 112.548 162.291
124.316 110.189 173.596
123.904 121.077 176.613
124.843 118.219 170.865
123.935 114.984 165.741
122.316 127.198 169.075
114.895 122.421 179.786
116.125 112.927 176.575
115.671 122.113 174.049
109.387 128.155 169.632
117.904 120.686 169.74
120.142 135.28 172.364
121.698 131.713 177.857
116.395 138.374 176.521
111.501 134.425 171.721
115.787 130.446 178.756
123.807 105.973 161.809
120.398 101.227 166.341
122.886 100.867 169.734
120.215 110.262 168.122
118.442 105.971 172.385
120.4 122.55 183.637
121.781 117.084 183.014
119.668 116.757 184.423
122.507 113.033 181.165
123.022 118.524 180.543
120.923 127.012 182.12
118.68 127.085 183.274
117.085 118.7 183.171
118.353 113.034 183.503
118.999 108.767 182.002
121.764 107.956 180.056
120.429 103.663 178.815
122.934 108.918 177.998
117.189 110.568 180.284
119.203 102.873 175.955
121.716 100.173 175.346
112.328 128.992 164.229
116.277 128.487 164.897
113.542 132.173 165.781
119.025 127.907 166.043
118.977 123.809 164.534
114.755 125.024 165.557
109.466 127.411 164.46
112.147 134.693 167.334
116.082 135.351 168.004
120.549 113.39 162.991
119.683 118.951 164.905
118.28 120.649 165.866
121.115 118.487 164.797
120.767 110.244 160.273
119.46 111.083 163.595
117.191 121.911 167.2
124.44 115.256 175.343
124.695 119.22 173.863
125.019 114.139 172.384
124.263 122.627 172.209
123.777 124.154 175.097
123.834 117.894 177.919
123.911 111.795 176.38
124.415 109.63 170.824
124.882 114.016 169.418
124.74 117.132 168.125
124.12 122.682 169.914
123.575 121.661 167.609
123.142 127.765 170.989
124.22 111.917 166.558
122.779 119.617 165.814
121.759 125.284 166.957
114.889 117.49 178.286
115.974 117.013 175.583
114.547 121.323 176.773
117.333 118.802 173.419
117.241 113.805 174.198
115.781 113.729 179.136
115.511 118.826 180.928
114.128 125.055 177.712
113.834 124.788 174.426
113.332 125.492 171.79
116.493 122.183 171.824
113.284 125.064 169.777
118.609 117.799 171.114
110.93 128.399 172.189
110.553 126.489 167.773
115.738 123.464 168.602
121.212 134.358 175.374
119.547 136.522 177.896
118.36 138.725 174.288
117.906 135.14 179.497
120.842 131.763 180.095
122.807 129.333 175.605
122.427 131.504 172.897
117.658 137.272 170.783
115.078 140.068 173.366
114.159 136.884 174.205
115.945 134.638 177.626
113.856 133.25 174.945
117.218 130.999 180.706
112.407 137.042 170.759
111.934 131.256 173.574
114.02 129.274 176.685
122.45 102.023 163.238
122.067 98.1009 167.297
123.445 103.029 166.07
121.679 98.1021 171.803
119.707 100.163 169.62
120.611 104.726 164.134
122.135 107.02 160.198
124.014 107.198 165.254
123.983 105.277 168.877
119.223 107.817 169.945
119.148 103.349 169.189
120.008 105.6 166.916
119.339 102.756 172.85
118.456 110.092 172.321
119.489 112.578 170.296
120.276 109.148 165.307
122.963 122.369 179.26
121.948 127.493 179.799
122.901 126.483 177.407
121.531 131.662 170.349
119.087 134.074 169.239
120.086 129.922 167.607
123.18 102.636 173.233
123.392 107.182 175.224
124.144 105.59 171.729
123.382 109.805 163.605
122.276 114.386 164.657
123.199 109.481 159.842
116.725 126.902 182.026
116.398 122.732 181.97
115.014 126.919 179.49
109.912 131.246 170.582
108.027 128.49 166.44
109.883 133.923 168.369
117.258 109.643 174.383
117.047 109.41 177.616
118.028 106.057 175.509
120.727 113.221 166.65
119.134 119.14 167.957
119.617 115.5 168.997
121.112 119.823 183.502
120.908 117.126 184.083
120.199 119.708 184.336
120.476 114.325 184.027
121.389 114.456 183.29
121.843 119.844 182.542
121.305 122.067 182.694
119.39 122.167 184.274
119.045 119.353 184.534
122.199 115.089 182.282
122.48 117.984 181.824
122.926 115.759 181.033
122.414 120.439 181.382
121.749 112.516 182.216
123.056 113.577 180.047
123.302 116.229 179.853
120.847 124.597 182.992
119.554 124.676 183.775
119.955 126.805 183.242
118.418 124.637 183.787
121.586 124.699 181.983
120.187 128.925 182.246
119.05 128.973 182.708
118.322 117.709 183.952
119.055 114.886 184.212
117.893 115.825 183.479
119.718 112.422 183.822
117.845 120.157 183.771
116.836 116.612 182.711
117.435 114.077 182.607
120.692 108.147 181.494
121.143 105.954 179.824
119.957 106.208 180.924
121.552 103.637 177.986
122.008 105.835 178.393
121.556 109.849 181.633
119.913 110.075 182.856
118.62 107.216 180.657
119.326 104.905 179.385
122.567 108.564 179.268
122.163 110.698 180.834
122.859 111.222 179.647
122.701 106.458 177.507
123.241 111.417 178.501
118.531 111.061 183.065
118.03 109.596 181.233
117.338 112.021 181.987
117.87 108.28 179.785
116.74 112.836 181.165
119.413 103.242 177.713
121.047 101.744 177.752
119.986 100.749 176.157
122.025 101.861 176.357
118.712 104.663 177.521
119.693 100.7 174.627
120.633 98.8332 174.571
114.53 128.743 164.278
114.997 130.498 165.102
112.858 130.614 164.816
115.397 131.993 166.052
116.525 130.394 165.613
115.745 126.641 164.337
113.959 127.25 164.118
110.636 130.476 164.464
111.464 132.023 165.449
117.679 128.366 165.472
117.354 126.242 164.367
118.828 125.92 164.698
117.681 124.389 164.686
117.944 130.153 166.292
120.058 125.763 165.244
120.158 123.583 164.716
112.799 126.94 164.138
110.672 128.455 164.09
111.741 126.603 164.392
108.965 129.61 164.635
115.468 125.12 165.137
114.051 125.222 166.073
111.528 126.236 165.431
112.801 133.498 166.3
114.976 133.645 166.615
114.244 135.119 167.349
116.521 133.663 167.2
110.624 133.151 166.336
113.511 136.308 168.233
115.171 136.732 168.642
120.255 115.931 164.161
118.955 119.92 165.349
119.7 116.87 164.925
117.137 122.956 165.253
118.089 122.309 164.858
120.941 115.327 163.864
121.284 112.831 162.433
120.133 114.34 164.135
119.384 117.377 165.601
118.929 121.996 164.867
120.293 118.677 164.952
120.046 121.547 164.715
121.272 115.4 164.37
121.197 121.128 164.738
120.385 111.963 161.132
119.872 112.256 162.872
119.637 110.526 161.656
120.017 112.932 164.433
121.672 111.74 160.361
120.287 108.869 161.376
119.556 109.406 162.747
118.121 120.792 166.476
116.496 123.139 165.723
115.945 123.2 166.45
119.108 119.072 166.746
115.068 123.906 166.995
124.613 117.227 174.582
125.014 116.714 173.194
124.749 114.788 173.873
125.108 116.228 171.816
124.936 118.386 172.412
124.362 119.654 175.287
124.267 118.005 175.838
124.412 112.829 174.491
124.671 112.432 173.182
124.63 120.727 173.009
124.294 121.434 174.565
124.071 123.045 173.707
123.913 122.468 175.821
124.817 120.328 171.604
123.764 124.735 172.706
123.716 125.5 174.15
124.311 116.599 176.681
124.218 113.488 175.93
123.992 114.908 177.292
124.142 110.97 174.965
123.986 119.447 177.187
123.782 115.992 178.545
123.751 112.997 177.694
124.642 111.812 171.742
125.003 114.136 170.991
124.629 111.956 170.275
125.033 116.025 170.305
124.395 109.932 172.316
124.491 109.903 169.445
124.528 111.867 168.834
124.821 119.951 169.114
124.111 122.016 168.711
124.302 119.313 167.87
123.144 124.217 168.314
123.525 124.586 169.261
124.763 120.447 170.331
124.838 117.958 169.526
124.455 116.537 166.902
123.979 118.494 166.818
123.673 125.124 170.323
124.393 122.556 171.054
123.74 124.974 171.503
122.744 127.306 169.935
123.376 127.258 172.118
124.827 115.733 168.877
124.681 114.763 167.252
124.679 113.243 167.96
124.283 113.395 166.055
124.354 110.762 167.426
123.332 120.572 166.664
122.924 123.814 167.31
122.504 122.697 166.145
122.094 126.307 168.075
123.578 117.581 165.895
122.101 121.525 165.302
121.525 124.478 165.808
115.15 117.297 176.793
115.235 119.3 176.092
114.625 119.414 177.453
115.218 121.19 175.377
115.862 119.525 175.066
115.847 115.162 176.273
115.357 115.47 177.457
114.782 119.972 178.799
114.503 121.681 178.266
116.643 117.892 174.56
116.647 115.3 175.111
117.383 116.251 174.004
116.56 113.297 175.418
116.392 120.196 173.96
117.966 117.095 172.946
117.872 114.663 173.235
115.383 115.614 178.734
115.145 118.238 179.545
115.576 116.443 180.209
115.083 120.478 180.169
115.823 113.466 177.759
116.074 114.348 180.399
115.959 117.056 181.604
114.106 123.072 177.284
114.442 122.822 175.68
113.885 124.509 176.039
114.79 123.424 174.337
114.449 123.77 178.86
113.754 126.263 176.304
113.288 126.205 174.747
115.227 123.978 171.872
115.424 123.546 170.669
113.389 125.249 170.725
115.546 123.255 169.837
116.796 121.953 170.548
116.123 122.282 172.978
114.721 124.037 172.9
111.37 126.636 170.711
111.131 126.537 169.623
117.536 120.407 171.352
116.891 120.559 172.663
117.967 118.631 172.186
118.364 119.456 170.469
118.651 116.252 171.829
113.628 125.154 173.057
111.748 126.52 171.938
112.561 126.555 173.244
110.219 128.126 170.964
111.906 128.099 173.501
111.645 125.998 168.809
114.232 124.432 169.074
113.038 125.412 168.144
116.776 122.361 169.289
109.556 127.306 168.645
111.946 125.855 167.062
114.37 124.412 167.695
120.207 135.971 176.427
119.101 137.928 176.171
119.796 136.823 175.098
117.463 139.15 175.671
118.225 138.155 177.488
120.613 134.497 177.726
121.32 133.551 176.702
120.586 135.442 174.055
119.362 137.056 173.535
118.879 136.26 179.06
120.283 134.251 179.02
119.533 133.8 180.169
121.16 132.267 178.803
117.392 137.153 178.138
118.534 133.206 180.748
120.084 131.418 181.11
122.118 132.038 175.612
121.793 133.128 174.109
122.751 130.498 174.293
121.368 133.855 172.853
122.218 130.846 176.744
123.282 128.14 174.462
123.1 129.271 173.024
118.072 138.064 172.451
117.06 139.857 173.811
116.56 139.396 171.758
115.812 139.391 174.892
118.98 136.451 171.792
116.294 137.768 170.126
114.809 139.434 171.396
115.37 135.838 175.739
114.849 133.931 176.553
114.075 135.022 174.679
114.734 132.279 176.814
115.655 132.6 177.882
116.217 136.565 177.024
115.344 137.662 175.299
112.874 135.846 173.25
112.595 134.195 173.426
116.764 132.866 178.755
117.019 135.178 178.335
117.577 133.026 179.909
116.451 130.969 179.614
118.078 131.156 181.611
114.487 138.491 173.934
113.007 137.248 172.691
113.648 138.809 172.096
111.756 135.754 171.428
113.433 137.584 170.092
112.89 132.352 174.217
113.955 131.366 176.045
113.026 130.234 175.178
114.845 130.437 177.48
111.641 133.002 172.59
112.242 129.454 174.349
113.354 128.277 175.962
122.731 99.5163 164.834
123.035 100.498 166.35
123.301 102.073 164.586
123.246 101.75 167.742
122.836 99.5065 168.353
121.133 99.0813 166.089
121.415 100.877 164.548
123.398 103.832 162.363
123.538 104.409 164.1
122.123 98.0085 169.515
120.272 98.5565 168.135
119.94 97.7923 170.651
120.061 100.242 167.624
122.413 99.427 170.797
120.398 97.2032 172.682
119.624 99.8484 171.502
121.382 103.169 163.436
122.309 104.229 161.496
121.429 105.304 162.206
123.15 105.931 160.421
120.51 102.71 165.085
120.412 106.283 163.37
121.073 107.104 161.305
123.613 105.252 165.668
123.615 104.182 167.49
124.082 106.777 167.337
123.473 102.917 169.128
123.734 106.261 163.624
124.202 108.348 166.716
124.416 107.367 168.688
119.242 105.627 169.52
119.573 104.233 167.955
119.684 106.659 168.435
120.034 103.32 166.501
119.7 102.039 167.72
118.962 104.966 170.68
118.752 106.785 170.99
119.782 108.761 168.942
120.098 107.849 167.637
119.278 101.722 169.258
119.153 103.534 171.006
119.422 101.568 171.241
118.81 104.381 172.454
119.63 100.936 173.044
118.81 108.83 171.18
119.529 110.052 170.136
119.103 111.334 171.298
119.987 111.138 169.283
118.202 107.862 172.329
118.456 112.349 172.345
119.019 113.646 171.317
120.257 107.512 166.328
120.259 104.983 165.508
120.353 107.096 164.681
120.292 109.44 166.833
119.922 108.55 163.81
122.614 124.822 179.66
122.5 126.976 178.654
123.088 124.274 178.257
122.39 129.052 177.637
121.86 129.649 178.803
122.029 125.149 180.704
122.451 122.533 180.469
123.437 122.083 177.871
123.398 123.733 177.138
121.594 129.78 179.937
121.521 127.161 181.005
120.802 129.415 181.154
122.921 120.566 179.995
123.595 120.412 178.513
123.564 118.335 179.263
123.46 125.123 176.312
122.948 128.04 176.577
123.389 126.684 175.36
120.494 132.936 169.64
119.619 131.931 168.393
121.084 130.604 168.8
118.67 131.116 167.211
118.323 133.009 167.893
119.701 134.763 170.763
121.105 133.64 171.336
121.924 129.522 169.523
121.225 128.633 168.383
117.707 134.48 168.439
118.613 135.802 170.081
117.044 136.43 169.171
122.042 132.03 171.727
122.572 129.842 170.497
122.921 129.688 171.846
120.871 127.426 167.589
119.451 128.922 166.881
120.525 126.339 166.417
123.338 104.832 174.386
124.006 106.607 173.609
123.576 104.155 172.465
124.205 107.801 172.805
123.993 108.552 174.317
123.07 105.537 176.1
122.947 103.31 175.058
123.183 101.726 171.368
123.693 103.397 170.576
123.726 109.422 175.736
123.196 107.876 176.738
123.504 110.507 177.196
122.544 101.694 174.515
122.678 100.781 172.423
121.679 99.2748 173.422
124.056 105.257 170.197
124.41 107.678 171.501
124.517 107.642 169.971
123.077 111.907 163.576
122.735 111.458 162.184
123.315 109.489 161.787
123.025 111.334 160.62
121.538 113.389 164.284
123.136 115.137 165.192
123.531 112.601 164.894
123.659 107.644 162.482
123.894 107.693 160.291
121.675 116.303 165.187
122.672 117.172 165.31
122.012 119.332 165.103
124.044 111.242 165.142
123.746 108.435 164.254
124.026 109.747 166.023
122.936 108.201 159.205
121.997 111.178 159.222
121.045 108.889 160.689
116.651 124.815 182.056
115.617 124.963 180.886
115.842 126.963 180.796
114.932 124.765 179.824
115.477 122.986 180.864
117.276 122.408 183.046
117.53 124.63 183.185
116.231 128.832 180.413
115.405 128.762 179.08
115.715 121.084 181.179
116.614 120.893 182.632
116.076 118.827 182.155
117.647 127.032 182.739
116.952 129.156 181.215
117.791 129.259 182.261
114.678 128.338 178.024
114.476 126.026 178.651
114.03 127.183 177.25
108.758 130.093 168.54
108.631 131.19 167.61
109.541 132.059 169.08
109.249 132.613 166.888
108.286 130.087 165.869
108.39 128.18 168.024
109.463 129.663 170.287
110.728 132.728 171.038
110.521 133.816 169.95
108.404 127.591 165.093
109.167 126.862 167.148
110.865 126.289 166.271
110.222 129.897 171.647
110.934 131.561 172.232
111.363 129.733 173.089
111.192 135.424 169.811
110.887 134.704 167.683
112.303 136.349 169.001
117.061 109.489 175.932
117.363 107.673 176.619
117.481 107.747 174.966
118.019 106.184 177.272
117.523 107.849 178.38
116.441 110.963 176.896
116.574 111.187 175.464
117.74 107.831 173.536
118.062 106.193 173.914
117.073 109.927 178.891
116.244 111.607 178.155
116.37 112.1 179.705
116.994 111.753 174.257
117.871 109.969 173.287
117.855 112.378 173.279
118.415 104.688 173.963
118.36 104.414 175.83
119.364 102.908 174.392
120.16 116.002 167.255
119.322 117.386 168.449
120.252 114.299 168.003
118.929 118.335 169.438
118.434 120.392 168.837
119.556 117.593 166.867
120.433 114.495 166.028
120.555 111.707 167.425
120.208 112.75 168.689
117.468 121.647 168.473
118.26 120.569 167.637
116.28 122.924 167.743
120.435 112.583 165.273
120.617 110.997 166.03
119.927 110.423 164.43
119.756 113.954 169.611
119.11 116.919 170.034
119.274 115.348 170.845
POLYGONS 1280  5120
3 164 162 163
3 163 44 164
3 162 43 163
3 164 42 162
3 166 165 163
3 163 43 166
3 165 44 163
3 166 14 165
3 168 167 162
3 162 42 168
3 167 43 162
3 168 13 167
3 170 169 164
3 164 44 170
3 169 42 164
3 170 12 169
3 173 171 172
3 172 46 173
3 171 43 172
3 173 45 171
3 167 174 172
3 172 43 167
3 174 46 172
3 167 13 174
3 175 166 171
3 171 45 175
3 166 43 171
3 175 14 166
3 177 176 173
3 173 46 177
3 176 45 173
3 177 4 176
3 180 178 179
3 179 48 180
3 178 42 179
3 180 47 178
3 169 181 179
3 179 42 169
3 181 48 179
3 169 12 181
3 182 168 178
3 178 47 182
3 168 42 178
3 182 13 168
3 184 183 180
3 180 48 184
3 183 47 180
3 184 8 183
3 187 185 186
3 186 50 187
3 185 44 186
3 187 49 185
3 165 188 186
3 186 44 165
3 188 50 186
3 165 14 188
3 189 170 185
3 185 49 189
3 170 44 185
3 189 12 170
3 191 190 187
3 187 50 191
3 190 49 187
3 191 7 190
3 194 192 193
3 193 53 194
3 192 52 193
3 194 51 192
3 196 195 193
3 193 52 196
3 195 53 193
3 196 16 195
3 198 197 192
3 192 51 198
3 197 52 192
3 198 14 197
3 200 199 194
3 194 53 200
3 199 51 194
3 200 15 199
3 203 201 202
3 202 45 203
3 201 52 202
3 203 54 201
3 197 175 202
3 202 52 197
3 175 45 202
3 197 14 175
3 204 196 201
3 201 54 204
3 196 52 201
3 204 16 196
3 176 205 203
3 203 45 176
3 205 54 203
3 176 4 205
3 208 206 207
3 207 55 208
3 206 51 207
3 208 50 206
3 199 209 207
3 207 51 199
3 209 55 207
3 199 15 209
3 188 198 206
3 206 50 188
3 198 51 206
3 188 14 198
3 210 191 208
3 208 55 210
3 191 50 208
3 210 7 191
3 213 211 212
3 212 57 213
3 211 53 212
3 213 56 211
3 195 214 212
3 212 53 195
3 214 57 212
3 195 16 214
3 215 200 211
3 211 56 215
3 200 53 211
3 215 15 200
3 217 216 213
3 213 57 217
3 216 56 213
3 217 9 216
3 220 218 219
3 219 60 220
3 218 59 219
3 220 58 218
3 222 221 219
3 219 59 222
3 221 60 219
3 222 19 221
3 224 223 218
3 218 58 224
3 223 59 218
3 224 18 223
3 226 225 220
3 220 60 226
3 225 58 220
3 226 17 225
3 229 227 228
3 228 62 229
3 227 59 228
3 229 61 227
3 223 230 228
3 228 59 223
3 230 62 228
3 223 18 230
3 231 222 227
3 227 61 231
3 222 59 227
3 231 19 222
3 233 232 229
3 229 62 233
3 232 61 229
3 233 5 232
3 236 234 235
3 235 64 236
3 234 58 235
3 236 63 234
3 225 237 235
3 235 58 225
3 237 64 235
3 225 17 237
3 238 224 234
3 234 63 238
3 224 58 234
3 238 18 224
3 240 239 236
3 236 64 240
3 239 63 236
3 240 6 239
3 243 241 242
3 242 66 243
3 241 60 242
3 243 65 241
3 221 244 242
3 242 60 221
3 244 66 242
3 221 19 244
3 245 226 241
3 241 65 245
3 226 60 241
3 245 17 226
3 247 246 243
3 243 66 247
3 246 65 243
3 247 11 246
3 250 248 249
3 249 69 250
3 248 68 249
3 250 67 248
3 252 251 249
3 249 68 252
3 251 69 249
3 252 18 251
3 254 253 248
3 248 67 254
3 253 68 248
3 254 21 253
3 256 255 250
3 250 69 256
3 255 67 250
3 256 20 255
3 259 257 258
3 258 70 259
3 257 68 258
3 259 62 257
3 253 260 258
3 258 68 253
3 260 70 258
3 253 21 260
3 230 252 257
3 257 62 230
3 252 68 257
3 230 18 252
3 261 233 259
3 259 70 261
3 233 62 259
3 261 5 233
3 264 262 263
3 263 72 264
3 262 67 263
3 264 71 262
3 255 265 263
3 263 67 255
3 265 72 263
3 255 20 265
3 266 254 262
3 262 71 266
3 254 67 262
3 266 21 254
3 268 267 264
3 264 72 268
3 267 71 264
3 268 10 267
3 271 269 270
3 270 63 271
3 269 69 270
3 271 73 269
3 251 238 270
3 270 69 251
3 238 63 270
3 251 18 238
3 272 256 269
3 269 73 272
3 256 69 269
3 272 20 256
3 239 273 271
3 271 63 239
3 273 73 271
3 239 6 273
3 276 274 275
3 275 76 276
3 274 75 275
3 276 74 274
3 278 277 275
3 275 75 278
3 277 76 275
3 278 24 277
3 280 279 274
3 274 74 280
3 279 75 274
3 280 23 279
3 282 281 276
3 276 76 282
3 281 74 276
3 282 22 281
3 285 283 284
3 284 78 285
3 283 75 284
3 285 77 283
3 279 286 284
3 284 75 279
3 286 78 284
3 279 23 286
3 287 278 283
3 283 77 287
3 278 75 283
3 287 24 278
3 289 288 285
3 285 78 289
3 288 77 285
3 289 0 288
3 292 290 291
3 291 80 292
3 290 74 291
3 292 79 290
3 281 293 291
3 291 74 281
3 293 80 291
3 281 22 293
3 294 280 290
3 290 79 294
3 280 74 290
3 294 23 280
3 296 295 292
3 292 80 296
3 295 79 292
3 296 4 295
3 299 297 298
3 298 82 299
3 297 76 298
3 299 81 297
3 277 300 298
3 298 76 277
3 300 82 298
3 277 24 300
3 301 282 297
3 297 81 301
3 282 76 297
3 301 22 282
3 303 302 299
3 299 82 303
3 302 81 299
3 303 3 302
3 306 304 305
3 305 85 306
3 304 84 305
3 306 83 304
3 308 307 305
3 305 84 308
3 307 85 305
3 308 26 307
3 310 309 304
3 304 83 310
3 309 84 304
3 310 24 309
3 312 311 306
3 306 85 312
3 311 83 306
3 312 25 311
3 315 313 314
3 314 77 315
3 313 84 314
3 315 86 313
3 309 287 314
3 314 84 309
3 287 77 314
3 309 24 287
3 316 308 313
3 313 86 316
3 308 84 313
3 316 26 308
3 288 317 315
3 315 77 288
3 317 86 315
3 288 0 317
3 320 318 319
3 319 87 320
3 318 83 319
3 320 82 318
3 311 321 319
3 319 83 311
3 321 87 319
3 311 25 321
3 300 310 318
3 318 82 300
3 310 83 318
3 300 24 310
3 322 303 320
3 320 87 322
3 303 82 320
3 322 3 303
3 325 323 324
3 324 89 325
3 323 85 324
3 325 88 323
3 307 326 324
3 324 85 307
3 326 89 324
3 307 26 326
3 327 312 323
3 323 88 327
3 312 85 323
3 327 25 312
3 329 328 325
3 325 89 329
3 328 88 325
3 329 5 328
3 332 330 331
3 331 92 332
3 330 91 331
3 332 90 330
3 334 333 331
3 331 91 334
3 333 92 331
3 334 29 333
3 336 335 330
3 330 90 336
3 335 91 330
3 336 28 335
3 338 337 332
3 332 92 338
3 337 90 332
3 338 27 337
3 341 339 340
3 340 94 341
3 339 91 340
3 341 93 339
3 335 342 340
3 340 91 335
3 342 94 340
3 335 28 342
3 343 334 339
3 339 93 343
3 334 91 339
3 343 29 334
3 345 344 341
3 341 94 345
3 344 93 341
3 345 2 344
3 348 346 347
3 347 96 348
3 346 90 347
3 348 95 346
3 337 349 347
3 347 90 337
3 349 96 347
3 337 27 349
3 350 336 346
3 346 95 350
3 336 90 346
3 350 28 336
3 352 351 348
3 348 96 352
3 351 95 348
3 352 7 351
3 355 353 354
3 354 98 355
3 353 92 354
3 355 97 353
3 333 356 354
3 354 92 333
3 356 98 354
3 333 29 356
3 357 338 353
3 353 97 357
3 338 92 353
3 357 27 338
3 359 358 355
3 355 98 359
3 358 97 355
3 359 1 358
3 362 360 361
3 361 101 362
3 360 100 361
3 362 99 360
3 364 363 361
3 361 100 364
3 363 101 361
3 364 31 363
3 366 365 360
3 360 99 366
3 365 100 360
3 366 29 365
3 368 367 362
3 362 101 368
3 367 99 362
3 368 30 367
3 371 369 370
3 370 93 371
3 369 100 370
3 371 102 369
3 365 343 370
3 370 100 365
3 343 93 370
3 365 29 343
3 372 364 369
3 369 102 372
3 364 100 369
3 372 31 364
3 344 373 371
3 371 93 344
3 373 102 371
3 344 2 373
3 376 374 375
3 375 103 376
3 374 99 375
3 376 98 374
3 367 377 375
3 375 99 367
3 377 103 375
3 367 30 377
3 356 366 374
3 374 98 356
3 366 99 374
3 356 29 366
3 378 359 376
3 376 103 378
3 359 98 376
3 378 1 359
3 381 379 380
3 380 105 381
3 379 101 380
3 381 104 379
3 363 382 380
3 380 101 363
3 382 105 380
3 363 31 382
3 383 368 379
3 379 104 383
3 368 101 379
3 383 30 368
3 385 384 381
3 381 105 385
3 384 104 381
3 385 6 384
3 388 386 387
3 387 108 388
3 386 107 387
3 388 106 386
3 390 389 387
3 387 107 390
3 389 108 387
3 390 34 389
3 392 391 386
3 386 106 392
3 391 107 386
3 392 33 391
3 394 393 388
3 388 108 394
3 393 106 388
3 394 32 393
3 397 395 396
3 396 110 397
3 395 107 396
3 397 109 395
3 391 398 396
3 396 107 391
3 398 110 396
3 391 33 398
3 399 390 395
3 395 109 399
3 390 107 395
3 399 34 390
3 401 400 397
3 397 110 401
3 400 109 397
3 401 8 400
3 404 402 403
3 403 112 404
3 402 106 403
3 404 111 402
3 393 405 403
3 403 106 393
3 405 112 403
3 393 32 405
3 406 392 402
3 402 111 406
3 392 106 402
3 406 33 392
3 408 407 404
3 404 112 408
3 407 111 404
3 408 0 407
3 411 409 410
3 410 114 411
3 409 108 410
3 411 113 409
3 389 412 410
3 410 108 389
3 412 114 410
3 389 34 412
3 413 394 409
3 409 113 413
3 394 108 409
3 413 32 394
3 415 414 411
3 411 114 415
3 414 113 411
3 415 11 414
3 418 416 417
3 417 117 418
3 416 116 417
3 418 115 416
3 420 419 417
3 417 116 420
3 419 117 417
3 420 36 419
3 422 421 416
3 416 115 422
3 421 116 416
3 422 34 421
3 424 423 418
3 418 117 424
3 423 115 418
3 424 35 423
3 427 425 426
3 426 109 427
3 425 116 426
3 427 118 425
3 421 399 426
3 426 116 421
3 399 109 426
3 421 34 399
3 428 420 425
3 425 118 428
3 420 116 425
3 428 36 420
3 400 429 427
3 427 109 400
3 429 118 427
3 400 8 429
3 432 430 431
3 431 119 432
3 430 115 431
3 432 114 430
3 423 433 431
3 431 115 423
3 433 119 431
3 423 35 433
3 412 422 430
3 430 114 412
3 422 115 430
3 412 34 422
3 434 415 432
3 432 119 434
3 415 114 432
3 434 11 415
3 437 435 436
3 436 121 437
3 435 117 436
3 437 120 435
3 419 438 436
3 436 117 419
3 438 121 436
3 419 36 438
3 439 424 435
3 435 120 439
3 424 117 435
3 439 35 424
3 441 440 437
3 437 121 441
3 440 120 437
3 441 1 440
3 444 442 443
3 443 124 444
3 442 123 443
3 444 122 442
3 446 445 443
3 443 123 446
3 445 124 443
3 446 39 445
3 448 447 442
3 442 122 448
3 447 123 442
3 448 38 447
3 450 449 444
3 444 124 450
3 449 122 444
3 450 37 449
3 453 451 452
3 452 126 453
3 451 123 452
3 453 125 451
3 447 454 452
3 452 123 447
3 454 126 452
3 447 38 454
3 455 446 451
3 451 125 455
3 446 123 451
3 455 39 446
3 457 456 453
3 453 126 457
3 456 125 453
3 457 9 456
3 460 458 459
3 459 128 460
3 458 122 459
3 460 127 458
3 449 461 459
3 459 122 449
3 461 128 459
3 449 37 461
3 462 448 458
3 458 127 462
3 448 122 458
3 462 38 448
3 464 463 460
3 460 128 464
3 463 127 460
3 464 10 463
3 467 465 466
3 466 130 467
3 465 124 466
3 467 129 465
3 445 468 466
3 466 124 445
3 468 130 466
3 445 39 468
3 469 450 465
3 465 129 469
3 450 124 465
3 469 37 450
3 471 470 467
3 467 130 471
3 470 129 467
3 471 3 470
3 474 472 473
3 473 133 474
3 472 132 473
3 474 131 472
3 476 475 473
3 473 132 476
3 475 133 473
3 476 38 475
3 478 477 472
3 472 131 478
3 477 132 472
3 478 41 477
3 480 479 474
3 474 133 480
3 479 131 474
3 480 40 479
3 483 481 482
3 482 134 483
3 481 132 482
3 483 126 481
3 477 484 482
3 482 132 477
3 484 134 482
3 477 41 484
3 454 476 481
3 481 126 454
3 476 132 481
3 454 38 476
3 485 457 483
3 483 134 485
3 457 126 483
3 485 9 457
3 488 486 487
3 487 136 488
3 486 131 487
3 488 135 486
3 479 489 487
3 487 131 479
3 489 136 487
3 479 40 489
3 490 478 486
3 486 135 490
3 478 131 486
3 490 41 478
3 492 491 488
3 488 136 492
3 491 135 488
3 492 2 491
3 495 493 494
3 494 127 495
3 493 133 494
3 495 137 493
3 475 462 494
3 494 133 475
3 462 127 494
3 475 38 462
3 496 480 493
3 493 137 496
3 480 133 493
3 496 40 480
3 463 497 495
3 495 127 463
3 497 137 495
3 463 10 497
3 500 498 499
3 499 140 500
3 498 139 499
3 500 138 498
3 502 501 499
3 499 139 502
3 501 140 499
3 502 33 501
3 504 503 498
3 498 138 504
3 503 139 498
3 504 13 503
3 506 505 500
3 500 140 506
3 505 138 500
3 506 23 505
3 509 507 508
3 508 47 509
3 507 139 508
3 509 110 507
3 503 182 508
3 508 139 503
3 182 47 508
3 503 13 182
3 398 502 507
3 507 110 398
3 502 139 507
3 398 33 502
3 183 401 509
3 509 47 183
3 401 110 509
3 183 8 401
3 512 510 511
3 511 79 512
3 510 138 511
3 512 46 510
3 505 294 511
3 511 138 505
3 294 79 511
3 505 23 294
3 174 504 510
3 510 46 174
3 504 138 510
3 174 13 504
3 295 177 512
3 512 79 295
3 177 46 512
3 295 4 177
3 515 513 514
3 514 111 515
3 513 140 514
3 515 78 513
3 501 406 514
3 514 140 501
3 406 111 514
3 501 33 406
3 286 506 513
3 513 78 286
3 506 140 513
3 286 23 506
3 407 289 515
3 515 111 407
3 289 78 515
3 407 0 289
3 518 516 517
3 517 143 518
3 516 142 517
3 518 141 516
3 520 519 517
3 517 142 520
3 519 143 517
3 520 19 519
3 522 521 516
3 516 141 522
3 521 142 516
3 522 32 521
3 524 523 518
3 518 143 524
3 523 141 518
3 524 26 523
3 527 525 526
3 526 113 527
3 525 142 526
3 527 66 525
3 521 413 526
3 526 142 521
3 413 113 526
3 521 32 413
3 244 520 525
3 525 66 244
3 520 142 525
3 244 19 520
3 414 247 527
3 527 113 414
3 247 66 527
3 414 11 247
3 530 528 529
3 529 86 530
3 528 141 529
3 530 112 528
3 523 316 529
3 529 141 523
3 316 86 529
3 523 26 316
3 405 522 528
3 528 112 405
3 522 141 528
3 405 32 522
3 317 408 530
3 530 86 317
3 408 112 530
3 317 0 408
3 533 531 532
3 532 61 533
3 531 143 532
3 533 89 531
3 519 231 532
3 532 143 519
3 231 61 532
3 519 19 231
3 326 524 531
3 531 89 326
3 524 143 531
3 326 26 524
3 232 329 533
3 533 61 232
3 329 89 533
3 232 5 329
3 536 534 535
3 535 146 536
3 534 145 535
3 536 144 534
3 538 537 535
3 535 145 538
3 537 146 535
3 538 22 537
3 540 539 534
3 534 144 540
3 539 145 534
3 540 16 539
3 542 541 536
3 536 146 542
3 541 144 536
3 542 39 541
3 545 543 544
3 544 54 545
3 543 145 544
3 545 80 543
3 539 204 544
3 544 145 539
3 204 54 544
3 539 16 204
3 293 538 543
3 543 80 293
3 538 145 543
3 293 22 538
3 205 296 545
3 545 54 205
3 296 80 545
3 205 4 296
3 548 546 547
3 547 125 548
3 546 144 547
3 548 57 546
3 541 455 547
3 547 144 541
3 455 125 547
3 541 39 455
3 214 540 546
3 546 57 214
3 540 144 546
3 214 16 540
3 456 217 548
3 548 125 456
3 217 57 548
3 456 9 217
3 551 549 550
3 550 81 551
3 549 146 550
3 551 130 549
3 537 301 550
3 550 146 537
3 301 81 550
3 537 22 301
3 468 542 549
3 549 130 468
3 542 146 549
3 468 39 542
3 302 471 551
3 551 81 302
3 471 130 551
3 302 3 471
3 554 552 553
3 553 149 554
3 552 148 553
3 554 147 552
3 556 555 553
3 553 148 556
3 555 149 553
3 556 21 555
3 558 557 552
3 552 147 558
3 557 148 552
3 558 25 557
3 560 559 554
3 554 149 560
3 559 147 554
3 560 37 559
3 563 561 562
3 562 88 563
3 561 148 562
3 563 70 561
3 557 327 562
3 562 148 557
3 327 88 562
3 557 25 327
3 260 556 561
3 561 70 260
3 556 148 561
3 260 21 556
3 328 261 563
3 563 88 328
3 261 70 563
3 328 5 261
3 566 564 565
3 565 129 566
3 564 147 565
3 566 87 564
3 559 469 565
3 565 147 559
3 469 129 565
3 559 37 469
3 321 558 564
3 564 87 321
3 558 147 564
3 321 25 558
3 470 322 566
3 566 129 470
3 322 87 566
3 470 3 322
3 569 567 568
3 568 71 569
3 567 149 568
3 569 128 567
3 555 266 568
3 568 149 555
3 266 71 568
3 555 21 266
3 461 560 567
3 567 128 461
3 560 149 567
3 461 37 560
3 267 464 569
3 569 71 267
3 464 128 569
3 267 10 464
3 572 570 571
3 571 152 572
3 570 151 571
3 572 150 570
3 574 573 571
3 571 151 574
3 573 152 571
3 574 27 573
3 576 575 570
3 570 150 576
3 575 151 570
3 576 12 575
3 578 577 572
3 572 152 578
3 577 150 572
3 578 36 577
3 581 579 580
3 580 49 581
3 579 151 580
3 581 96 579
3 575 189 580
3 580 151 575
3 189 49 580
3 575 12 189
3 349 574 579
3 579 96 349
3 574 151 579
3 349 27 574
3 190 352 581
3 581 49 190
3 352 96 581
3 190 7 352
3 584 582 583
3 583 118 584
3 582 150 583
3 584 48 582
3 577 428 583
3 583 150 577
3 428 118 583
3 577 36 428
3 181 576 582
3 582 48 181
3 576 150 582
3 181 12 576
3 429 184 584
3 584 118 429
3 184 48 584
3 429 8 184
3 587 585 586
3 586 97 587
3 585 152 586
3 587 121 585
3 573 357 586
3 586 152 573
3 357 97 586
3 573 27 357
3 438 578 585
3 585 121 438
3 578 152 585
3 438 36 578
3 358 441 587
3 587 97 358
3 441 121 587
3 358 1 441
3 590 588 589
3 589 155 590
3 588 154 589
3 590 153 588
3 592 591 589
3 589 154 592
3 591 155 589
3 592 17 591
3 594 593 588
3 588 153 594
3 593 154 588
3 594 30 593
3 596 595 590
3 590 155 596
3 595 153 590
3 596 35 595
3 599 597 598
3 598 104 599
3 597 154 598
3 599 64 597
3 593 383 598
3 598 154 593
3 383 104 598
3 593 30 383
3 237 592 597
3 597 64 237
3 592 154 597
3 237 17 592
3 384 240 599
3 599 104 384
3 240 64 599
3 384 6 240
3 602 600 601
3 601 120 602
3 600 153 601
3 602 103 600
3 595 439 601
3 601 153 595
3 439 120 601
3 595 35 439
3 377 594 600
3 600 103 377
3 594 153 600
3 377 30 594
3 440 378 602
3 602 120 440
3 378 103 602
3 440 1 378
3 605 603 604
3 604 65 605
3 603 155 604
3 605 119 603
3 591 245 604
3 604 155 591
3 245 65 604
3 591 17 245
3 433 596 603
3 603 119 433
3 596 155 603
3 433 35 596
3 246 434 605
3 605 65 246
3 434 119 605
3 246 11 434
3 608 606 607
3 607 158 608
3 606 157 607
3 608 156 606
3 610 609 607
3 607 157 610
3 609 158 607
3 610 15 609
3 612 611 606
3 606 156 612
3 611 157 606
3 612 28 611
3 614 613 608
3 608 158 614
3 613 156 608
3 614 41 613
3 617 615 616
3 616 95 617
3 615 157 616
3 617 55 615
3 611 350 616
3 616 157 611
3 350 95 616
3 611 28 350
3 209 610 615
3 615 55 209
3 610 157 615
3 209 15 610
3 351 210 617
3 617 95 351
3 210 55 617
3 351 7 210
3 620 618 619
3 619 135 620
3 618 156 619
3 620 94 618
3 613 490 619
3 619 156 613
3 490 135 619
3 613 41 490
3 342 612 618
3 618 94 342
3 612 156 618
3 342 28 612
3 491 345 620
3 620 135 491
3 345 94 620
3 491 2 345
3 623 621 622
3 622 56 623
3 621 158 622
3 623 134 621
3 609 215 622
3 622 158 609
3 215 56 622
3 609 15 215
3 484 614 621
3 621 134 484
3 614 158 621
3 484 41 614
3 216 485 623
3 623 56 216
3 485 134 623
3 216 9 485
3 626 624 625
3 625 161 626
3 624 160 625
3 626 159 624
3 628 627 625
3 625 160 628
3 627 161 625
3 628 31 627
3 630 629 624
3 624 159 630
3 629 160 624
3 630 20 629
3 632 631 626
3 626 161 632
3 631 159 626
3 632 40 631
3 635 633 634
3 634 73 635
3 633 160 634
3 635 105 633
3 629 272 634
3 634 160 629
3 272 73 634
3 629 20 272
3 382 628 633
3 633 105 382
3 628 160 633
3 382 31 628
3 273 385 635
3 635 73 273
3 385 105 635
3 273 6 385
3 638 636 637
3 637 137 638
3 636 159 637
3 638 72 636
3 631 496 637
3 637 159 631
3 496 137 637
3 631 40 496
3 265 630 636
3 636 72 265
3 630 159 636
3 265 20 630
3 497 268 638
3 638 137 497
3 268 72 638
3 497 10 268
3 641 639 640
3 640 102 641
3 639 161 640
3 641 136 639
3 627 372 640
3 640 161 627
3 372 102 640
3 627 31 372
3 489 632 639
3 639 136 489
3 632 161 639
3 489 40 632
3 373 492 641
3 641 102 373
3 492 136 641
3 373 2 492
