# vtk DataFile Version 3.0
this file was written using fslvtkio
ASCII
DATASET POLYDATA
POINTS 642 float
82.6149 123.629 155.986
69.0994 126.149 157.519
68.7776 118.715 155.45
79.9577 116.499 154.66
80.5404 115.63 160.612
78.794 123.875 148.656
69.7598 125.751 148.829
73.1935 117.883 161.362
77.1172 124.865 160.563
73.0501 109.764 157.074
73.4705 119.04 151.722
75.8235 128.235 153.004
75.4591 121.247 162.096
79.8546 120.483 161.878
76.8317 115.863 162.129
72.366 111.113 160.57
76.9999 109.795 158.861
72.7123 128.081 149.937
74.7774 125.049 146.441
78.2639 127.627 149.179
71.7808 122.563 149.811
75.7185 122.502 151.005
81.654 114.012 157.264
83.4863 119.711 159.034
83.0058 120.098 155.393
79.0511 121.587 153.703
81.4989 124.735 151.65
71.5516 122.295 159.393
70.3881 117.403 159.094
67.9514 123.017 156.096
67.9705 126.711 153.164
68.4023 122.633 151.983
79.7997 126.931 154.278
80.64 124.27 159.221
76.0193 127.508 157.304
71.3928 127.986 154.828
72.6855 125.839 159.615
76.8749 117.542 153.108
73.5934 115.441 156.263
77.0265 111.72 155.685
70.6419 119.062 153.23
69.5656 112.33 157.776
77.6249 120.96 162.524
78.6157 118.578 162.926
76.3839 118.898 163.334
78.5473 115.742 161.418
80.5389 118.282 161.785
78.5966 122.888 161.598
76.1139 123.171 161.285
74.2382 119.759 162.415
74.8951 117.021 162.039
74.7149 113.875 160.818
76.7255 112.794 160.642
74.4037 110.441 160.064
78.7989 112.732 159.667
73.1461 114.976 160.664
71.6256 108.522 159.002
74.7737 108.828 157.652
73.782 127.121 147.54
76.6441 126.648 146.949
75.7508 128.337 149.263
79.0761 125.834 147.766
77.099 124.256 146.859
72.1172 125.575 147.282
70.9612 127.318 149.114
74.4023 128.32 151.427
77.2626 128.146 151.203
73.7884 122.488 149.889
75.3704 123.576 148.303
73.1278 123.875 148.197
77.22 123.262 149.889
74.5949 120.648 151.022
72.3779 120.803 150.487
70.8008 123.971 148.887
84.1097 116.633 158.313
84.6424 119.67 156.832
83.6237 116.755 155.919
83.6888 122.102 155.33
83.3754 121.744 157.707
82.3749 117.641 160.157
81.5112 114.469 159.023
81.2091 115.012 155.822
81.5873 118.089 155.178
81.0617 120.764 154.41
82.4998 122.273 153.277
80.6183 122.764 152.202
82.2905 124.383 153.878
79.5238 119.112 154.562
78.8937 122.994 151.199
80.3954 124.374 149.393
70.9628 119.918 159.265
69.517 120.626 157.721
69.5451 122.546 157.971
68.5059 121.069 155.784
69.1875 118.112 157.489
71.7325 117.623 160.397
72.5246 120.065 160.743
70.0253 123.964 158.585
68.0953 124.67 156.944
67.2462 124.976 154.764
67.9407 123.033 153.996
67.8273 124.901 152.387
68.3688 120.825 153.692
68.0394 126.758 155.547
68.6714 126.596 150.796
69.1704 124.389 150.456
80.2508 125.9 156.907
78.5646 126.356 158.142
78.0715 127.292 156.053
76.5456 126.247 158.93
79.1411 124.858 160.199
81.7924 123.803 157.782
81.2319 125.232 155.24
78.0285 128.047 153.668
75.762 127.815 155.017
73.5613 127.918 156.108
74.1101 126.848 158.277
71.7673 127.401 157.578
74.9019 125.483 160.005
73.4819 128.153 153.693
69.6846 127.609 156.335
70.68 126.058 158.924
75.2182 116.377 154.83
75.2779 113.402 156.265
77.1603 114.975 155.201
74.6555 110.85 156.776
73.1998 113.125 157.549
73.4803 117.322 153.8
75.1615 118.462 152.557
78.4727 116.979 154.18
78.7852 114.092 155.174
70.643 116.579 156.526
71.6303 114.362 157.388
71.9763 117.321 154.881
71.0976 110.147 157.613
69.1439 115.906 156.927
69.5114 119.104 154.292
71.7848 118.925 151.878
81.7514 119.915 160.525
80.4004 122.539 160.78
82.1061 122.016 159.249
80.7964 125.928 152.798
79.2966 127.619 151.742
80.064 126.405 149.956
77.1318 109.415 156.86
79.795 111.57 158.023
79.6867 112.137 155.86
77.8744 119.535 153.486
77.2676 122.054 152.498
76.123 120.029 152.156
74.1552 123.493 160.731
73.5302 121.834 160.93
71.9029 123.749 159.531
69.4326 127.837 153.975
69.9746 127.826 151.363
71.9009 128.218 152.346
69.6143 114.833 158.823
71.4698 114.461 159.951
70.7334 110.862 159.475
70.6347 120.851 151.223
70.1209 123.095 151.086
69.2652 120.608 151.948
78.2588 119.966 163.143
77.5077 118.761 163.329
77.0248 120.178 162.986
76.7957 117.427 162.951
77.8192 117.206 162.766
79.3173 119.599 162.719
78.7859 120.639 162.445
76.5167 121.238 162.474
75.9102 120.217 162.805
78.6464 117.057 162.279
79.6049 118.36 162.566
79.6361 116.988 161.833
80.1835 119.542 161.964
77.7052 115.786 161.9
79.5814 115.643 161.04
80.5642 116.887 161.167
78.1278 121.953 162.132
76.9509 122.264 162.249
77.423 123.065 161.62
75.8331 122.372 161.851
79.2 121.606 161.783
77.8589 123.993 161.21
76.6178 124.073 161.005
75.2881 119.256 163.004
75.7759 117.811 162.705
74.6503 118.385 162.335
75.8947 116.422 162.239
74.8524 120.472 162.344
73.6263 118.917 161.954
73.9866 117.538 161.673
75.6263 113.602 160.82
75.5911 111.76 160.248
74.5128 112.207 160.748
75.7053 110.066 159.517
76.6659 111.212 159.717
76.7526 114.425 161.291
75.6773 114.993 161.27
73.629 112.723 160.666
73.3008 110.558 160.603
77.749 112.561 160.289
77.6548 114.372 161.127
78.6304 114.289 160.61
77.8423 111.224 159.176
79.5905 114.315 160.095
74.9673 115.657 161.34
73.9566 114.38 160.808
74.0396 116.246 161.194
72.9336 113.117 160.506
73.2728 116.447 161.01
73.0155 109.183 159.789
74.5796 109.48 158.993
73.2103 108.654 158.569
75.9522 109.079 158.351
71.8024 109.273 160.2
72.4051 108.571 158.054
73.5842 109.083 157.434
75.1739 127.036 147.157
76.1949 127.977 147.896
74.7303 128.182 148.16
77.0707 128.195 149.001
77.3945 127.299 148.002
75.706 125.801 146.293
74.3722 126.168 146.629
73.3777 127.926 148.532
74.2508 128.255 149.338
77.9513 126.307 147.045
76.9588 125.361 146.499
77.9928 125.163 147.109
76.0828 124.669 146.438
78.5943 126.786 148.145
78.9311 124.767 148.007
77.9633 124.173 147.738
72.8596 126.467 147.15
72.3764 127.428 148.12
71.6079 126.651 147.987
71.8259 127.667 149.225
73.5032 125.323 146.785
70.9043 125.758 147.941
70.3548 126.533 148.896
75.0062 128.32 150.435
76.563 128.381 150.17
75.8525 128.281 151.263
77.8374 128.156 150.118
73.5582 128.365 150.654
75.2513 128.373 152.238
76.6316 128.313 152.148
74.4987 123.214 149.313
74.2699 123.783 148.236
73.4485 123.331 149.131
73.9434 124.465 147.188
75.1852 124.101 147.108
75.3795 123.183 149.725
74.8137 122.461 150.169
72.7794 122.485 149.647
72.4211 123.371 149.166
76.2876 123.775 147.363
76.3565 123.287 148.957
77.3011 123.54 148.203
76.322 123.011 150.573
78.0511 123.55 149.16
74.1321 121.687 150.547
73.0426 121.542 150.048
73.5865 120.76 150.658
71.9864 121.737 150.078
75.0951 121.451 151.003
73.9907 119.786 151.039
73.0093 119.998 151.013
71.9865 124.014 148.599
72.7104 124.522 147.477
71.4277 124.686 148.065
71.4915 123.496 149.333
70.1793 124.81 148.714
84.6426 118.061 157.673
84.3718 118.139 156.419
84.1158 116.522 157.059
83.6945 118.559 155.69
84.2846 119.756 155.808
84.537 119.653 158.115
84.1661 118.345 158.897
82.9769 115.4 157.56
82.7331 115.602 156.754
84.3953 121.048 156.2
84.4391 121.073 157.53
83.6568 121.917 156.656
83.672 120.777 158.5
83.6448 121.065 155.163
83.1724 122.801 155.676
82.8267 122.63 156.765
83.3201 117.244 159.353
82.8853 115.535 158.609
82.2026 116.072 159.74
81.7507 114.141 158.016
83.1138 118.511 159.49
81.496 116.716 160.602
80.96 115.179 159.761
82.4605 115.867 155.775
82.7467 117.374 155.298
81.7564 116.688 155.155
82.3723 119.137 155.539
81.6326 114.398 156.436
80.7211 115.782 154.812
80.7099 117.313 155.16
81.969 121.242 153.658
81.6276 122.425 152.72
80.8403 121.747 153.372
81.2639 123.557 151.587
82.067 123.51 152.58
82.8809 121.104 154.297
82.0186 120.355 154.927
80.0294 121.21 153.968
79.9978 122.141 152.928
82.5484 123.548 153.598
83.3514 122.069 154.197
83.1429 123.182 154.67
81.8644 124.485 152.837
82.6004 123.943 154.989
81.3394 119.515 155.003
80.2333 120.05 154.553
80.5353 118.632 155.034
79.3551 120.422 154.314
79.8539 117.851 154.71
79.804 122.775 151.679
80.5536 123.566 150.729
79.7801 123.413 150.07
80.9373 124.611 150.491
79.0491 122.338 152.563
78.8837 123.428 149.914
79.6719 124.156 148.905
70.031 120.336 158.681
69.6188 121.648 157.777
70.4613 121.561 158.645
68.6213 122.632 157.185
68.7542 121.742 157.123
69.7563 119.121 158.552
70.4865 118.759 159.262
71.3353 121.274 159.172
70.6523 122.405 158.73
68.8173 120.932 156.828
69.2683 119.396 157.675
68.8797 119.678 156.658
69.6745 117.725 158.437
68.1075 122.003 156.06
68.656 119.915 155.597
68.7855 118.588 156.475
71.2903 118.868 159.904
71.7397 120.092 159.966
72.0465 118.951 160.722
72.0232 121.167 160.037
71.054 117.538 159.686
72.529 117.81 160.899
72.8669 118.995 161.341
69.8823 123.359 158.329
68.8381 123.618 157.415
69.0331 124.393 157.9
67.9701 123.86 156.462
70.9319 123.164 158.798
69.3991 125.031 158.165
68.595 125.34 157.332
67.2815 123.808 154.366
67.7822 123.937 153.098
67.4155 124.784 153.507
68.4776 123.882 152.257
68.1442 122.975 152.906
67.7572 123.046 155.151
67.4255 123.996 155.52
67.5164 125.815 153.888
67.7752 125.719 152.764
68.2507 121.9 153.63
68.0718 122.063 154.967
68.4072 120.935 154.658
68.1659 121.862 152.648
68.735 119.86 154.665
67.5167 124.9 155.891
67.3592 125.964 155.107
67.883 125.754 156.349
67.9288 126.637 154.301
68.3803 126.496 156.702
68.1394 125.763 151.593
68.4418 124.666 151.355
68.5585 125.477 150.581
68.7784 123.68 151.323
68.2559 126.726 151.959
69.2525 126.121 149.707
69.2959 125.156 149.629
79.4232 126.106 157.507
78.414 126.981 157.15
79.3008 126.85 156.559
77.0989 127.373 156.741
77.3263 126.963 157.646
79.7298 125.601 158.72
80.3689 125.186 158.064
79.8967 126.504 155.717
79.1298 127.084 155.342
77.5738 126.397 158.629
78.8809 125.693 159.193
77.884 125.606 159.532
79.8732 124.657 159.681
76.2965 126.993 158.172
76.9008 125.662 159.88
78.159 124.908 160.442
80.8768 124.723 157.295
80.6174 125.45 156.034
81.4578 124.536 156.542
80.3756 126.03 154.858
81.1744 124.055 158.534
82.2771 123.682 156.854
82.2061 124.559 155.555
78.0827 127.503 154.938
76.9725 127.487 155.567
76.9356 127.821 154.433
75.9205 127.745 156.212
78.9367 127.554 154.099
76.8828 128.195 153.228
75.7469 128.123 153.942
73.8587 127.582 157.327
72.9257 127.114 157.955
72.6743 127.673 156.84
72.1545 126.881 158.674
73.2231 126.406 158.86
75.1188 127.359 157.84
74.7353 127.743 156.679
72.4522 127.945 155.518
71.6171 127.663 156.194
74.459 126.253 159.141
75.3767 126.641 158.536
75.8137 125.961 159.518
73.7126 125.59 159.713
76.0603 125.153 160.332
74.6989 127.964 155.572
73.477 127.946 154.915
74.5733 128.013 154.373
72.4198 128.031 154.242
74.5735 128.243 153.215
70.7331 127.392 156.972
71.138 126.966 158.311
70.1264 127.076 157.806
71.6556 126.022 159.215
70.6159 127.767 155.591
69.2675 127.005 157.132
69.7995 126.11 158.45
75.4259 115.108 155.835
76.3394 114.126 155.811
76.2681 115.639 155.213
76.9977 113.383 155.598
75.9835 112.584 155.928
74.4722 114.378 156.282
74.4886 115.833 155.484
76.1161 116.596 154.062
76.9659 116.147 154.435
74.8474 112.196 156.355
74.3051 113.337 156.907
73.7549 111.879 157.065
73.4541 114.187 157.165
75.7032 111.187 156.088
73.8205 110.354 157.028
73.0821 111.317 157.215
74.3219 116.823 154.31
75.2758 117.251 153.554
74.3862 117.721 153.101
76.0314 117.983 152.976
73.6468 116.539 155.019
73.4885 118.183 152.673
74.3511 118.794 151.995
77.7884 115.991 154.59
77.8681 114.451 155.315
78.6678 115.512 154.793
77.9318 113.077 155.61
77.6008 117.184 153.605
79.207 116.816 154.482
79.5402 115.235 154.853
71.1468 115.421 156.798
71.938 116.121 156.18
71.284 117.101 155.55
72.8611 116.4 155.654
72.5272 115.005 156.924
70.5722 113.187 157.457
70.0062 114.273 157.067
70.8174 118.052 155.096
71.3055 118.268 154.227
72.4433 113.765 157.562
71.2499 112.267 157.573
72.1186 111.663 157.656
70.2609 111.116 157.591
72.0594 109.492 157.477
69.6349 115.848 156.48
70.1599 117.829 155.515
69.3887 117.577 155.712
70.2245 119.107 153.812
69.2242 114.067 157.556
68.8858 117.526 156.245
68.9912 118.87 154.81
71.8829 118.156 153.426
72.8215 117.357 154.384
72.6582 118.15 152.968
71.1304 118.792 152.473
72.5959 119.001 151.707
80.9259 121.081 160.574
81.4364 122.412 160.225
81.9384 120.938 159.88
81.5325 123.332 159.492
80.6885 123.697 160.245
80.1398 121.338 161.208
80.9054 120.247 161.372
82.5869 119.667 159.746
82.7746 120.819 159.135
79.7624 123.745 160.537
79.4273 122.566 161.206
78.8243 123.925 161.029
81.1455 119.179 161.253
82.15 118.815 160.317
81.3903 117.93 160.87
82.7111 121.74 158.44
82.0781 123.012 158.629
82.4655 122.657 157.621
79.9006 126.707 152.253
79.6176 126.99 150.806
80.5485 126.345 151.33
79.2002 127.074 149.467
78.7698 127.673 150.457
79.5601 127.403 153.093
80.1889 126.289 153.543
81.4689 125.635 152.076
81.0248 125.732 150.602
78.4084 128.1 151.45
78.7861 127.953 152.843
77.6774 128.134 152.467
81.0125 125.712 154.091
81.7156 125.334 153.337
82.0288 124.943 154.566
80.5469 125.474 149.534
79.7679 126.388 148.65
79.8775 125.029 148.565
78.8598 109.974 157.385
79.9253 111.574 156.698
78.7367 110.529 156.147
80.8122 112.894 156.38
80.9582 112.657 157.465
78.6352 110.438 158.439
77.3988 109.15 157.782
77.0849 110.466 155.935
78.2538 111.84 155.564
80.7116 113.172 158.501
79.4783 112.15 159.069
80.1828 113.978 159.466
76.0994 108.962 157.152
75.6174 110.024 156.51
74.6248 109.634 156.848
79.0788 113.147 155.333
80.4566 113.655 155.853
80.0346 114.546 155.234
77.6483 120.787 153.019
76.7445 121.013 152.238
77.0368 119.9 152.886
75.8488 121.275 151.708
76.4335 122.229 151.786
78.1192 121.962 153.309
78.4728 120.535 153.759
77.3692 118.582 153.142
76.5981 118.865 152.645
77.0827 122.854 151.488
78.0572 122.635 152.087
78.0237 123.147 150.629
78.6386 119.34 154.031
78.0741 118.22 153.686
79.0054 118.122 154.273
75.75 119.19 152.202
75.3365 120.319 151.571
74.8728 119.573 151.534
73.882 122.577 160.767
72.759 122.805 160.264
73.0482 123.65 160.137
71.7159 123.057 159.509
72.4404 121.984 160.25
74.5677 121.506 161.513
74.8205 122.436 161.402
73.3702 124.754 160.202
72.1886 124.897 159.808
72.9533 121.127 160.724
73.9117 120.807 161.712
73.2933 119.939 161.669
75.0876 123.432 161.059
74.4416 124.682 160.492
75.4794 124.381 160.642
71.1817 124.914 159.425
71.0225 123.669 159.035
70.2157 124.821 158.966
69.5905 127.921 152.628
70.9935 127.95 151.906
70.6047 128.162 153.069
72.2868 128.127 151.231
71.3181 127.918 150.591
68.7746 127.45 152.178
68.5736 127.498 153.543
70.4819 127.935 154.333
71.5762 128.088 153.521
70.5476 127.607 150.192
69.227 127.313 151.077
69.8543 127.017 149.943
68.5488 127.26 154.68
69.4755 127.868 155.189
68.6721 127.336 156.118
72.7033 128.296 152.951
73.0788 128.256 151.695
73.9596 128.347 152.42
70.6425 114.665 159.416
71.1271 112.725 159.979
70.194 112.841 159.313
71.2947 110.77 160.236
71.9759 112.866 160.218
70.9837 116.152 159.523
69.828 116.192 159.011
69.2124 113.464 158.431
69.8215 111.405 158.59
72.3249 114.727 160.301
71.7713 116.209 159.947
72.6082 116.441 160.537
69.2054 116.719 158.283
69.1508 115.456 157.876
68.8208 117.375 157.129
70.5098 110.224 158.365
71.0252 109.495 159.62
71.5356 108.857 158.136
70.3517 121.865 151.112
69.5444 121.961 151.481
69.8409 120.625 151.399
68.7366 121.709 151.804
69.2082 122.934 151.449
70.8089 122.935 150.394
71.1003 121.902 150.667
70.5384 119.789 151.912
69.8629 119.7 152.339
69.5579 123.595 150.651
70.4193 123.562 149.844
69.8566 124.164 149.696
71.3661 121.05 150.814
71.221 119.857 151.479
71.9419 119.901 151.09
69.4332 119.759 153.039
68.5167 120.687 152.651
68.8036 119.805 153.82
POLYGONS 1280  5120
3 164 162 163
3 163 44 164
3 162 43 163
3 164 42 162
3 166 165 163
3 163 43 166
3 165 44 163
3 166 14 165
3 168 167 162
3 162 42 168
3 167 43 162
3 168 13 167
3 170 169 164
3 164 44 170
3 169 42 164
3 170 12 169
3 173 171 172
3 172 46 173
3 171 43 172
3 173 45 171
3 167 174 172
3 172 43 167
3 174 46 172
3 167 13 174
3 175 166 171
3 171 45 175
3 166 43 171
3 175 14 166
3 177 176 173
3 173 46 177
3 176 45 173
3 177 4 176
3 180 178 179
3 179 48 180
3 178 42 179
3 180 47 178
3 169 181 179
3 179 42 169
3 181 48 179
3 169 12 181
3 182 168 178
3 178 47 182
3 168 42 178
3 182 13 168
3 184 183 180
3 180 48 184
3 183 47 180
3 184 8 183
3 187 185 186
3 186 50 187
3 185 44 186
3 187 49 185
3 165 188 186
3 186 44 165
3 188 50 186
3 165 14 188
3 189 170 185
3 185 49 189
3 170 44 185
3 189 12 170
3 191 190 187
3 187 50 191
3 190 49 187
3 191 7 190
3 194 192 193
3 193 53 194
3 192 52 193
3 194 51 192
3 196 195 193
3 193 52 196
3 195 53 193
3 196 16 195
3 198 197 192
3 192 51 198
3 197 52 192
3 198 14 197
3 200 199 194
3 194 53 200
3 199 51 194
3 200 15 199
3 203 201 202
3 202 45 203
3 201 52 202
3 203 54 201
3 197 175 202
3 202 52 197
3 175 45 202
3 197 14 175
3 204 196 201
3 201 54 204
3 196 52 201
3 204 16 196
3 176 205 203
3 203 45 176
3 205 54 203
3 176 4 205
3 208 206 207
3 207 55 208
3 206 51 207
3 208 50 206
3 199 209 207
3 207 51 199
3 209 55 207
3 199 15 209
3 188 198 206
3 206 50 188
3 198 51 206
3 188 14 198
3 210 191 208
3 208 55 210
3 191 50 208
3 210 7 191
3 213 211 212
3 212 57 213
3 211 53 212
3 213 56 211
3 195 214 212
3 212 53 195
3 214 57 212
3 195 16 214
3 215 200 211
3 211 56 215
3 200 53 211
3 215 15 200
3 217 216 213
3 213 57 217
3 216 56 213
3 217 9 216
3 220 218 219
3 219 60 220
3 218 59 219
3 220 58 218
3 222 221 219
3 219 59 222
3 221 60 219
3 222 19 221
3 224 223 218
3 218 58 224
3 223 59 218
3 224 18 223
3 226 225 220
3 220 60 226
3 225 58 220
3 226 17 225
3 229 227 228
3 228 62 229
3 227 59 228
3 229 61 227
3 223 230 228
3 228 59 223
3 230 62 228
3 223 18 230
3 231 222 227
3 227 61 231
3 222 59 227
3 231 19 222
3 233 232 229
3 229 62 233
3 232 61 229
3 233 5 232
3 236 234 235
3 235 64 236
3 234 58 235
3 236 63 234
3 225 237 235
3 235 58 225
3 237 64 235
3 225 17 237
3 238 224 234
3 234 63 238
3 224 58 234
3 238 18 224
3 240 239 236
3 236 64 240
3 239 63 236
3 240 6 239
3 243 241 242
3 242 66 243
3 241 60 242
3 243 65 241
3 221 244 242
3 242 60 221
3 244 66 242
3 221 19 244
3 245 226 241
3 241 65 245
3 226 60 241
3 245 17 226
3 247 246 243
3 243 66 247
3 246 65 243
3 247 11 246
3 250 248 249
3 249 69 250
3 248 68 249
3 250 67 248
3 252 251 249
3 249 68 252
3 251 69 249
3 252 18 251
3 254 253 248
3 248 67 254
3 253 68 248
3 254 21 253
3 256 255 250
3 250 69 256
3 255 67 250
3 256 20 255
3 259 257 258
3 258 70 259
3 257 68 258
3 259 62 257
3 253 260 258
3 258 68 253
3 260 70 258
3 253 21 260
3 230 252 257
3 257 62 230
3 252 68 257
3 230 18 252
3 261 233 259
3 259 70 261
3 233 62 259
3 261 5 233
3 264 262 263
3 263 72 264
3 262 67 263
3 264 71 262
3 255 265 263
3 263 67 255
3 265 72 263
3 255 20 265
3 266 254 262
3 262 71 266
3 254 67 262
3 266 21 254
3 268 267 264
3 264 72 268
3 267 71 264
3 268 10 267
3 271 269 270
3 270 63 271
3 269 69 270
3 271 73 269
3 251 238 270
3 270 69 251
3 238 63 270
3 251 18 238
3 272 256 269
3 269 73 272
3 256 69 269
3 272 20 256
3 239 273 271
3 271 63 239
3 273 73 271
3 239 6 273
3 276 274 275
3 275 76 276
3 274 75 275
3 276 74 274
3 278 277 275
3 275 75 278
3 277 76 275
3 278 24 277
3 280 279 274
3 274 74 280
3 279 75 274
3 280 23 279
3 282 281 276
3 276 76 282
3 281 74 276
3 282 22 281
3 285 283 284
3 284 78 285
3 283 75 284
3 285 77 283
3 279 286 284
3 284 75 279
3 286 78 284
3 279 23 286
3 287 278 283
3 283 77 287
3 278 75 283
3 287 24 278
3 289 288 285
3 285 78 289
3 288 77 285
3 289 0 288
3 292 290 291
3 291 80 292
3 290 74 291
3 292 79 290
3 281 293 291
3 291 74 281
3 293 80 291
3 281 22 293
3 294 280 290
3 290 79 294
3 280 74 290
3 294 23 280
3 296 295 292
3 292 80 296
3 295 79 292
3 296 4 295
3 299 297 298
3 298 82 299
3 297 76 298
3 299 81 297
3 277 300 298
3 298 76 277
3 300 82 298
3 277 24 300
3 301 282 297
3 297 81 301
3 282 76 297
3 301 22 282
3 303 302 299
3 299 82 303
3 302 81 299
3 303 3 302
3 306 304 305
3 305 85 306
3 304 84 305
3 306 83 304
3 308 307 305
3 305 84 308
3 307 85 305
3 308 26 307
3 310 309 304
3 304 83 310
3 309 84 304
3 310 24 309
3 312 311 306
3 306 85 312
3 311 83 306
3 312 25 311
3 315 313 314
3 314 77 315
3 313 84 314
3 315 86 313
3 309 287 314
3 314 84 309
3 287 77 314
3 309 24 287
3 316 308 313
3 313 86 316
3 308 84 313
3 316 26 308
3 288 317 315
3 315 77 288
3 317 86 315
3 288 0 317
3 320 318 319
3 319 87 320
3 318 83 319
3 320 82 318
3 311 321 319
3 319 83 311
3 321 87 319
3 311 25 321
3 300 310 318
3 318 82 300
3 310 83 318
3 300 24 310
3 322 303 320
3 320 87 322
3 303 82 320
3 322 3 303
3 325 323 324
3 324 89 325
3 323 85 324
3 325 88 323
3 307 326 324
3 324 85 307
3 326 89 324
3 307 26 326
3 327 312 323
3 323 88 327
3 312 85 323
3 327 25 312
3 329 328 325
3 325 89 329
3 328 88 325
3 329 5 328
3 332 330 331
3 331 92 332
3 330 91 331
3 332 90 330
3 334 333 331
3 331 91 334
3 333 92 331
3 334 29 333
3 336 335 330
3 330 90 336
3 335 91 330
3 336 28 335
3 338 337 332
3 332 92 338
3 337 90 332
3 338 27 337
3 341 339 340
3 340 94 341
3 339 91 340
3 341 93 339
3 335 342 340
3 340 91 335
3 342 94 340
3 335 28 342
3 343 334 339
3 339 93 343
3 334 91 339
3 343 29 334
3 345 344 341
3 341 94 345
3 344 93 341
3 345 2 344
3 348 346 347
3 347 96 348
3 346 90 347
3 348 95 346
3 337 349 347
3 347 90 337
3 349 96 347
3 337 27 349
3 350 336 346
3 346 95 350
3 336 90 346
3 350 28 336
3 352 351 348
3 348 96 352
3 351 95 348
3 352 7 351
3 355 353 354
3 354 98 355
3 353 92 354
3 355 97 353
3 333 356 354
3 354 92 333
3 356 98 354
3 333 29 356
3 357 338 353
3 353 97 357
3 338 92 353
3 357 27 338
3 359 358 355
3 355 98 359
3 358 97 355
3 359 1 358
3 362 360 361
3 361 101 362
3 360 100 361
3 362 99 360
3 364 363 361
3 361 100 364
3 363 101 361
3 364 31 363
3 366 365 360
3 360 99 366
3 365 100 360
3 366 29 365
3 368 367 362
3 362 101 368
3 367 99 362
3 368 30 367
3 371 369 370
3 370 93 371
3 369 100 370
3 371 102 369
3 365 343 370
3 370 100 365
3 343 93 370
3 365 29 343
3 372 364 369
3 369 102 372
3 364 100 369
3 372 31 364
3 344 373 371
3 371 93 344
3 373 102 371
3 344 2 373
3 376 374 375
3 375 103 376
3 374 99 375
3 376 98 374
3 367 377 375
3 375 99 367
3 377 103 375
3 367 30 377
3 356 366 374
3 374 98 356
3 366 99 374
3 356 29 366
3 378 359 376
3 376 103 378
3 359 98 376
3 378 1 359
3 381 379 380
3 380 105 381
3 379 101 380
3 381 104 379
3 363 382 380
3 380 101 363
3 382 105 380
3 363 31 382
3 383 368 379
3 379 104 383
3 368 101 379
3 383 30 368
3 385 384 381
3 381 105 385
3 384 104 381
3 385 6 384
3 388 386 387
3 387 108 388
3 386 107 387
3 388 106 386
3 390 389 387
3 387 107 390
3 389 108 387
3 390 34 389
3 392 391 386
3 386 106 392
3 391 107 386
3 392 33 391
3 394 393 388
3 388 108 394
3 393 106 388
3 394 32 393
3 397 395 396
3 396 110 397
3 395 107 396
3 397 109 395
3 391 398 396
3 396 107 391
3 398 110 396
3 391 33 398
3 399 390 395
3 395 109 399
3 390 107 395
3 399 34 390
3 401 400 397
3 397 110 401
3 400 109 397
3 401 8 400
3 404 402 403
3 403 112 404
3 402 106 403
3 404 111 402
3 393 405 403
3 403 106 393
3 405 112 403
3 393 32 405
3 406 392 402
3 402 111 406
3 392 106 402
3 406 33 392
3 408 407 404
3 404 112 408
3 407 111 404
3 408 0 407
3 411 409 410
3 410 114 411
3 409 108 410
3 411 113 409
3 389 412 410
3 410 108 389
3 412 114 410
3 389 34 412
3 413 394 409
3 409 113 413
3 394 108 409
3 413 32 394
3 415 414 411
3 411 114 415
3 414 113 411
3 415 11 414
3 418 416 417
3 417 117 418
3 416 116 417
3 418 115 416
3 420 419 417
3 417 116 420
3 419 117 417
3 420 36 419
3 422 421 416
3 416 115 422
3 421 116 416
3 422 34 421
3 424 423 418
3 418 117 424
3 423 115 418
3 424 35 423
3 427 425 426
3 426 109 427
3 425 116 426
3 427 118 425
3 421 399 426
3 426 116 421
3 399 109 426
3 421 34 399
3 428 420 425
3 425 118 428
3 420 116 425
3 428 36 420
3 400 429 427
3 427 109 400
3 429 118 427
3 400 8 429
3 432 430 431
3 431 119 432
3 430 115 431
3 432 114 430
3 423 433 431
3 431 115 423
3 433 119 431
3 423 35 433
3 412 422 430
3 430 114 412
3 422 115 430
3 412 34 422
3 434 415 432
3 432 119 434
3 415 114 432
3 434 11 415
3 437 435 436
3 436 121 437
3 435 117 436
3 437 120 435
3 419 438 436
3 436 117 419
3 438 121 436
3 419 36 438
3 439 424 435
3 435 120 439
3 424 117 435
3 439 35 424
3 441 440 437
3 437 121 441
3 440 120 437
3 441 1 440
3 444 442 443
3 443 124 444
3 442 123 443
3 444 122 442
3 446 445 443
3 443 123 446
3 445 124 443
3 446 39 445
3 448 447 442
3 442 122 448
3 447 123 442
3 448 38 447
3 450 449 444
3 444 124 450
3 449 122 444
3 450 37 449
3 453 451 452
3 452 126 453
3 451 123 452
3 453 125 451
3 447 454 452
3 452 123 447
3 454 126 452
3 447 38 454
3 455 446 451
3 451 125 455
3 446 123 451
3 455 39 446
3 457 456 453
3 453 126 457
3 456 125 453
3 457 9 456
3 460 458 459
3 459 128 460
3 458 122 459
3 460 127 458
3 449 461 459
3 459 122 449
3 461 128 459
3 449 37 461
3 462 448 458
3 458 127 462
3 448 122 458
3 462 38 448
3 464 463 460
3 460 128 464
3 463 127 460
3 464 10 463
3 467 465 466
3 466 130 467
3 465 124 466
3 467 129 465
3 445 468 466
3 466 124 445
3 468 130 466
3 445 39 468
3 469 450 465
3 465 129 469
3 450 124 465
3 469 37 450
3 471 470 467
3 467 130 471
3 470 129 467
3 471 3 470
3 474 472 473
3 473 133 474
3 472 132 473
3 474 131 472
3 476 475 473
3 473 132 476
3 475 133 473
3 476 38 475
3 478 477 472
3 472 131 478
3 477 132 472
3 478 41 477
3 480 479 474
3 474 133 480
3 479 131 474
3 480 40 479
3 483 481 482
3 482 134 483
3 481 132 482
3 483 126 481
3 477 484 482
3 482 132 477
3 484 134 482
3 477 41 484
3 454 476 481
3 481 126 454
3 476 132 481
3 454 38 476
3 485 457 483
3 483 134 485
3 457 126 483
3 485 9 457
3 488 486 487
3 487 136 488
3 486 131 487
3 488 135 486
3 479 489 487
3 487 131 479
3 489 136 487
3 479 40 489
3 490 478 486
3 486 135 490
3 478 131 486
3 490 41 478
3 492 491 488
3 488 136 492
3 491 135 488
3 492 2 491
3 495 493 494
3 494 127 495
3 493 133 494
3 495 137 493
3 475 462 494
3 494 133 475
3 462 127 494
3 475 38 462
3 496 480 493
3 493 137 496
3 480 133 493
3 496 40 480
3 463 497 495
3 495 127 463
3 497 137 495
3 463 10 497
3 500 498 499
3 499 140 500
3 498 139 499
3 500 138 498
3 502 501 499
3 499 139 502
3 501 140 499
3 502 33 501
3 504 503 498
3 498 138 504
3 503 139 498
3 504 13 503
3 506 505 500
3 500 140 506
3 505 138 500
3 506 23 505
3 509 507 508
3 508 47 509
3 507 139 508
3 509 110 507
3 503 182 508
3 508 139 503
3 182 47 508
3 503 13 182
3 398 502 507
3 507 110 398
3 502 139 507
3 398 33 502
3 183 401 509
3 509 47 183
3 401 110 509
3 183 8 401
3 512 510 511
3 511 79 512
3 510 138 511
3 512 46 510
3 505 294 511
3 511 138 505
3 294 79 511
3 505 23 294
3 174 504 510
3 510 46 174
3 504 138 510
3 174 13 504
3 295 177 512
3 512 79 295
3 177 46 512
3 295 4 177
3 515 513 514
3 514 111 515
3 513 140 514
3 515 78 513
3 501 406 514
3 514 140 501
3 406 111 514
3 501 33 406
3 286 506 513
3 513 78 286
3 506 140 513
3 286 23 506
3 407 289 515
3 515 111 407
3 289 78 515
3 407 0 289
3 518 516 517
3 517 143 518
3 516 142 517
3 518 141 516
3 520 519 517
3 517 142 520
3 519 143 517
3 520 19 519
3 522 521 516
3 516 141 522
3 521 142 516
3 522 32 521
3 524 523 518
3 518 143 524
3 523 141 518
3 524 26 523
3 527 525 526
3 526 113 527
3 525 142 526
3 527 66 525
3 521 413 526
3 526 142 521
3 413 113 526
3 521 32 413
3 244 520 525
3 525 66 244
3 520 142 525
3 244 19 520
3 414 247 527
3 527 113 414
3 247 66 527
3 414 11 247
3 530 528 529
3 529 86 530
3 528 141 529
3 530 112 528
3 523 316 529
3 529 141 523
3 316 86 529
3 523 26 316
3 405 522 528
3 528 112 405
3 522 141 528
3 405 32 522
3 317 408 530
3 530 86 317
3 408 112 530
3 317 0 408
3 533 531 532
3 532 61 533
3 531 143 532
3 533 89 531
3 519 231 532
3 532 143 519
3 231 61 532
3 519 19 231
3 326 524 531
3 531 89 326
3 524 143 531
3 326 26 524
3 232 329 533
3 533 61 232
3 329 89 533
3 232 5 329
3 536 534 535
3 535 146 536
3 534 145 535
3 536 144 534
3 538 537 535
3 535 145 538
3 537 146 535
3 538 22 537
3 540 539 534
3 534 144 540
3 539 145 534
3 540 16 539
3 542 541 536
3 536 146 542
3 541 144 536
3 542 39 541
3 545 543 544
3 544 54 545
3 543 145 544
3 545 80 543
3 539 204 544
3 544 145 539
3 204 54 544
3 539 16 204
3 293 538 543
3 543 80 293
3 538 145 543
3 293 22 538
3 205 296 545
3 545 54 205
3 296 80 545
3 205 4 296
3 548 546 547
3 547 125 548
3 546 144 547
3 548 57 546
3 541 455 547
3 547 144 541
3 455 125 547
3 541 39 455
3 214 540 546
3 546 57 214
3 540 144 546
3 214 16 540
3 456 217 548
3 548 125 456
3 217 57 548
3 456 9 217
3 551 549 550
3 550 81 551
3 549 146 550
3 551 130 549
3 537 301 550
3 550 146 537
3 301 81 550
3 537 22 301
3 468 542 549
3 549 130 468
3 542 146 549
3 468 39 542
3 302 471 551
3 551 81 302
3 471 130 551
3 302 3 471
3 554 552 553
3 553 149 554
3 552 148 553
3 554 147 552
3 556 555 553
3 553 148 556
3 555 149 553
3 556 21 555
3 558 557 552
3 552 147 558
3 557 148 552
3 558 25 557
3 560 559 554
3 554 149 560
3 559 147 554
3 560 37 559
3 563 561 562
3 562 88 563
3 561 148 562
3 563 70 561
3 557 327 562
3 562 148 557
3 327 88 562
3 557 25 327
3 260 556 561
3 561 70 260
3 556 148 561
3 260 21 556
3 328 261 563
3 563 88 328
3 261 70 563
3 328 5 261
3 566 564 565
3 565 129 566
3 564 147 565
3 566 87 564
3 559 469 565
3 565 147 559
3 469 129 565
3 559 37 469
3 321 558 564
3 564 87 321
3 558 147 564
3 321 25 558
3 470 322 566
3 566 129 470
3 322 87 566
3 470 3 322
3 569 567 568
3 568 71 569
3 567 149 568
3 569 128 567
3 555 266 568
3 568 149 555
3 266 71 568
3 555 21 266
3 461 560 567
3 567 128 461
3 560 149 567
3 461 37 560
3 267 464 569
3 569 71 267
3 464 128 569
3 267 10 464
3 572 570 571
3 571 152 572
3 570 151 571
3 572 150 570
3 574 573 571
3 571 151 574
3 573 152 571
3 574 27 573
3 576 575 570
3 570 150 576
3 575 151 570
3 576 12 575
3 578 577 572
3 572 152 578
3 577 150 572
3 578 36 577
3 581 579 580
3 580 49 581
3 579 151 580
3 581 96 579
3 575 189 580
3 580 151 575
3 189 49 580
3 575 12 189
3 349 574 579
3 579 96 349
3 574 151 579
3 349 27 574
3 190 352 581
3 581 49 190
3 352 96 581
3 190 7 352
3 584 582 583
3 583 118 584
3 582 150 583
3 584 48 582
3 577 428 583
3 583 150 577
3 428 118 583
3 577 36 428
3 181 576 582
3 582 48 181
3 576 150 582
3 181 12 576
3 429 184 584
3 584 118 429
3 184 48 584
3 429 8 184
3 587 585 586
3 586 97 587
3 585 152 586
3 587 121 585
3 573 357 586
3 586 152 573
3 357 97 586
3 573 27 357
3 438 578 585
3 585 121 438
3 578 152 585
3 438 36 578
3 358 441 587
3 587 97 358
3 441 121 587
3 358 1 441
3 590 588 589
3 589 155 590
3 588 154 589
3 590 153 588
3 592 591 589
3 589 154 592
3 591 155 589
3 592 17 591
3 594 593 588
3 588 153 594
3 593 154 588
3 594 30 593
3 596 595 590
3 590 155 596
3 595 153 590
3 596 35 595
3 599 597 598
3 598 104 599
3 597 154 598
3 599 64 597
3 593 383 598
3 598 154 593
3 383 104 598
3 593 30 383
3 237 592 597
3 597 64 237
3 592 154 597
3 237 17 592
3 384 240 599
3 599 104 384
3 240 64 599
3 384 6 240
3 602 600 601
3 601 120 602
3 600 153 601
3 602 103 600
3 595 439 601
3 601 153 595
3 439 120 601
3 595 35 439
3 377 594 600
3 600 103 377
3 594 153 600
3 377 30 594
3 440 378 602
3 602 120 440
3 378 103 602
3 440 1 378
3 605 603 604
3 604 65 605
3 603 155 604
3 605 119 603
3 591 245 604
3 604 155 591
3 245 65 604
3 591 17 245
3 433 596 603
3 603 119 433
3 596 155 603
3 433 35 596
3 246 434 605
3 605 65 246
3 434 119 605
3 246 11 434
3 608 606 607
3 607 158 608
3 606 157 607
3 608 156 606
3 610 609 607
3 607 157 610
3 609 158 607
3 610 15 609
3 612 611 606
3 606 156 612
3 611 157 606
3 612 28 611
3 614 613 608
3 608 158 614
3 613 156 608
3 614 41 613
3 617 615 616
3 616 95 617
3 615 157 616
3 617 55 615
3 611 350 616
3 616 157 611
3 350 95 616
3 611 28 350
3 209 610 615
3 615 55 209
3 610 157 615
3 209 15 610
3 351 210 617
3 617 95 351
3 210 55 617
3 351 7 210
3 620 618 619
3 619 135 620
3 618 156 619
3 620 94 618
3 613 490 619
3 619 156 613
3 490 135 619
3 613 41 490
3 342 612 618
3 618 94 342
3 612 156 618
3 342 28 612
3 491 345 620
3 620 135 491
3 345 94 620
3 491 2 345
3 623 621 622
3 622 56 623
3 621 158 622
3 623 134 621
3 609 215 622
3 622 158 609
3 215 56 622
3 609 15 215
3 484 614 621
3 621 134 484
3 614 158 621
3 484 41 614
3 216 485 623
3 623 56 216
3 485 134 623
3 216 9 485
3 626 624 625
3 625 161 626
3 624 160 625
3 626 159 624
3 628 627 625
3 625 160 628
3 627 161 625
3 628 31 627
3 630 629 624
3 624 159 630
3 629 160 624
3 630 20 629
3 632 631 626
3 626 161 632
3 631 159 626
3 632 40 631
3 635 633 634
3 634 73 635
3 633 160 634
3 635 105 633
3 629 272 634
3 634 160 629
3 272 73 634
3 629 20 272
3 382 628 633
3 633 105 382
3 628 160 633
3 382 31 628
3 273 385 635
3 635 73 273
3 385 105 635
3 273 6 385
3 638 636 637
3 637 137 638
3 636 159 637
3 638 72 636
3 631 496 637
3 637 159 631
3 496 137 637
3 631 40 496
3 265 630 636
3 636 72 265
3 630 159 636
3 265 20 630
3 497 268 638
3 638 137 497
3 268 72 638
3 497 10 268
3 641 639 640
3 640 102 641
3 639 161 640
3 641 136 639
3 627 372 640
3 640 161 627
3 372 102 640
3 627 31 372
3 489 632 639
3 639 136 489
3 632 161 639
3 489 40 632
3 373 492 641
3 641 102 373
3 492 136 641
3 373 2 492
