# vtk DataFile Version 3.0
this file was written using fslvtkio
ASCII
DATASET POLYDATA
POINTS 642 float
77.7697 126.15 175.988
70.4777 134.425 174.226
66.0003 117.132 169.615
72.4951 110.98 172.681
74.4955 115.342 183.279
74.8072 124.031 169.102
71.5804 126.633 166.25
68.4576 121.411 179.949
75.0694 133.393 182.396
68.1055 105.6 174.413
67.8917 107.91 161.883
81.4136 137.7 170.547
71.177 128.294 183.444
74.8402 124.555 184.76
70.5364 117.102 183.843
67.6901 112.765 178.328
71.4304 107.382 181.406
77.6043 134.489 167.466
73.7511 125.413 166.874
83.5205 130.437 166.264
68.262 114.937 161.38
71.1702 114.008 164.609
74.1786 111.023 178.08
77.0566 120.903 180.309
74.5296 119.183 174.85
71.5688 115.863 169.878
78.024 126.514 171.345
69.1026 129.029 177.936
66.6451 118.536 174.922
68.048 126.19 171.731
72.1006 132.849 169.568
67.5989 120.546 166.469
82.2556 132.391 172.621
77.6403 130.449 179.368
78.4137 138.718 176.825
75.5671 140.045 172.826
72.6055 137.277 179.407
70.5096 106.17 167.422
66.8379 102.357 166.105
70.8234 103.617 173.204
66.2929 110.262 164.68
66.3436 109.757 171.046
72.8385 126.67 185.342
72.7054 121.02 185.569
70.9379 122.759 184.034
72.5115 115.795 184.666
74.9122 120.008 184.247
74.9675 129.215 183.834
72.8638 131.852 184.273
69.837 125.006 181.728
69.2544 119.648 182.226
68.9794 114.936 181.413
70.6875 112.05 183.321
69.2962 110.094 180.378
73.2439 111.077 182.995
67.8458 117.044 179.244
67.9162 109.187 176.631
69.342 106.293 178.42
76.6904 130.575 166.098
79.0171 128.887 165.98
80.6343 132.822 166.189
79.5918 127.643 167.589
74.2192 125.063 168.154
72.8871 125.892 165.829
74.6282 131.072 167.159
79.7926 136.474 168.688
83.7054 134.03 167.949
70.2678 114.851 161.947
71.2309 118.637 166.024
70.4021 119.307 165.138
71.7033 119.032 167.419
69.7237 110.983 162.758
67.4082 111.966 159.844
70.0549 121.001 165.444
75.7371 115.923 179.365
76.3561 119.23 177.421
74.7679 114.955 176.554
75.9728 122.759 175.59
77.551 123.399 178.293
76.0927 118.316 182.182
74.852 113.038 181.013
73.8131 111.168 175.207
73.1787 115.332 174.107
72.874 118.455 172.491
75.1428 123.372 173.407
74.1178 121.959 171.186
77.9647 126.856 173.539
71.7985 113.792 171.467
72.5308 120.325 169.597
76.9145 125.628 169.987
67.7199 123.784 176.417
67.0544 122.737 173.58
68.2623 127.451 174.953
66.6426 121.83 170.606
66.3254 118.175 172.274
67.4287 120.176 177.542
68.8574 125.402 179.044
69.46 131.903 176.208
69.1878 130.434 173.046
69.7708 129.554 170.551
67.8014 123.816 168.933
69.6943 126.964 168.354
66.3217 119.013 167.818
71.3059 134.099 171.763
71.9168 129.76 167.942
69.4209 123.961 166.33
79.7926 132.114 175.952
78.2142 134.824 177.774
80.6709 135.998 174.589
76.2146 136.447 179.484
76.3117 132.101 180.702
78.4616 128.124 177.672
80.0145 129.427 174.54
83.0592 135.144 171.467
80.3865 139.495 173.884
77.3859 141.644 175.531
75.5611 139.667 179.009
73.94 139.89 176.271
73.7383 135.879 181.642
78.4544 140.09 171.553
72.8166 137.591 173.74
71.5863 135.902 176.838
69.1194 102.276 165.826
68.798 100.134 169.718
70.7532 103.67 169.932
69.2838 103.14 174.585
67.6613 103.451 170.463
66.943 103.975 163.001
69.4963 107.167 164.673
71.2644 108.826 170.408
72.1188 107.16 173.082
66.0848 109.67 167.788
66.409 105.544 168.82
65.976 105.79 164.808
66.8273 107.564 172.878
66.1292 113.605 170.547
66.2976 113.808 167.385
65.9643 109.426 161.685
76.4128 122.924 182.789
76.4152 127.683 182.342
77.5459 126.003 180.183
81.3543 129.218 172.056
84.1796 130.973 169.706
81.5452 128.324 168.973
71.4581 105.187 177.756
73.3817 108.8 180.042
72.7682 107.272 175.894
70.6782 111.006 169.023
71.1041 115.376 167.591
70.6388 110.325 166.099
71.6207 133.067 181.688
70.1522 129.002 180.766
70.7083 133.322 178.964
73.7683 136.834 171.055
74.5285 133.927 168.474
76.7984 137.671 169.784
66.2903 114.219 173.155
66.9136 115.57 176.612
66.9548 111.313 174.623
66.8 113.207 162.667
68.3002 117.832 164.58
66.5329 115.419 165.447
72.7042 123.851 185.699
71.7392 121.993 184.981
71.6976 124.814 185.112
70.7096 120.017 184.022
71.5098 119.3 184.858
73.7754 122.758 185.385
73.8472 125.386 185.297
71.8231 127.234 184.596
70.9523 125.344 184.011
72.6024 118.627 185.2
73.8932 120.411 185.063
73.686 117.859 184.742
74.8398 122.332 184.645
71.5106 116.763 184.576
73.5911 115.438 184.072
74.6271 117.695 183.901
74.0371 127.875 184.955
72.7939 129.088 184.75
73.9807 130.243 184.573
71.9714 130.133 183.851
75.0477 126.918 184.53
74.951 131.276 183.366
74.1552 132.371 183.742
70.4161 124.103 182.904
70.0198 121.365 183.252
69.5769 122.363 182.001
69.942 118.424 183.03
70.5854 126.5 182.782
69.0836 123.132 180.923
68.8713 120.583 181.132
69.7579 113.459 182.47
69.9271 110.893 182.005
69.0052 112.346 181.145
70.2431 108.655 181.083
71.0269 109.621 182.606
70.5247 114.503 183.611
69.7156 115.919 182.71
68.3748 113.688 180.084
68.4697 111.65 179.567
71.8183 111.448 183.64
71.4945 114.158 184.223
72.8563 113.329 184.009
72.2303 109.394 182.692
73.7973 113.182 183.244
69.071 117.401 181.947
68.4398 115.99 180.381
68.4905 118.458 180.75
67.8075 114.765 178.941
68.0957 119.312 179.664
68.5438 109.923 178.588
69.3329 108.23 179.494
68.5286 107.912 177.626
70.2844 106.565 180.004
67.8982 111.028 177.616
67.9528 107.282 175.822
68.6437 106.232 176.558
77.4301 129.198 165.811
79.8704 130.748 165.677
78.4762 131.555 166.003
81.9705 131.769 165.817
81.3987 129.864 165.633
76.4622 127.592 166.432
75.7042 127.998 166.065
77.4096 132.689 166.574
79.1708 133.553 166.616
79.8414 128.44 166.53
76.945 127.117 166.933
77.3158 126.755 167.678
74.0968 125.294 167.514
81.9912 128.928 166.642
76.905 126.224 168.439
74.6179 124.659 168.503
74.8374 128.336 166.052
75.8575 131.108 166.56
74.0284 128.836 166.022
76.022 133.133 167.217
73.4785 125.672 166.044
72.3832 126.289 165.921
72.9099 128.804 166.327
80.5714 134.646 167.104
82.3257 133.694 166.589
81.7407 135.235 167.825
84.0776 132.36 166.623
78.8668 135.423 167.85
80.8697 136.996 169.337
82.6324 135.751 168.993
70.5626 116.644 164.514
70.9171 119.799 166.264
69.887 116.716 163.902
71.9328 122.168 166.187
72.3639 122.24 166.796
71.2935 115.982 164.728
70.8547 114.68 163.117
69.3198 114.862 161.282
69.3666 116.677 163.37
72.5095 121.81 167.272
71.4272 117.998 166.358
72.7193 121.377 167.731
71.3262 115.812 166.085
73.2332 122.072 168.524
70.2127 112.905 161.893
69.251 113.354 160.339
68.8035 111.559 161.187
67.6219 113.623 159.6
70.7198 112.551 163.412
68.8298 109.457 161.982
67.6632 110.057 160.694
70.2395 119.753 165.06
71.9148 122.964 165.844
71.4016 123.403 165.558
69.1523 117.31 164.012
70.9368 124.064 165.808
76.1827 117.633 178.42
75.4464 117.245 177.061
75.2753 115.42 177.929
74.6936 117.152 175.921
75.4301 118.889 176.15
76.8016 119.749 178.909
76.5044 118.342 179.819
75.0704 113.607 178.709
74.7491 113.091 177.396
76.2408 120.73 176.494
76.8835 121.231 178.001
76.7725 122.648 176.948
77.2613 122.222 179.332
75.3446 120.834 175.328
77.0267 124.184 175.881
77.6646 124.481 177.049
76.1225 117.122 180.758
75.2767 114.511 180.111
75.2935 115.768 181.523
74.6185 112.152 179.509
76.5965 119.51 181.146
75.2979 117.046 182.867
74.6821 114.229 182.3
74.3927 112.986 176.015
74.0363 115.257 175.325
73.621 113.196 174.695
73.8698 117.266 174.655
74.0798 111.081 176.67
73.1688 111.302 173.905
72.8184 113.3 173.495
73.9998 120.843 173.212
74.456 122.826 172.41
73.3525 120.24 171.939
75.6489 124.14 171.582
76.2757 124.803 172.323
74.5926 121.161 174.207
73.748 119.036 173.676
72.2952 117.793 171.205
72.7571 119.358 170.866
76.643 125.091 173.421
75.4081 123.022 174.528
76.7068 124.786 174.679
78.0161 126.654 172.364
77.7259 126.437 174.811
72.98 117.078 173.512
72.1664 116.423 172.083
72.4773 114.734 172.777
71.7011 115.246 170.784
72.0923 112.375 172.194
73.298 121.179 170.447
75.2593 124.001 170.807
74.6103 123.219 170.045
77.509 126.032 170.65
72.0548 117.914 169.7
73.6454 122.081 169.339
75.8397 125.044 169.451
67.3376 123.303 175.015
67.6429 125.113 174.158
67.9956 125.743 175.677
67.9476 126.703 173.408
67.5007 124.677 172.728
66.7479 120.869 174.477
67.0813 121.38 175.65
68.4476 126.303 177.038
68.5802 128.043 176.506
66.7379 122.513 172.185
66.3923 120.485 173.078
66.1062 120.258 171.553
66.3844 118.525 173.702
67.3346 124.001 171.325
66.098 119.677 170.137
66.0512 117.944 170.938
67.419 122.062 176.982
68.4064 124.657 177.699
68.0248 122.911 178.317
68.9178 127.227 178.424
66.9913 119.46 176.204
67.8319 120.992 178.817
68.6389 123.453 179.609
68.7016 129.65 175.754
68.4402 128.913 174.023
69.1849 131.076 174.652
68.5452 128.23 172.609
69.254 130.533 177.186
69.8812 133.133 175.189
69.8618 132.394 173.649
68.6182 126.742 169.918
68.6283 125.415 168.717
69.7399 128.243 169.586
68.5415 124.048 167.511
67.7089 122.606 167.553
67.9495 125.219 170.28
68.7804 127.891 171.149
70.8711 131.065 169.943
70.6456 129.647 168.985
66.9122 121.661 168.252
67.2055 123.123 169.928
66.3711 120.675 169.172
66.9766 119.847 167.109
66.0334 118.112 168.735
69.2979 129.873 171.806
70.5305 131.75 171.168
70.1645 132.226 172.326
71.6644 133.354 170.637
70.8709 134.211 172.997
70.6258 128.614 168.052
69.4029 125.443 167.237
70.4594 126.964 166.887
68.4514 122.271 166.408
71.8909 131.363 168.666
71.6257 128.192 166.79
70.5394 125.304 166.304
79.1797 133.425 177.083
79.3154 135.362 176.122
80.3417 133.988 175.37
79.5425 137.285 175.663
78.2916 136.683 177.051
78.1147 132.844 178.422
78.6101 131.712 177.683
80.9728 132.821 174.267
81.4891 134.4 173.783
77.2395 135.852 178.455
77.2172 133.626 179.204
76.2425 134.274 180.102
77.1108 131.499 179.919
77.3394 137.81 178.157
75.448 134.937 180.986
75.6797 132.567 181.718
79.0041 130.325 176.941
79.9522 130.772 175.319
79.0441 128.615 176.127
81.1373 131.267 173.919
78.2784 129.646 178.389
78.2549 126.825 176.891
78.8223 127.795 175.205
82.1133 135.79 173.198
80.6829 137.649 174.213
81.8182 137.332 172.467
79.4088 139.201 175.45
82.7931 133.708 172.09
82.6213 136.547 170.753
81.0668 139.008 172.109
76.5267 141.258 177.488
74.8058 140.536 177.741
75.4913 141.344 176.067
73.4373 138.989 177.919
73.9743 138.866 179.332
76.9176 139.467 177.987
78.0192 140.396 176.616
76.2084 141.255 174.349
74.7342 140.435 174.702
74.5512 138.041 180.434
75.9446 138 179.251
75.038 136.276 180.803
73.2447 136.965 180.604
74.4408 134.586 182.503
78.9103 140.729 175.085
77.8007 141.36 173.638
79.541 140.302 172.9
77.0197 140.435 172.431
79.9776 139.162 170.947
73.319 138.905 174.999
72.6252 138.145 176.718
71.9446 136.888 175.317
72.2602 137.166 178.067
74.0346 139.256 173.346
71.5472 136.048 173.994
70.8862 135.124 175.523
69.1226 100.521 167.381
70.2073 101.395 169.4
70.0675 102.375 167.935
70.812 102.981 171.321
70.198 101.015 171.262
67.6304 100.83 167.835
67.7574 101.305 165.423
69.8604 103.973 166.585
70.6063 104.452 168.371
69.037 101.231 171.97
68.0431 101.752 169.984
68.4814 103.062 172.501
67.255 102.624 168.196
70.1424 102.752 173.595
68.6677 104.414 174.545
67.7782 104.499 172.457
68.1789 103.04 164.416
69.2222 104.875 165.168
68.3448 105.505 163.615
69.965 106.348 166.061
66.4865 102.378 163.946
67.4033 106.053 162.092
68.9044 107.687 163.259
71.1245 105.893 169.946
71.438 105.275 171.483
71.7059 107.588 171.492
71.4026 105.179 172.952
70.9076 106.885 168.935
71.7889 110.03 171.612
72.662 109.079 172.81
66.054 107.208 167.97
66.3055 105.416 166.643
65.9197 107.551 166.393
66.1796 103.747 165.191
66.7391 103.915 167.533
66.2034 107.561 169.724
66.2134 109.343 169.226
66.0865 109.749 166.263
66.0429 107.99 164.727
67.0403 104.492 169.743
66.4309 106.698 170.839
66.943 105.589 172.015
66.3859 108.505 171.766
67.4689 106.611 173.853
66.3428 111.536 169.21
66.1333 111.675 167.607
66.1645 113.749 168.98
66.3417 111.833 166.149
66.4138 111.385 170.617
66.0504 115.53 170.245
66.0739 115.565 168.539
65.9568 107.383 163.214
65.954 104.596 163.725
66.0826 106.214 161.938
66.1161 109.525 163.201
66.574 108.283 160.878
76.239 125.382 182.504
77.0024 126.81 181.222
76.8802 124.455 181.438
77.672 128.276 179.8
77.0136 129.013 180.836
75.7085 126.108 183.593
75.7198 123.897 183.78
76.9272 122.255 181.537
77.2331 123.529 180.461
76.4301 129.943 181.388
75.7264 128.36 183.131
75.7317 130.686 182.34
75.8134 121.764 183.692
76.4084 120.785 182.364
75.5957 119.312 183.255
77.7864 124.557 179.353
77.9459 127.166 178.921
77.8912 125.728 178.057
82.7369 129.561 171.069
83.2638 129.22 169.222
80.9571 128.569 170.569
82.9924 128.727 167.549
84.2937 130.647 167.81
83.4763 131.301 171.343
82.0007 130.8 172.533
79.6094 127.868 171.393
79.7204 127.609 170.162
84.4003 132.418 168.606
83.6367 132.896 170.808
83.4373 134.547 169.776
80.8148 129.558 173.313
79.5611 128.032 172.578
79.2313 127.963 173.889
78.9767 127.105 169.554
80.7357 128.048 168.115
77.8388 126.582 168.915
72.6328 106.784 179.114
73.0954 108.165 177.927
72.0304 106.225 176.739
73.5317 109.064 176.995
73.7592 109.871 178.974
72.619 107.887 181.123
71.5806 105.626 179.969
71.0578 104.452 175.417
71.7495 105.447 174.708
74.0685 110.908 180.395
73.3622 109.698 181.663
74.1016 112.137 181.977
70.181 105.075 178.62
70.3191 103.898 176.086
69.2563 104.712 176.546
72.486 107.094 174.454
73.6357 109.212 175.574
73.173 109.293 174.145
70.6856 113.094 168.167
70.7545 112.51 166.944
70.5816 110.351 167.627
70.8158 112.387 165.317
70.9773 114.348 166.372
71.1719 115.801 168.696
71.0404 113.489 169.383
70.7609 108.386 168.309
70.4509 108.194 166.7
71.3821 117.354 167.525
71.7275 118.223 168.817
72.2803 120.477 168.61
71.2931 113.013 170.31
70.9775 110.028 169.719
71.4731 111.556 171.068
70.4162 108.819 165.203
70.4429 111.189 164.462
69.8694 109.206 163.482
70.6093 131.2 181.419
70.2547 131.138 179.89
71.105 133.314 180.322
69.8302 131.247 178.556
69.6383 129.281 179.353
70.6342 128.806 182.138
71.2577 130.791 182.687
72.0602 135.228 180.687
71.6864 135.351 179.245
69.466 127.38 179.814
69.9102 127.154 181.444
69.4239 125.209 180.341
72.112 132.486 183.03
72.5457 134.839 181.918
73.2541 133.926 183.279
71.1735 134.936 178.036
70.0374 132.674 177.612
70.3764 133.982 176.591
74.0599 135.636 169.401
75.5435 136.192 168.986
75.1714 137.363 170.456
77.0955 136.112 168.538
75.9756 134.593 168.167
73.24 133.411 168.928
72.887 134.996 170.149
74.6448 138.695 171.81
76.1588 139.043 171.108
74.5341 132.412 167.674
72.9946 131.763 168.076
73.0598 129.972 167.504
72.309 135.484 171.274
73.4924 137.417 172.368
71.8656 136.129 172.654
77.5529 139.183 170.609
78.1318 137.062 169.162
79.2073 138.228 169.986
66.5893 114.901 174.888
66.7953 113.452 175.747
66.6537 112.756 173.857
67.309 112.104 176.437
67.2737 114.137 177.367
66.5775 116.896 175.721
66.388 116.283 174.181
66.445 112.086 172.162
66.5645 110.558 172.795
67.2789 116.24 177.972
67.0452 117.909 176.881
67.5664 118.711 178.358
66.3164 116.379 172.926
66.1898 113.867 171.825
66.1719 116.076 171.548
66.8045 109.427 173.695
67.3693 110.32 175.688
67.2198 108.317 174.875
67.5005 115.422 163.559
67.2202 116.88 164.878
66.681 114.098 164.224
66.9371 117.96 165.836
68.0511 119.227 165.567
68.2912 116.1 163.175
67.4608 114.235 161.818
66.5622 111.622 163.623
66.4323 112.709 165.1
68.8286 121.064 165.843
69.1149 119.283 165.026
69.8951 122.683 165.903
66.6659 113.017 160.863
66.5296 111.321 162.297
66.031 110.578 160.188
66.5098 114.478 166.405
66.4474 117.37 166.628
66.0241 116.469 167.574
POLYGONS 1280  5120
3 164 162 163
3 163 44 164
3 162 43 163
3 164 42 162
3 166 165 163
3 163 43 166
3 165 44 163
3 166 14 165
3 168 167 162
3 162 42 168
3 167 43 162
3 168 13 167
3 170 169 164
3 164 44 170
3 169 42 164
3 170 12 169
3 173 171 172
3 172 46 173
3 171 43 172
3 173 45 171
3 167 174 172
3 172 43 167
3 174 46 172
3 167 13 174
3 175 166 171
3 171 45 175
3 166 43 171
3 175 14 166
3 177 176 173
3 173 46 177
3 176 45 173
3 177 4 176
3 180 178 179
3 179 48 180
3 178 42 179
3 180 47 178
3 169 181 179
3 179 42 169
3 181 48 179
3 169 12 181
3 182 168 178
3 178 47 182
3 168 42 178
3 182 13 168
3 184 183 180
3 180 48 184
3 183 47 180
3 184 8 183
3 187 185 186
3 186 50 187
3 185 44 186
3 187 49 185
3 165 188 186
3 186 44 165
3 188 50 186
3 165 14 188
3 189 170 185
3 185 49 189
3 170 44 185
3 189 12 170
3 191 190 187
3 187 50 191
3 190 49 187
3 191 7 190
3 194 192 193
3 193 53 194
3 192 52 193
3 194 51 192
3 196 195 193
3 193 52 196
3 195 53 193
3 196 16 195
3 198 197 192
3 192 51 198
3 197 52 192
3 198 14 197
3 200 199 194
3 194 53 200
3 199 51 194
3 200 15 199
3 203 201 202
3 202 45 203
3 201 52 202
3 203 54 201
3 197 175 202
3 202 52 197
3 175 45 202
3 197 14 175
3 204 196 201
3 201 54 204
3 196 52 201
3 204 16 196
3 176 205 203
3 203 45 176
3 205 54 203
3 176 4 205
3 208 206 207
3 207 55 208
3 206 51 207
3 208 50 206
3 199 209 207
3 207 51 199
3 209 55 207
3 199 15 209
3 188 198 206
3 206 50 188
3 198 51 206
3 188 14 198
3 210 191 208
3 208 55 210
3 191 50 208
3 210 7 191
3 213 211 212
3 212 57 213
3 211 53 212
3 213 56 211
3 195 214 212
3 212 53 195
3 214 57 212
3 195 16 214
3 215 200 211
3 211 56 215
3 200 53 211
3 215 15 200
3 217 216 213
3 213 57 217
3 216 56 213
3 217 9 216
3 220 218 219
3 219 60 220
3 218 59 219
3 220 58 218
3 222 221 219
3 219 59 222
3 221 60 219
3 222 19 221
3 224 223 218
3 218 58 224
3 223 59 218
3 224 18 223
3 226 225 220
3 220 60 226
3 225 58 220
3 226 17 225
3 229 227 228
3 228 62 229
3 227 59 228
3 229 61 227
3 223 230 228
3 228 59 223
3 230 62 228
3 223 18 230
3 231 222 227
3 227 61 231
3 222 59 227
3 231 19 222
3 233 232 229
3 229 62 233
3 232 61 229
3 233 5 232
3 236 234 235
3 235 64 236
3 234 58 235
3 236 63 234
3 225 237 235
3 235 58 225
3 237 64 235
3 225 17 237
3 238 224 234
3 234 63 238
3 224 58 234
3 238 18 224
3 240 239 236
3 236 64 240
3 239 63 236
3 240 6 239
3 243 241 242
3 242 66 243
3 241 60 242
3 243 65 241
3 221 244 242
3 242 60 221
3 244 66 242
3 221 19 244
3 245 226 241
3 241 65 245
3 226 60 241
3 245 17 226
3 247 246 243
3 243 66 247
3 246 65 243
3 247 11 246
3 250 248 249
3 249 69 250
3 248 68 249
3 250 67 248
3 252 251 249
3 249 68 252
3 251 69 249
3 252 18 251
3 254 253 248
3 248 67 254
3 253 68 248
3 254 21 253
3 256 255 250
3 250 69 256
3 255 67 250
3 256 20 255
3 259 257 258
3 258 70 259
3 257 68 258
3 259 62 257
3 253 260 258
3 258 68 253
3 260 70 258
3 253 21 260
3 230 252 257
3 257 62 230
3 252 68 257
3 230 18 252
3 261 233 259
3 259 70 261
3 233 62 259
3 261 5 233
3 264 262 263
3 263 72 264
3 262 67 263
3 264 71 262
3 255 265 263
3 263 67 255
3 265 72 263
3 255 20 265
3 266 254 262
3 262 71 266
3 254 67 262
3 266 21 254
3 268 267 264
3 264 72 268
3 267 71 264
3 268 10 267
3 271 269 270
3 270 63 271
3 269 69 270
3 271 73 269
3 251 238 270
3 270 69 251
3 238 63 270
3 251 18 238
3 272 256 269
3 269 73 272
3 256 69 269
3 272 20 256
3 239 273 271
3 271 63 239
3 273 73 271
3 239 6 273
3 276 274 275
3 275 76 276
3 274 75 275
3 276 74 274
3 278 277 275
3 275 75 278
3 277 76 275
3 278 24 277
3 280 279 274
3 274 74 280
3 279 75 274
3 280 23 279
3 282 281 276
3 276 76 282
3 281 74 276
3 282 22 281
3 285 283 284
3 284 78 285
3 283 75 284
3 285 77 283
3 279 286 284
3 284 75 279
3 286 78 284
3 279 23 286
3 287 278 283
3 283 77 287
3 278 75 283
3 287 24 278
3 289 288 285
3 285 78 289
3 288 77 285
3 289 0 288
3 292 290 291
3 291 80 292
3 290 74 291
3 292 79 290
3 281 293 291
3 291 74 281
3 293 80 291
3 281 22 293
3 294 280 290
3 290 79 294
3 280 74 290
3 294 23 280
3 296 295 292
3 292 80 296
3 295 79 292
3 296 4 295
3 299 297 298
3 298 82 299
3 297 76 298
3 299 81 297
3 277 300 298
3 298 76 277
3 300 82 298
3 277 24 300
3 301 282 297
3 297 81 301
3 282 76 297
3 301 22 282
3 303 302 299
3 299 82 303
3 302 81 299
3 303 3 302
3 306 304 305
3 305 85 306
3 304 84 305
3 306 83 304
3 308 307 305
3 305 84 308
3 307 85 305
3 308 26 307
3 310 309 304
3 304 83 310
3 309 84 304
3 310 24 309
3 312 311 306
3 306 85 312
3 311 83 306
3 312 25 311
3 315 313 314
3 314 77 315
3 313 84 314
3 315 86 313
3 309 287 314
3 314 84 309
3 287 77 314
3 309 24 287
3 316 308 313
3 313 86 316
3 308 84 313
3 316 26 308
3 288 317 315
3 315 77 288
3 317 86 315
3 288 0 317
3 320 318 319
3 319 87 320
3 318 83 319
3 320 82 318
3 311 321 319
3 319 83 311
3 321 87 319
3 311 25 321
3 300 310 318
3 318 82 300
3 310 83 318
3 300 24 310
3 322 303 320
3 320 87 322
3 303 82 320
3 322 3 303
3 325 323 324
3 324 89 325
3 323 85 324
3 325 88 323
3 307 326 324
3 324 85 307
3 326 89 324
3 307 26 326
3 327 312 323
3 323 88 327
3 312 85 323
3 327 25 312
3 329 328 325
3 325 89 329
3 328 88 325
3 329 5 328
3 332 330 331
3 331 92 332
3 330 91 331
3 332 90 330
3 334 333 331
3 331 91 334
3 333 92 331
3 334 29 333
3 336 335 330
3 330 90 336
3 335 91 330
3 336 28 335
3 338 337 332
3 332 92 338
3 337 90 332
3 338 27 337
3 341 339 340
3 340 94 341
3 339 91 340
3 341 93 339
3 335 342 340
3 340 91 335
3 342 94 340
3 335 28 342
3 343 334 339
3 339 93 343
3 334 91 339
3 343 29 334
3 345 344 341
3 341 94 345
3 344 93 341
3 345 2 344
3 348 346 347
3 347 96 348
3 346 90 347
3 348 95 346
3 337 349 347
3 347 90 337
3 349 96 347
3 337 27 349
3 350 336 346
3 346 95 350
3 336 90 346
3 350 28 336
3 352 351 348
3 348 96 352
3 351 95 348
3 352 7 351
3 355 353 354
3 354 98 355
3 353 92 354
3 355 97 353
3 333 356 354
3 354 92 333
3 356 98 354
3 333 29 356
3 357 338 353
3 353 97 357
3 338 92 353
3 357 27 338
3 359 358 355
3 355 98 359
3 358 97 355
3 359 1 358
3 362 360 361
3 361 101 362
3 360 100 361
3 362 99 360
3 364 363 361
3 361 100 364
3 363 101 361
3 364 31 363
3 366 365 360
3 360 99 366
3 365 100 360
3 366 29 365
3 368 367 362
3 362 101 368
3 367 99 362
3 368 30 367
3 371 369 370
3 370 93 371
3 369 100 370
3 371 102 369
3 365 343 370
3 370 100 365
3 343 93 370
3 365 29 343
3 372 364 369
3 369 102 372
3 364 100 369
3 372 31 364
3 344 373 371
3 371 93 344
3 373 102 371
3 344 2 373
3 376 374 375
3 375 103 376
3 374 99 375
3 376 98 374
3 367 377 375
3 375 99 367
3 377 103 375
3 367 30 377
3 356 366 374
3 374 98 356
3 366 99 374
3 356 29 366
3 378 359 376
3 376 103 378
3 359 98 376
3 378 1 359
3 381 379 380
3 380 105 381
3 379 101 380
3 381 104 379
3 363 382 380
3 380 101 363
3 382 105 380
3 363 31 382
3 383 368 379
3 379 104 383
3 368 101 379
3 383 30 368
3 385 384 381
3 381 105 385
3 384 104 381
3 385 6 384
3 388 386 387
3 387 108 388
3 386 107 387
3 388 106 386
3 390 389 387
3 387 107 390
3 389 108 387
3 390 34 389
3 392 391 386
3 386 106 392
3 391 107 386
3 392 33 391
3 394 393 388
3 388 108 394
3 393 106 388
3 394 32 393
3 397 395 396
3 396 110 397
3 395 107 396
3 397 109 395
3 391 398 396
3 396 107 391
3 398 110 396
3 391 33 398
3 399 390 395
3 395 109 399
3 390 107 395
3 399 34 390
3 401 400 397
3 397 110 401
3 400 109 397
3 401 8 400
3 404 402 403
3 403 112 404
3 402 106 403
3 404 111 402
3 393 405 403
3 403 106 393
3 405 112 403
3 393 32 405
3 406 392 402
3 402 111 406
3 392 106 402
3 406 33 392
3 408 407 404
3 404 112 408
3 407 111 404
3 408 0 407
3 411 409 410
3 410 114 411
3 409 108 410
3 411 113 409
3 389 412 410
3 410 108 389
3 412 114 410
3 389 34 412
3 413 394 409
3 409 113 413
3 394 108 409
3 413 32 394
3 415 414 411
3 411 114 415
3 414 113 411
3 415 11 414
3 418 416 417
3 417 117 418
3 416 116 417
3 418 115 416
3 420 419 417
3 417 116 420
3 419 117 417
3 420 36 419
3 422 421 416
3 416 115 422
3 421 116 416
3 422 34 421
3 424 423 418
3 418 117 424
3 423 115 418
3 424 35 423
3 427 425 426
3 426 109 427
3 425 116 426
3 427 118 425
3 421 399 426
3 426 116 421
3 399 109 426
3 421 34 399
3 428 420 425
3 425 118 428
3 420 116 425
3 428 36 420
3 400 429 427
3 427 109 400
3 429 118 427
3 400 8 429
3 432 430 431
3 431 119 432
3 430 115 431
3 432 114 430
3 423 433 431
3 431 115 423
3 433 119 431
3 423 35 433
3 412 422 430
3 430 114 412
3 422 115 430
3 412 34 422
3 434 415 432
3 432 119 434
3 415 114 432
3 434 11 415
3 437 435 436
3 436 121 437
3 435 117 436
3 437 120 435
3 419 438 436
3 436 117 419
3 438 121 436
3 419 36 438
3 439 424 435
3 435 120 439
3 424 117 435
3 439 35 424
3 441 440 437
3 437 121 441
3 440 120 437
3 441 1 440
3 444 442 443
3 443 124 444
3 442 123 443
3 444 122 442
3 446 445 443
3 443 123 446
3 445 124 443
3 446 39 445
3 448 447 442
3 442 122 448
3 447 123 442
3 448 38 447
3 450 449 444
3 444 124 450
3 449 122 444
3 450 37 449
3 453 451 452
3 452 126 453
3 451 123 452
3 453 125 451
3 447 454 452
3 452 123 447
3 454 126 452
3 447 38 454
3 455 446 451
3 451 125 455
3 446 123 451
3 455 39 446
3 457 456 453
3 453 126 457
3 456 125 453
3 457 9 456
3 460 458 459
3 459 128 460
3 458 122 459
3 460 127 458
3 449 461 459
3 459 122 449
3 461 128 459
3 449 37 461
3 462 448 458
3 458 127 462
3 448 122 458
3 462 38 448
3 464 463 460
3 460 128 464
3 463 127 460
3 464 10 463
3 467 465 466
3 466 130 467
3 465 124 466
3 467 129 465
3 445 468 466
3 466 124 445
3 468 130 466
3 445 39 468
3 469 450 465
3 465 129 469
3 450 124 465
3 469 37 450
3 471 470 467
3 467 130 471
3 470 129 467
3 471 3 470
3 474 472 473
3 473 133 474
3 472 132 473
3 474 131 472
3 476 475 473
3 473 132 476
3 475 133 473
3 476 38 475
3 478 477 472
3 472 131 478
3 477 132 472
3 478 41 477
3 480 479 474
3 474 133 480
3 479 131 474
3 480 40 479
3 483 481 482
3 482 134 483
3 481 132 482
3 483 126 481
3 477 484 482
3 482 132 477
3 484 134 482
3 477 41 484
3 454 476 481
3 481 126 454
3 476 132 481
3 454 38 476
3 485 457 483
3 483 134 485
3 457 126 483
3 485 9 457
3 488 486 487
3 487 136 488
3 486 131 487
3 488 135 486
3 479 489 487
3 487 131 479
3 489 136 487
3 479 40 489
3 490 478 486
3 486 135 490
3 478 131 486
3 490 41 478
3 492 491 488
3 488 136 492
3 491 135 488
3 492 2 491
3 495 493 494
3 494 127 495
3 493 133 494
3 495 137 493
3 475 462 494
3 494 133 475
3 462 127 494
3 475 38 462
3 496 480 493
3 493 137 496
3 480 133 493
3 496 40 480
3 463 497 495
3 495 127 463
3 497 137 495
3 463 10 497
3 500 498 499
3 499 140 500
3 498 139 499
3 500 138 498
3 502 501 499
3 499 139 502
3 501 140 499
3 502 33 501
3 504 503 498
3 498 138 504
3 503 139 498
3 504 13 503
3 506 505 500
3 500 140 506
3 505 138 500
3 506 23 505
3 509 507 508
3 508 47 509
3 507 139 508
3 509 110 507
3 503 182 508
3 508 139 503
3 182 47 508
3 503 13 182
3 398 502 507
3 507 110 398
3 502 139 507
3 398 33 502
3 183 401 509
3 509 47 183
3 401 110 509
3 183 8 401
3 512 510 511
3 511 79 512
3 510 138 511
3 512 46 510
3 505 294 511
3 511 138 505
3 294 79 511
3 505 23 294
3 174 504 510
3 510 46 174
3 504 138 510
3 174 13 504
3 295 177 512
3 512 79 295
3 177 46 512
3 295 4 177
3 515 513 514
3 514 111 515
3 513 140 514
3 515 78 513
3 501 406 514
3 514 140 501
3 406 111 514
3 501 33 406
3 286 506 513
3 513 78 286
3 506 140 513
3 286 23 506
3 407 289 515
3 515 111 407
3 289 78 515
3 407 0 289
3 518 516 517
3 517 143 518
3 516 142 517
3 518 141 516
3 520 519 517
3 517 142 520
3 519 143 517
3 520 19 519
3 522 521 516
3 516 141 522
3 521 142 516
3 522 32 521
3 524 523 518
3 518 143 524
3 523 141 518
3 524 26 523
3 527 525 526
3 526 113 527
3 525 142 526
3 527 66 525
3 521 413 526
3 526 142 521
3 413 113 526
3 521 32 413
3 244 520 525
3 525 66 244
3 520 142 525
3 244 19 520
3 414 247 527
3 527 113 414
3 247 66 527
3 414 11 247
3 530 528 529
3 529 86 530
3 528 141 529
3 530 112 528
3 523 316 529
3 529 141 523
3 316 86 529
3 523 26 316
3 405 522 528
3 528 112 405
3 522 141 528
3 405 32 522
3 317 408 530
3 530 86 317
3 408 112 530
3 317 0 408
3 533 531 532
3 532 61 533
3 531 143 532
3 533 89 531
3 519 231 532
3 532 143 519
3 231 61 532
3 519 19 231
3 326 524 531
3 531 89 326
3 524 143 531
3 326 26 524
3 232 329 533
3 533 61 232
3 329 89 533
3 232 5 329
3 536 534 535
3 535 146 536
3 534 145 535
3 536 144 534
3 538 537 535
3 535 145 538
3 537 146 535
3 538 22 537
3 540 539 534
3 534 144 540
3 539 145 534
3 540 16 539
3 542 541 536
3 536 146 542
3 541 144 536
3 542 39 541
3 545 543 544
3 544 54 545
3 543 145 544
3 545 80 543
3 539 204 544
3 544 145 539
3 204 54 544
3 539 16 204
3 293 538 543
3 543 80 293
3 538 145 543
3 293 22 538
3 205 296 545
3 545 54 205
3 296 80 545
3 205 4 296
3 548 546 547
3 547 125 548
3 546 144 547
3 548 57 546
3 541 455 547
3 547 144 541
3 455 125 547
3 541 39 455
3 214 540 546
3 546 57 214
3 540 144 546
3 214 16 540
3 456 217 548
3 548 125 456
3 217 57 548
3 456 9 217
3 551 549 550
3 550 81 551
3 549 146 550
3 551 130 549
3 537 301 550
3 550 146 537
3 301 81 550
3 537 22 301
3 468 542 549
3 549 130 468
3 542 146 549
3 468 39 542
3 302 471 551
3 551 81 302
3 471 130 551
3 302 3 471
3 554 552 553
3 553 149 554
3 552 148 553
3 554 147 552
3 556 555 553
3 553 148 556
3 555 149 553
3 556 21 555
3 558 557 552
3 552 147 558
3 557 148 552
3 558 25 557
3 560 559 554
3 554 149 560
3 559 147 554
3 560 37 559
3 563 561 562
3 562 88 563
3 561 148 562
3 563 70 561
3 557 327 562
3 562 148 557
3 327 88 562
3 557 25 327
3 260 556 561
3 561 70 260
3 556 148 561
3 260 21 556
3 328 261 563
3 563 88 328
3 261 70 563
3 328 5 261
3 566 564 565
3 565 129 566
3 564 147 565
3 566 87 564
3 559 469 565
3 565 147 559
3 469 129 565
3 559 37 469
3 321 558 564
3 564 87 321
3 558 147 564
3 321 25 558
3 470 322 566
3 566 129 470
3 322 87 566
3 470 3 322
3 569 567 568
3 568 71 569
3 567 149 568
3 569 128 567
3 555 266 568
3 568 149 555
3 266 71 568
3 555 21 266
3 461 560 567
3 567 128 461
3 560 149 567
3 461 37 560
3 267 464 569
3 569 71 267
3 464 128 569
3 267 10 464
3 572 570 571
3 571 152 572
3 570 151 571
3 572 150 570
3 574 573 571
3 571 151 574
3 573 152 571
3 574 27 573
3 576 575 570
3 570 150 576
3 575 151 570
3 576 12 575
3 578 577 572
3 572 152 578
3 577 150 572
3 578 36 577
3 581 579 580
3 580 49 581
3 579 151 580
3 581 96 579
3 575 189 580
3 580 151 575
3 189 49 580
3 575 12 189
3 349 574 579
3 579 96 349
3 574 151 579
3 349 27 574
3 190 352 581
3 581 49 190
3 352 96 581
3 190 7 352
3 584 582 583
3 583 118 584
3 582 150 583
3 584 48 582
3 577 428 583
3 583 150 577
3 428 118 583
3 577 36 428
3 181 576 582
3 582 48 181
3 576 150 582
3 181 12 576
3 429 184 584
3 584 118 429
3 184 48 584
3 429 8 184
3 587 585 586
3 586 97 587
3 585 152 586
3 587 121 585
3 573 357 586
3 586 152 573
3 357 97 586
3 573 27 357
3 438 578 585
3 585 121 438
3 578 152 585
3 438 36 578
3 358 441 587
3 587 97 358
3 441 121 587
3 358 1 441
3 590 588 589
3 589 155 590
3 588 154 589
3 590 153 588
3 592 591 589
3 589 154 592
3 591 155 589
3 592 17 591
3 594 593 588
3 588 153 594
3 593 154 588
3 594 30 593
3 596 595 590
3 590 155 596
3 595 153 590
3 596 35 595
3 599 597 598
3 598 104 599
3 597 154 598
3 599 64 597
3 593 383 598
3 598 154 593
3 383 104 598
3 593 30 383
3 237 592 597
3 597 64 237
3 592 154 597
3 237 17 592
3 384 240 599
3 599 104 384
3 240 64 599
3 384 6 240
3 602 600 601
3 601 120 602
3 600 153 601
3 602 103 600
3 595 439 601
3 601 153 595
3 439 120 601
3 595 35 439
3 377 594 600
3 600 103 377
3 594 153 600
3 377 30 594
3 440 378 602
3 602 120 440
3 378 103 602
3 440 1 378
3 605 603 604
3 604 65 605
3 603 155 604
3 605 119 603
3 591 245 604
3 604 155 591
3 245 65 604
3 591 17 245
3 433 596 603
3 603 119 433
3 596 155 603
3 433 35 596
3 246 434 605
3 605 65 246
3 434 119 605
3 246 11 434
3 608 606 607
3 607 158 608
3 606 157 607
3 608 156 606
3 610 609 607
3 607 157 610
3 609 158 607
3 610 15 609
3 612 611 606
3 606 156 612
3 611 157 606
3 612 28 611
3 614 613 608
3 608 158 614
3 613 156 608
3 614 41 613
3 617 615 616
3 616 95 617
3 615 157 616
3 617 55 615
3 611 350 616
3 616 157 611
3 350 95 616
3 611 28 350
3 209 610 615
3 615 55 209
3 610 157 615
3 209 15 610
3 351 210 617
3 617 95 351
3 210 55 617
3 351 7 210
3 620 618 619
3 619 135 620
3 618 156 619
3 620 94 618
3 613 490 619
3 619 156 613
3 490 135 619
3 613 41 490
3 342 612 618
3 618 94 342
3 612 156 618
3 342 28 612
3 491 345 620
3 620 135 491
3 345 94 620
3 491 2 345
3 623 621 622
3 622 56 623
3 621 158 622
3 623 134 621
3 609 215 622
3 622 158 609
3 215 56 622
3 609 15 215
3 484 614 621
3 621 134 484
3 614 158 621
3 484 41 614
3 216 485 623
3 623 56 216
3 485 134 623
3 216 9 485
3 626 624 625
3 625 161 626
3 624 160 625
3 626 159 624
3 628 627 625
3 625 160 628
3 627 161 625
3 628 31 627
3 630 629 624
3 624 159 630
3 629 160 624
3 630 20 629
3 632 631 626
3 626 161 632
3 631 159 626
3 632 40 631
3 635 633 634
3 634 73 635
3 633 160 634
3 635 105 633
3 629 272 634
3 634 160 629
3 272 73 634
3 629 20 272
3 382 628 633
3 633 105 382
3 628 160 633
3 382 31 628
3 273 385 635
3 635 73 273
3 385 105 635
3 273 6 385
3 638 636 637
3 637 137 638
3 636 159 637
3 638 72 636
3 631 496 637
3 637 159 631
3 496 137 637
3 631 40 496
3 265 630 636
3 636 72 265
3 630 159 636
3 265 20 630
3 497 268 638
3 638 137 497
3 268 72 638
3 497 10 268
3 641 639 640
3 640 102 641
3 639 161 640
3 641 136 639
3 627 372 640
3 640 161 627
3 372 102 640
3 627 31 372
3 489 632 639
3 639 136 489
3 632 161 639
3 489 40 632
3 373 492 641
3 641 102 373
3 492 136 641
3 373 2 492
