# vtk DataFile Version 3.0
this file was written using fslvtkio
ASCII
DATASET POLYDATA
POINTS 642 float
109.395 135.234 169.89
102.793 136.902 173.19
100.427 130.689 170.353
107.344 129.112 167.948
106.078 133.048 171.575
107.258 132.484 164.576
102.585 134.14 166.972
102.779 132.801 174.751
107.425 138.268 174.715
103.017 127.15 171.251
103.325 127.558 165.467
106.862 138.412 170.003
104.559 135.834 175.719
107.117 135.7 173.712
104.489 133.068 173.256
102.239 129.85 172.63
104.48 130.029 171.162
104.602 136.298 168.584
104.622 133.061 165.079
106.84 135.363 167.344
102.287 130.573 165.266
105.568 129.67 163.924
106.811 130.566 169.903
108.507 134.285 171.556
108.546 131.675 168.536
107.859 130.156 165.408
108.169 133.807 167.269
101.842 135.345 175.271
100.734 131.51 173.19
101.361 134.141 171.713
102.585 135.956 169.995
101.132 132.344 168.19
109.275 137.872 169.496
110.095 137.363 172.508
108.032 139.818 172.448
104.711 138.562 171.806
104.118 138.764 175.62
106.203 127.584 166.181
102.693 125.982 168.417
105.437 127.866 169.308
100.757 128.275 167.751
100.171 127.19 171.701
105.834 135.927 174.548
105.777 134.463 173.723
104.672 134.603 174.506
105.323 133.1 172.382
106.77 134.106 172.944
107.407 137.025 174.186
105.87 137.195 175.354
103.541 134.397 175.21
103.753 132.883 174.087
103.267 131.702 172.478
104.218 131.89 171.751
103.391 129.973 171.937
105.162 131.829 171.041
102.494 131.666 173.318
102.512 128.37 172.142
103.798 128.559 171.197
104.542 134.878 166.569
105.695 134.311 165.958
105.703 135.831 167.791
107.033 133.972 165.659
105.928 132.798 164.635
103.573 133.495 166.019
103.513 135.416 167.577
105.674 137.381 169.317
106.832 136.914 168.867
103.769 130.062 164.214
104.99 131.479 163.964
103.378 131.954 164.847
106.559 131.155 163.761
104.504 128.497 164.612
102.808 128.926 165.256
102.246 132.413 165.89
107.416 132.477 170.515
108.41 133.022 170.039
108.164 130.958 169.471
108.766 133.719 169.316
109.232 134.794 170.875
107.347 133.582 171.795
106.125 132.173 170.465
107.311 129.593 169.156
108.201 130.18 168.199
108.324 130.708 166.98
108.397 132.71 167.787
108.43 131.765 166.032
108.841 134.703 168.573
107.717 129.488 166.747
107.827 131.333 164.581
108.166 133.163 165.604
101.113 133.453 174.431
100.936 133.053 172.569
101.422 134.859 173.617
100.759 132.479 170.895
100.401 131.016 171.789
101.605 132.07 174.268
102.113 133.821 175.551
102.274 136.518 174.469
102.029 135.681 172.436
101.882 135.023 170.79
100.993 133.407 169.875
101.66 134.301 169.107
100.718 131.441 169.157
102.713 136.537 171.559
102.572 135.02 168.443
101.833 133.301 167.552
110.726 138.153 170.897
110.142 139.459 172.749
109.607 140.093 170.717
108.115 139.351 173.978
109.138 137.996 173.781
110.003 136.453 171.169
109.576 136.55 169.679
108.095 138.373 169.611
107.489 139.927 170.862
106.225 139.718 172.302
106.23 139.453 174.178
104.509 139.202 173.69
105.908 138.528 175.462
105.88 138.802 170.813
103.697 137.719 172.601
103.239 138.125 174.439
104.73 126.442 167.171
104.379 126.449 168.872
106.17 127.118 167.888
104.019 127.496 170.187
102.753 125.988 170.164
102.988 126.63 166.744
104.927 127.29 165.486
107.064 128.075 167.061
106.543 128.518 168.592
100.211 127.413 169.55
101.18 125.737 170.153
101.228 126.454 167.912
101.722 126.62 172.022
100.251 129.064 170.921
100.484 129.484 169.186
101.726 127.61 166.338
107.908 135.032 172.711
108.638 136.541 173.265
109.19 135.884 172.092
108.722 135.855 168.367
107.945 136.581 168.489
107.747 134.647 167.028
104.934 128.781 170.302
105.632 130.474 170.444
106.02 129.275 169.563
107.088 128.746 165.595
106.988 129.927 164.393
106.034 128.465 164.792
104.38 137.46 176.541
102.942 135.445 176.147
102.718 137.415 175.929
103.682 137.345 171.042
103.605 136.3 169.361
104.744 137.63 170.303
100.356 129.386 172.364
101.42 130.425 173.311
101.195 128.314 172.951
101.516 129.429 166.419
101.31 131.508 166.591
100.777 130.305 167.78
105.853 135.266 174.094
105.205 134.495 174.046
105.284 135.265 174.568
104.685 133.739 174.007
105.103 133.725 173.601
106.414 135.158 173.759
106.44 135.777 174.174
105.243 135.879 175.122
104.674 135.266 175.033
105.626 133.628 173.265
106.281 134.28 173.359
106.067 133.552 172.782
107 134.956 173.405
104.936 133.083 172.885
105.69 133.046 171.955
106.401 133.539 172.326
106.624 136.421 174.471
105.88 136.485 174.999
106.585 137.127 174.751
105.191 136.574 175.604
107.208 136.34 173.944
107.421 137.614 174.474
106.662 137.76 175.091
104.131 134.562 174.905
104.226 133.705 174.402
103.772 133.624 174.807
104.172 132.987 173.7
104.027 135.163 175.434
103.2 133.502 175.053
103.306 132.802 174.414
103.748 131.903 172.157
103.749 131.04 171.827
103.282 130.903 172.116
103.943 130.038 171.616
104.255 130.95 171.501
104.303 132.498 172.43
103.861 132.414 172.816
102.737 130.807 172.422
102.839 129.938 172.243
104.673 131.829 171.397
104.697 132.527 172.023
105.086 132.535 171.574
104.771 130.983 171.071
105.559 132.503 171.242
103.532 132.331 173.225
102.862 131.72 172.83
103.064 132.284 173.628
102.348 130.862 172.846
102.613 132.251 174.016
102.924 129.136 172
103.547 129.235 171.651
103.189 128.458 171.75
104.216 129.287 171.267
102.376 129.112 172.418
102.796 127.711 171.76
103.329 127.914 171.257
105.117 134.6 166.267
105.721 135.117 166.879
105.135 135.443 167.191
106.287 135.601 167.505
106.243 134.77 166.718
105.111 133.8 165.429
104.593 133.951 165.82
104.601 135.657 167.539
105.121 136.057 168.1
106.403 134.185 165.93
105.847 133.628 165.356
106.539 133.494 165.167
105.255 132.98 164.788
106.787 134.585 166.505
107.166 133.19 165.026
106.604 132.653 164.513
104.082 134.268 166.231
104.064 135.171 167.087
103.534 134.567 166.683
104.089 135.86 168.052
104.062 133.332 165.492
103.076 133.912 166.488
103.035 134.797 167.176
105.659 136.53 168.593
106.309 136.306 168.328
106.24 137.165 169.015
106.854 136.093 168.138
105.169 136.736 169.016
106.291 137.859 169.722
106.837 137.708 169.455
104.38 130.777 164.012
104.102 131.741 164.353
103.491 131.025 164.326
103.993 132.499 164.906
104.739 132.242 164.419
105.249 130.601 163.669
104.678 129.933 163.987
103.038 130.335 164.647
102.742 131.268 164.867
105.465 132.262 164.207
105.769 131.4 163.767
106.263 132.076 164.092
106.034 130.366 163.677
106.911 131.947 164.089
104.223 129.289 164.378
103.379 129.551 164.8
103.638 128.661 164.811
102.633 129.77 165.251
105.031 129.122 164.199
103.885 127.964 164.955
103.061 128.092 165.274
102.784 132.16 165.335
103.47 132.723 165.45
102.897 133.028 165.978
102.184 131.53 165.503
102.367 133.34 166.419
107.956 132.77 170.421
108.212 131.997 169.724
107.72 131.759 170.063
108.478 131.266 169.049
108.528 132.246 169.312
108.607 133.547 170.843
108.039 133.297 171.061
107.078 131.453 170.125
107.56 130.718 169.712
108.618 133.311 169.705
108.899 133.877 170.541
109.054 134.165 170.086
108.945 134.499 171.279
108.587 132.666 168.929
109.079 134.472 169.598
109.33 134.999 170.321
107.379 133.09 171.066
106.795 132.28 170.459
106.647 132.921 170.954
106.413 131.314 170.157
108.003 133.894 171.786
106.667 133.34 171.686
106.073 132.716 170.987
107.731 130.16 169.24
108.198 130.459 168.864
107.889 129.878 168.741
108.464 130.756 168.33
107.093 130.048 169.551
107.375 129.325 168.568
107.749 129.632 168.034
108.502 131.603 167.318
108.348 132.197 166.887
108.434 131.146 166.437
108.22 132.744 166.614
108.245 133.285 167.456
108.497 132.186 168.188
108.507 131.152 167.784
108.086 130.408 166.203
108.252 130.855 165.668
108.525 133.805 168.187
108.497 133.288 168.594
108.844 134.146 168.917
108.503 134.281 167.889
109.195 134.892 169.225
108.281 130.473 167.685
108.083 130.129 166.88
107.991 129.816 167.513
107.837 129.798 166.081
107.602 129.229 167.375
108.257 131.532 165.297
108.258 132.488 165.867
108.115 132.205 165.089
108.197 133.383 166.437
107.916 130.763 164.953
107.575 131.97 164.474
107.753 132.771 165.066
100.983 133.258 173.51
101.115 133.913 173.118
101.215 134.213 174.066
101.406 134.499 172.697
101.1 133.68 172.178
100.767 132.411 172.959
100.911 132.551 173.784
101.382 134.395 174.904
101.577 135.077 174.499
100.737 132.851 171.735
100.643 132.095 172.196
100.567 131.868 171.401
100.588 131.286 172.531
100.918 133.376 171.302
100.541 131.55 170.597
100.301 130.88 171.054
101.185 132.704 174.43
101.382 133.632 175.162
101.781 132.905 175.106
101.823 134.514 175.403
101.088 131.812 173.832
102.181 132.477 174.522
102.514 133.166 175.252
101.829 135.71 174.02
101.743 135.283 173.022
102.079 136.093 173.455
101.614 134.983 172.146
101.968 136.052 174.909
102.47 136.751 173.835
102.38 136.361 172.87
101.401 134.23 170.39
101.283 133.898 169.504
101.733 134.714 169.973
101.374 133.436 168.688
101.101 132.961 169.051
101.149 133.769 170.804
101.543 134.604 171.25
102.269 135.453 170.363
102.137 135.082 169.589
100.883 132.437 169.505
100.877 132.965 170.413
100.683 131.952 170.013
100.922 131.93 168.666
100.549 131.089 169.768
101.852 135.396 171.58
102.288 135.84 171.147
102.314 136.093 171.969
102.667 136.279 170.777
102.802 136.685 172.395
102.101 134.686 168.778
101.73 133.842 168.318
102.094 134.292 167.943
101.492 132.871 167.912
102.512 135.539 169.216
102.521 134.727 167.627
102.189 133.77 167.226
110.735 139.004 171.846
110.117 139.898 171.781
110.392 139.343 170.89
109.073 140.003 171.627
109.199 139.758 172.473
110.366 138.466 172.66
110.653 137.89 171.777
110.085 138.321 170.169
109.693 139.135 170.049
109.155 139.365 173.299
109.847 138.769 173.421
108.822 138.829 173.971
109.736 137.79 173.131
108.149 139.561 173.208
107.867 138.822 174.453
108.291 138.109 174.24
110.469 137.212 171.096
110.168 137.413 170.229
109.886 136.547 170.391
109.505 137.257 169.582
110.181 136.952 171.802
109.603 135.869 170.504
109.538 135.809 169.789
108.891 139.42 169.99
108.558 140.272 170.752
107.961 139.432 170.121
107.884 140.029 171.627
108.721 138.177 169.56
107.449 138.339 169.787
107.138 139.198 170.331
106.325 139.616 173.229
105.373 139.407 174.051
105.429 139.336 173
104.467 139.083 174.622
105.186 139.09 174.971
107.202 139.633 173.33
107.126 139.774 172.392
105.292 139.307 172.155
104.634 138.984 172.76
106.111 139.073 174.889
107.24 139.398 174.121
107.019 138.929 174.738
105.031 138.637 175.642
106.705 138.383 175.176
106.912 139.763 171.623
105.956 139.45 171.529
106.598 139.411 170.927
105.256 138.864 171.318
106.415 138.636 170.39
103.979 138.559 173.147
103.82 138.711 174.116
103.43 137.981 173.494
103.538 138.652 175.109
104.153 138.232 172.276
103.208 137.284 172.914
102.997 137.455 173.791
104.54 126.243 168.045
105.29 126.79 168.377
105.547 126.639 167.56
105.759 127.441 168.605
104.95 127.114 169.052
103.55 126.105 168.622
103.721 126.133 167.756
105.565 126.968 166.721
106.221 127.255 167.052
104.196 126.943 169.574
103.519 126.223 169.477
103.459 126.707 170.211
102.675 125.883 169.315
104.715 127.642 169.714
103.522 127.355 170.753
102.965 126.464 170.865
103.931 126.428 166.869
104.928 126.882 166.236
103.932 126.868 165.967
105.643 127.354 165.773
102.917 126.213 167.476
103.09 127.117 165.996
104.085 127.38 165.358
106.725 127.483 167.464
106.39 127.757 168.245
106.866 128.098 167.934
106.011 128.185 168.887
106.641 127.769 166.64
107.259 128.64 167.645
106.997 128.819 168.354
100.452 126.342 169.777
101.128 125.99 169.001
100.594 126.751 168.672
101.953 126.103 168.178
101.879 125.828 169.326
100.517 126.164 170.858
100.112 127.105 170.575
100.515 127.723 168.561
100.888 127.209 167.732
102.012 125.728 170.24
101.289 125.956 171.181
102.237 126.205 171.179
100.739 126.565 172.051
102.416 126.912 171.644
100.138 128.18 170.333
100.335 128.445 169.353
100.336 129.231 170.066
100.649 128.784 168.572
100.095 128.053 171.249
100.322 129.95 170.625
100.391 130.095 169.76
101.415 126.856 167.004
102.098 126.387 167.285
102.221 126.945 166.453
101.089 127.809 166.996
102.479 127.622 165.848
108.172 135.85 173.028
108.969 136.215 172.699
108.456 135.473 172.426
109.678 136.566 172.32
109.418 136.987 172.877
107.805 136.105 173.451
107.602 135.383 173.267
108.189 134.678 172.136
108.732 135.123 171.859
108.948 137.319 173.503
108.029 136.693 173.716
108.213 137.481 173.93
107.4 134.553 172.939
107.697 134.234 172.378
107.088 133.813 172.448
109.263 135.377 171.558
109.717 136.239 171.739
109.592 135.674 171.018
108.334 136.25 168.404
107.829 135.619 167.711
108.286 135.302 167.595
107.304 135.043 167.093
107.365 135.905 167.887
108.554 137.241 169.108
108.977 136.838 169.02
108.563 134.791 167.706
108.05 134.284 167.112
107.406 136.787 168.623
108.079 137.474 169.126
107.447 137.634 169.232
109.215 136.319 169.052
108.865 135.239 168.415
109.25 135.62 169.151
107.949 133.929 166.201
107.368 134.3 166.3
107.643 133.648 165.537
105.203 129.618 170.324
105.807 129.819 170.005
105.482 129.054 169.905
106.425 129.945 169.739
106.171 130.559 170.095
105.022 130.307 170.712
104.714 129.439 170.747
105.165 128.308 169.845
105.746 128.569 169.444
105.943 131.264 170.383
105.355 131.139 170.705
105.761 132.035 170.803
104.434 128.715 170.794
104.499 128.143 170.196
103.889 128.045 170.734
106.283 128.835 169.115
106.651 129.481 169.375
106.895 129.061 168.865
107.113 129.259 164.941
106.512 129.171 164.466
106.59 128.584 165.129
105.88 129.062 164.354
106.372 129.695 164.079
107.597 129.971 164.854
107.603 129.452 165.492
106.599 128.139 165.875
106.105 127.98 165.417
106.749 130.406 163.978
107.504 130.589 164.435
107.313 131.345 164.092
107.455 129.167 166.173
107.031 128.445 166.327
107.349 128.886 166.938
105.558 127.855 165.023
105.317 128.464 164.55
104.754 127.851 164.927
103.606 136.42 176.61
102.634 136.477 176.308
103.353 137.566 176.664
102.15 136.389 175.555
102.132 135.437 175.842
103.79 135.536 176.014
104.461 136.57 176.154
104.219 138.358 176.437
103.346 138.269 175.964
102.392 134.645 175.689
103.265 134.881 175.515
102.853 134.002 175.324
105.14 137.268 175.925
105.074 138.094 176.084
105.961 137.873 175.625
103.031 137.92 175.264
102.464 136.994 175.136
102.834 137.336 174.482
103.628 136.928 170.202
104.158 137.007 169.876
104.165 137.576 170.698
104.577 136.998 169.445
104.065 136.365 168.995
103.074 136.243 169.689
103.113 136.695 170.49
104.17 137.955 171.508
104.732 138.232 171.075
103.578 135.851 168.481
103.045 135.731 168.882
103.037 135.373 168.048
103.183 136.992 171.319
103.795 137.54 171.865
103.292 137.101 172.131
105.316 138.24 170.633
105.186 137.529 169.762
105.852 138.004 170.154
100.823 129.933 172.903
101.331 129.375 173.025
100.618 128.763 172.8
101.781 129.151 172.847
101.843 130.227 172.956
101.02 130.863 173.344
100.612 130.479 172.717
100.262 128.255 172.087
100.534 127.584 172.537
101.979 131.116 173.244
101.5 131.328 173.735
102.124 131.812 173.847
100.308 130.227 172.023
100.204 129.128 171.614
100.282 130.125 171.258
101.378 127.368 172.61
101.918 128.393 172.593
102.183 127.505 172.135
101.324 130.428 166.418
101.058 130.975 167.246
101.039 129.812 167.078
100.928 131.373 167.936
101.186 131.943 167.427
101.74 131.016 165.901
101.894 130.022 165.869
101.032 128.76 167.012
100.775 129.254 167.792
101.535 132.455 167.091
101.803 131.962 166.221
101.971 132.924 166.721
102.118 129.204 165.782
101.556 128.454 166.32
102.227 128.299 165.695
100.647 129.785 168.453
100.777 130.925 168.474
100.562 130.463 169.103
POLYGONS 1280  5120
3 164 162 163
3 163 44 164
3 162 43 163
3 164 42 162
3 166 165 163
3 163 43 166
3 165 44 163
3 166 14 165
3 168 167 162
3 162 42 168
3 167 43 162
3 168 13 167
3 170 169 164
3 164 44 170
3 169 42 164
3 170 12 169
3 173 171 172
3 172 46 173
3 171 43 172
3 173 45 171
3 167 174 172
3 172 43 167
3 174 46 172
3 167 13 174
3 175 166 171
3 171 45 175
3 166 43 171
3 175 14 166
3 177 176 173
3 173 46 177
3 176 45 173
3 177 4 176
3 180 178 179
3 179 48 180
3 178 42 179
3 180 47 178
3 169 181 179
3 179 42 169
3 181 48 179
3 169 12 181
3 182 168 178
3 178 47 182
3 168 42 178
3 182 13 168
3 184 183 180
3 180 48 184
3 183 47 180
3 184 8 183
3 187 185 186
3 186 50 187
3 185 44 186
3 187 49 185
3 165 188 186
3 186 44 165
3 188 50 186
3 165 14 188
3 189 170 185
3 185 49 189
3 170 44 185
3 189 12 170
3 191 190 187
3 187 50 191
3 190 49 187
3 191 7 190
3 194 192 193
3 193 53 194
3 192 52 193
3 194 51 192
3 196 195 193
3 193 52 196
3 195 53 193
3 196 16 195
3 198 197 192
3 192 51 198
3 197 52 192
3 198 14 197
3 200 199 194
3 194 53 200
3 199 51 194
3 200 15 199
3 203 201 202
3 202 45 203
3 201 52 202
3 203 54 201
3 197 175 202
3 202 52 197
3 175 45 202
3 197 14 175
3 204 196 201
3 201 54 204
3 196 52 201
3 204 16 196
3 176 205 203
3 203 45 176
3 205 54 203
3 176 4 205
3 208 206 207
3 207 55 208
3 206 51 207
3 208 50 206
3 199 209 207
3 207 51 199
3 209 55 207
3 199 15 209
3 188 198 206
3 206 50 188
3 198 51 206
3 188 14 198
3 210 191 208
3 208 55 210
3 191 50 208
3 210 7 191
3 213 211 212
3 212 57 213
3 211 53 212
3 213 56 211
3 195 214 212
3 212 53 195
3 214 57 212
3 195 16 214
3 215 200 211
3 211 56 215
3 200 53 211
3 215 15 200
3 217 216 213
3 213 57 217
3 216 56 213
3 217 9 216
3 220 218 219
3 219 60 220
3 218 59 219
3 220 58 218
3 222 221 219
3 219 59 222
3 221 60 219
3 222 19 221
3 224 223 218
3 218 58 224
3 223 59 218
3 224 18 223
3 226 225 220
3 220 60 226
3 225 58 220
3 226 17 225
3 229 227 228
3 228 62 229
3 227 59 228
3 229 61 227
3 223 230 228
3 228 59 223
3 230 62 228
3 223 18 230
3 231 222 227
3 227 61 231
3 222 59 227
3 231 19 222
3 233 232 229
3 229 62 233
3 232 61 229
3 233 5 232
3 236 234 235
3 235 64 236
3 234 58 235
3 236 63 234
3 225 237 235
3 235 58 225
3 237 64 235
3 225 17 237
3 238 224 234
3 234 63 238
3 224 58 234
3 238 18 224
3 240 239 236
3 236 64 240
3 239 63 236
3 240 6 239
3 243 241 242
3 242 66 243
3 241 60 242
3 243 65 241
3 221 244 242
3 242 60 221
3 244 66 242
3 221 19 244
3 245 226 241
3 241 65 245
3 226 60 241
3 245 17 226
3 247 246 243
3 243 66 247
3 246 65 243
3 247 11 246
3 250 248 249
3 249 69 250
3 248 68 249
3 250 67 248
3 252 251 249
3 249 68 252
3 251 69 249
3 252 18 251
3 254 253 248
3 248 67 254
3 253 68 248
3 254 21 253
3 256 255 250
3 250 69 256
3 255 67 250
3 256 20 255
3 259 257 258
3 258 70 259
3 257 68 258
3 259 62 257
3 253 260 258
3 258 68 253
3 260 70 258
3 253 21 260
3 230 252 257
3 257 62 230
3 252 68 257
3 230 18 252
3 261 233 259
3 259 70 261
3 233 62 259
3 261 5 233
3 264 262 263
3 263 72 264
3 262 67 263
3 264 71 262
3 255 265 263
3 263 67 255
3 265 72 263
3 255 20 265
3 266 254 262
3 262 71 266
3 254 67 262
3 266 21 254
3 268 267 264
3 264 72 268
3 267 71 264
3 268 10 267
3 271 269 270
3 270 63 271
3 269 69 270
3 271 73 269
3 251 238 270
3 270 69 251
3 238 63 270
3 251 18 238
3 272 256 269
3 269 73 272
3 256 69 269
3 272 20 256
3 239 273 271
3 271 63 239
3 273 73 271
3 239 6 273
3 276 274 275
3 275 76 276
3 274 75 275
3 276 74 274
3 278 277 275
3 275 75 278
3 277 76 275
3 278 24 277
3 280 279 274
3 274 74 280
3 279 75 274
3 280 23 279
3 282 281 276
3 276 76 282
3 281 74 276
3 282 22 281
3 285 283 284
3 284 78 285
3 283 75 284
3 285 77 283
3 279 286 284
3 284 75 279
3 286 78 284
3 279 23 286
3 287 278 283
3 283 77 287
3 278 75 283
3 287 24 278
3 289 288 285
3 285 78 289
3 288 77 285
3 289 0 288
3 292 290 291
3 291 80 292
3 290 74 291
3 292 79 290
3 281 293 291
3 291 74 281
3 293 80 291
3 281 22 293
3 294 280 290
3 290 79 294
3 280 74 290
3 294 23 280
3 296 295 292
3 292 80 296
3 295 79 292
3 296 4 295
3 299 297 298
3 298 82 299
3 297 76 298
3 299 81 297
3 277 300 298
3 298 76 277
3 300 82 298
3 277 24 300
3 301 282 297
3 297 81 301
3 282 76 297
3 301 22 282
3 303 302 299
3 299 82 303
3 302 81 299
3 303 3 302
3 306 304 305
3 305 85 306
3 304 84 305
3 306 83 304
3 308 307 305
3 305 84 308
3 307 85 305
3 308 26 307
3 310 309 304
3 304 83 310
3 309 84 304
3 310 24 309
3 312 311 306
3 306 85 312
3 311 83 306
3 312 25 311
3 315 313 314
3 314 77 315
3 313 84 314
3 315 86 313
3 309 287 314
3 314 84 309
3 287 77 314
3 309 24 287
3 316 308 313
3 313 86 316
3 308 84 313
3 316 26 308
3 288 317 315
3 315 77 288
3 317 86 315
3 288 0 317
3 320 318 319
3 319 87 320
3 318 83 319
3 320 82 318
3 311 321 319
3 319 83 311
3 321 87 319
3 311 25 321
3 300 310 318
3 318 82 300
3 310 83 318
3 300 24 310
3 322 303 320
3 320 87 322
3 303 82 320
3 322 3 303
3 325 323 324
3 324 89 325
3 323 85 324
3 325 88 323
3 307 326 324
3 324 85 307
3 326 89 324
3 307 26 326
3 327 312 323
3 323 88 327
3 312 85 323
3 327 25 312
3 329 328 325
3 325 89 329
3 328 88 325
3 329 5 328
3 332 330 331
3 331 92 332
3 330 91 331
3 332 90 330
3 334 333 331
3 331 91 334
3 333 92 331
3 334 29 333
3 336 335 330
3 330 90 336
3 335 91 330
3 336 28 335
3 338 337 332
3 332 92 338
3 337 90 332
3 338 27 337
3 341 339 340
3 340 94 341
3 339 91 340
3 341 93 339
3 335 342 340
3 340 91 335
3 342 94 340
3 335 28 342
3 343 334 339
3 339 93 343
3 334 91 339
3 343 29 334
3 345 344 341
3 341 94 345
3 344 93 341
3 345 2 344
3 348 346 347
3 347 96 348
3 346 90 347
3 348 95 346
3 337 349 347
3 347 90 337
3 349 96 347
3 337 27 349
3 350 336 346
3 346 95 350
3 336 90 346
3 350 28 336
3 352 351 348
3 348 96 352
3 351 95 348
3 352 7 351
3 355 353 354
3 354 98 355
3 353 92 354
3 355 97 353
3 333 356 354
3 354 92 333
3 356 98 354
3 333 29 356
3 357 338 353
3 353 97 357
3 338 92 353
3 357 27 338
3 359 358 355
3 355 98 359
3 358 97 355
3 359 1 358
3 362 360 361
3 361 101 362
3 360 100 361
3 362 99 360
3 364 363 361
3 361 100 364
3 363 101 361
3 364 31 363
3 366 365 360
3 360 99 366
3 365 100 360
3 366 29 365
3 368 367 362
3 362 101 368
3 367 99 362
3 368 30 367
3 371 369 370
3 370 93 371
3 369 100 370
3 371 102 369
3 365 343 370
3 370 100 365
3 343 93 370
3 365 29 343
3 372 364 369
3 369 102 372
3 364 100 369
3 372 31 364
3 344 373 371
3 371 93 344
3 373 102 371
3 344 2 373
3 376 374 375
3 375 103 376
3 374 99 375
3 376 98 374
3 367 377 375
3 375 99 367
3 377 103 375
3 367 30 377
3 356 366 374
3 374 98 356
3 366 99 374
3 356 29 366
3 378 359 376
3 376 103 378
3 359 98 376
3 378 1 359
3 381 379 380
3 380 105 381
3 379 101 380
3 381 104 379
3 363 382 380
3 380 101 363
3 382 105 380
3 363 31 382
3 383 368 379
3 379 104 383
3 368 101 379
3 383 30 368
3 385 384 381
3 381 105 385
3 384 104 381
3 385 6 384
3 388 386 387
3 387 108 388
3 386 107 387
3 388 106 386
3 390 389 387
3 387 107 390
3 389 108 387
3 390 34 389
3 392 391 386
3 386 106 392
3 391 107 386
3 392 33 391
3 394 393 388
3 388 108 394
3 393 106 388
3 394 32 393
3 397 395 396
3 396 110 397
3 395 107 396
3 397 109 395
3 391 398 396
3 396 107 391
3 398 110 396
3 391 33 398
3 399 390 395
3 395 109 399
3 390 107 395
3 399 34 390
3 401 400 397
3 397 110 401
3 400 109 397
3 401 8 400
3 404 402 403
3 403 112 404
3 402 106 403
3 404 111 402
3 393 405 403
3 403 106 393
3 405 112 403
3 393 32 405
3 406 392 402
3 402 111 406
3 392 106 402
3 406 33 392
3 408 407 404
3 404 112 408
3 407 111 404
3 408 0 407
3 411 409 410
3 410 114 411
3 409 108 410
3 411 113 409
3 389 412 410
3 410 108 389
3 412 114 410
3 389 34 412
3 413 394 409
3 409 113 413
3 394 108 409
3 413 32 394
3 415 414 411
3 411 114 415
3 414 113 411
3 415 11 414
3 418 416 417
3 417 117 418
3 416 116 417
3 418 115 416
3 420 419 417
3 417 116 420
3 419 117 417
3 420 36 419
3 422 421 416
3 416 115 422
3 421 116 416
3 422 34 421
3 424 423 418
3 418 117 424
3 423 115 418
3 424 35 423
3 427 425 426
3 426 109 427
3 425 116 426
3 427 118 425
3 421 399 426
3 426 116 421
3 399 109 426
3 421 34 399
3 428 420 425
3 425 118 428
3 420 116 425
3 428 36 420
3 400 429 427
3 427 109 400
3 429 118 427
3 400 8 429
3 432 430 431
3 431 119 432
3 430 115 431
3 432 114 430
3 423 433 431
3 431 115 423
3 433 119 431
3 423 35 433
3 412 422 430
3 430 114 412
3 422 115 430
3 412 34 422
3 434 415 432
3 432 119 434
3 415 114 432
3 434 11 415
3 437 435 436
3 436 121 437
3 435 117 436
3 437 120 435
3 419 438 436
3 436 117 419
3 438 121 436
3 419 36 438
3 439 424 435
3 435 120 439
3 424 117 435
3 439 35 424
3 441 440 437
3 437 121 441
3 440 120 437
3 441 1 440
3 444 442 443
3 443 124 444
3 442 123 443
3 444 122 442
3 446 445 443
3 443 123 446
3 445 124 443
3 446 39 445
3 448 447 442
3 442 122 448
3 447 123 442
3 448 38 447
3 450 449 444
3 444 124 450
3 449 122 444
3 450 37 449
3 453 451 452
3 452 126 453
3 451 123 452
3 453 125 451
3 447 454 452
3 452 123 447
3 454 126 452
3 447 38 454
3 455 446 451
3 451 125 455
3 446 123 451
3 455 39 446
3 457 456 453
3 453 126 457
3 456 125 453
3 457 9 456
3 460 458 459
3 459 128 460
3 458 122 459
3 460 127 458
3 449 461 459
3 459 122 449
3 461 128 459
3 449 37 461
3 462 448 458
3 458 127 462
3 448 122 458
3 462 38 448
3 464 463 460
3 460 128 464
3 463 127 460
3 464 10 463
3 467 465 466
3 466 130 467
3 465 124 466
3 467 129 465
3 445 468 466
3 466 124 445
3 468 130 466
3 445 39 468
3 469 450 465
3 465 129 469
3 450 124 465
3 469 37 450
3 471 470 467
3 467 130 471
3 470 129 467
3 471 3 470
3 474 472 473
3 473 133 474
3 472 132 473
3 474 131 472
3 476 475 473
3 473 132 476
3 475 133 473
3 476 38 475
3 478 477 472
3 472 131 478
3 477 132 472
3 478 41 477
3 480 479 474
3 474 133 480
3 479 131 474
3 480 40 479
3 483 481 482
3 482 134 483
3 481 132 482
3 483 126 481
3 477 484 482
3 482 132 477
3 484 134 482
3 477 41 484
3 454 476 481
3 481 126 454
3 476 132 481
3 454 38 476
3 485 457 483
3 483 134 485
3 457 126 483
3 485 9 457
3 488 486 487
3 487 136 488
3 486 131 487
3 488 135 486
3 479 489 487
3 487 131 479
3 489 136 487
3 479 40 489
3 490 478 486
3 486 135 490
3 478 131 486
3 490 41 478
3 492 491 488
3 488 136 492
3 491 135 488
3 492 2 491
3 495 493 494
3 494 127 495
3 493 133 494
3 495 137 493
3 475 462 494
3 494 133 475
3 462 127 494
3 475 38 462
3 496 480 493
3 493 137 496
3 480 133 493
3 496 40 480
3 463 497 495
3 495 127 463
3 497 137 495
3 463 10 497
3 500 498 499
3 499 140 500
3 498 139 499
3 500 138 498
3 502 501 499
3 499 139 502
3 501 140 499
3 502 33 501
3 504 503 498
3 498 138 504
3 503 139 498
3 504 13 503
3 506 505 500
3 500 140 506
3 505 138 500
3 506 23 505
3 509 507 508
3 508 47 509
3 507 139 508
3 509 110 507
3 503 182 508
3 508 139 503
3 182 47 508
3 503 13 182
3 398 502 507
3 507 110 398
3 502 139 507
3 398 33 502
3 183 401 509
3 509 47 183
3 401 110 509
3 183 8 401
3 512 510 511
3 511 79 512
3 510 138 511
3 512 46 510
3 505 294 511
3 511 138 505
3 294 79 511
3 505 23 294
3 174 504 510
3 510 46 174
3 504 138 510
3 174 13 504
3 295 177 512
3 512 79 295
3 177 46 512
3 295 4 177
3 515 513 514
3 514 111 515
3 513 140 514
3 515 78 513
3 501 406 514
3 514 140 501
3 406 111 514
3 501 33 406
3 286 506 513
3 513 78 286
3 506 140 513
3 286 23 506
3 407 289 515
3 515 111 407
3 289 78 515
3 407 0 289
3 518 516 517
3 517 143 518
3 516 142 517
3 518 141 516
3 520 519 517
3 517 142 520
3 519 143 517
3 520 19 519
3 522 521 516
3 516 141 522
3 521 142 516
3 522 32 521
3 524 523 518
3 518 143 524
3 523 141 518
3 524 26 523
3 527 525 526
3 526 113 527
3 525 142 526
3 527 66 525
3 521 413 526
3 526 142 521
3 413 113 526
3 521 32 413
3 244 520 525
3 525 66 244
3 520 142 525
3 244 19 520
3 414 247 527
3 527 113 414
3 247 66 527
3 414 11 247
3 530 528 529
3 529 86 530
3 528 141 529
3 530 112 528
3 523 316 529
3 529 141 523
3 316 86 529
3 523 26 316
3 405 522 528
3 528 112 405
3 522 141 528
3 405 32 522
3 317 408 530
3 530 86 317
3 408 112 530
3 317 0 408
3 533 531 532
3 532 61 533
3 531 143 532
3 533 89 531
3 519 231 532
3 532 143 519
3 231 61 532
3 519 19 231
3 326 524 531
3 531 89 326
3 524 143 531
3 326 26 524
3 232 329 533
3 533 61 232
3 329 89 533
3 232 5 329
3 536 534 535
3 535 146 536
3 534 145 535
3 536 144 534
3 538 537 535
3 535 145 538
3 537 146 535
3 538 22 537
3 540 539 534
3 534 144 540
3 539 145 534
3 540 16 539
3 542 541 536
3 536 146 542
3 541 144 536
3 542 39 541
3 545 543 544
3 544 54 545
3 543 145 544
3 545 80 543
3 539 204 544
3 544 145 539
3 204 54 544
3 539 16 204
3 293 538 543
3 543 80 293
3 538 145 543
3 293 22 538
3 205 296 545
3 545 54 205
3 296 80 545
3 205 4 296
3 548 546 547
3 547 125 548
3 546 144 547
3 548 57 546
3 541 455 547
3 547 144 541
3 455 125 547
3 541 39 455
3 214 540 546
3 546 57 214
3 540 144 546
3 214 16 540
3 456 217 548
3 548 125 456
3 217 57 548
3 456 9 217
3 551 549 550
3 550 81 551
3 549 146 550
3 551 130 549
3 537 301 550
3 550 146 537
3 301 81 550
3 537 22 301
3 468 542 549
3 549 130 468
3 542 146 549
3 468 39 542
3 302 471 551
3 551 81 302
3 471 130 551
3 302 3 471
3 554 552 553
3 553 149 554
3 552 148 553
3 554 147 552
3 556 555 553
3 553 148 556
3 555 149 553
3 556 21 555
3 558 557 552
3 552 147 558
3 557 148 552
3 558 25 557
3 560 559 554
3 554 149 560
3 559 147 554
3 560 37 559
3 563 561 562
3 562 88 563
3 561 148 562
3 563 70 561
3 557 327 562
3 562 148 557
3 327 88 562
3 557 25 327
3 260 556 561
3 561 70 260
3 556 148 561
3 260 21 556
3 328 261 563
3 563 88 328
3 261 70 563
3 328 5 261
3 566 564 565
3 565 129 566
3 564 147 565
3 566 87 564
3 559 469 565
3 565 147 559
3 469 129 565
3 559 37 469
3 321 558 564
3 564 87 321
3 558 147 564
3 321 25 558
3 470 322 566
3 566 129 470
3 322 87 566
3 470 3 322
3 569 567 568
3 568 71 569
3 567 149 568
3 569 128 567
3 555 266 568
3 568 149 555
3 266 71 568
3 555 21 266
3 461 560 567
3 567 128 461
3 560 149 567
3 461 37 560
3 267 464 569
3 569 71 267
3 464 128 569
3 267 10 464
3 572 570 571
3 571 152 572
3 570 151 571
3 572 150 570
3 574 573 571
3 571 151 574
3 573 152 571
3 574 27 573
3 576 575 570
3 570 150 576
3 575 151 570
3 576 12 575
3 578 577 572
3 572 152 578
3 577 150 572
3 578 36 577
3 581 579 580
3 580 49 581
3 579 151 580
3 581 96 579
3 575 189 580
3 580 151 575
3 189 49 580
3 575 12 189
3 349 574 579
3 579 96 349
3 574 151 579
3 349 27 574
3 190 352 581
3 581 49 190
3 352 96 581
3 190 7 352
3 584 582 583
3 583 118 584
3 582 150 583
3 584 48 582
3 577 428 583
3 583 150 577
3 428 118 583
3 577 36 428
3 181 576 582
3 582 48 181
3 576 150 582
3 181 12 576
3 429 184 584
3 584 118 429
3 184 48 584
3 429 8 184
3 587 585 586
3 586 97 587
3 585 152 586
3 587 121 585
3 573 357 586
3 586 152 573
3 357 97 586
3 573 27 357
3 438 578 585
3 585 121 438
3 578 152 585
3 438 36 578
3 358 441 587
3 587 97 358
3 441 121 587
3 358 1 441
3 590 588 589
3 589 155 590
3 588 154 589
3 590 153 588
3 592 591 589
3 589 154 592
3 591 155 589
3 592 17 591
3 594 593 588
3 588 153 594
3 593 154 588
3 594 30 593
3 596 595 590
3 590 155 596
3 595 153 590
3 596 35 595
3 599 597 598
3 598 104 599
3 597 154 598
3 599 64 597
3 593 383 598
3 598 154 593
3 383 104 598
3 593 30 383
3 237 592 597
3 597 64 237
3 592 154 597
3 237 17 592
3 384 240 599
3 599 104 384
3 240 64 599
3 384 6 240
3 602 600 601
3 601 120 602
3 600 153 601
3 602 103 600
3 595 439 601
3 601 153 595
3 439 120 601
3 595 35 439
3 377 594 600
3 600 103 377
3 594 153 600
3 377 30 594
3 440 378 602
3 602 120 440
3 378 103 602
3 440 1 378
3 605 603 604
3 604 65 605
3 603 155 604
3 605 119 603
3 591 245 604
3 604 155 591
3 245 65 604
3 591 17 245
3 433 596 603
3 603 119 433
3 596 155 603
3 433 35 596
3 246 434 605
3 605 65 246
3 434 119 605
3 246 11 434
3 608 606 607
3 607 158 608
3 606 157 607
3 608 156 606
3 610 609 607
3 607 157 610
3 609 158 607
3 610 15 609
3 612 611 606
3 606 156 612
3 611 157 606
3 612 28 611
3 614 613 608
3 608 158 614
3 613 156 608
3 614 41 613
3 617 615 616
3 616 95 617
3 615 157 616
3 617 55 615
3 611 350 616
3 616 157 611
3 350 95 616
3 611 28 350
3 209 610 615
3 615 55 209
3 610 157 615
3 209 15 610
3 351 210 617
3 617 95 351
3 210 55 617
3 351 7 210
3 620 618 619
3 619 135 620
3 618 156 619
3 620 94 618
3 613 490 619
3 619 156 613
3 490 135 619
3 613 41 490
3 342 612 618
3 618 94 342
3 612 156 618
3 342 28 612
3 491 345 620
3 620 135 491
3 345 94 620
3 491 2 345
3 623 621 622
3 622 56 623
3 621 158 622
3 623 134 621
3 609 215 622
3 622 158 609
3 215 56 622
3 609 15 215
3 484 614 621
3 621 134 484
3 614 158 621
3 484 41 614
3 216 485 623
3 623 56 216
3 485 134 623
3 216 9 485
3 626 624 625
3 625 161 626
3 624 160 625
3 626 159 624
3 628 627 625
3 625 160 628
3 627 161 625
3 628 31 627
3 630 629 624
3 624 159 630
3 629 160 624
3 630 20 629
3 632 631 626
3 626 161 632
3 631 159 626
3 632 40 631
3 635 633 634
3 634 73 635
3 633 160 634
3 635 105 633
3 629 272 634
3 634 160 629
3 272 73 634
3 629 20 272
3 382 628 633
3 633 105 382
3 628 160 633
3 382 31 628
3 273 385 635
3 635 73 273
3 385 105 635
3 273 6 385
3 638 636 637
3 637 137 638
3 636 159 637
3 638 72 636
3 631 496 637
3 637 159 631
3 496 137 637
3 631 40 496
3 265 630 636
3 636 72 265
3 630 159 636
3 265 20 630
3 497 268 638
3 638 137 497
3 268 72 638
3 497 10 268
3 641 639 640
3 640 102 641
3 639 161 640
3 641 136 639
3 627 372 640
3 640 161 627
3 372 102 640
3 627 31 372
3 489 632 639
3 639 136 489
3 632 161 639
3 489 40 632
3 373 492 641
3 641 102 373
3 492 136 641
3 373 2 492
