# vtk DataFile Version 3.0
this file was written using fslvtkio
ASCII
DATASET POLYDATA
POINTS 642 float
108.98 105.386 138.851
79.6434 105.062 137.719
83.7642 88.2548 127.548
104.218 88.1182 128.981
104.349 90.8416 156.301
101.113 95.7368 114.164
87.4396 95.8424 110.596
85.316 91.7473 154.977
94.4535 107.236 149.315
94.0729 80.6964 136.492
93.984 81.8193 114.892
94.0823 110.435 131.726
88.5162 98.6716 158.247
100.071 98.4186 157.939
93.9798 90.5462 161.102
90.0583 86.1581 147.981
99.0288 85.3896 148.557
90.875 102.431 122.444
94.6448 95.6584 103.324
98.226 103.693 123.083
89.325 87.7197 104.68
100.011 86.7685 106.139
104.664 90.1948 143.453
108.833 99.6999 152.175
106.514 99.1473 135.498
103.452 91.1062 120.214
106.777 102.67 127.096
80.3457 100.568 151.163
84.46 91.2615 142.492
83.3102 99.3602 133.839
82.9784 101.865 125.744
84.278 90.4305 116.569
102.748 111.495 135.772
104.278 109.184 148.371
93.6982 113.067 142.774
85.6297 110.459 134.995
84.8795 108.874 148.291
101.863 82.2815 120.077
92.6735 77.5328 127.342
100.427 81.2631 132.092
86.6858 83.4297 118.819
87.3619 82.0164 132.447
94.3014 98.9685 156.577
98.0442 96.2403 163.954
90.2237 96.3343 164.478
100.616 89.2537 160.818
105.208 96.4004 161.121
97.4359 101.864 151.315
91.5083 101.934 151.475
83.758 96.2476 160.03
88.3149 89.4943 159.989
91.5816 86.0089 155.527
97.1343 86.3255 155.777
94.463 85.3903 149.071
101.765 86.6432 153.073
87.4353 87.4926 152.219
92.0094 82.9405 142.272
96.8227 83.0391 142.636
92.8094 97.8738 112.517
96.1578 98.0311 113.753
94.4938 101.587 122.395
98.664 98.3996 117.497
97.9193 95.8933 107.963
90.8324 95.9726 105.389
89.9639 98.4266 114.964
91.9671 108.16 126.822
96.711 108.277 127.26
94.8723 88.1251 104.591
98.6958 92.4642 102.772
91.4227 93.0361 100.119
101.037 91.8242 109.097
97.0617 82.7964 109.66
91.5936 82.9895 108.632
87.3419 91.9555 105.178
106.659 95.7734 148.239
108.094 98.501 142.725
104.76 94.9807 139.842
111.721 100.224 135.906
108.958 102.323 144.647
107.443 95.6792 155.59
104.359 91.1742 150.054
104.475 89.5879 135.992
103.841 94.4656 132.681
103.231 96.7045 129.246
109.94 99.3397 130.174
102.509 97.7133 125.502
108.352 104.369 132.802
103.932 89.8047 124.451
102.389 93.1331 117.051
100.773 98.652 122.265
82.5156 96.3944 147.128
83.8403 95.302 138.301
81.1602 99.0966 141.699
84.5877 93.9527 131.094
84.3389 90.0528 134.948
85.4341 92.0349 148.916
82.1529 96.3903 154.085
80.0591 102.573 143.617
77.3656 100.024 134.641
81.0549 99.7751 129.373
85.7541 94.7454 125.913
86.5032 95.92 121.568
83.292 89.5999 122.235
80.1096 104.033 131.444
87.404 97.719 118.319
85.6221 92.9159 112.867
104.218 112.416 142.761
99.6204 113.059 145.94
98.864 113.613 139.833
93.8351 111.728 147.216
99.6037 108.887 149.971
107.556 108.301 144.263
106.582 109.232 137.496
98.3811 111.669 133.541
93.6531 112.141 137.213
88.963 113.254 139.349
88.5001 113.203 145.755
84.4349 111.65 142.17
89.4147 108.907 149.847
89.7186 111.06 132.956
82.1779 108.335 136.499
81.3061 107.978 143.876
97.7199 79.292 124.292
98.588 74.0813 128.304
102.304 78.7001 126.079
97.5664 80.2342 134.456
93.2162 75.352 131.112
93.2545 81.1248 122.489
97.7913 82.2921 117.564
104.397 83.6043 123.908
103.806 83.7527 131.12
86.2128 81.0217 126.308
88.1084 74.6753 128.122
89.7067 79.9631 124.6
90.5009 80.9817 134.548
84.1006 84.5568 130.806
83.575 84.2177 122.601
90.1517 82.8699 116.307
104.61 99.106 155.362
101.424 102.473 150.175
106.498 104.098 148.818
104.793 107.633 131.594
100.734 108.81 129.365
102.37 104.426 125
100.297 82.786 139.764
102.342 87.1252 146.127
103.145 85.4619 137.629
104.416 85.6461 119.039
102.648 88.3976 112.792
100.976 83.6177 112.714
87.5188 102.337 150.47
83.8513 99.6373 155.581
82.4953 104.382 148.836
84.069 106.765 130.206
87.1338 102.808 123.489
87.851 108.307 128.174
85.4943 86.3739 137.511
86.4951 87.8265 145.284
88.0576 83.4264 139.993
87.4482 83.7776 110.32
85.3935 88.2367 109.498
83.8922 85.8759 117.032
95.7723 97.7683 160.245
94.1228 96.9667 162.697
92.4479 97.8662 160.532
92.3143 93.7478 163.296
95.7136 93.6123 162.805
99.1446 97.6128 161.287
97.1778 98.7225 156.945
91.3914 98.7533 157.169
89.25 97.7775 161.786
99.4755 92.8627 163.14
101.654 96.0778 163.285
102.636 93.0769 162.883
102.546 97.5208 160.479
97.4655 90.6736 161.497
102.929 90.3167 159.628
105.025 92.8536 160.347
95.8798 100.141 153.799
92.8419 100.141 153.895
94.4463 102.007 150.928
90.1624 99.9035 154.732
98.5851 99.8497 154.429
95.9762 104.502 149.818
92.8574 104.632 150.027
86.8376 95.6231 163.299
89.0522 92.5648 163.169
86.2162 92.9535 161.861
91.114 89.8999 161.589
86.1314 97.6972 160.824
84.4546 93.4203 158.712
86.3891 90.8916 158.389
94.3271 86.6007 156.02
95.8874 84.6582 152.35
92.9855 84.302 152.356
96.9065 85.4704 149.202
98.3128 84.2842 152.546
95.892 88.6645 159.188
92.6257 87.8956 159.079
90.5226 84.6067 151.917
92.0568 85.718 149.007
99.6463 85.8654 154.79
98.572 87.7344 158.846
101.37 87.8316 157.301
100.497 85.2137 150.8
103.053 88.6977 154.963
90.0983 87.6558 158.342
89.2465 86.2256 154.394
87.7514 88.5467 156.359
88.8112 86.1351 150.324
86.281 89.6332 153.899
93.1819 84.707 145.793
95.7083 84.8856 146.022
94.3954 83.2005 143.041
97.8463 84.7703 145.488
91.1268 84.6263 145.118
93.2387 82.1721 139.626
95.3627 82.2844 139.892
94.4854 97.8302 113.26
95.6209 99.167 118.535
93.2527 98.9687 118.187
96.1231 102.458 122.359
96.8342 99.9076 119.908
95.1972 96.7212 108.974
93.733 96.6906 108.089
92.1511 99.5792 118.461
92.821 101.81 121.968
97.4453 98.515 115.166
96.8003 96.9242 109.985
98.4582 97.139 112.483
96.175 95.8858 105.378
98.1445 99.9657 120.551
99.7023 97.099 115.143
99.487 95.8122 111.111
92.2376 96.6601 108.213
91.492 98.3561 113.671
90.5706 97.3008 110.214
90.7508 99.6687 118.576
92.886 95.8962 103.727
89.334 96.1746 108.123
88.9179 97.3315 112.066
93.3191 105.413 123.934
95.4559 105.613 124.227
94.3247 107.631 126.55
97.7335 106.404 125.082
91.0919 106.059 124.34
92.9913 109.416 129.483
95.4217 109.589 129.528
96.4599 90.8178 102.625
95.4448 93.1796 100.552
94.1276 91.288 102.098
93.1804 94.811 100.61
96.9832 94.6451 102.429
99.0739 89.5829 103.779
97.2868 87.8291 104.698
92.4161 88.825 103.777
91.1238 90.8592 102.653
98.2872 94.4162 105.514
99.9107 91.8648 105.426
99.8082 94.2438 108.91
100.914 89.4751 106.286
101.241 93.8778 111.684
96.1116 84.716 106.393
93.2752 85.4007 105.798
94.2689 83.0378 108.544
90.8894 85.3977 105.411
98.489 84.633 106.945
95.3404 81.9479 111.68
92.937 82.2647 111.398
88.9999 92.5187 102
90.5343 95.157 102.468
88.6803 94.5438 105.934
87.8959 89.5753 103.983
87.3861 93.9726 108.148
107.407 97.0416 145.346
106.138 97.2308 141.231
105.862 95.2888 143.597
105.204 97.6329 137.872
107.544 98.4221 138.953
108.173 98.9925 147.495
108.35 97.4973 150.213
105.321 93.7094 146.03
104.899 92.7072 142.506
109.923 99.2775 139.169
108.997 100.2 143.691
110.038 101.482 140.133
108.593 100.898 148.456
109.897 98.6881 135.85
110.192 102.861 137.536
109.33 103.749 141.472
106.899 95.7073 151.698
105.136 93.4998 149.349
105.578 93.8103 153.391
104.526 90.9825 146.561
108.746 97.4321 153.836
105.881 93.2381 156.894
104.661 91.145 153.298
104.651 92.2633 138.355
104.308 94.9462 136.13
104.335 91.8713 134.496
104.487 97.4846 134.657
104.69 89.9998 139.852
104.161 89.2212 132.325
103.983 91.4771 130.921
105.722 99.3684 130.666
106.2 99.4707 128.119
102.58 97.1761 127.221
105.765 100.106 126.209
108.783 100.646 127.894
108.369 99.1414 132.831
104.996 98.6639 132.595
102.228 93.7946 125.105
101.685 94.163 123.088
110.242 101.823 130.664
111.619 99.339 132.738
110.798 102.733 134.112
107.913 103.519 129.731
108.897 104.946 135.73
103.424 95.6176 130.912
102.921 92.833 126.522
103.605 91.9167 128.467
103.636 90.7191 122.473
104.105 88.9801 126.8
101.392 95.0126 121.424
102.1 98.5355 124.009
101.575 96.1988 119.658
104.432 101.205 124.548
102.65 92.0548 118.788
102.22 94.7869 115.874
100.869 97.1572 118.17
83.3239 95.7199 142.264
83.0667 97.7714 139.697
82.214 97.6388 144.03
82.1139 99.2827 137.678
83.8247 97.7902 136.13
84.0851 93.2895 141.179
83.8449 94.4156 145.115
81.2994 98.4061 149.068
81.0632 99.5439 146.259
84.2002 94.7658 134.67
84.0363 92.6698 137.013
84.1621 91.8056 133.035
84.3823 90.6963 138.63
84.4129 96.9633 132.767
84.1939 91.1104 129.44
84.0755 89.3164 131.092
84.1167 94.2737 148.38
82.4187 96.3613 150.487
84.0285 94.5175 152.03
80.4349 98.2312 152.809
84.6482 91.8564 145.618
85.2216 92.2117 152.088
83.9381 94.074 155.312
80.0663 100.478 142.58
79.3141 99.5391 138.205
78.415 101.538 139.037
80.2581 99.3643 134.785
80.9335 101.259 147.026
79.3267 103.72 140.364
77.9965 102.626 136.192
85.0428 98.0914 128.295
86.604 95.2431 123.938
85.0847 98.2588 126.172
85.6287 93.0157 118.873
85.3602 92.1214 121.052
85.0665 97.6374 130.404
82.3631 99.532 131.574
81.6795 100.19 126.954
84.924 99.0778 124.65
84.5809 91.8081 123.683
85.2158 94.4283 128.73
84.146 91.3085 126.418
83.49 89.9655 119.167
83.5346 88.9746 125.193
78.43 99.479 131.663
78.9232 101.134 129.153
77.5258 102.024 132.565
80.9388 102.969 128.292
79.7047 104.518 134.523
86.9142 97.1665 120.562
85.6653 94.5787 117.269
85.868 95.835 115.466
85.1458 91.9333 115.037
86.3866 99.3512 122.911
87.1158 97.2252 114.373
86.2183 94.5927 111.735
102.174 113.222 144.476
99.3931 113.606 142.881
101.687 113.359 141.172
96.5728 113.357 141.669
96.8964 113.326 144.328
102.137 111.891 147.294
104.32 111.693 146.096
103.371 112.177 139.397
101.055 112.782 138.195
96.8379 112.251 146.714
99.5116 111.348 148.181
96.8525 110.401 148.584
102.064 109.468 149.237
93.8733 112.713 145.063
93.8997 110.026 148.784
96.8973 107.897 149.722
106.234 110.728 143.981
105.708 111.107 140.501
107.539 109.246 141.005
104.795 110.788 137.172
106.162 109.253 146.815
108.599 106.872 141.501
108.049 107.354 138.007
98.5961 112.763 136.79
96.2142 113.013 138.666
96.1283 112.022 135.584
93.8286 112.892 140.112
100.578 111.797 134.824
96.2236 110.98 132.503
93.7503 111.333 134.356
88.7468 113.796 142.607
86.2604 113.129 144.092
86.6296 112.936 140.644
84.3843 111.311 145.424
86.2443 111.722 147.02
91.0213 113.614 144.264
91.1728 113.507 141.364
86.818 111.874 137.522
84.7999 111.338 139.003
88.6322 111.516 147.991
91.2083 112.654 146.669
91.298 110.87 148.927
86.9353 109.29 149.055
92.0291 107.907 150.093
91.4256 112.963 138.527
89.0892 112.238 136.35
91.4307 112.09 135.355
87.6005 111.199 133.986
91.8718 110.889 132.263
82.8174 110.158 139.782
82.5512 110.044 143.192
81.3764 108.424 140.32
83.0407 109.052 146.405
83.8266 109.772 136.256
80.9062 106.633 136.919
80.3727 106.379 140.758
98.1487 75.0335 124.756
101.764 74.5518 126.27
100.206 78.2329 124.466
101.665 77.8566 128.538
100.478 76.0046 129.139
96.2086 75.867 127.442
95.9753 78.0638 125.907
99.8757 80.9254 122.489
101.92 80.125 123.461
98.4655 76.65 131.122
96.1302 75.3442 130.084
96.0833 77.0439 132.878
93.0119 75.8151 128.731
99.1588 80.2574 132.596
95.7828 80.5198 135.797
93.6073 77.6304 133.839
95.5768 80.6764 123.852
97.6858 81.2729 121.696
95.5147 81.1374 119.876
99.8155 82.3482 119.147
93.3855 79.7877 125.833
93.5672 81.7424 118.511
96.0693 81.7261 115.956
102.998 81.3411 125.409
102.278 81.0898 128.484
103.802 83.2741 127.66
101.86 81.9802 131.32
103.47 81.855 121.988
104.273 85.5289 126.396
104.265 86.0058 130.131
86.6033 78.1917 127.229
88.0997 75.3173 125.039
87.64 80.3353 125.007
90.8339 78.0583 125.864
90.5067 74.264 126.578
87.5673 78.2575 129.74
86.8399 80.8323 129.195
86.2919 81.7717 122.944
88.15 82.4213 121.969
90.6948 74.7262 129.644
89.2699 77.5392 131.03
91.3859 77.6418 132.763
88.94 81.3714 133.145
92.241 80.7861 136.019
85.315 82.6287 128.461
84.8547 82.5108 124.597
83.9733 84.0841 126.759
84.9852 83.1476 120.873
85.4484 82.945 131.77
83.7886 86.4974 129.213
83.4666 85.8632 125.172
89.967 82.5832 121.133
91.4713 80.5872 123.894
91.6099 82.1905 119.588
88.4849 83.3701 117.652
91.8815 82.2407 115.26
102.726 100.686 152.94
103.803 103.324 149.692
105 101.474 151.519
105.753 106.717 148.65
103.013 106.236 149.584
100.545 100.054 153.825
102.302 98.6612 156.772
106.837 99.8073 153.717
107.414 101.845 150.043
100.952 106.293 149.88
99.427 102.154 150.505
98.3639 105.54 150.113
104.543 98.1737 157.841
107.836 98.3091 155.826
106.374 95.5791 157.911
108.258 103.526 146.927
107.673 106.754 146.726
108.632 105.423 143.87
102.797 108.558 130.38
101.494 106.707 126.841
103.664 106.263 128.271
99.9948 103.851 123.655
99.6292 106.797 125.976
101.841 110.4 132.567
104.044 109.825 133.674
105.603 105.223 129.355
104.623 103.817 126.045
98.7992 108.645 128.158
99.8001 110.47 131.598
97.6318 110.153 130.332
105.581 108.532 134.573
106.606 106.036 132.104
107.378 106.812 135.04
102.131 101.617 123.575
99.6804 101.004 122.304
99.675 98.4356 119.971
101.229 85.092 142.95
102.568 86.3799 141.812
101.929 83.9048 138.882
103.805 87.8446 140.635
103.599 88.4485 144.65
100.621 86.209 147.022
99.6199 84.7114 144.202
100.713 81.9614 135.786
102.694 82.6092 135.084
103.22 89.076 148.114
101.892 86.9796 149.81
103.429 88.8438 151.746
98.6545 82.6078 141.507
98.8805 81.8638 136.753
97.029 82.0048 138.46
103.741 84.256 134.15
103.905 87.6407 137.074
104.095 86.882 133.361
103.625 87.0687 116.04
102.162 85.8538 112.078
102.987 84.619 115.864
100.686 84.6805 109.057
101.618 87.4324 108.91
103.567 89.5158 116.559
104.072 88.4071 119.244
103.715 83.1791 119.013
101.548 83.0863 116.597
101.97 89.809 110.113
102.679 90.7252 114.62
102.194 92.4566 113.073
104.534 87.7118 121.644
104.741 84.058 121.24
104.582 86.5437 124.146
99.4825 82.8085 115.103
99.1246 83.1899 110.427
97.4255 82.3593 113.477
85.949 100.841 153.302
83.5121 101.893 151.759
85.1881 103.475 150.13
81.6945 102.111 149.408
81.8388 100.321 153.62
86.2269 98.9051 157.201
88.2293 100.286 154.358
86.0843 105.964 149.562
83.3694 106.784 148.561
80.7994 98.6923 155.482
83.9836 98.3986 157.818
82.7475 95.7218 156.72
89.5424 102.178 150.765
88.0917 106.186 149.801
90.5889 105.618 149.96
81.7828 106.544 146.277
81.1695 103.785 146.42
80.5541 105.281 143.204
85.1968 105.175 126.511
87.2942 105.741 125.231
86.0149 107.556 128.904
89.1815 106.37 125.018
89.2515 102.572 122.602
85.0739 102.349 124.423
83.2053 104.367 127.599
84.7794 108.966 132.5
86.8057 109.769 131.51
89.5039 99.8211 120.099
87.8593 99.7181 121.542
88.6762 98.1401 116.544
82.2725 105.416 130.837
83.1471 107.872 133.457
81.3993 106.237 133.962
88.701 109.986 130.592
89.9012 108.318 127.221
90.8801 109.883 129.819
86.0845 87.1795 141.436
87.5181 85.7417 142.847
86.4436 84.5282 138.824
89.1749 84.9115 144.016
88.2676 86.7257 146.463
85.2671 89.3565 143.803
85.1011 88.8281 140.011
85.5566 83.4055 135.225
87.1788 82.4288 136.18
87.517 87.9457 148.922
85.8625 89.7474 147.118
86.2467 89.8347 150.77
84.6757 88.3157 136.414
84.5171 85.2063 134.073
84.3085 87.4533 132.668
89.1195 82.2796 137.236
89.8977 82.9011 141.431
91.112 82.2215 138.441
86.1854 85.645 109.147
84.9108 86.7942 112.841
85.5057 84.7715 113.325
83.8982 87.8877 116.112
84.7833 89.1626 113.102
86.7069 87.295 106.074
88.2883 84.9757 106.524
86.8547 83.6848 114.583
85.0215 84.2137 117.298
85.3168 90.5771 111.149
85.9989 89.6342 106.753
86.3224 92.126 108.88
89.4204 83.4521 108.351
88.5852 83.1908 113.301
90.703 82.6706 112.399
83.6106 84.875 119.838
83.2399 87.707 119.589
83.3765 86.8832 122.697
POLYGONS 1280  5120
3 164 162 163
3 163 44 164
3 162 43 163
3 164 42 162
3 166 165 163
3 163 43 166
3 165 44 163
3 166 14 165
3 168 167 162
3 162 42 168
3 167 43 162
3 168 13 167
3 170 169 164
3 164 44 170
3 169 42 164
3 170 12 169
3 173 171 172
3 172 46 173
3 171 43 172
3 173 45 171
3 167 174 172
3 172 43 167
3 174 46 172
3 167 13 174
3 175 166 171
3 171 45 175
3 166 43 171
3 175 14 166
3 177 176 173
3 173 46 177
3 176 45 173
3 177 4 176
3 180 178 179
3 179 48 180
3 178 42 179
3 180 47 178
3 169 181 179
3 179 42 169
3 181 48 179
3 169 12 181
3 182 168 178
3 178 47 182
3 168 42 178
3 182 13 168
3 184 183 180
3 180 48 184
3 183 47 180
3 184 8 183
3 187 185 186
3 186 50 187
3 185 44 186
3 187 49 185
3 165 188 186
3 186 44 165
3 188 50 186
3 165 14 188
3 189 170 185
3 185 49 189
3 170 44 185
3 189 12 170
3 191 190 187
3 187 50 191
3 190 49 187
3 191 7 190
3 194 192 193
3 193 53 194
3 192 52 193
3 194 51 192
3 196 195 193
3 193 52 196
3 195 53 193
3 196 16 195
3 198 197 192
3 192 51 198
3 197 52 192
3 198 14 197
3 200 199 194
3 194 53 200
3 199 51 194
3 200 15 199
3 203 201 202
3 202 45 203
3 201 52 202
3 203 54 201
3 197 175 202
3 202 52 197
3 175 45 202
3 197 14 175
3 204 196 201
3 201 54 204
3 196 52 201
3 204 16 196
3 176 205 203
3 203 45 176
3 205 54 203
3 176 4 205
3 208 206 207
3 207 55 208
3 206 51 207
3 208 50 206
3 199 209 207
3 207 51 199
3 209 55 207
3 199 15 209
3 188 198 206
3 206 50 188
3 198 51 206
3 188 14 198
3 210 191 208
3 208 55 210
3 191 50 208
3 210 7 191
3 213 211 212
3 212 57 213
3 211 53 212
3 213 56 211
3 195 214 212
3 212 53 195
3 214 57 212
3 195 16 214
3 215 200 211
3 211 56 215
3 200 53 211
3 215 15 200
3 217 216 213
3 213 57 217
3 216 56 213
3 217 9 216
3 220 218 219
3 219 60 220
3 218 59 219
3 220 58 218
3 222 221 219
3 219 59 222
3 221 60 219
3 222 19 221
3 224 223 218
3 218 58 224
3 223 59 218
3 224 18 223
3 226 225 220
3 220 60 226
3 225 58 220
3 226 17 225
3 229 227 228
3 228 62 229
3 227 59 228
3 229 61 227
3 223 230 228
3 228 59 223
3 230 62 228
3 223 18 230
3 231 222 227
3 227 61 231
3 222 59 227
3 231 19 222
3 233 232 229
3 229 62 233
3 232 61 229
3 233 5 232
3 236 234 235
3 235 64 236
3 234 58 235
3 236 63 234
3 225 237 235
3 235 58 225
3 237 64 235
3 225 17 237
3 238 224 234
3 234 63 238
3 224 58 234
3 238 18 224
3 240 239 236
3 236 64 240
3 239 63 236
3 240 6 239
3 243 241 242
3 242 66 243
3 241 60 242
3 243 65 241
3 221 244 242
3 242 60 221
3 244 66 242
3 221 19 244
3 245 226 241
3 241 65 245
3 226 60 241
3 245 17 226
3 247 246 243
3 243 66 247
3 246 65 243
3 247 11 246
3 250 248 249
3 249 69 250
3 248 68 249
3 250 67 248
3 252 251 249
3 249 68 252
3 251 69 249
3 252 18 251
3 254 253 248
3 248 67 254
3 253 68 248
3 254 21 253
3 256 255 250
3 250 69 256
3 255 67 250
3 256 20 255
3 259 257 258
3 258 70 259
3 257 68 258
3 259 62 257
3 253 260 258
3 258 68 253
3 260 70 258
3 253 21 260
3 230 252 257
3 257 62 230
3 252 68 257
3 230 18 252
3 261 233 259
3 259 70 261
3 233 62 259
3 261 5 233
3 264 262 263
3 263 72 264
3 262 67 263
3 264 71 262
3 255 265 263
3 263 67 255
3 265 72 263
3 255 20 265
3 266 254 262
3 262 71 266
3 254 67 262
3 266 21 254
3 268 267 264
3 264 72 268
3 267 71 264
3 268 10 267
3 271 269 270
3 270 63 271
3 269 69 270
3 271 73 269
3 251 238 270
3 270 69 251
3 238 63 270
3 251 18 238
3 272 256 269
3 269 73 272
3 256 69 269
3 272 20 256
3 239 273 271
3 271 63 239
3 273 73 271
3 239 6 273
3 276 274 275
3 275 76 276
3 274 75 275
3 276 74 274
3 278 277 275
3 275 75 278
3 277 76 275
3 278 24 277
3 280 279 274
3 274 74 280
3 279 75 274
3 280 23 279
3 282 281 276
3 276 76 282
3 281 74 276
3 282 22 281
3 285 283 284
3 284 78 285
3 283 75 284
3 285 77 283
3 279 286 284
3 284 75 279
3 286 78 284
3 279 23 286
3 287 278 283
3 283 77 287
3 278 75 283
3 287 24 278
3 289 288 285
3 285 78 289
3 288 77 285
3 289 0 288
3 292 290 291
3 291 80 292
3 290 74 291
3 292 79 290
3 281 293 291
3 291 74 281
3 293 80 291
3 281 22 293
3 294 280 290
3 290 79 294
3 280 74 290
3 294 23 280
3 296 295 292
3 292 80 296
3 295 79 292
3 296 4 295
3 299 297 298
3 298 82 299
3 297 76 298
3 299 81 297
3 277 300 298
3 298 76 277
3 300 82 298
3 277 24 300
3 301 282 297
3 297 81 301
3 282 76 297
3 301 22 282
3 303 302 299
3 299 82 303
3 302 81 299
3 303 3 302
3 306 304 305
3 305 85 306
3 304 84 305
3 306 83 304
3 308 307 305
3 305 84 308
3 307 85 305
3 308 26 307
3 310 309 304
3 304 83 310
3 309 84 304
3 310 24 309
3 312 311 306
3 306 85 312
3 311 83 306
3 312 25 311
3 315 313 314
3 314 77 315
3 313 84 314
3 315 86 313
3 309 287 314
3 314 84 309
3 287 77 314
3 309 24 287
3 316 308 313
3 313 86 316
3 308 84 313
3 316 26 308
3 288 317 315
3 315 77 288
3 317 86 315
3 288 0 317
3 320 318 319
3 319 87 320
3 318 83 319
3 320 82 318
3 311 321 319
3 319 83 311
3 321 87 319
3 311 25 321
3 300 310 318
3 318 82 300
3 310 83 318
3 300 24 310
3 322 303 320
3 320 87 322
3 303 82 320
3 322 3 303
3 325 323 324
3 324 89 325
3 323 85 324
3 325 88 323
3 307 326 324
3 324 85 307
3 326 89 324
3 307 26 326
3 327 312 323
3 323 88 327
3 312 85 323
3 327 25 312
3 329 328 325
3 325 89 329
3 328 88 325
3 329 5 328
3 332 330 331
3 331 92 332
3 330 91 331
3 332 90 330
3 334 333 331
3 331 91 334
3 333 92 331
3 334 29 333
3 336 335 330
3 330 90 336
3 335 91 330
3 336 28 335
3 338 337 332
3 332 92 338
3 337 90 332
3 338 27 337
3 341 339 340
3 340 94 341
3 339 91 340
3 341 93 339
3 335 342 340
3 340 91 335
3 342 94 340
3 335 28 342
3 343 334 339
3 339 93 343
3 334 91 339
3 343 29 334
3 345 344 341
3 341 94 345
3 344 93 341
3 345 2 344
3 348 346 347
3 347 96 348
3 346 90 347
3 348 95 346
3 337 349 347
3 347 90 337
3 349 96 347
3 337 27 349
3 350 336 346
3 346 95 350
3 336 90 346
3 350 28 336
3 352 351 348
3 348 96 352
3 351 95 348
3 352 7 351
3 355 353 354
3 354 98 355
3 353 92 354
3 355 97 353
3 333 356 354
3 354 92 333
3 356 98 354
3 333 29 356
3 357 338 353
3 353 97 357
3 338 92 353
3 357 27 338
3 359 358 355
3 355 98 359
3 358 97 355
3 359 1 358
3 362 360 361
3 361 101 362
3 360 100 361
3 362 99 360
3 364 363 361
3 361 100 364
3 363 101 361
3 364 31 363
3 366 365 360
3 360 99 366
3 365 100 360
3 366 29 365
3 368 367 362
3 362 101 368
3 367 99 362
3 368 30 367
3 371 369 370
3 370 93 371
3 369 100 370
3 371 102 369
3 365 343 370
3 370 100 365
3 343 93 370
3 365 29 343
3 372 364 369
3 369 102 372
3 364 100 369
3 372 31 364
3 344 373 371
3 371 93 344
3 373 102 371
3 344 2 373
3 376 374 375
3 375 103 376
3 374 99 375
3 376 98 374
3 367 377 375
3 375 99 367
3 377 103 375
3 367 30 377
3 356 366 374
3 374 98 356
3 366 99 374
3 356 29 366
3 378 359 376
3 376 103 378
3 359 98 376
3 378 1 359
3 381 379 380
3 380 105 381
3 379 101 380
3 381 104 379
3 363 382 380
3 380 101 363
3 382 105 380
3 363 31 382
3 383 368 379
3 379 104 383
3 368 101 379
3 383 30 368
3 385 384 381
3 381 105 385
3 384 104 381
3 385 6 384
3 388 386 387
3 387 108 388
3 386 107 387
3 388 106 386
3 390 389 387
3 387 107 390
3 389 108 387
3 390 34 389
3 392 391 386
3 386 106 392
3 391 107 386
3 392 33 391
3 394 393 388
3 388 108 394
3 393 106 388
3 394 32 393
3 397 395 396
3 396 110 397
3 395 107 396
3 397 109 395
3 391 398 396
3 396 107 391
3 398 110 396
3 391 33 398
3 399 390 395
3 395 109 399
3 390 107 395
3 399 34 390
3 401 400 397
3 397 110 401
3 400 109 397
3 401 8 400
3 404 402 403
3 403 112 404
3 402 106 403
3 404 111 402
3 393 405 403
3 403 106 393
3 405 112 403
3 393 32 405
3 406 392 402
3 402 111 406
3 392 106 402
3 406 33 392
3 408 407 404
3 404 112 408
3 407 111 404
3 408 0 407
3 411 409 410
3 410 114 411
3 409 108 410
3 411 113 409
3 389 412 410
3 410 108 389
3 412 114 410
3 389 34 412
3 413 394 409
3 409 113 413
3 394 108 409
3 413 32 394
3 415 414 411
3 411 114 415
3 414 113 411
3 415 11 414
3 418 416 417
3 417 117 418
3 416 116 417
3 418 115 416
3 420 419 417
3 417 116 420
3 419 117 417
3 420 36 419
3 422 421 416
3 416 115 422
3 421 116 416
3 422 34 421
3 424 423 418
3 418 117 424
3 423 115 418
3 424 35 423
3 427 425 426
3 426 109 427
3 425 116 426
3 427 118 425
3 421 399 426
3 426 116 421
3 399 109 426
3 421 34 399
3 428 420 425
3 425 118 428
3 420 116 425
3 428 36 420
3 400 429 427
3 427 109 400
3 429 118 427
3 400 8 429
3 432 430 431
3 431 119 432
3 430 115 431
3 432 114 430
3 423 433 431
3 431 115 423
3 433 119 431
3 423 35 433
3 412 422 430
3 430 114 412
3 422 115 430
3 412 34 422
3 434 415 432
3 432 119 434
3 415 114 432
3 434 11 415
3 437 435 436
3 436 121 437
3 435 117 436
3 437 120 435
3 419 438 436
3 436 117 419
3 438 121 436
3 419 36 438
3 439 424 435
3 435 120 439
3 424 117 435
3 439 35 424
3 441 440 437
3 437 121 441
3 440 120 437
3 441 1 440
3 444 442 443
3 443 124 444
3 442 123 443
3 444 122 442
3 446 445 443
3 443 123 446
3 445 124 443
3 446 39 445
3 448 447 442
3 442 122 448
3 447 123 442
3 448 38 447
3 450 449 444
3 444 124 450
3 449 122 444
3 450 37 449
3 453 451 452
3 452 126 453
3 451 123 452
3 453 125 451
3 447 454 452
3 452 123 447
3 454 126 452
3 447 38 454
3 455 446 451
3 451 125 455
3 446 123 451
3 455 39 446
3 457 456 453
3 453 126 457
3 456 125 453
3 457 9 456
3 460 458 459
3 459 128 460
3 458 122 459
3 460 127 458
3 449 461 459
3 459 122 449
3 461 128 459
3 449 37 461
3 462 448 458
3 458 127 462
3 448 122 458
3 462 38 448
3 464 463 460
3 460 128 464
3 463 127 460
3 464 10 463
3 467 465 466
3 466 130 467
3 465 124 466
3 467 129 465
3 445 468 466
3 466 124 445
3 468 130 466
3 445 39 468
3 469 450 465
3 465 129 469
3 450 124 465
3 469 37 450
3 471 470 467
3 467 130 471
3 470 129 467
3 471 3 470
3 474 472 473
3 473 133 474
3 472 132 473
3 474 131 472
3 476 475 473
3 473 132 476
3 475 133 473
3 476 38 475
3 478 477 472
3 472 131 478
3 477 132 472
3 478 41 477
3 480 479 474
3 474 133 480
3 479 131 474
3 480 40 479
3 483 481 482
3 482 134 483
3 481 132 482
3 483 126 481
3 477 484 482
3 482 132 477
3 484 134 482
3 477 41 484
3 454 476 481
3 481 126 454
3 476 132 481
3 454 38 476
3 485 457 483
3 483 134 485
3 457 126 483
3 485 9 457
3 488 486 487
3 487 136 488
3 486 131 487
3 488 135 486
3 479 489 487
3 487 131 479
3 489 136 487
3 479 40 489
3 490 478 486
3 486 135 490
3 478 131 486
3 490 41 478
3 492 491 488
3 488 136 492
3 491 135 488
3 492 2 491
3 495 493 494
3 494 127 495
3 493 133 494
3 495 137 493
3 475 462 494
3 494 133 475
3 462 127 494
3 475 38 462
3 496 480 493
3 493 137 496
3 480 133 493
3 496 40 480
3 463 497 495
3 495 127 463
3 497 137 495
3 463 10 497
3 500 498 499
3 499 140 500
3 498 139 499
3 500 138 498
3 502 501 499
3 499 139 502
3 501 140 499
3 502 33 501
3 504 503 498
3 498 138 504
3 503 139 498
3 504 13 503
3 506 505 500
3 500 140 506
3 505 138 500
3 506 23 505
3 509 507 508
3 508 47 509
3 507 139 508
3 509 110 507
3 503 182 508
3 508 139 503
3 182 47 508
3 503 13 182
3 398 502 507
3 507 110 398
3 502 139 507
3 398 33 502
3 183 401 509
3 509 47 183
3 401 110 509
3 183 8 401
3 512 510 511
3 511 79 512
3 510 138 511
3 512 46 510
3 505 294 511
3 511 138 505
3 294 79 511
3 505 23 294
3 174 504 510
3 510 46 174
3 504 138 510
3 174 13 504
3 295 177 512
3 512 79 295
3 177 46 512
3 295 4 177
3 515 513 514
3 514 111 515
3 513 140 514
3 515 78 513
3 501 406 514
3 514 140 501
3 406 111 514
3 501 33 406
3 286 506 513
3 513 78 286
3 506 140 513
3 286 23 506
3 407 289 515
3 515 111 407
3 289 78 515
3 407 0 289
3 518 516 517
3 517 143 518
3 516 142 517
3 518 141 516
3 520 519 517
3 517 142 520
3 519 143 517
3 520 19 519
3 522 521 516
3 516 141 522
3 521 142 516
3 522 32 521
3 524 523 518
3 518 143 524
3 523 141 518
3 524 26 523
3 527 525 526
3 526 113 527
3 525 142 526
3 527 66 525
3 521 413 526
3 526 142 521
3 413 113 526
3 521 32 413
3 244 520 525
3 525 66 244
3 520 142 525
3 244 19 520
3 414 247 527
3 527 113 414
3 247 66 527
3 414 11 247
3 530 528 529
3 529 86 530
3 528 141 529
3 530 112 528
3 523 316 529
3 529 141 523
3 316 86 529
3 523 26 316
3 405 522 528
3 528 112 405
3 522 141 528
3 405 32 522
3 317 408 530
3 530 86 317
3 408 112 530
3 317 0 408
3 533 531 532
3 532 61 533
3 531 143 532
3 533 89 531
3 519 231 532
3 532 143 519
3 231 61 532
3 519 19 231
3 326 524 531
3 531 89 326
3 524 143 531
3 326 26 524
3 232 329 533
3 533 61 232
3 329 89 533
3 232 5 329
3 536 534 535
3 535 146 536
3 534 145 535
3 536 144 534
3 538 537 535
3 535 145 538
3 537 146 535
3 538 22 537
3 540 539 534
3 534 144 540
3 539 145 534
3 540 16 539
3 542 541 536
3 536 146 542
3 541 144 536
3 542 39 541
3 545 543 544
3 544 54 545
3 543 145 544
3 545 80 543
3 539 204 544
3 544 145 539
3 204 54 544
3 539 16 204
3 293 538 543
3 543 80 293
3 538 145 543
3 293 22 538
3 205 296 545
3 545 54 205
3 296 80 545
3 205 4 296
3 548 546 547
3 547 125 548
3 546 144 547
3 548 57 546
3 541 455 547
3 547 144 541
3 455 125 547
3 541 39 455
3 214 540 546
3 546 57 214
3 540 144 546
3 214 16 540
3 456 217 548
3 548 125 456
3 217 57 548
3 456 9 217
3 551 549 550
3 550 81 551
3 549 146 550
3 551 130 549
3 537 301 550
3 550 146 537
3 301 81 550
3 537 22 301
3 468 542 549
3 549 130 468
3 542 146 549
3 468 39 542
3 302 471 551
3 551 81 302
3 471 130 551
3 302 3 471
3 554 552 553
3 553 149 554
3 552 148 553
3 554 147 552
3 556 555 553
3 553 148 556
3 555 149 553
3 556 21 555
3 558 557 552
3 552 147 558
3 557 148 552
3 558 25 557
3 560 559 554
3 554 149 560
3 559 147 554
3 560 37 559
3 563 561 562
3 562 88 563
3 561 148 562
3 563 70 561
3 557 327 562
3 562 148 557
3 327 88 562
3 557 25 327
3 260 556 561
3 561 70 260
3 556 148 561
3 260 21 556
3 328 261 563
3 563 88 328
3 261 70 563
3 328 5 261
3 566 564 565
3 565 129 566
3 564 147 565
3 566 87 564
3 559 469 565
3 565 147 559
3 469 129 565
3 559 37 469
3 321 558 564
3 564 87 321
3 558 147 564
3 321 25 558
3 470 322 566
3 566 129 470
3 322 87 566
3 470 3 322
3 569 567 568
3 568 71 569
3 567 149 568
3 569 128 567
3 555 266 568
3 568 149 555
3 266 71 568
3 555 21 266
3 461 560 567
3 567 128 461
3 560 149 567
3 461 37 560
3 267 464 569
3 569 71 267
3 464 128 569
3 267 10 464
3 572 570 571
3 571 152 572
3 570 151 571
3 572 150 570
3 574 573 571
3 571 151 574
3 573 152 571
3 574 27 573
3 576 575 570
3 570 150 576
3 575 151 570
3 576 12 575
3 578 577 572
3 572 152 578
3 577 150 572
3 578 36 577
3 581 579 580
3 580 49 581
3 579 151 580
3 581 96 579
3 575 189 580
3 580 151 575
3 189 49 580
3 575 12 189
3 349 574 579
3 579 96 349
3 574 151 579
3 349 27 574
3 190 352 581
3 581 49 190
3 352 96 581
3 190 7 352
3 584 582 583
3 583 118 584
3 582 150 583
3 584 48 582
3 577 428 583
3 583 150 577
3 428 118 583
3 577 36 428
3 181 576 582
3 582 48 181
3 576 150 582
3 181 12 576
3 429 184 584
3 584 118 429
3 184 48 584
3 429 8 184
3 587 585 586
3 586 97 587
3 585 152 586
3 587 121 585
3 573 357 586
3 586 152 573
3 357 97 586
3 573 27 357
3 438 578 585
3 585 121 438
3 578 152 585
3 438 36 578
3 358 441 587
3 587 97 358
3 441 121 587
3 358 1 441
3 590 588 589
3 589 155 590
3 588 154 589
3 590 153 588
3 592 591 589
3 589 154 592
3 591 155 589
3 592 17 591
3 594 593 588
3 588 153 594
3 593 154 588
3 594 30 593
3 596 595 590
3 590 155 596
3 595 153 590
3 596 35 595
3 599 597 598
3 598 104 599
3 597 154 598
3 599 64 597
3 593 383 598
3 598 154 593
3 383 104 598
3 593 30 383
3 237 592 597
3 597 64 237
3 592 154 597
3 237 17 592
3 384 240 599
3 599 104 384
3 240 64 599
3 384 6 240
3 602 600 601
3 601 120 602
3 600 153 601
3 602 103 600
3 595 439 601
3 601 153 595
3 439 120 601
3 595 35 439
3 377 594 600
3 600 103 377
3 594 153 600
3 377 30 594
3 440 378 602
3 602 120 440
3 378 103 602
3 440 1 378
3 605 603 604
3 604 65 605
3 603 155 604
3 605 119 603
3 591 245 604
3 604 155 591
3 245 65 604
3 591 17 245
3 433 596 603
3 603 119 433
3 596 155 603
3 433 35 596
3 246 434 605
3 605 65 246
3 434 119 605
3 246 11 434
3 608 606 607
3 607 158 608
3 606 157 607
3 608 156 606
3 610 609 607
3 607 157 610
3 609 158 607
3 610 15 609
3 612 611 606
3 606 156 612
3 611 157 606
3 612 28 611
3 614 613 608
3 608 158 614
3 613 156 608
3 614 41 613
3 617 615 616
3 616 95 617
3 615 157 616
3 617 55 615
3 611 350 616
3 616 157 611
3 350 95 616
3 611 28 350
3 209 610 615
3 615 55 209
3 610 157 615
3 209 15 610
3 351 210 617
3 617 95 351
3 210 55 617
3 351 7 210
3 620 618 619
3 619 135 620
3 618 156 619
3 620 94 618
3 613 490 619
3 619 156 613
3 490 135 619
3 613 41 490
3 342 612 618
3 618 94 342
3 612 156 618
3 342 28 612
3 491 345 620
3 620 135 491
3 345 94 620
3 491 2 345
3 623 621 622
3 622 56 623
3 621 158 622
3 623 134 621
3 609 215 622
3 622 158 609
3 215 56 622
3 609 15 215
3 484 614 621
3 621 134 484
3 614 158 621
3 484 41 614
3 216 485 623
3 623 56 216
3 485 134 623
3 216 9 485
3 626 624 625
3 625 161 626
3 624 160 625
3 626 159 624
3 628 627 625
3 625 160 628
3 627 161 625
3 628 31 627
3 630 629 624
3 624 159 630
3 629 160 624
3 630 20 629
3 632 631 626
3 626 161 632
3 631 159 626
3 632 40 631
3 635 633 634
3 634 73 635
3 633 160 634
3 635 105 633
3 629 272 634
3 634 160 629
3 272 73 634
3 629 20 272
3 382 628 633
3 633 105 382
3 628 160 633
3 382 31 628
3 273 385 635
3 635 73 273
3 385 105 635
3 273 6 385
3 638 636 637
3 637 137 638
3 636 159 637
3 638 72 636
3 631 496 637
3 637 159 631
3 496 137 637
3 631 40 496
3 265 630 636
3 636 72 265
3 630 159 636
3 265 20 630
3 497 268 638
3 638 137 497
3 268 72 638
3 497 10 268
3 641 639 640
3 640 102 641
3 639 161 640
3 641 136 639
3 627 372 640
3 640 161 627
3 372 102 640
3 627 31 372
3 489 632 639
3 639 136 489
3 632 161 639
3 489 40 632
3 373 492 641
3 641 102 373
3 492 136 641
3 373 2 492
