# vtk DataFile Version 3.0
this file was written using fslvtkio
ASCII
DATASET POLYDATA
POINTS 664 float
72.1027 117.779 145.111
70.6134 117.454 145.659
71.215 115.756 145.514
73.0385 115.622 145.259
73.7842 117.369 145.168
74.2753 115.696 145.501
70.6237 119.268 146.024
68.9609 118.859 147.335
69.4013 117.739 146.476
72.2335 119.968 145.205
73.5959 119.28 144.852
75.1036 116.826 145.438
75.1107 118.671 145.322
75.9186 117.255 145.89
76.2606 118.275 146.081
76.8307 116.918 146.475
70.3832 120.815 147.209
68.8704 120.378 148.453
71.8269 121.431 146.158
73.5463 121.44 145.575
75.0314 120.71 145.349
76.4484 119.629 145.909
77.3875 118.018 146.808
70.4548 121.849 148.365
70.0521 121.074 149.488
71.722 122.563 147.498
73.5426 122.803 146.809
75.195 122.515 146.342
76.6422 121.396 146.365
77.881 119.756 146.974
71.8904 122.224 149.215
73.5829 122.773 148.593
75.2695 122.807 148.096
76.89 122.28 147.81
77.9504 121.241 147.683
69.657 116.45 146.197
68.0799 116.482 147.457
69.2219 115.291 146.716
70.2782 114.227 146.185
72.2001 113.899 145.866
74.3326 113.918 145.832
75.2325 115.329 145.928
75.6828 113.924 146.267
67.6277 118.594 148.532
76.3707 115.645 146.426
77.6763 115.952 147.32
68.2443 119.876 150.036
78.629 118.046 147.643
70.035 120.335 150.588
79.0163 120.132 148.097
71.9176 121.143 150.291
73.6262 122.006 150.214
75.2897 122.373 149.786
77.0572 122.322 149.601
78.6924 121.597 149.358
68.8763 111.586 147.266
67.5084 111.081 148.228
68.6037 110.329 148.093
69.6812 109.718 147.734
70.6532 110.87 146.811
71.1801 109.464 147.37
68.2041 113.79 147.436
66.659 113.086 148.169
70.2254 112.733 146.62
71.8547 110.534 146.87
71.9588 112.21 146.566
73.0415 110.833 146.744
66.7532 115.018 148.281
65.132 115.392 149.86
65.3392 113.745 148.954
73.917 112.282 146.39
76.137 112.136 146.765
76.8623 114.13 146.803
77.8948 113.726 147.514
66.5699 116.864 148.959
65.7442 116.898 150.523
78.8301 115.701 148.289
66.6985 118.518 150.064
66.3889 117.657 151.958
79.4323 117.24 148.662
79.6626 118.858 148.8
80.5372 117.737 149.638
67.3832 119.274 151.559
69.2216 119.575 151.812
79.6931 120.333 149.468
80.8459 119.276 150.04
71.4188 120.175 151.372
73.4608 120.661 151.129
75.1168 121.248 151.161
76.8503 121.729 151.197
78.6955 121.695 151.113
80.21 120.804 151.01
68.4741 108.803 148.475
66.8059 108.302 148.907
67.4019 106.937 148.891
69.2139 106.608 148.466
70.737 108.075 148.045
71.2073 106.139 148.558
72.7718 107.147 148.238
73.0897 105.341 149.336
66.38 109.929 149.058
64.7793 108.984 149.529
65.7221 108.424 149.162
72.5771 109.041 147.56
74.5722 106.701 148.367
74.4588 108.699 147.846
75.6088 107.786 148.28
76.0241 109.139 147.914
76.6729 108.568 148.578
64.1836 110.95 149.73
62.5836 111.108 150.862
63.1233 109.578 150.383
65.5958 111.938 148.841
74.4265 110.505 146.831
75.8748 110.273 147.27
77.4346 110.408 147.838
63.8111 112.997 149.995
63.0803 112.92 151.839
78.3797 112.132 147.979
79.6347 114.411 148.752
79.8465 113.229 149.048
80.8083 114.453 149.846
80.8283 113.547 150.252
64.1903 114.621 151.187
65.0649 116.13 152.055
80.284 116.215 149.466
81.3183 115.598 150.307
82.0575 114.519 150.955
66.4356 117.032 153.479
81.7607 117.385 150.768
82.8439 116.226 151.681
67.57 118.675 153.056
69.3082 118.82 153.423
81.6866 119.182 151.305
82.8975 118.125 152.255
70.9235 119.388 152.558
72.7252 119.757 152.067
74.4983 119.771 152.083
76.3178 120.321 152.078
78.11 120.737 152.474
79.8727 120.642 152.653
81.5592 119.776 152.63
65.5311 104.917 149.524
63.7304 104.81 150.173
64.6056 103.374 149.844
66.4622 103.338 149.528
67.502 105.171 149.122
68.3739 103.219 149.36
69.6533 104.889 149.099
70.3657 103.174 149.716
71.4383 104.662 149.418
72.4081 103.466 150.215
65.4731 106.823 149.546
63.469 106.433 150.295
73.9408 104.657 150.82
63.6469 108.018 150.216
62.0983 108.958 151.844
62.2402 107.043 150.83
74.9524 105.542 149.678
76.402 106.626 149.119
77.7035 108.589 149.143
62.248 110.977 152.768
78.8046 109.711 149.228
63.2782 112.753 153.631
79.2705 110.914 149.063
80.0763 112.203 149.795
81.3962 113.054 151.194
64.0952 114.662 152.961
65.5447 115.675 154.028
82.9817 114.57 152.384
67.4755 116.184 154.798
83.7751 116.685 153.451
68.2359 117.538 154.036
69.7004 117.778 154.062
74.6492 118.575 153.075
74.1403 117.314 153.527
73.6072 118.347 152.947
75.1614 117.724 153.648
82.9687 118.576 154.022
70.835 118.32 153.302
72.388 118.478 152.893
75.7369 119.121 153.064
77.3098 119.456 153.423
79.1203 119.499 153.703
80.9751 119.29 153.93
65.9693 99.9847 150.218
64.7572 98.8346 150.474
65.9796 98.3726 150.318
67.2131 98.1787 150.133
68.0699 99.8073 149.892
68.9879 98.0674 150.192
69.886 99.9445 150.127
70.4286 98.2727 150.702
71.2317 100.087 150.766
71.9026 99.0258 151.348
63.8664 100.873 150.686
62.1956 101.092 151.543
63.0806 99.4322 151.192
65.0816 101.908 150.062
67.0759 101.49 149.723
69.0825 101.54 149.77
71.0212 101.676 150.294
72.6352 101.338 150.883
63.0204 102.9 150.803
61.607 103.495 152.039
73.7007 103.22 151.224
62.283 105.253 151.181
61.6145 106.849 152.442
74.6135 104.209 151.641
62.0672 109.224 153.917
75.6569 104.89 151.244
76.8944 105.575 150.625
77.7837 107.098 150.132
79.066 108.746 150.347
78.7535 107.939 151.301
62.8797 110.904 154.493
79.8345 109.933 150.384
79.9475 109.669 152.208
64.1814 112.139 155.043
80.7143 111.183 151.39
82.0427 112.878 152.747
64.8938 114.04 154.483
66.7853 114.646 155.4
83.4601 114.798 154.086
68.797 115.135 155.638
69.5419 116.599 154.877
71.5229 115.989 154.65
70.5731 114.91 155.328
73.1619 115.544 154.489
72.1467 114.57 155.091
74.7345 116.108 154.377
73.7516 114.016 155.02
76.6684 116.491 154.627
75.5661 114.618 154.743
78.4894 116.737 155.212
77.4236 114.836 155.103
79.0367 115.043 155.399
83.2651 116.751 155.094
71.1642 117.279 153.958
72.8075 116.962 153.707
76.2756 117.892 153.994
78.0496 118.276 154.467
80.0184 116.414 155.661
80.0034 118.046 154.954
81.8257 118.079 155.097
81.5562 116.434 155.672
66.1015 96.8328 150.478
64.4861 96.2904 151.037
65.4942 95.2518 151.091
67.1746 94.902 150.657
68.1197 96.5404 150.425
69.0933 94.826 150.827
69.8998 96.3786 150.783
71.41 95.1366 151.579
71.2957 97.0603 151.088
72.4614 96.8882 151.697
63.897 97.783 150.999
62.2384 98.4662 152.425
63.0639 96.6842 151.89
73.0026 99.2561 151.748
61.7127 100.588 153.027
73.7726 100.368 151.603
73.9787 101.919 151.714
74.4645 100.524 152.39
61.4888 102.778 153.32
61.6469 103.273 154.563
61.6916 101.687 154.169
74.4103 103.606 152.508
74.1751 102.382 152.897
61.3953 104.934 153.331
61.8828 105.147 154.817
75.5883 104.387 152.401
75.461 104.43 153.598
61.7485 107.103 154.254
62.5056 106.621 155.614
76.8044 105.071 152.739
77.8499 106.264 151.665
78.8042 107.893 152.613
63.1352 108.368 155.27
64.1782 110.023 155.617
79.2357 109.043 153.55
65.477 111.338 155.865
81.0604 111.519 153.44
79.995 110.55 154.128
65.8986 113.021 155.49
67.3107 113.267 156.205
75.1541 112.944 154.928
74.6574 111.493 155.235
73.6311 112.044 155.351
76.8545 113.041 155.169
75.8655 111.585 155.321
78.8171 113.075 155.274
77.4335 111.602 155.404
80.6987 112.562 155.117
78.9187 111.245 154.975
82.1792 113.233 154.338
68.3202 113.96 156.205
70.0148 113.569 156.094
71.9321 113.126 155.627
80.4872 114.512 155.625
82.3177 114.71 155.504
66.7269 91.5838 151.931
65.137 91.4032 152.209
65.9521 89.8685 152.739
68.2297 90.2298 152.301
68.8213 91.8439 151.505
69.8513 90.8969 152.289
70.6598 92.4279 151.998
71.6416 91.2597 152.598
64.7589 92.8465 151.705
63.3103 93.9336 152.933
63.9378 92.2158 152.701
65.9839 93.7088 151.383
67.7571 93.3184 151.254
69.8378 93.5994 151.381
72.4205 92.7174 152.528
71.76 93.8251 152.158
73.8826 93.9366 152.625
63.8446 94.9039 151.772
62.454 96.0789 153.236
73.3154 95.5606 152.194
73.779 97.5036 151.921
74.6651 96.5876 152.553
61.9537 97.9794 154.278
74.0971 99.1105 152.206
74.8801 98.3545 152.948
61.83 99.9224 154.408
61.895 101.272 155.503
62.3127 99.1465 155.745
74.2467 100.217 153.314
62.3813 103.006 155.862
73.8463 102.967 153.648
62.9993 104.512 156.071
74.2214 104.666 154.33
63.6045 105.743 156.415
76.9611 106.229 154.593
75.4188 105.964 155.075
77.8528 106.486 153.197
63.8159 107.398 156.383
66.2833 110.022 156.489
65.1357 108.34 156.327
66.4794 108.494 156.811
76.108 108.045 155.612
74.9735 107.011 155.58
74.4714 107.909 155.621
77.6535 108.247 155.329
78.2905 107.784 154.179
67.0257 111.635 156.331
67.5952 109.283 157.052
68.3897 110.842 156.765
69.0249 109.425 156.965
74.6188 109.811 155.543
73.6395 108.527 155.53
72.8766 109.288 155.525
76.2688 110.192 155.613
77.5272 109.852 155.502
78.6514 109.543 154.721
68.788 112.466 156.582
69.8632 110.404 156.509
70.576 111.768 156.13
72.4552 111.002 155.548
71.3439 109.93 155.998
64.4046 90.84 153.036
63.4763 92.0484 153.907
64.1748 90.04 154.043
65.33 88.2223 153.626
67.6748 88.7663 152.937
70.3376 89.5019 152.943
72.6236 90.7538 153.3
62.6942 93.8708 154.385
73.8816 92.2613 152.898
76.0305 92.8956 153.574
62.5387 95.8117 155.236
75.0933 95.0834 153.021
75.4726 96.8681 153.781
62.9506 97.3001 156.612
74.6712 98.4498 154.272
62.927 100.961 156.611
63.3088 99.2292 157.081
73.7829 100.61 154.026
63.6169 102.478 156.963
73.2519 102.214 154.284
73.1712 100.742 154.684
72.6984 102.167 155.145
64.0859 104.08 157.008
73.153 103.936 154.534
72.5848 103.813 155.473
64.3943 105.138 156.95
64.3653 106.326 156.814
65.1419 105.614 157.034
73.7696 105.945 155.168
72.6304 105.386 155.607
65.1596 106.914 157.076
67.2343 108.071 157.19
66.561 107.075 157.214
67.8674 107.278 157.477
72.8959 107.245 155.499
71.5669 105.621 156.109
71.3476 106.754 156.019
70.1983 108.656 156.228
68.8819 108.003 157.097
71.6027 108.161 155.693
70.1007 107.155 156.659
67.2952 87.4071 153.935
65.302 87.2542 155.059
67.3802 86.168 154.821
69.5558 86.6227 154.294
69.5331 87.9155 153.294
71.5844 87.4275 154.234
71.0166 88.3853 153.501
72.5734 88.7122 153.948
63.3166 91.4374 155.506
63.9599 88.7665 155.321
73.2911 89.9324 153.829
74.6593 91.2619 153.509
76.1866 90.5861 154.182
63.01 93.5057 156.074
77.3082 92.4229 155.259
63.3106 94.8828 157.177
75.8542 95.0945 154.39
75.9163 94.1333 155.66
64.3977 96.1806 157.88
74.8765 96.6329 155.215
74.0484 96.0248 156.236
64.4981 100.51 157.479
64.4673 98.1092 157.695
73.2509 98.2398 155.822
72.7358 97.0777 156.289
72.0045 98.4155 156.264
73.8113 99.1717 154.981
65.1602 102.417 157.237
65.7886 99.807 157.853
66.5582 101.566 157.599
68.3943 101.185 157.475
67.3897 99.8822 157.892
70.1442 100.723 157.049
69.0688 99.349 157.548
71.7142 100.063 156.266
70.6398 98.9124 156.859
72.6456 100.395 155.388
65.2414 104.323 157.338
66.4952 103.636 157.443
67.9283 103.085 157.413
69.4404 102.487 157.269
70.8734 102.144 156.722
71.9362 101.997 156.019
66.0984 105.425 157.238
67.5229 105.222 157.175
68.9098 104.373 157.266
70.3174 103.855 157.094
71.5388 104.031 156.442
68.9657 106.223 157.379
70.2809 105.444 156.906
65.7412 86.2167 156.062
67.4497 84.9812 155.38
69.5819 85.2578 154.766
71.8729 86.0764 154.826
74.0089 87.3834 154.906
74.5878 89.1594 154.43
76.3161 88.6987 154.919
63.7741 90.2142 156.911
64.7518 88.3585 157.295
77.625 90.6962 155.634
63.8836 92.4465 157.753
64.6864 90.6511 158.416
76.0088 92.3868 156.907
64.7538 94.1372 158.395
74.0923 93.9923 156.438
65.5187 95.3896 158.583
65.9031 96.943 158.148
66.7702 95.5359 158.641
71.2833 95.9165 156.976
71.0213 94.6414 157.355
70.1684 95.7943 157.463
72.7383 95.6637 156.656
72.4198 94.1797 156.873
66.3365 98.5244 158.109
67.42 96.45 158.139
67.9947 97.802 157.639
69.7136 97.3336 157.035
68.8231 96.0431 157.723
71.262 97.1785 156.5
68.783 83.8723 155.448
66.7601 84.516 156.458
68.0753 83.1784 156.968
70.1896 82.9974 155.981
71.3576 84.3154 155.123
72.5023 83.3619 155.929
73.7056 85.4227 155.525
74.835 84.3797 156.264
75.9276 86.7111 155.58
76.5744 85.1843 156.289
77.4187 86.7943 155.886
77.9041 85.5346 156.606
65.7058 86.3335 157.794
77.9272 88.6241 155.558
78.4652 87.4775 156.693
65.725 88.0698 158.918
76.9601 90.6016 157.078
77.8866 89.281 157.216
65.808 92.4575 159.243
66.1376 90.0597 159.341
72.6871 91.5871 157.917
72.3791 90.1513 158.87
71.1541 91.5066 158.857
74.3575 91.88 157.572
74.6834 90.3939 157.818
76.4093 89.5284 157.892
66.5793 94.033 158.894
67.4841 91.6845 159.496
68.2804 93.2288 158.969
70.3792 92.7478 158.332
69.3472 91.8213 159.343
71.635 93.3312 157.528
73.5697 92.883 157.077
68.0764 94.8083 158.341
69.7284 94.3259 157.895
73.5918 82.7236 156.729
71.7927 82.1655 156.927
72.7706 81.4275 157.655
74.431 81.7494 157.378
75.0943 83.0004 156.817
75.7667 82.1703 157.214
66.5942 84.6097 158.385
67.9204 83.1224 158.767
69.7661 82.1852 157.239
76.4688 83.7329 156.936
78.3419 83.5176 157.235
78.8986 85.6442 157.059
79.6582 84.114 157.485
66.4155 86.6219 159.65
78.4879 87.0187 157.946
79.4213 85.84 158.227
67.0434 88.3304 160.132
77.7523 86.5254 159.29
77.3456 88.1401 158.222
67.9623 89.5057 160.144
68.4158 90.6633 159.874
70.4572 90.5963 159.543
70.2039 89.6453 160.112
71.9011 88.8768 159.774
73.5427 88.6784 158.843
75.3077 88.6981 158.484
71.0762 81.6926 158.437
72.599 80.9769 159.022
74.2371 80.7573 158.373
75.9323 80.9689 157.875
77.0493 82.4345 157.361
77.3821 81.4553 157.937
78.0236 82.3171 157.666
78.9457 81.6193 158.093
67.3638 85.2032 160.226
68.2 83.7316 160.385
69.3954 82.3944 159.313
80.3099 82.253 157.944
80.5243 84.3709 158.441
81.4625 82.662 158.357
81.5223 83.8485 159.089
82.3161 82.501 159.005
68.2809 87.2326 160.873
68.7136 85.5288 161.487
79.4077 85.5098 159.285
80.6423 84.8062 159.58
81.9817 83.4989 159.928
68.89 88.5877 160.527
70.2285 86.8362 161.352
70.5735 88.115 160.66
72.7562 87.7821 160.018
71.9547 87.2831 161.05
74.6392 87.4813 159.573
73.8359 86.7144 160.609
76.1665 87.2588 158.878
75.9319 86.4561 160.138
77.5318 85.5403 160.325
79.1791 85.0795 160.353
81.0178 84.3064 160.573
71.3623 81.5066 160.106
73.0125 80.8687 160.072
74.3041 80.5568 159.623
75.9834 80.033 159.037
77.5672 80.484 158.519
78.9217 80.0809 158.981
68.9978 83.2697 161.34
70.151 82.1541 160.966
80.5259 80.1233 158.869
81.9256 81.1499 159
82.8904 81.9894 159.89
69.4696 84.4688 162.395
82.254 83.2066 160.876
70.3729 85.6807 162.268
71.9993 86.3418 161.889
73.6065 86.1753 161.814
72.9142 85.5756 162.73
75.1247 85.9352 161.357
76.563 85.4548 161.147
78.0423 84.9586 161.205
79.394 84.616 161.447
80.8195 84.088 161.556
74.5004 85.6602 162.599
75.9778 85.327 162.277
77.3413 84.9127 162.097
78.5193 84.6679 162.136
72.8549 80.9839 160.764
74.1303 80.644 160.752
75.8295 80.1177 160.432
77.5118 79.6313 159.702
70.1903 82.9634 162.294
71.5462 81.9421 161.711
73.165 81.1287 161.645
75.1235 80.7324 161.723
77.3387 79.7605 161.009
79.1818 79.1052 160.238
80.7001 78.9442 160.45
82.0175 79.5245 160.078
83.1538 80.4346 160.081
83.2926 82.0653 161.02
83.6895 80.6021 161.425
70.5223 84.4105 163.019
71.2644 83.1488 163.263
82.2284 83.1218 161.79
82.794 82.0301 162.104
71.59 85.1474 162.991
72.7418 84.852 163.72
80.5343 83.6974 163.089
79.5591 84.2473 162.52
81.6701 83.2276 162.726
73.967 85.0678 163.572
75.4324 85.0501 163.487
76.8983 84.835 163.304
78.2309 84.5113 163.095
72.4544 82.0395 163.113
74.095 81.4958 162.879
75.5109 81.1979 162.68
76.7821 80.5323 162.14
78.4206 79.7455 161.816
79.8365 79.1534 161.688
81.4788 79.0069 161.617
82.8421 79.4483 161.404
82.859 80.4277 162.601
72.2199 83.6766 163.89
73.4794 82.5333 164.133
75.0042 81.8674 163.828
82.1537 81.9178 162.933
73.4914 84.0445 164.444
74.7579 83.1406 164.541
80.023 82.9356 163.868
79.23 83.9097 163.792
81.0868 82.5006 163.407
74.9005 84.4803 164.417
76.4164 84.4538 164.413
77.895 84.1607 164.269
76.5326 81.3876 163.298
77.9469 80.852 162.861
79.323 80.2317 162.703
80.6538 80.0002 162.568
82.004 79.82 162.431
76.2012 82.485 164.229
77.6573 82.0045 163.878
78.8519 81.4755 163.478
80.0739 81.5037 163.401
81.4394 80.889 163.133
75.9134 83.6456 164.783
77.2651 83.2813 164.61
78.7455 82.7715 164.126
POLYGONS 1324  5296
3 0 1 2
3 0 3 4
3 2 3 0
3 3 5 4
3 6 7 8
3 1 6 8
3 1 0 6
3 0 9 6
3 4 10 0
3 10 9 0
3 11 4 5
3 11 12 4
3 12 10 4
3 12 13 14
3 11 13 12
3 13 15 14
3 16 7 6
3 17 7 16
3 9 18 6
3 18 16 6
3 10 19 9
3 19 18 9
3 12 20 10
3 20 19 10
3 14 21 12
3 21 20 12
3 22 14 15
3 21 14 22
3 23 17 16
3 24 17 23
3 18 25 16
3 25 23 16
3 19 26 18
3 26 25 18
3 20 27 19
3 27 26 19
3 21 28 20
3 28 27 20
3 29 21 22
3 28 21 29
3 23 30 24
3 25 30 23
3 31 30 25
3 26 31 25
3 32 31 26
3 27 32 26
3 33 32 27
3 28 33 27
3 34 33 28
3 29 34 28
3 35 36 37
3 35 2 1
3 35 37 2
3 37 38 2
3 3 2 39
3 2 38 39
3 5 40 41
3 5 3 40
3 3 39 40
3 40 42 41
3 8 36 35
3 8 7 36
3 7 43 36
3 1 8 35
3 5 41 11
3 41 42 44
3 41 44 11
3 11 44 13
3 44 15 13
3 45 15 44
3 7 17 43
3 43 17 46
3 15 45 22
3 45 47 22
3 17 24 46
3 46 24 48
3 22 47 29
3 47 49 29
3 24 50 48
3 30 50 24
3 31 51 30
3 30 51 50
3 32 52 31
3 31 52 51
3 33 53 32
3 32 53 52
3 34 54 33
3 33 54 53
3 49 34 29
3 54 34 49
3 55 56 57
3 55 58 59
3 57 58 55
3 58 60 59
3 61 56 55
3 62 56 61
3 59 63 55
3 63 61 55
3 64 59 60
3 64 65 59
3 65 63 59
3 64 66 65
3 67 68 69
3 62 67 69
3 61 67 62
3 61 36 67
3 61 37 36
3 38 37 61
3 63 38 61
3 39 38 63
3 65 39 63
3 65 66 70
3 65 70 39
3 39 70 40
3 42 71 72
3 42 40 71
3 40 70 71
3 71 73 72
3 74 68 67
3 75 68 74
3 36 43 74
3 67 36 74
3 42 72 44
3 72 45 44
3 72 73 45
3 73 76 45
3 77 75 74
3 78 75 77
3 43 46 77
3 74 43 77
3 79 80 47
3 79 47 76
3 76 47 45
3 79 81 80
3 77 82 78
3 82 77 46
3 82 46 83
3 83 46 48
3 80 84 49
3 47 80 49
3 85 80 81
3 84 80 85
3 48 86 83
3 50 86 48
3 51 87 50
3 50 87 86
3 52 88 51
3 51 88 87
3 53 89 52
3 52 89 88
3 54 90 53
3 53 90 89
3 84 54 49
3 84 91 54
3 91 90 54
3 85 91 84
3 92 93 94
3 92 95 96
3 94 95 92
3 96 97 98
3 95 97 96
3 97 99 98
3 100 101 102
3 93 100 102
3 92 100 93
3 92 56 100
3 92 57 56
3 58 57 92
3 96 58 92
3 60 58 96
3 60 96 103
3 103 96 98
3 104 98 99
3 104 105 98
3 105 103 98
3 105 106 107
3 104 106 105
3 106 108 107
3 109 110 111
3 101 109 111
3 101 100 109
3 100 112 109
3 56 62 112
3 100 56 112
3 60 103 64
3 66 64 103
3 66 103 113
3 113 103 105
3 107 114 105
3 114 113 105
3 115 107 108
3 114 107 115
3 116 110 109
3 117 110 116
3 69 68 116
3 69 116 112
3 112 116 109
3 62 69 112
3 66 113 70
3 71 70 113
3 114 71 113
3 73 118 119
3 71 118 73
3 71 115 118
3 71 114 115
3 119 120 121
3 118 120 119
3 120 122 121
3 116 123 117
3 123 116 68
3 123 68 124
3 124 68 75
3 119 125 76
3 73 119 76
3 121 126 119
3 126 125 119
3 127 121 122
3 126 121 127
3 75 78 124
3 124 78 128
3 76 125 79
3 81 79 125
3 81 125 129
3 129 125 126
3 130 126 127
3 129 126 130
3 78 131 128
3 82 131 78
3 131 82 83
3 132 131 83
3 129 133 85
3 81 129 85
3 134 129 130
3 133 129 134
3 83 135 132
3 86 135 83
3 87 136 86
3 86 136 135
3 88 137 87
3 87 137 136
3 89 138 88
3 88 138 137
3 90 139 89
3 89 139 138
3 91 140 90
3 90 140 139
3 133 91 85
3 133 141 91
3 141 140 91
3 134 141 133
3 142 143 144
3 142 145 146
3 144 145 142
3 146 147 148
3 145 147 146
3 148 149 150
3 147 149 148
3 149 151 150
3 152 143 142
3 153 143 152
3 94 93 152
3 94 152 146
3 146 152 142
3 95 94 146
3 148 95 146
3 97 95 148
3 150 97 148
3 150 99 97
3 150 151 99
3 151 154 99
3 155 156 157
3 153 155 157
3 152 155 153
3 152 101 155
3 152 102 101
3 93 102 152
3 99 154 158
3 104 99 158
3 106 104 159
3 104 158 159
3 159 108 106
3 160 108 159
3 111 156 155
3 111 110 156
3 110 161 156
3 101 111 155
3 108 160 115
3 160 162 115
3 110 117 161
3 161 117 163
3 115 162 164
3 118 115 164
3 120 118 165
3 118 164 165
3 165 122 120
3 166 122 165
3 117 167 163
3 123 167 117
3 167 123 124
3 168 167 124
3 122 166 127
3 166 169 127
3 124 128 168
3 168 128 170
3 127 169 130
3 169 171 130
3 128 172 170
3 131 172 128
3 172 131 132
3 173 172 132
3 174 175 176
3 175 174 177
3 130 171 134
3 171 178 134
3 132 179 173
3 135 179 132
3 136 180 135
3 135 180 179
3 176 137 174
3 176 180 137
3 180 136 137
3 174 181 177
3 174 137 181
3 137 138 181
3 139 182 138
3 138 182 181
3 140 183 139
3 139 183 182
3 141 184 140
3 140 184 183
3 178 141 134
3 184 141 178
3 185 186 187
3 185 188 189
3 187 188 185
3 189 190 191
3 188 190 189
3 191 192 193
3 190 192 191
3 192 194 193
3 195 196 197
3 186 195 197
3 186 185 195
3 185 198 195
3 189 199 185
3 199 198 185
3 191 200 189
3 200 199 189
3 193 201 191
3 201 200 191
3 202 193 194
3 201 193 202
3 203 196 195
3 204 196 203
3 144 143 203
3 144 203 198
3 198 203 195
3 145 144 198
3 199 145 198
3 147 145 199
3 200 147 199
3 149 147 200
3 201 149 200
3 201 151 149
3 201 202 151
3 202 205 151
3 206 204 203
3 207 204 206
3 143 153 206
3 203 143 206
3 151 205 154
3 205 208 154
3 157 207 206
3 157 156 207
3 156 209 207
3 153 157 206
3 154 208 210
3 158 154 210
3 159 158 211
3 158 210 211
3 160 212 213
3 160 159 212
3 159 211 212
3 212 214 213
3 156 161 209
3 209 161 215
3 213 216 162
3 160 213 162
3 217 213 214
3 216 213 217
3 161 163 215
3 215 163 218
3 162 216 164
3 216 217 219
3 216 219 164
3 164 219 165
3 219 166 165
3 220 166 219
3 163 221 218
3 167 221 163
3 221 167 168
3 222 221 168
3 166 220 169
3 220 223 169
3 224 170 225
3 224 222 170
3 222 168 170
3 225 226 227
3 224 225 227
3 226 228 229
3 227 226 229
3 228 230 231
3 229 228 231
3 230 232 233
3 231 230 233
3 232 234 235
3 233 232 235
3 235 234 236
3 169 223 171
3 223 237 171
3 170 172 225
3 173 225 172
3 173 238 225
3 238 226 225
3 228 226 239
3 239 226 238
3 175 239 176
3 175 230 239
3 230 228 239
3 177 230 175
3 177 240 230
3 240 232 230
3 234 232 241
3 241 232 240
3 242 236 234
3 242 234 243
3 243 234 241
3 243 244 245
3 242 243 245
3 244 237 245
3 244 178 237
3 178 171 237
3 173 179 238
3 180 238 179
3 239 238 180
3 176 239 180
3 177 181 240
3 182 240 181
3 241 240 182
3 183 241 182
3 243 241 183
3 184 243 183
3 244 243 184
3 178 244 184
3 246 247 248
3 246 249 250
3 248 249 246
3 250 251 252
3 249 251 250
3 252 253 254
3 251 253 252
3 253 255 254
3 256 257 258
3 247 256 258
3 246 256 247
3 246 186 256
3 246 187 186
3 188 187 246
3 250 188 246
3 190 188 250
3 252 190 250
3 192 190 252
3 254 192 252
3 254 194 192
3 254 255 194
3 255 259 194
3 197 257 256
3 197 196 257
3 196 260 257
3 186 197 256
3 261 262 202
3 261 202 259
3 259 202 194
3 261 263 262
3 264 265 266
3 264 266 260
3 264 260 204
3 204 260 196
3 262 267 205
3 202 262 205
3 268 262 263
3 267 262 268
3 269 265 264
3 270 265 269
3 204 207 269
3 264 204 269
3 267 271 208
3 205 267 208
3 272 267 268
3 271 267 272
3 273 270 269
3 274 270 273
3 207 209 273
3 269 207 273
3 208 271 210
3 271 272 275
3 271 275 210
3 210 275 211
3 212 211 276
3 211 275 276
3 276 214 212
3 277 214 276
3 273 278 274
3 278 273 209
3 278 209 279
3 279 209 215
3 214 277 217
3 277 280 217
3 215 218 279
3 279 218 281
3 282 219 217
3 282 217 283
3 283 217 280
3 219 282 220
3 218 284 281
3 221 284 218
3 284 221 222
3 285 284 222
3 286 287 288
3 286 289 290
3 287 286 290
3 289 291 292
3 290 289 292
3 291 293 294
3 292 291 294
3 283 294 293
3 283 293 282
3 282 293 295
3 220 295 223
3 282 295 220
3 222 296 285
3 224 296 222
3 227 297 224
3 224 297 296
3 229 298 227
3 227 298 297
3 288 231 286
3 288 298 231
3 298 229 231
3 233 286 231
3 289 286 233
3 235 289 233
3 291 289 235
3 236 291 235
3 236 299 291
3 299 293 291
3 295 293 300
3 300 293 299
3 223 300 237
3 295 300 223
3 236 242 299
3 245 299 242
3 300 299 245
3 237 300 245
3 301 302 303
3 301 304 305
3 303 304 301
3 305 306 307
3 304 306 305
3 306 308 307
3 309 310 311
3 302 309 311
3 302 301 309
3 301 312 309
3 305 313 301
3 313 312 301
3 307 314 305
3 314 313 305
3 315 307 308
3 315 316 307
3 316 314 307
3 315 317 316
3 318 310 309
3 319 310 318
3 248 247 318
3 248 318 312
3 312 318 309
3 249 248 312
3 313 249 312
3 251 249 313
3 314 251 313
3 253 251 314
3 316 253 314
3 255 320 321
3 253 320 255
3 253 317 320
3 253 316 317
3 320 322 321
3 258 319 318
3 258 257 319
3 257 323 319
3 247 258 318
3 321 324 259
3 255 321 259
3 325 321 322
3 324 321 325
3 326 327 328
3 326 328 323
3 326 323 260
3 260 323 257
3 259 324 261
3 324 263 261
3 324 325 263
3 325 329 263
3 266 327 326
3 266 265 327
3 265 330 327
3 260 266 326
3 263 329 268
3 329 331 268
3 265 270 330
3 330 270 332
3 268 331 272
3 331 333 272
3 270 274 332
3 332 274 334
3 335 275 272
3 335 272 336
3 336 272 333
3 275 337 276
3 335 337 275
3 276 337 277
3 274 338 334
3 278 338 274
3 279 339 340
3 279 340 278
3 278 340 338
3 340 339 341
3 342 343 344
3 336 343 342
3 336 342 335
3 335 342 345
3 337 335 346
3 346 335 345
3 277 346 280
3 337 346 277
3 339 281 347
3 279 281 339
3 348 341 339
3 348 339 349
3 349 339 347
3 348 349 350
3 351 352 353
3 344 352 351
3 344 351 342
3 342 351 354
3 345 342 355
3 355 342 354
3 346 345 356
3 356 345 355
3 280 356 283
3 346 356 280
3 281 284 347
3 285 347 284
3 285 357 347
3 357 349 347
3 358 350 349
3 358 349 359
3 359 349 357
3 359 360 361
3 358 359 361
3 353 361 360
3 351 353 360
3 351 360 288
3 351 288 287
3 290 351 287
3 354 351 290
3 292 354 290
3 355 354 292
3 294 355 292
3 356 355 294
3 283 356 294
3 285 296 357
3 297 357 296
3 359 357 297
3 298 359 297
3 360 359 298
3 288 360 298
3 362 363 364
3 362 303 302
3 362 364 303
3 364 365 303
3 304 303 366
3 303 365 366
3 306 304 367
3 304 366 367
3 367 308 306
3 368 308 367
3 311 363 362
3 311 310 363
3 310 369 363
3 302 311 362
3 308 368 370
3 315 308 370
3 370 317 315
3 371 317 370
3 310 319 369
3 369 319 372
3 317 371 373
3 320 317 373
3 373 322 320
3 374 322 373
3 319 323 372
3 372 323 375
3 322 374 325
3 374 376 325
3 328 377 378
3 327 377 328
3 375 323 328
3 378 375 328
3 325 376 329
3 376 379 329
3 327 330 377
3 377 330 380
3 381 382 383
3 381 379 382
3 381 331 379
3 331 329 379
3 330 332 380
3 380 332 384
3 385 381 383
3 386 385 383
3 331 385 333
3 381 385 331
3 387 334 388
3 387 384 334
3 384 332 334
3 387 388 389
3 390 385 386
3 391 390 386
3 333 390 336
3 385 390 333
3 334 338 388
3 388 392 389
3 388 338 392
3 338 340 392
3 341 393 394
3 341 394 340
3 340 394 392
3 394 393 395
3 396 397 398
3 391 397 396
3 390 391 396
3 390 396 344
3 390 344 343
3 336 390 343
3 341 348 393
3 350 399 400
3 348 350 400
3 348 400 395
3 348 395 393
3 399 401 402
3 400 399 402
3 398 402 401
3 396 398 401
3 396 401 353
3 396 353 352
3 344 396 352
3 350 358 399
3 361 399 358
3 401 399 361
3 353 401 361
3 403 404 405
3 403 406 407
3 405 406 403
3 407 408 409
3 406 408 407
3 408 410 409
3 364 411 412
3 363 411 364
3 404 403 365
3 404 365 412
3 412 365 364
3 366 365 403
3 407 366 403
3 367 366 407
3 409 367 407
3 368 413 414
3 367 413 368
3 367 410 413
3 367 409 410
3 413 415 414
3 363 369 411
3 411 369 416
3 368 414 370
3 414 371 370
3 414 415 371
3 415 417 371
3 369 372 416
3 416 372 418
3 419 373 371
3 419 371 420
3 420 371 417
3 373 419 374
3 372 375 418
3 418 375 421
3 422 419 420
3 423 422 420
3 374 422 376
3 419 422 374
3 378 377 424
3 378 424 425
3 378 425 375
3 375 425 421
3 426 427 428
3 423 427 426
3 423 426 422
3 422 426 429
3 376 429 379
3 422 429 376
3 424 380 430
3 377 380 424
3 431 425 424
3 431 424 432
3 432 424 430
3 432 433 434
3 431 432 434
3 433 435 436
3 434 433 436
3 435 437 438
3 436 435 438
3 428 438 437
3 428 437 426
3 426 437 439
3 382 439 383
3 382 429 439
3 429 426 439
3 379 429 382
3 430 384 440
3 380 384 430
3 432 430 441
3 441 430 440
3 433 432 442
3 442 432 441
3 435 433 443
3 443 433 442
3 437 435 444
3 444 435 443
3 439 437 445
3 445 437 444
3 383 445 386
3 439 445 383
3 384 387 440
3 389 440 387
3 389 446 440
3 446 441 440
3 442 441 447
3 447 441 446
3 443 442 448
3 448 442 447
3 444 443 449
3 449 443 448
3 445 444 450
3 450 444 449
3 386 450 391
3 445 450 386
3 389 392 446
3 394 446 392
3 447 446 394
3 395 447 394
3 395 451 447
3 451 448 447
3 449 448 452
3 452 448 451
3 397 452 398
3 397 450 452
3 450 449 452
3 391 450 397
3 395 400 451
3 402 451 400
3 452 451 402
3 398 452 402
3 405 453 454
3 404 453 405
3 406 405 455
3 405 454 455
3 408 406 456
3 406 455 456
3 410 457 458
3 410 408 457
3 408 456 457
3 457 459 458
3 412 411 460
3 412 460 461
3 412 461 404
3 404 461 453
3 410 458 413
3 458 415 413
3 458 459 415
3 459 462 415
3 460 463 464
3 460 411 463
3 411 416 463
3 461 460 464
3 415 462 417
3 462 465 417
3 416 418 463
3 463 418 466
3 417 465 420
3 465 467 420
3 468 421 469
3 468 466 421
3 466 418 421
3 468 469 470
3 471 472 473
3 471 474 475
3 472 471 475
3 474 467 475
3 474 423 467
3 423 420 467
3 469 425 476
3 421 425 469
3 477 470 469
3 477 469 478
3 478 469 476
3 478 479 480
3 477 478 480
3 473 480 479
3 473 479 471
3 471 479 481
3 427 481 428
3 427 474 481
3 474 471 481
3 423 474 427
3 425 431 476
3 434 476 431
3 478 476 434
3 436 478 434
3 479 478 436
3 438 479 436
3 481 479 438
3 428 481 438
3 482 483 484
3 482 485 486
3 484 485 482
3 486 487 488
3 485 487 486
3 488 489 490
3 487 489 488
3 490 491 492
3 489 491 490
3 491 493 492
3 454 483 482
3 454 453 483
3 453 494 483
3 455 454 482
3 486 455 482
3 456 455 486
3 488 456 486
3 457 456 488
3 490 457 488
3 459 457 490
3 459 490 495
3 495 490 492
3 496 492 493
3 495 492 496
3 453 461 494
3 494 461 497
3 495 498 462
3 459 495 462
3 499 495 496
3 498 495 499
3 464 463 500
3 464 500 501
3 464 501 461
3 461 501 497
3 502 503 504
3 502 505 506
3 503 502 506
3 498 507 506
3 498 506 465
3 498 465 462
3 465 506 505
3 499 507 498
3 500 466 508
3 463 466 500
3 509 501 500
3 509 500 510
3 510 500 508
3 510 511 512
3 509 510 512
3 504 512 511
3 504 511 502
3 502 511 513
3 505 502 514
3 514 502 513
3 465 514 467
3 505 514 465
3 466 468 508
3 470 508 468
3 470 515 508
3 515 510 508
3 511 510 516
3 516 510 515
3 472 516 473
3 472 513 516
3 513 511 516
3 475 513 472
3 514 513 475
3 467 514 475
3 470 477 515
3 480 515 477
3 516 515 480
3 473 516 480
3 517 518 519
3 517 520 521
3 519 520 517
3 520 522 521
3 484 523 524
3 483 523 484
3 485 484 525
3 484 524 525
3 518 517 487
3 518 487 525
3 525 487 485
3 489 487 517
3 521 489 517
3 521 522 526
3 521 526 489
3 489 526 491
3 493 527 528
3 493 491 527
3 491 526 527
3 527 529 528
3 483 494 523
3 523 494 530
3 528 531 496
3 493 528 496
3 532 528 529
3 531 528 532
3 494 497 530
3 530 497 533
3 531 534 535
3 531 535 496
3 496 535 499
3 532 534 531
3 536 501 537
3 536 533 501
3 533 497 501
3 537 538 539
3 536 537 539
3 538 504 503
3 538 503 539
3 539 503 540
3 506 541 503
3 503 541 540
3 507 542 506
3 506 542 541
3 535 507 499
3 542 507 535
3 501 509 537
3 512 537 509
3 538 537 512
3 504 538 512
3 519 543 544
3 518 543 519
3 520 519 545
3 519 544 545
3 522 546 547
3 522 520 546
3 520 545 546
3 547 548 549
3 546 548 547
3 548 550 549
3 524 523 551
3 552 524 551
3 552 553 524
3 553 525 524
3 543 518 525
3 553 543 525
3 522 547 526
3 527 526 547
3 549 527 547
3 529 554 555
3 527 554 529
3 527 550 554
3 527 549 550
3 555 556 557
3 554 556 555
3 556 558 557
3 551 530 559
3 523 530 551
3 560 552 551
3 559 560 551
3 555 561 532
3 529 555 532
3 557 562 555
3 562 561 555
3 563 557 558
3 562 557 563
3 559 533 564
3 530 533 559
3 565 560 559
3 565 559 566
3 566 559 564
3 566 567 568
3 565 566 568
3 567 569 570
3 568 567 570
3 569 571 572
3 570 569 572
3 571 535 534
3 571 534 572
3 572 534 573
3 561 534 532
3 561 574 534
3 574 573 534
3 562 574 561
3 575 574 562
3 563 575 562
3 533 536 564
3 539 564 536
3 566 564 539
3 540 566 539
3 567 566 540
3 541 567 540
3 569 567 541
3 542 569 541
3 571 569 542
3 535 571 542
3 544 576 577
3 543 576 544
3 545 544 578
3 544 577 578
3 546 545 579
3 545 578 579
3 548 546 580
3 546 579 580
3 580 550 548
3 581 550 580
3 553 582 583
3 552 582 553
3 576 543 553
3 583 576 553
3 550 581 584
3 554 550 584
3 556 554 585
3 554 584 585
3 585 558 556
3 586 558 585
3 552 560 582
3 582 560 587
3 558 586 563
3 586 588 563
3 560 589 587
3 565 589 560
3 568 590 565
3 565 590 589
3 591 592 590
3 591 590 570
3 570 590 568
3 570 572 593
3 591 570 593
3 572 573 594
3 593 572 594
3 573 574 595
3 594 573 595
3 596 595 574
3 596 574 597
3 597 574 575
3 588 575 563
3 597 575 588
3 591 598 592
3 593 598 591
3 599 598 593
3 594 599 593
3 600 599 594
3 595 600 594
3 601 600 595
3 596 601 595
3 577 576 602
3 577 603 578
3 602 603 577
3 578 604 579
3 603 604 578
3 579 605 580
3 604 605 579
3 580 605 581
3 583 582 606
3 583 606 607
3 576 583 607
3 576 607 608
3 576 608 602
3 603 602 608
3 609 603 608
3 604 603 609
3 610 604 609
3 605 604 610
3 611 605 610
3 581 605 611
3 581 611 584
3 584 611 612
3 585 584 613
3 584 612 613
3 586 614 615
3 586 585 614
3 585 613 614
3 614 616 615
3 606 587 617
3 582 587 606
3 618 607 606
3 617 618 606
3 615 619 588
3 586 615 588
3 620 615 616
3 619 615 620
3 587 589 617
3 617 621 618
3 617 589 621
3 589 590 621
3 621 590 592
3 622 621 592
3 597 623 624
3 596 597 624
3 619 597 588
3 619 625 597
3 625 623 597
3 620 625 619
3 592 626 622
3 598 626 592
3 599 627 598
3 598 627 626
3 600 628 599
3 599 628 627
3 601 629 600
3 600 629 628
3 624 601 596
3 629 601 624
3 608 607 630
3 608 631 609
3 630 631 608
3 632 609 631
3 632 633 609
3 633 610 609
3 611 610 634
3 610 633 634
3 612 611 635
3 611 634 635
3 613 612 636
3 612 635 636
3 614 613 637
3 613 636 637
3 637 616 614
3 638 616 637
3 630 618 639
3 607 618 630
3 631 630 640
3 640 630 639
3 641 632 631
3 640 641 631
3 616 638 620
3 638 642 620
3 618 621 639
3 622 639 621
3 622 643 639
3 643 640 639
3 644 641 640
3 643 644 640
3 623 645 646
3 624 623 646
3 625 647 623
3 623 647 645
3 642 625 620
3 647 625 642
3 622 626 643
3 643 648 644
3 643 626 648
3 626 627 648
3 628 649 627
3 627 649 648
3 629 650 628
3 628 650 649
3 646 629 624
3 650 629 646
3 633 632 651
3 633 652 634
3 651 652 633
3 634 653 635
3 652 653 634
3 635 654 636
3 653 654 635
3 636 655 637
3 654 655 636
3 637 655 638
3 651 641 656
3 632 641 651
3 652 651 657
3 657 651 656
3 653 652 658
3 658 652 657
3 654 653 659
3 659 653 658
3 655 654 660
3 660 654 659
3 638 660 642
3 655 660 638
3 656 644 661
3 641 644 656
3 657 656 662
3 662 656 661
3 658 657 663
3 663 657 662
3 645 663 646
3 645 659 663
3 659 658 663
3 647 659 645
3 660 659 647
3 642 660 647
3 644 648 661
3 649 661 648
3 662 661 649
3 650 662 649
3 663 662 650
3 646 663 650
