# vtk DataFile Version 3.0
this file was written using fslvtkio
ASCII
DATASET POLYDATA
POINTS 1068 float
80.7777 141.682 174.14
79.5272 141.313 175.301
80.2406 140.25 174.495
81.3691 139.963 173.773
82.104 141.838 173.728
82.5339 140.32 173.966
83.3541 141.898 173.904
83.6542 140.496 174.461
84.368 141.741 174.453
84.742 140.691 175.135
80.0665 142.757 175.033
78.984 141.775 176.412
81.4005 143.323 174.26
82.8376 143.442 173.865
84.3417 143.117 174.021
85.4098 142.336 174.76
79.6972 143.131 176.249
78.6878 142.566 177.341
80.7941 144.146 175.444
82.2818 144.579 174.995
83.784 144.516 174.721
85.2857 144.011 174.992
79.9529 144.235 176.782
81.4968 145.2 176.195
83.1616 145.387 175.963
84.5646 145.172 175.889
84.9789 135.223 172.374
84.0434 134.086 172.98
84.8756 133.297 171.797
86.078 133.757 171.886
86.4115 135.114 172.831
87.1964 133.886 172.885
83.68 135.763 172.811
82.6599 136.267 173.64
83.1867 134.781 173.971
84.8706 136.511 173.306
85.9645 136.276 173.824
87.2029 135.257 174.004
82.8209 137.761 173.267
82.0136 137.185 174.348
84.0328 137.576 173.287
85.4362 138.07 174.272
86.862 137.002 174.726
80.8225 138.997 174.682
79.6857 139.723 175.719
80.3704 138.545 176.119
81.161 137.877 175.368
81.8751 138.605 173.911
83.0377 139.199 173.739
84.311 139.054 174.232
85.3627 139.562 175.246
86.4883 138.372 175.196
79.0389 140.186 176.748
85.832 141.089 175.583
78.2854 140.803 177.625
86.0985 142.92 175.595
78.0288 141.487 178.512
85.4365 144.518 176.341
79.1182 143.894 177.948
78.4137 142.794 178.91
80.2713 145.039 177.585
81.6962 145.603 177.301
82.9377 145.602 177.302
84.2037 145.433 177.361
79.2673 144.445 178.962
80.5072 145.263 178.712
81.7804 145.388 178.425
88.3928 129.565 171.299
86.8587 129.011 171.552
87.6415 127.795 172.027
88.9873 127.763 171.659
89.7651 129.599 172.271
90.1058 128.066 172.368
90.6837 129.473 173.022
90.6001 128.001 173.493
86.9616 130.583 171.038
85.4733 131.146 171.981
85.8205 129.723 172.285
88.0756 131.362 171.997
89.328 131.26 172.439
90.4947 131.15 173.307
90.795 129.703 174.137
85.8377 132.114 171.522
84.5462 132.411 172.727
87.1444 132.417 172.037
88.6019 132.765 173.05
89.7942 132.696 173.809
90.8401 131.806 174.477
83.9401 133.435 174.172
88.1196 133.96 173.677
89.1777 134.131 174.618
90.4552 133.533 175.044
82.3777 135.512 174.998
83.1355 134.136 175.227
87.843 135.845 174.893
88.7359 135.542 175.327
90.0679 135.038 175.872
81.8171 136.578 175.543
81.1615 136.992 176.641
81.7338 135.74 176.528
87.6948 137.853 175.661
88.6946 137.184 176.122
89.5664 136.236 176.293
79.5973 138.809 177.203
80.2864 137.631 177.335
86.5205 139.704 175.937
87.2025 139.595 176.615
88.4489 138.647 176.675
78.7118 139.176 178.081
86.5939 141.571 176.319
87.1661 141.106 177.102
87.9157 140.061 177.411
77.9704 139.712 178.961
86.3268 143.307 176.706
86.7969 142.51 177.37
77.6402 141.606 179.552
85.2797 144.611 177.379
85.971 143.706 177.716
77.9463 142.973 180.309
84.0408 144.973 178.797
82.8622 145.23 178.436
85.1426 144.626 178.548
78.7779 144.014 180.014
79.9633 144.841 180.101
81.3105 145.059 179.738
86.7678 128.746 173.282
87.5968 127.124 173.287
88.7412 126.241 172.574
89.9646 126.611 172.709
90.3877 127.414 174.473
85.3134 131.264 173.517
85.8731 129.943 173.745
90.5807 129.165 175.101
84.5672 132.194 174.365
91.0216 130.889 175.343
91.3057 132.344 175.613
91.0732 131.471 176.84
83.7227 132.667 175.552
91.1169 133.841 176.191
91.2599 132.807 177.241
82.3351 134.644 176.348
82.8873 133.671 176.501
91.0916 134.673 176.934
91.1866 134.018 178.068
80.7726 136.045 177.849
81.3852 134.864 177.769
89.7917 137.544 177.148
90.4084 136.316 177.137
91.0705 135.45 177.613
79.3493 137.693 178.494
80.1378 136.624 178.658
89.5389 138.45 177.698
90.3191 138.024 178.563
78.6023 137.971 179.3
87.8558 141.304 178.133
88.6538 139.923 178.071
89.3232 139.088 178.352
77.6 139.961 180.026
87.0185 142.579 178.372
88.103 141.456 179.27
77.3556 141.538 180.755
86.8992 142.481 179.33
85.9027 143.592 178.696
77.6165 142.648 181.556
82.5907 144.997 179.435
83.6953 144.76 179.873
84.9009 144.288 180.035
78.3927 143.662 181.42
79.4406 144.318 181.19
80.8535 144.489 180.899
82.1551 144.66 180.54
87.1188 127.917 174.234
87.4461 126.558 174.446
88.4297 125.635 173.788
89.9129 125.922 174.12
89.6931 127.514 175.817
85.4768 130.699 175.109
86.0993 129.382 174.867
86.6436 128.407 175.371
90.2121 128.885 176.325
90.7599 130.129 176.172
90.514 130.131 177.504
84.6965 131.497 175.625
84.9282 130.521 176.637
90.728 131.401 178.307
83.5166 132.393 176.934
90.8051 132.633 178.877
82.098 133.893 178.013
82.8203 133.169 177.435
90.8104 133.822 179.5
80.6071 134.938 179.035
81.225 134.21 178.619
90.6874 136.549 178.521
90.8216 135.208 179.222
79.4329 136.459 179.933
80.1652 135.748 179.627
90.2882 137.317 179.464
90.2369 136.392 180.029
78.3899 137.704 180.245
77.3786 137.875 181.356
78.4786 136.932 180.915
88.8793 140.233 179.276
89.6385 138.844 179.634
89.726 137.883 180.421
77.5872 139.013 180.499
76.7468 138.92 181.891
88.3335 141.001 180.123
88.6055 140.137 180.471
76.8795 140.358 181.329
76.5207 139.871 182.645
86.0035 143.313 179.795
87.2134 142.15 180.27
87.6065 141.431 181.02
77.1004 141.59 182.236
76.8523 140.979 183.313
84.7015 143.794 181.369
83.5325 144.288 180.832
85.7079 143.43 180.688
77.6687 142.969 182.746
78.5938 143.671 182.918
79.5674 143.994 182.425
80.7806 144.09 182.027
82.0861 144.141 181.6
88.8195 125.04 174.791
87.3483 125.623 175.355
87.8798 124.446 176.178
89.2893 124.815 176.136
89.7491 126.04 175.545
89.3787 126.217 177.046
86.8749 126.957 175.673
89.383 127.465 177.676
85.5997 129.482 176.615
86.3047 127.979 176.607
90.0019 128.679 177.617
90.2866 129.814 178.803
83.9571 131.56 177.44
84.3823 130.239 178.224
90.5295 131.151 179.72
82.5247 132.921 178.397
82.1884 132.333 179.335
83.1047 131.959 178.465
90.4794 132.556 180.416
81.0061 133.646 179.551
80.325 133.312 180.77
81.1535 132.443 180.329
90.4325 134.219 180.704
79.971 134.674 180.324
78.8554 134.817 181.548
79.4594 133.641 181.689
90.1755 135.411 180.964
78.9484 135.822 180.942
77.8568 136.622 181.987
77.943 135.325 182.263
89.738 136.703 181.301
76.9138 137.424 182.686
89.0692 137.901 181.76
88.9158 139.057 180.947
76.4393 138.359 183.466
87.98 140.233 181.497
76.4417 139.403 184.147
87.0671 141.151 182.068
86.5522 142.33 181.202
76.7354 140.643 184.666
84.3973 143.198 182.327
83.3038 143.798 181.886
85.5217 142.864 181.804
77.2865 142.243 183.87
78.1535 143.23 184.046
79.4259 143.576 183.743
80.7148 143.705 183.236
81.9818 143.659 182.75
86.8821 125.26 176.534
86.2422 126.047 178.011
86.777 124.338 177.402
88.0434 123.847 177.183
89.0229 124.908 177.572
88.8709 125.993 178.853
86.475 126.632 176.957
85.8392 128.127 177.86
89.1297 127.063 179.469
85.1397 129.21 178.242
89.7176 128.435 179.115
89.9718 129.567 180.181
83.4313 131.178 179.011
82.4872 130.569 180.651
83.3605 129.989 179.78
84.2087 129.246 179.48
90.1915 130.986 181.055
82.0291 131.529 180.322
80.7155 131.557 181.568
81.176 130.472 181.696
90.1499 132.75 181.697
79.787 132.021 182.08
89.9615 134.206 182.077
78.3444 134.127 182.644
79.0231 132.822 182.739
89.6483 135.549 182.402
77.2778 136.043 183.294
77.364 134.629 183.469
89.1309 136.73 182.546
76.5909 136.775 184.171
88.4361 137.906 182.859
88.21 139.024 182.025
76.234 137.799 184.996
87.44 139.952 182.564
76.2582 139.129 185.675
86.5984 140.768 183.146
86.1433 141.97 182.304
76.7272 140.303 186.015
83.1991 143.382 182.764
83.9302 142.854 183.265
84.9465 142.395 182.992
77.2724 141.745 185.14
77.9943 142.762 185.171
79.2258 143.197 184.99
80.4969 143.226 184.493
81.6517 143.118 183.985
82.6458 143.081 183.643
87.3257 123.047 177.791
86.1695 124.365 178.606
86.68 122.588 178.631
88.0858 122.017 178.923
88.5219 123.452 178.253
88.1805 123.368 179.697
88.5564 124.651 178.973
88.1708 124.65 180.417
85.6941 126.377 178.987
88.5369 125.737 180.779
85.3012 127.766 179.263
88.9011 126.766 181.183
84.7327 128.573 179.432
83.8555 128.029 180.606
84.6797 127.782 180.088
89.4972 128.167 180.592
89.7066 129.52 181.6
82.0064 129.253 181.408
83.1738 128.883 180.559
89.8422 131.093 182.295
80.0754 130.264 182.992
80.892 129.431 182.665
89.7522 132.827 182.946
79.2821 131.304 183.298
89.3215 134.345 183.337
78.0107 133.118 183.62
78.7063 132.25 183.453
88.8284 135.673 183.668
76.8015 135.211 184.736
77.2366 133.941 184.403
88.4718 136.9 183.472
76.3901 136.154 185.594
87.8456 137.655 183.854
87.5524 138.786 183.207
76.1921 137.49 186.35
86.8581 139.552 183.66
76.4503 138.839 186.92
85.961 140.267 184.028
85.6702 141.514 183.359
76.9603 139.937 187.123
84.6777 141.724 184.263
83.7984 142.373 184.02
77.3815 141.366 186.278
78.1092 142.299 186.268
79.2056 142.669 185.989
80.3988 142.654 185.547
81.5078 142.512 185.056
82.5735 142.548 184.518
86.9833 121.206 179.003
85.9024 122.743 179.557
86.2473 120.491 179.717
87.5958 120.324 179.963
88.085 121.565 180.153
87.6544 121.238 181.46
85.516 124.362 179.606
87.8264 123.031 180.968
87.9512 124.254 181.937
85.0568 125.617 180.1
84.1905 125.118 181.266
84.8887 124.479 180.511
88.3242 125.4 182.639
84.5517 126.814 180.468
83.4173 126.468 181.392
88.6614 126.671 182.735
82.663 127.84 181.459
82.05 126.993 182.57
82.702 126.677 181.962
89.2499 128.094 182.061
89.3254 129.68 182.951
81.3828 128.307 182.404
79.8892 128.658 183.857
80.8237 127.548 183.428
89.3027 131.273 183.476
79.1084 129.796 184.175
89.0491 132.974 184.067
78.4616 131.552 183.989
77.6573 131.525 185.162
78.2658 130.529 184.811
88.6494 134.393 184.592
77.5591 132.69 184.678
76.7398 133.757 185.569
77.0383 132.295 185.937
88.3153 135.544 184.649
87.841 135.098 185.596
87.675 136.424 185.119
76.2902 134.734 186.268
88.0564 136.625 184.309
87.2571 137.765 184.66
76.1384 136.018 187.032
86.7463 138.592 184.627
76.2279 137.36 187.8
86.1924 139.368 184.772
76.7996 138.576 188.117
85.579 139.968 184.693
85.1415 140.828 184.347
77.2356 139.903 187.861
77.626 140.855 187.235
78.0485 140.609 188.193
84.3345 141.101 184.792
83.4227 141.735 184.781
78.2968 141.73 187.095
79.3511 142.118 187.041
80.3453 142.251 186.521
81.4217 141.916 186.116
82.3493 141.834 185.371
85.3621 121.767 180.222
84.7227 121.694 181.214
85.1149 120.359 180.716
86.2417 119.21 180.106
87.6482 119.627 180.821
87.3179 120.597 182.612
84.9528 123.477 180.767
84.1192 122.632 181.891
87.664 122.583 182.35
87.9 123.989 183.409
83.8022 124.11 182.006
82.5575 123.966 182.879
83.4397 123.149 182.496
88.1083 125.351 184.261
82.7577 125.478 182.249
81.6132 125.017 183.269
88.4642 126.853 183.912
88.9635 128.173 183.225
88.6989 128.559 184.29
81.3901 126.357 183.409
79.6863 127.006 184.428
80.4888 125.621 184.055
88.8386 130.058 184.331
78.8962 128.237 185.072
88.8179 131.629 184.66
78.3034 129.25 185.262
88.4913 132.908 185.205
77.2696 130.42 185.989
77.8159 129.691 185.67
88.0398 133.908 185.848
76.4136 133.134 186.949
76.5574 131.337 186.719
87.0719 134.928 186.382
87.0667 136.471 185.779
76.1834 134.494 187.669
86.3984 137.335 185.818
76.37 135.881 188.388
85.8651 138.306 185.746
76.8665 137.24 188.966
85.3417 139.618 185.189
85.3921 138.721 185.946
84.7766 139.136 185.987
77.3047 138.369 188.972
77.4787 139.521 188.546
77.9688 139.496 189.097
84.3685 140.304 185.144
83.9954 139.357 186.231
83.4694 140.075 185.899
78.7404 140.144 188.899
82.4894 141.161 186.16
82.1179 140.408 186.732
81.557 141.048 186.801
83.3597 140.917 185.406
82.7387 140.104 186.434
78.8097 141.077 188.002
79.662 141.303 187.649
80.6489 141.482 187.122
87.0137 118.191 180.589
85.5149 118.277 180.796
85.7748 117.275 181.096
87.1479 117.547 181.609
87.4247 119.117 181.865
86.9097 118.919 183.16
84.1497 120.517 182.083
84.75 119.205 181.253
86.9896 120.511 183.923
83.1956 122.284 182.644
82.5024 121.272 183.318
83.3836 120.789 182.699
87.3989 122.3 183.539
87.6372 123.779 184.735
81.794 122.904 183.398
80.3172 123.132 184.455
81.2921 121.839 184.223
87.7647 125.352 185.647
80.7491 124.009 183.859
79.4917 125.145 184.837
88.2927 126.94 185.044
88.3098 128.613 185.499
78.7705 126.407 185.433
88.429 130.155 185.454
77.9547 127.316 185.947
77.342 126.771 187.212
78.0341 126.115 186.54
88.1798 131.373 185.861
77.3655 128.488 186.194
76.9584 128.08 187.389
87.7716 132.357 186.421
76.805 129.697 186.903
76.2505 131.597 187.754
76.579 129.521 187.823
87.3035 133.612 186.781
76.1319 133.034 188.337
86.5748 134.453 187.238
86.3292 135.762 186.783
76.3437 134.389 188.965
85.6495 136.604 186.732
76.7842 135.711 189.554
85.2785 137.822 186.531
84.9462 136.499 187.38
84.4563 137.346 187.372
77.4394 136.867 189.736
82.7311 138.688 187.822
82.305 137.607 189.127
81.9156 138.548 188.321
83.6749 138.327 187.642
83.0442 137.672 188.565
84.3938 138.469 186.834
83.703 137.137 188.183
77.892 138.041 189.649
78.6153 138.91 189.666
82.1407 139.651 187.278
81.376 139.18 188.106
83.2003 139.2 186.985
79.2204 139.471 189.319
79.6757 140.403 188.503
80.4516 140.525 187.94
79.9317 139.448 188.976
81.2275 140.247 187.48
80.6038 139.42 188.508
84.41 116.168 182.058
83.3661 116.601 182.817
83.8023 114.749 182.723
85.2617 114.808 182.262
85.5919 116.288 181.46
86.4839 115.615 182.362
87.017 117.033 182.328
86.7378 117.107 183.544
84.3658 118.015 181.873
83.2255 117.942 183.032
86.6162 118.69 184.442
83.4996 119.379 182.641
82.095 119.473 184.049
82.2566 118.391 184.037
86.7388 120.279 185.285
82.087 120.491 183.892
80.3217 121.078 184.844
81.1678 119.895 184.656
87.1609 122.096 184.84
87.2449 123.608 185.975
79.5484 122.855 185.128
87.3841 124.98 186.683
78.9915 124.002 185.632
77.9221 123.899 186.88
78.6838 122.785 186.153
87.8606 126.809 186.057
87.3416 126.357 187.197
78.4101 125.097 186.147
77.3394 125.2 187.511
87.737 128.08 186.512
87.8101 129.617 186.589
76.5226 126.344 188.303
87.4665 130.695 187.059
76.5696 128.23 188.241
76.3488 129.95 188.634
76.2727 127.754 189.089
86.9795 132.152 187.287
76.2831 131.417 189.058
86.7199 133.271 187.509
86.3228 132.235 188.002
85.9948 133.854 187.985
76.4572 132.753 189.578
85.6432 135.067 187.721
76.7323 134.068 190.083
85.2712 135.705 187.645
77.1695 135.096 190.465
77.546 136.267 190.382
78.0706 135.803 191.11
84.2579 136.41 188.01
84.3538 135.413 188.513
83.694 136.09 188.765
84.8897 135.188 188.204
77.8851 137.11 190.231
78.4222 136.804 190.784
81.943 136.594 189.79
81.4896 137.863 189.322
82.8808 136.547 189.241
79.4465 138.496 189.808
78.6819 137.711 190.299
80.2244 138.511 189.565
79.8154 137.608 190.388
80.9628 138.509 189.098
80.6754 137.53 190.037
81.7258 115.55 184.705
80.5365 115.057 185.534
81.3566 113.95 185.013
82.5726 114.262 183.943
82.7629 115.691 183.678
83.9577 113.577 183.124
85.5312 113.826 183.008
86.5544 115.15 183.332
86.3101 116.7 184.636
81.0537 116.947 184.994
80.0955 116.907 185.729
82.0642 117.189 184.158
86.3682 118.197 185.607
80.8601 118.742 185.094
79.7472 118.361 186.016
86.3287 119.325 186.573
79.9218 119.902 185.516
78.8259 120.737 186.696
79.1499 119.289 186.564
86.924 121.821 186.016
86.5133 120.89 186.899
79.2773 121.567 185.765
77.9936 122.209 187.061
86.8549 122.843 186.979
86.9494 124.341 187.509
77.0924 123.531 187.778
86.7919 125.727 188.159
76.584 124.871 188.665
87.2245 127.967 187.417
86.6575 127.315 188.301
76.1764 126.127 189.62
86.8955 129.061 187.758
86.2552 128.548 188.804
76.2534 129.598 189.619
76.2906 127.963 190.185
86.2803 130.027 188.468
85.6543 129.501 189.199
85.4989 130.646 189.151
86.759 130.656 187.873
76.3526 130.986 190.34
85.7485 131.89 188.682
84.9865 131.44 189.494
76.6952 132.404 190.755
85.2782 133.281 188.728
84.6153 132.724 189.552
77.2332 133.29 191.112
84.5729 134.025 188.937
84.2637 133.409 189.584
83.7599 133.893 189.646
85.0892 134.627 188.19
77.4464 134.281 191.293
79.1756 135.915 191.275
78.2664 135.003 191.539
79.4239 135.073 191.753
83.726 135.031 189.236
83.0351 134.474 190.01
82.8173 135.483 189.642
79.412 136.8 190.823
80.149 135.594 191.177
80.4355 136.477 190.686
81.2221 136.758 190.105
81.0835 135.611 190.748
82.0107 135.624 190.236
83.1344 111.356 183.978
81.69 111.333 184.789
81.9268 110.242 184.719
83.3667 109.959 184.359
84.6152 111.398 183.876
84.6203 110.514 184.561
85.4638 112.17 184.575
85.133 111.693 185.449
81.8312 112.707 184.726
80.1567 113.143 185.943
80.539 111.797 185.589
83.0759 112.871 183.834
84.435 112.531 183.413
85.7158 113.165 183.977
85.4765 113.484 185.366
79.5987 115.13 186.318
86.2492 114.825 184.523
85.9353 116.413 185.823
79.2253 116.904 186.566
85.9033 117.75 186.844
78.9472 118.228 186.736
78.1421 119.356 187.541
78.2558 117.688 187.366
85.8848 119.582 187.76
77.8282 120.874 187.753
85.9423 121.17 188.139
77.0707 122.056 188.207
86.4239 122.736 187.878
86.223 124.203 188.565
76.5701 123.243 189.085
86.1461 125.566 189.068
76.3852 124.487 189.94
85.858 126.939 189.284
76.3946 125.71 190.724
85.6137 128.186 189.462
76.493 129.279 190.903
76.5114 127.302 191.047
85.1902 128.621 189.789
84.7532 129.513 189.933
76.8886 130.849 191.493
77.1024 129.176 191.76
84.2774 131.253 190.135
77.334 132.289 191.746
77.7012 131.047 192.381
83.9067 132.697 190.085
83.6794 131.349 190.698
83.2494 132.268 190.816
77.8936 133.284 191.739
78.2328 132.447 192.44
82.1975 133.506 191.02
81.8043 132.607 191.667
81.354 133.617 191.627
83.0631 133.447 190.497
82.6058 132.293 191.31
78.474 133.977 192.031
80.5167 134.65 191.668
79.5302 134.215 192.295
81.361 134.492 191.048
80.5584 133.661 192.106
82.3018 134.536 190.509
80.5454 95.0367 181.211
79.5889 95.2317 181.041
79.6883 93.3877 180.34
80.4861 93.7631 181.159
80.8354 95.1342 182.213
80.4105 94.2205 182.443
80.4931 96.4213 181.651
79.9571 97.2789 181.966
81.1533 96.5332 182.497
80.882 96.0002 183.453
80.9698 98.0012 182.562
81.4617 97.6815 183.381
80.2852 109.184 185.684
78.9261 109.903 187.008
79.2212 108.548 186.598
80.9413 108.01 185.107
81.8175 109.106 184.75
82.8131 107.813 184.587
83.7635 108.883 184.632
84.2073 108.51 185.885
80.2162 110.485 185.891
79.3666 111.465 186.656
84.6386 110.01 185.506
84.8627 111.961 186.35
79.1069 113.372 186.629
84.938 113.46 186.836
78.664 114.743 187
77.8347 115.52 188.016
78.0735 113.781 187.604
85.7021 114.93 185.985
85.4556 116.269 187.259
78.4731 116.236 187.3
77.6359 117.63 188.229
85.5827 117.891 188.041
77.3171 119.371 188.601
85.2835 119.446 188.878
76.8496 120.726 189.085
84.9001 120.28 189.619
76.5373 121.876 189.816
85.8596 122.44 188.765
85.0797 121.498 189.433
76.4449 123.102 190.774
85.464 123.49 189.432
84.6375 123.145 190.072
76.6275 124.385 191.531
85.335 124.961 189.898
84.5816 125.424 190.417
76.9693 126.021 191.785
85.1194 127.006 189.86
84.3063 126.865 190.521
77.1579 127.793 192.166
84.3939 128.536 190.404
83.5631 127.052 191.02
83.2714 128.16 191.186
77.7116 129.35 192.512
82.3858 129.707 191.746
81.5603 128.826 192.418
81.3279 129.96 192.363
83.3487 129.362 191.136
82.3765 128.286 191.924
83.9623 130.155 190.584
78.4254 130.568 192.902
79.0093 131.952 192.893
80.2732 131.749 192.764
79.4987 130.697 193.06
81.3758 131.07 192.274
80.5332 130.407 192.812
82.0722 131.41 191.732
82.9413 130.828 191.269
78.9977 133.149 192.384
79.8944 132.941 192.433
80.9934 132.447 192.137
77.8264 92.3102 179.929
77.4335 93.7864 181.131
76.728 92.0529 181.41
77.8378 90.9387 180.775
79.1839 91.8593 180.039
78.9933 91.4295 181.613
78.6426 94.1 180.521
78.1287 95.3025 181.837
79.9238 92.6569 181.447
79.9146 93.6492 183.008
79.1403 96.6793 181.988
78.364 96.7735 182.909
80.2839 95.2972 183.996
79.2735 98.7567 183.167
78.456 98.749 184.009
80.2497 99.06 182.778
81.4552 99.4656 183.296
81.1967 97.9894 184.403
79.351 100.628 184.014
78.3805 100.227 184.87
80.3545 101.044 183.625
81.3871 101.164 183.638
81.9117 99.5922 184.356
82.2986 101.159 184.166
82.2225 100.832 185.166
79.2923 102.025 184.739
78.2315 101.661 185.675
80.4326 102.822 184.3
81.5875 103.015 184.23
82.6218 102.676 184.184
82.7129 102.288 185.348
79.1488 103.365 185.224
80.1952 104.368 184.646
79.1852 104.715 185.72
81.6539 104.748 184.539
82.7578 104.545 184.759
82.9969 103.77 185.562
79.7295 105.943 185.351
78.5683 105.868 186.581
81.0222 106.001 184.798
82.8796 105.844 184.813
83.1937 105.391 186.302
78.6139 107.039 186.727
79.8202 107.324 185.741
78.0885 108.162 187.762
81.8295 106.86 184.722
83.3116 106.551 186.6
83.5975 107.096 185.236
83.3719 107.649 186.925
77.9394 109.148 188.356
83.6507 108.985 187.311
78.4322 110.662 187.746
78.0144 111.708 188.398
77.6014 109.971 189.227
84.2598 110.362 186.732
84.1915 111.595 187.594
78.5293 112.254 187.497
77.4692 113.576 188.607
84.0615 112.398 188.423
77.2974 115.74 188.921
85.0908 114.716 187.441
84.3512 113.687 188.501
77.096 117.577 189.306
84.8276 115.724 188.37
84.9445 117.315 188.909
76.7737 119.086 189.789
84.4852 118.399 189.713
76.5693 120.378 190.556
84.1982 119.654 190.297
83.7137 118.199 190.454
83.3875 119.443 191.096
76.638 121.746 191.378
84.0137 120.968 190.599
83.1508 121.226 191.39
77.0148 123.044 192.263
84.0662 122.188 190.579
83.0401 122.643 191.512
77.1935 124.669 192.731
83.411 123.784 191.328
82.3815 123.419 192.217
82.3076 124.572 192.377
84.0943 124.117 190.736
77.5266 126.257 192.669
82.8306 125.373 191.774
82.099 125.838 192.373
83.6691 125.517 191.193
77.804 127.808 192.907
82.9439 126.895 191.647
82.0154 127.099 192.284
78.3545 128.746 193.124
78.8013 129.623 193.117
79.9455 129.535 193.188
79.5264 128.606 193.455
80.8104 129.309 192.85
80.5304 128.27 193.15
81.3097 127.66 192.7
77.0478 94.1288 182.4
76.7746 92.3635 182.84
77.5849 90.7504 182.378
78.4024 91.6923 183.293
77.3188 95.6273 183.443
79.2952 92.4546 182.964
79.3717 93.7603 184.23
77.6826 97.208 184.097
80.2319 96.3805 184.854
77.6585 98.4616 185.193
80.7405 98.0501 185.632
77.6227 99.9223 186.045
81.4964 99.5579 185.403
81.9428 101.455 186.191
77.6056 100.98 186.828
82.2226 103.122 186.661
78.3681 103.058 186.028
77.7402 102.336 186.946
82.5765 104.484 187.112
78.2349 104.125 186.63
77.954 105.221 187.35
82.2307 105.678 188.183
77.8103 106.645 188.165
77.4289 107.132 189.554
82.2695 106.763 188.524
82.6687 108.001 188.661
77.3428 108.214 190.096
82.7348 108.867 189.103
77.6524 111.638 189.396
77.4402 109.579 190.683
83.4791 110.114 188.305
83.2219 110.782 189.255
77.2974 113.73 189.635
83.3099 112.401 189.575
77.0391 115.555 190.001
83.2096 113.716 189.978
77.0086 117.169 190.466
84.1989 115.594 189.314
83.4949 114.986 189.959
76.9299 118.662 191.06
83.9002 116.738 190.053
83.0531 117.232 190.964
76.968 120.039 191.888
82.5979 118.941 191.69
77.2466 121.257 192.398
82.3701 120.735 192.074
81.8121 119.314 192.437
81.4991 120.724 192.971
77.6568 122.367 193.067
77.912 123.87 193.589
79.1949 123.568 194.118
78.4389 122.4 193.93
80.4051 122.923 193.732
79.5667 121.906 193.988
81.3969 122.144 193.026
80.6266 121.264 193.684
82.2053 122.34 192.212
78.1197 125.449 193.473
79.0885 124.964 193.863
80.2967 124.437 193.785
81.2955 123.642 193.077
78.3653 126.807 193.402
79.2313 126.213 193.586
80.26 125.731 193.517
81.263 125.096 193.101
78.6698 127.946 193.428
79.4702 127.477 193.498
80.3451 127.012 193.358
81.2273 126.391 192.94
76.9382 93.8699 183.9
77.2603 92.1723 184.115
77.0059 95.2502 184.903
77.4113 93.8794 185.225
78.4213 92.9251 184.73
77.119 96.7856 185.315
77.4541 95.7573 186.247
78.2545 94.5804 186.185
79.178 94.5546 185.458
79.7547 96.2536 185.59
77.4427 98.3999 186.52
80.2781 98.2065 186.619
77.6174 99.7755 187.544
81.2527 99.9752 186.574
81.5106 101.973 187.31
77.8268 101.179 188.145
81.6879 103.693 187.994
77.7582 102.502 188.326
81.3676 104.856 188.855
77.749 103.75 187.66
77.6369 104.313 188.717
80.9186 106.143 189.918
77.6331 105.401 188.723
78.3584 106.598 191.269
77.8811 105.618 190.013
80.1206 106.794 191.233
79.3505 105.534 190.931
81.4272 107.369 189.8
77.8605 108.112 191.624
79.4844 107.788 192.261
80.9359 108.055 190.781
77.4197 111.79 190.443
77.8025 110.526 191.534
78.3987 109.138 192.395
79.8815 109.254 192.378
80.5294 110.597 192.115
80.855 109.186 191.322
82.0353 109.465 190.167
77.2194 113.656 190.833
81.427 111.032 191.261
80.8594 112.218 192.209
82.1459 110.952 190.322
77.2193 115.24 191.187
81.5149 113.132 191.485
80.8717 113.962 192.538
82.2123 112.461 190.633
77.2469 116.671 191.585
81.5329 114.962 191.751
80.7781 115.649 192.822
82.4052 114.364 190.818
77.3344 118.09 192.007
81.6021 116.488 192.062
80.5016 117.066 193.068
82.5862 115.924 191.009
77.6055 118.832 192.79
77.825 119.966 193.417
79.1471 119.279 193.995
78.3928 118.351 193.462
80.386 118.412 193.515
79.4747 117.693 193.714
81.1705 118.121 192.695
82.032 117.762 191.892
77.9101 121.383 193.427
78.785 120.888 193.97
79.9523 120.238 194.021
80.8597 119.481 193.234
77.6023 97.3336 187.125
78.4104 96.5803 187.436
79.1061 96.2747 186.524
78.018 98.8407 188.247
78.9028 98.3667 188.238
79.6146 98.0288 187.362
78.262 100.381 189.11
79.2063 100.053 189.119
79.9614 100.02 188.294
80.6305 100.108 187.48
78.2729 101.884 189.585
79.281 101.676 189.817
80.1456 101.698 189.119
80.8955 101.939 188.236
77.8622 103.217 189.464
78.8982 103.097 190.313
79.9199 103.317 189.775
80.8482 103.451 188.982
78.0841 104.356 190.13
79.2066 104.495 190.562
80.3586 104.811 190.008
77.7028 112.353 191.681
78.2606 111.196 192.652
79.2578 110.351 192.82
77.6664 113.836 192.138
78.4945 112.743 193.083
79.6697 111.756 192.939
77.7294 115.137 192.492
78.7242 114.1 193.42
79.955 113.192 193.153
77.8801 116.519 192.651
78.74 115.471 193.272
79.9114 114.794 193.246
77.9819 117.653 192.869
78.6947 116.847 193.468
79.761 116.153 193.418
POLYGONS 2132  8528
3 0 1 2
3 0 3 4
3 2 3 0
3 4 5 6
3 3 5 4
3 6 7 8
3 5 7 6
3 7 9 8
3 10 1 0
3 11 1 10
3 4 12 0
3 12 10 0
3 6 13 4
3 13 12 4
3 8 14 6
3 14 13 6
3 15 8 9
3 14 8 15
3 16 11 10
3 17 11 16
3 12 18 10
3 18 16 10
3 13 19 12
3 19 18 12
3 14 20 13
3 20 19 13
3 21 14 15
3 20 14 21
3 16 22 17
3 18 22 16
3 23 22 18
3 19 23 18
3 24 23 19
3 20 24 19
3 25 24 20
3 21 25 20
3 26 27 28
3 26 29 30
3 28 29 26
3 29 31 30
3 32 33 34
3 27 32 34
3 27 26 32
3 26 35 32
3 30 36 26
3 36 35 26
3 37 30 31
3 36 30 37
3 38 33 32
3 39 33 38
3 35 40 32
3 40 38 32
3 36 41 35
3 41 40 35
3 42 36 37
3 41 36 42
3 43 44 45
3 43 46 47
3 45 46 43
3 39 47 46
3 39 38 47
3 38 48 47
3 40 49 38
3 49 48 38
3 50 41 51
3 50 49 41
3 49 40 41
3 42 51 41
3 2 44 43
3 2 1 44
3 1 52 44
3 3 2 43
3 47 3 43
3 5 3 47
3 48 5 47
3 7 5 48
3 49 7 48
3 49 9 7
3 49 50 9
3 50 53 9
3 1 11 52
3 52 11 54
3 9 53 15
3 53 55 15
3 11 17 54
3 54 17 56
3 15 55 21
3 55 57 21
3 58 17 22
3 58 59 17
3 59 56 17
3 22 23 60
3 58 22 60
3 23 24 61
3 60 23 61
3 62 61 24
3 62 24 63
3 63 24 25
3 57 25 21
3 63 25 57
3 58 64 59
3 60 64 58
3 65 64 60
3 61 65 60
3 66 65 61
3 62 66 61
3 67 68 69
3 67 70 71
3 69 70 67
3 71 72 73
3 70 72 71
3 72 74 73
3 75 76 77
3 68 75 77
3 68 67 75
3 67 78 75
3 71 79 67
3 79 78 67
3 73 80 71
3 80 79 71
3 81 73 74
3 80 73 81
3 82 76 75
3 83 76 82
3 78 84 75
3 84 82 75
3 79 85 78
3 85 84 78
3 80 86 79
3 86 85 79
3 87 80 81
3 86 80 87
3 28 83 82
3 28 27 83
3 27 88 83
3 29 28 82
3 84 29 82
3 31 29 84
3 31 84 89
3 89 84 85
3 86 90 85
3 90 89 85
3 91 86 87
3 90 86 91
3 34 92 93
3 33 92 34
3 88 27 34
3 93 88 34
3 89 94 37
3 31 89 37
3 90 95 89
3 95 94 89
3 96 90 91
3 95 90 96
3 97 98 99
3 97 99 92
3 97 92 39
3 39 92 33
3 94 100 42
3 37 94 42
3 101 95 102
3 101 100 95
3 100 94 95
3 96 102 95
3 45 103 104
3 44 103 45
3 98 97 46
3 98 46 104
3 104 46 45
3 39 46 97
3 51 105 50
3 51 42 100
3 51 100 105
3 105 100 106
3 107 100 101
3 106 100 107
3 44 52 103
3 103 52 108
3 105 109 53
3 50 105 53
3 110 106 111
3 110 109 106
3 109 105 106
3 107 111 106
3 52 54 108
3 108 54 112
3 109 113 55
3 53 109 55
3 114 109 110
3 113 109 114
3 54 56 112
3 112 56 115
3 113 116 57
3 55 113 57
3 117 113 114
3 116 113 117
3 56 59 115
3 115 59 118
3 63 119 120
3 62 63 120
3 116 63 57
3 116 121 63
3 121 119 63
3 117 121 116
3 59 122 118
3 64 122 59
3 65 123 64
3 64 123 122
3 66 124 65
3 65 124 123
3 120 66 62
3 124 66 120
3 69 125 126
3 68 125 69
3 70 69 127
3 69 126 127
3 72 70 128
3 70 127 128
3 128 74 72
3 129 74 128
3 77 130 131
3 76 130 77
3 125 68 77
3 131 125 77
3 74 129 81
3 129 132 81
3 76 83 130
3 130 83 133
3 134 135 87
3 134 87 132
3 132 87 81
3 134 136 135
3 83 88 133
3 133 88 137
3 135 138 91
3 87 135 91
3 139 135 136
3 138 135 139
3 93 140 141
3 92 140 93
3 137 88 93
3 141 137 93
3 138 142 96
3 91 138 96
3 143 138 139
3 142 138 143
3 99 144 145
3 98 144 99
3 140 92 99
3 145 140 99
3 102 146 101
3 102 147 146
3 96 147 102
3 96 148 147
3 96 142 148
3 143 148 142
3 104 149 150
3 103 149 104
3 144 98 104
3 150 144 104
3 146 151 107
3 101 146 107
3 152 146 147
3 151 146 152
3 103 108 149
3 149 108 153
3 111 154 110
3 111 155 154
3 107 155 111
3 107 156 155
3 107 151 156
3 152 156 151
3 108 112 153
3 153 112 157
3 154 158 114
3 110 154 114
3 159 154 155
3 158 154 159
3 112 115 157
3 157 115 160
3 158 161 162
3 158 162 114
3 114 162 117
3 159 161 158
3 115 118 160
3 160 118 163
3 119 164 120
3 165 164 119
3 165 119 166
3 166 119 121
3 162 121 117
3 166 121 162
3 118 167 163
3 122 167 118
3 123 168 122
3 122 168 167
3 124 169 123
3 123 169 168
3 164 124 120
3 164 170 124
3 170 169 124
3 165 170 164
3 126 125 171
3 172 126 171
3 172 173 126
3 173 127 126
3 128 127 174
3 127 173 174
3 174 129 128
3 175 129 174
3 131 130 176
3 131 176 177
3 125 131 177
3 125 177 178
3 125 178 171
3 172 171 178
3 179 180 132
3 179 132 175
3 175 132 129
3 179 181 180
3 176 182 183
3 176 130 182
3 130 133 182
3 177 176 183
3 132 180 134
3 180 136 134
3 180 181 136
3 181 184 136
3 133 137 182
3 182 137 185
3 136 184 139
3 184 186 139
3 141 187 188
3 140 187 141
3 185 137 141
3 188 185 141
3 139 186 143
3 186 189 143
3 145 190 191
3 144 190 145
3 187 140 145
3 191 187 145
3 148 192 147
3 148 193 192
3 148 143 193
3 143 189 193
3 150 194 195
3 149 194 150
3 190 144 150
3 195 190 150
3 192 196 152
3 147 192 152
3 197 192 193
3 196 192 197
3 198 199 200
3 198 200 194
3 198 194 153
3 153 194 149
3 156 201 155
3 156 202 201
3 152 202 156
3 152 203 202
3 152 196 203
3 197 203 196
3 204 199 198
3 205 199 204
3 153 157 204
3 198 153 204
3 201 206 159
3 155 201 159
3 207 201 202
3 206 201 207
3 208 205 204
3 209 205 208
3 157 160 208
3 204 157 208
3 161 210 162
3 161 211 210
3 159 211 161
3 159 212 211
3 159 206 212
3 207 212 206
3 213 209 208
3 214 209 213
3 160 163 213
3 208 160 213
3 166 215 216
3 165 166 216
3 210 166 162
3 210 217 166
3 217 215 166
3 211 217 210
3 213 218 214
3 163 218 213
3 163 167 218
3 167 219 218
3 168 220 167
3 167 220 219
3 169 221 168
3 168 221 220
3 170 222 169
3 169 222 221
3 216 170 165
3 222 170 216
3 223 224 225
3 223 226 227
3 225 226 223
3 226 228 227
3 173 224 223
3 173 172 224
3 172 229 224
3 174 173 223
3 227 174 223
3 227 175 174
3 227 228 175
3 228 230 175
3 178 231 232
3 177 231 178
3 229 172 178
3 232 229 178
3 175 230 233
3 179 175 233
3 233 181 179
3 234 181 233
3 183 235 236
3 182 235 183
3 231 177 183
3 236 231 183
3 181 234 184
3 234 237 184
3 238 239 240
3 238 240 235
3 238 235 185
3 185 235 182
3 184 237 186
3 237 241 186
3 242 243 244
3 239 242 244
3 238 242 239
3 238 187 242
3 238 188 187
3 185 188 238
3 186 241 189
3 241 245 189
3 246 247 248
3 243 246 248
3 242 246 243
3 242 190 246
3 242 191 190
3 187 191 242
3 189 245 193
3 245 249 193
3 250 251 252
3 247 250 252
3 246 250 247
3 246 194 250
3 246 195 194
3 190 195 246
3 193 249 197
3 249 253 197
3 200 251 250
3 200 199 251
3 199 254 251
3 194 200 250
3 203 255 256
3 202 203 256
3 253 203 197
3 255 203 253
3 199 205 254
3 254 205 257
3 202 256 207
3 256 258 207
3 205 209 257
3 257 209 259
3 212 260 261
3 211 212 261
3 258 212 207
3 260 212 258
3 209 214 259
3 259 214 262
3 215 263 264
3 216 215 264
3 217 265 215
3 215 265 263
3 261 217 211
3 265 217 261
3 214 266 262
3 218 266 214
3 219 267 218
3 218 267 266
3 220 268 219
3 219 268 267
3 221 269 220
3 220 269 268
3 222 270 221
3 221 270 269
3 264 222 216
3 270 222 264
3 271 272 273
3 271 225 224
3 271 273 225
3 273 274 225
3 226 225 275
3 225 274 275
3 275 228 226
3 276 228 275
3 277 272 271
3 278 272 277
3 224 229 277
3 271 224 277
3 228 276 230
3 276 279 230
3 232 278 277
3 232 231 278
3 231 280 278
3 229 232 277
3 230 279 281
3 233 230 281
3 281 234 233
3 282 234 281
3 283 284 285
3 283 236 235
3 283 285 236
3 285 286 236
3 280 231 236
3 286 280 236
3 234 282 237
3 282 287 237
3 288 289 290
3 284 288 290
3 283 288 284
3 283 239 288
3 283 240 239
3 235 240 283
3 237 287 241
3 287 291 241
3 244 289 288
3 244 243 289
3 243 292 289
3 239 244 288
3 241 291 245
3 291 293 245
3 248 294 295
3 247 294 248
3 292 243 248
3 295 292 248
3 245 293 249
3 293 296 249
3 252 297 298
3 251 297 252
3 294 247 252
3 298 294 252
3 249 296 253
3 296 299 253
3 251 254 297
3 297 254 300
3 255 301 302
3 256 255 302
3 299 255 253
3 301 255 299
3 254 257 300
3 300 257 303
3 256 302 258
3 302 304 258
3 257 259 303
3 303 259 305
3 260 306 307
3 261 260 307
3 304 260 258
3 306 260 304
3 259 262 305
3 305 262 308
3 263 309 264
3 310 309 263
3 310 263 311
3 311 263 265
3 307 265 261
3 311 265 307
3 262 312 308
3 266 312 262
3 267 313 266
3 266 313 312
3 268 314 267
3 267 314 313
3 269 315 268
3 268 315 314
3 270 316 269
3 269 316 315
3 309 270 264
3 309 317 270
3 317 316 270
3 310 317 309
3 318 319 320
3 318 321 322
3 320 321 318
3 322 323 324
3 321 323 322
3 323 325 324
3 273 319 318
3 273 272 319
3 272 326 319
3 274 273 318
3 322 274 318
3 275 274 322
3 324 275 322
3 324 276 275
3 324 325 276
3 325 327 276
3 272 278 326
3 326 278 328
3 276 327 279
3 327 329 279
3 330 331 332
3 330 332 328
3 330 328 280
3 280 328 278
3 279 329 333
3 281 279 333
3 333 282 281
3 334 282 333
3 285 335 336
3 284 335 285
3 331 330 286
3 331 286 336
3 336 286 285
3 280 286 330
3 282 334 287
3 334 337 287
3 290 338 339
3 289 338 290
3 335 284 290
3 339 335 290
3 287 337 291
3 337 340 291
3 289 292 338
3 338 292 341
3 291 340 293
3 340 342 293
3 295 343 344
3 294 343 295
3 341 292 295
3 344 341 295
3 293 342 296
3 342 345 296
3 298 346 347
3 297 346 298
3 343 294 298
3 347 343 298
3 296 345 299
3 345 348 299
3 297 300 346
3 346 300 349
3 301 350 351
3 302 301 351
3 348 301 299
3 350 301 348
3 300 303 349
3 349 303 352
3 302 351 304
3 351 353 304
3 303 305 352
3 352 305 354
3 306 355 356
3 307 306 356
3 353 306 304
3 355 306 353
3 305 308 354
3 354 308 357
3 311 358 359
3 310 311 359
3 356 311 307
3 358 311 356
3 308 360 357
3 312 360 308
3 313 361 312
3 312 361 360
3 314 362 313
3 313 362 361
3 315 363 314
3 314 363 362
3 316 364 315
3 315 364 363
3 317 365 316
3 316 365 364
3 359 317 310
3 365 317 359
3 366 367 368
3 366 369 370
3 368 369 366
3 369 371 370
3 320 367 366
3 320 319 367
3 319 372 367
3 321 320 366
3 370 321 366
3 370 371 373
3 370 373 321
3 321 373 323
3 373 325 323
3 374 325 373
3 375 376 377
3 375 377 372
3 375 372 326
3 326 372 319
3 325 374 327
3 374 378 327
3 379 376 375
3 380 376 379
3 326 328 379
3 375 326 379
3 327 378 329
3 378 381 329
3 382 383 384
3 380 382 384
3 379 382 380
3 379 331 382
3 379 332 331
3 328 332 379
3 329 381 385
3 333 329 385
3 385 334 333
3 386 334 385
3 387 388 389
3 383 387 389
3 382 387 383
3 382 335 387
3 382 336 335
3 331 336 382
3 334 386 337
3 386 390 337
3 339 388 387
3 339 338 388
3 338 391 388
3 335 339 387
3 337 390 340
3 390 392 340
3 393 394 395
3 393 395 391
3 393 391 341
3 341 391 338
3 340 392 342
3 392 396 342
3 397 398 399
3 394 397 399
3 393 397 394
3 393 343 397
3 393 344 343
3 341 344 393
3 400 401 402
3 400 396 401
3 400 345 396
3 345 342 396
3 347 398 397
3 347 346 398
3 346 403 398
3 343 347 397
3 404 400 402
3 405 404 402
3 345 404 348
3 400 404 345
3 346 349 403
3 403 349 406
3 350 404 405
3 350 405 351
3 351 405 407
3 348 404 350
3 349 352 406
3 406 352 408
3 351 407 353
3 407 409 353
3 352 354 408
3 408 354 410
3 355 411 412
3 356 355 412
3 409 355 353
3 411 355 409
3 413 357 414
3 413 410 357
3 410 354 357
3 413 414 415
3 358 416 417
3 359 358 417
3 412 358 356
3 416 358 412
3 357 360 414
3 414 418 415
3 414 360 418
3 360 361 418
3 362 419 361
3 361 419 418
3 363 420 362
3 362 420 419
3 364 421 363
3 363 421 420
3 365 422 364
3 364 422 421
3 417 365 359
3 422 365 417
3 423 424 425
3 423 368 367
3 423 425 368
3 425 426 368
3 369 368 427
3 368 426 427
3 427 371 369
3 428 371 427
3 429 424 423
3 430 424 429
3 367 372 429
3 423 367 429
3 371 428 431
3 373 371 431
3 431 374 373
3 432 374 431
3 433 434 435
3 430 433 435
3 429 433 430
3 429 376 433
3 429 377 376
3 372 377 429
3 374 432 378
3 432 436 378
3 437 434 433
3 438 434 437
3 376 380 437
3 433 376 437
3 439 440 381
3 439 381 436
3 436 381 378
3 439 441 440
3 442 443 444
3 438 442 444
3 437 442 438
3 437 383 442
3 437 384 383
3 380 384 437
3 381 440 385
3 440 386 385
3 440 441 386
3 441 445 386
3 389 443 442
3 389 388 443
3 388 446 443
3 383 389 442
3 386 445 390
3 445 447 390
3 388 391 446
3 446 391 448
3 390 447 392
3 447 449 392
3 395 450 451
3 394 450 395
3 448 391 395
3 451 448 395
3 392 449 396
3 449 452 396
3 399 453 454
3 398 453 399
3 450 394 399
3 454 450 399
3 401 455 456
3 402 401 456
3 452 401 396
3 455 401 452
3 398 403 453
3 453 403 457
3 402 456 405
3 456 458 405
3 403 406 457
3 457 406 459
3 405 458 407
3 458 460 407
3 406 408 459
3 459 408 461
3 462 463 464
3 462 460 463
3 462 409 460
3 409 407 460
3 465 410 466
3 465 461 410
3 461 408 410
3 465 466 467
3 468 469 470
3 464 469 468
3 462 464 468
3 462 468 412
3 462 412 411
3 409 462 411
3 410 413 466
3 466 413 415
3 466 415 467
3 467 415 471
3 472 473 474
3 472 475 476
3 473 472 476
3 470 476 475
3 468 470 475
3 468 475 417
3 468 417 416
3 412 468 416
3 415 477 471
3 418 477 415
3 419 478 418
3 418 478 477
3 420 479 419
3 419 479 478
3 474 421 472
3 474 479 421
3 479 420 421
3 422 472 421
3 475 472 422
3 417 475 422
3 480 481 482
3 480 483 484
3 482 483 480
3 483 485 484
3 425 486 487
3 424 486 425
3 481 480 426
3 481 426 487
3 487 426 425
3 427 426 480
3 484 427 480
3 484 428 427
3 484 485 428
3 485 488 428
3 489 490 491
3 489 491 486
3 489 486 430
3 430 486 424
3 428 488 492
3 431 428 492
3 492 432 431
3 493 432 492
3 494 495 496
3 490 494 496
3 489 494 490
3 489 434 494
3 489 435 434
3 430 435 489
3 432 493 436
3 493 497 436
3 498 495 494
3 499 495 498
3 434 438 498
3 494 434 498
3 436 497 500
3 439 436 500
3 500 441 439
3 501 441 500
3 444 499 498
3 444 443 499
3 443 502 499
3 438 444 498
3 441 501 445
3 501 503 445
3 504 505 506
3 504 506 502
3 504 502 446
3 446 502 443
3 445 503 447
3 503 507 447
3 508 505 504
3 509 505 508
3 446 448 508
3 504 446 508
3 447 507 449
3 507 510 449
3 511 512 513
3 509 511 513
3 508 511 509
3 508 450 511
3 508 451 450
3 448 451 508
3 449 510 452
3 510 514 452
3 454 512 511
3 454 453 512
3 453 515 512
3 450 454 511
3 455 516 517
3 456 455 517
3 514 455 452
3 516 455 514
3 453 457 515
3 515 457 518
3 456 517 458
3 517 519 458
3 457 459 518
3 518 459 520
3 521 522 523
3 521 519 522
3 521 460 519
3 460 458 519
3 459 461 520
3 520 461 524
3 525 526 527
3 525 528 529
3 526 525 529
3 528 530 531
3 529 528 531
3 523 531 530
3 521 523 530
3 521 530 464
3 521 464 463
3 460 521 463
3 461 532 524
3 465 532 461
3 532 465 467
3 533 532 467
3 534 525 527
3 535 534 527
3 528 525 536
3 536 525 534
3 469 536 470
3 469 530 536
3 530 528 536
3 464 530 469
3 537 471 538
3 537 533 471
3 533 467 471
3 538 539 540
3 537 538 540
3 539 541 542
3 540 539 542
3 535 542 541
3 534 535 541
3 534 541 474
3 534 474 473
3 476 534 473
3 536 534 476
3 470 536 476
3 471 477 538
3 478 538 477
3 539 538 478
3 479 539 478
3 541 539 479
3 474 541 479
3 543 544 545
3 543 546 547
3 545 546 543
3 547 548 549
3 546 548 547
3 548 550 549
3 551 544 543
3 552 544 551
3 482 481 551
3 482 551 547
3 547 551 543
3 483 482 547
3 549 483 547
3 549 485 483
3 549 550 485
3 550 553 485
3 554 555 556
3 552 554 556
3 551 554 552
3 551 486 554
3 551 487 486
3 481 487 551
3 485 553 488
3 553 557 488
3 558 559 560
3 555 558 560
3 554 558 555
3 554 490 558
3 554 491 490
3 486 491 554
3 488 557 561
3 492 488 561
3 561 493 492
3 562 493 561
3 496 559 558
3 496 495 559
3 495 563 559
3 490 496 558
3 493 562 497
3 562 564 497
3 565 566 567
3 565 567 563
3 565 563 499
3 499 563 495
3 568 500 497
3 568 497 569
3 569 497 564
3 500 568 501
3 570 566 565
3 571 566 570
3 499 502 570
3 565 499 570
3 568 569 572
3 572 501 568
3 572 573 501
3 573 503 501
3 506 571 570
3 506 505 571
3 505 574 571
3 502 506 570
3 503 573 507
3 573 575 507
3 576 577 578
3 576 578 574
3 576 574 509
3 509 574 505
3 507 575 510
3 575 579 510
3 513 577 576
3 513 512 577
3 512 580 577
3 509 513 576
3 581 582 583
3 581 579 582
3 581 514 579
3 514 510 579
3 512 515 580
3 580 515 584
3 516 581 583
3 516 583 517
3 517 583 585
3 514 581 516
3 515 518 584
3 584 518 586
3 517 585 519
3 585 587 519
3 588 520 589
3 588 586 520
3 586 518 520
3 588 589 590
3 591 592 593
3 591 523 522
3 591 522 592
3 592 522 594
3 587 522 519
3 594 522 587
3 589 524 595
3 520 524 589
3 596 590 589
3 595 596 589
3 526 597 598
3 527 526 598
3 529 599 526
3 526 599 597
3 593 531 591
3 593 599 531
3 599 529 531
3 523 591 531
3 524 532 595
3 533 600 601
3 532 533 601
3 532 601 596
3 532 596 595
3 600 602 603
3 601 600 603
3 602 604 605
3 603 602 605
3 604 598 605
3 604 535 598
3 535 527 598
3 533 537 600
3 540 600 537
3 602 600 540
3 542 602 540
3 604 602 542
3 535 604 542
3 606 607 608
3 606 609 610
3 608 609 606
3 610 545 544
3 610 609 545
3 609 611 545
3 546 545 612
3 545 611 612
3 548 546 613
3 546 612 613
3 613 550 548
3 614 550 613
3 615 607 606
3 616 607 615
3 610 617 606
3 617 615 606
3 544 552 617
3 610 544 617
3 550 614 553
3 614 618 553
3 619 616 615
3 620 616 619
3 556 555 619
3 556 619 617
3 617 619 615
3 552 556 617
3 553 618 557
3 618 621 557
3 622 623 624
3 620 622 624
3 619 622 620
3 619 559 622
3 619 560 559
3 555 560 619
3 625 561 557
3 625 557 626
3 626 557 621
3 561 625 562
3 627 623 622
3 628 623 627
3 559 563 627
3 622 559 627
3 625 626 629
3 629 562 625
3 629 630 562
3 630 564 562
3 567 628 627
3 567 566 628
3 566 631 628
3 563 567 627
3 564 630 569
3 630 632 569
3 566 571 631
3 631 571 633
3 634 572 569
3 634 569 635
3 635 569 632
3 572 634 573
3 571 574 633
3 633 574 636
3 637 634 635
3 638 637 635
3 573 637 575
3 634 637 573
3 578 639 640
3 577 639 578
3 636 574 578
3 640 636 578
3 641 642 643
3 638 642 641
3 638 641 637
3 637 641 644
3 575 644 579
3 637 644 575
3 577 580 639
3 639 580 645
3 646 641 643
3 647 646 643
3 582 646 583
3 582 644 646
3 644 641 646
3 579 644 582
3 580 584 645
3 645 584 648
3 649 646 647
3 650 649 647
3 583 649 585
3 646 649 583
3 584 586 648
3 648 586 651
3 652 653 654
3 650 653 652
3 650 652 649
3 649 652 655
3 585 655 587
3 649 655 585
3 586 656 651
3 588 656 586
3 590 657 658
3 590 658 588
3 588 658 656
3 658 657 659
3 660 661 662
3 654 661 660
3 652 654 660
3 652 660 593
3 652 593 592
3 594 652 592
3 655 652 594
3 587 655 594
3 657 596 663
3 590 596 657
3 664 659 657
3 664 657 665
3 665 657 663
3 665 666 667
3 664 665 667
3 666 598 597
3 666 597 667
3 667 597 668
3 662 599 660
3 662 668 599
3 668 597 599
3 593 660 599
3 596 601 663
3 603 663 601
3 665 663 603
3 605 665 603
3 666 665 605
3 598 666 605
3 669 670 671
3 669 672 673
3 671 672 669
3 673 674 675
3 672 674 673
3 674 676 675
3 677 678 679
3 670 677 679
3 670 669 677
3 669 680 677
3 673 681 669
3 681 680 669
3 675 682 673
3 682 681 673
3 683 675 676
3 682 675 683
3 608 678 677
3 608 607 678
3 607 684 678
3 609 608 677
3 680 609 677
3 611 609 680
3 681 611 680
3 612 611 681
3 682 612 681
3 682 683 685
3 682 685 612
3 612 685 613
3 685 614 613
3 686 614 685
3 607 616 684
3 684 616 687
3 614 686 618
3 686 688 618
3 689 690 691
3 689 691 687
3 689 687 620
3 620 687 616
3 618 688 621
3 688 692 621
3 624 690 689
3 624 623 690
3 623 693 690
3 620 624 689
3 621 692 626
3 692 694 626
3 623 628 693
3 693 628 695
3 626 694 696
3 629 626 696
3 696 630 629
3 697 630 696
3 628 631 695
3 695 631 698
3 630 697 632
3 697 699 632
3 631 633 698
3 698 633 700
3 632 699 635
3 699 701 635
3 633 636 700
3 700 636 702
3 635 701 638
3 701 703 638
3 640 639 704
3 640 704 705
3 640 705 636
3 636 705 702
3 642 706 707
3 643 642 707
3 703 642 638
3 706 642 703
3 704 645 708
3 639 645 704
3 709 705 704
3 708 709 704
3 643 707 647
3 707 710 647
3 708 648 711
3 645 648 708
3 712 709 708
3 711 712 708
3 713 714 715
3 713 710 714
3 713 650 710
3 650 647 710
3 711 651 716
3 648 651 711
3 717 712 711
3 716 717 711
3 718 719 720
3 718 721 722
3 719 718 722
3 715 722 721
3 713 715 721
3 713 721 654
3 713 654 653
3 650 713 653
3 651 656 716
3 716 723 717
3 716 656 723
3 656 658 723
3 659 724 725
3 659 725 658
3 658 725 723
3 724 726 727
3 725 724 727
3 720 727 726
3 720 726 718
3 718 726 728
3 661 728 662
3 661 721 728
3 721 718 728
3 654 721 661
3 659 664 724
3 667 724 664
3 726 724 667
3 668 726 667
3 728 726 668
3 662 728 668
3 729 730 731
3 729 732 733
3 731 732 729
3 732 734 733
3 735 730 729
3 736 730 735
3 733 737 729
3 737 735 729
3 738 733 734
3 737 733 738
3 735 739 736
3 737 739 735
3 740 739 737
3 738 740 737
3 741 742 743
3 741 744 745
3 743 744 741
3 745 746 747
3 744 746 745
3 746 748 747
3 749 742 741
3 750 742 749
3 671 670 749
3 671 749 745
3 745 749 741
3 672 671 745
3 747 672 745
3 747 748 751
3 747 751 672
3 672 751 674
3 751 676 674
3 752 676 751
3 679 750 749
3 679 678 750
3 678 753 750
3 670 679 749
3 676 752 683
3 752 754 683
3 755 756 757
3 755 757 753
3 755 753 684
3 684 753 678
3 683 754 758
3 685 683 758
3 758 686 685
3 759 686 758
3 760 756 755
3 761 756 760
3 684 687 760
3 755 684 760
3 686 759 688
3 759 762 688
3 691 761 760
3 691 690 761
3 690 763 761
3 687 691 760
3 688 762 692
3 762 764 692
3 690 693 763
3 763 693 765
3 692 764 694
3 764 766 694
3 693 695 765
3 765 695 767
3 768 696 694
3 768 694 769
3 769 694 766
3 696 768 697
3 695 698 767
3 767 698 770
3 771 768 769
3 772 771 769
3 697 771 699
3 768 771 697
3 698 700 770
3 770 700 773
3 774 771 772
3 775 774 772
3 699 774 701
3 771 774 699
3 700 702 773
3 773 702 776
3 777 774 775
3 778 777 775
3 701 777 703
3 774 777 701
3 702 705 776
3 776 705 779
3 780 781 782
3 778 781 780
3 777 778 780
3 777 780 707
3 777 707 706
3 703 777 706
3 705 709 779
3 779 709 783
3 784 785 786
3 784 787 788
3 785 784 788
3 782 788 787
3 782 787 780
3 780 787 789
3 707 789 710
3 780 789 707
3 790 712 791
3 790 783 712
3 783 709 712
3 791 792 793
3 790 791 793
3 792 794 795
3 793 792 795
3 786 795 794
3 786 794 784
3 784 794 796
3 787 784 797
3 797 784 796
3 714 797 715
3 714 789 797
3 789 787 797
3 710 789 714
3 791 717 798
3 712 717 791
3 792 791 799
3 799 791 798
3 794 792 800
3 800 792 799
3 719 800 720
3 719 796 800
3 796 794 800
3 722 796 719
3 797 796 722
3 715 797 722
3 717 723 798
3 725 798 723
3 799 798 725
3 727 799 725
3 800 799 727
3 720 800 727
3 801 802 803
3 801 804 805
3 803 804 801
3 804 806 805
3 807 802 801
3 808 802 807
3 731 730 807
3 731 807 805
3 805 807 801
3 805 806 809
3 805 809 731
3 731 809 732
3 809 734 732
3 810 734 809
3 811 808 807
3 812 808 811
3 730 736 811
3 807 730 811
3 734 810 738
3 810 813 738
3 814 812 811
3 815 812 814
3 736 739 816
3 736 816 811
3 811 816 814
3 739 740 817
3 816 739 817
3 740 818 817
3 740 738 818
3 738 813 818
3 819 815 814
3 820 815 819
3 816 821 814
3 821 819 814
3 817 822 816
3 822 821 816
3 823 817 818
3 823 824 817
3 824 822 817
3 823 825 824
3 826 820 819
3 827 820 826
3 821 828 819
3 828 826 819
3 822 829 821
3 829 828 821
3 824 830 822
3 830 829 822
3 831 824 825
3 830 824 831
3 826 832 827
3 832 833 834
3 832 826 833
3 826 828 833
3 829 835 828
3 835 833 828
3 830 836 829
3 836 835 829
3 837 830 831
3 836 830 837
3 838 834 833
3 839 834 838
3 835 840 833
3 840 838 833
3 836 841 835
3 841 840 835
3 842 836 837
3 841 836 842
3 838 843 839
3 843 844 845
3 843 838 844
3 838 840 844
3 841 846 840
3 846 844 840
3 847 841 842
3 847 848 841
3 848 846 841
3 847 849 848
3 743 845 844
3 743 742 845
3 742 850 845
3 744 743 844
3 846 744 844
3 746 744 846
3 848 746 846
3 848 748 746
3 848 849 748
3 849 851 748
3 852 853 854
3 852 854 850
3 852 850 750
3 750 850 742
3 748 851 855
3 751 748 855
3 855 752 751
3 856 752 855
3 857 853 852
3 858 853 857
3 750 753 857
3 852 750 857
3 752 856 754
3 856 859 754
3 757 858 857
3 757 756 858
3 756 860 858
3 753 757 857
3 861 758 754
3 861 754 862
3 862 754 859
3 758 861 759
3 756 761 860
3 860 761 863
3 861 862 864
3 864 759 861
3 864 865 759
3 865 762 759
3 761 763 863
3 863 763 866
3 762 865 764
3 865 867 764
3 763 765 866
3 866 765 868
3 869 870 871
3 869 867 870
3 869 766 867
3 766 764 867
3 765 767 868
3 868 767 872
3 873 869 871
3 874 873 871
3 766 873 769
3 869 873 766
3 767 770 872
3 872 770 875
3 876 873 874
3 877 876 874
3 769 876 772
3 873 876 769
3 770 773 875
3 875 773 878
3 879 880 881
3 877 880 879
3 877 879 876
3 876 879 882
3 772 882 775
3 876 882 772
3 773 776 878
3 878 776 883
3 884 879 881
3 885 884 881
3 882 879 886
3 886 879 884
3 775 886 778
3 882 886 775
3 776 779 883
3 883 779 887
3 888 884 885
3 889 888 885
3 781 888 782
3 781 886 888
3 886 884 888
3 778 886 781
3 890 783 891
3 890 887 783
3 887 779 783
3 891 892 893
3 890 891 893
3 892 894 895
3 893 892 895
3 894 786 785
3 894 785 895
3 895 785 896
3 889 788 888
3 889 896 788
3 896 785 788
3 782 888 788
3 783 790 891
3 793 891 790
3 892 891 793
3 795 892 793
3 894 892 795
3 786 894 795
3 803 897 898
3 802 897 803
3 804 803 899
3 803 898 899
3 899 806 804
3 900 806 899
3 802 808 897
3 897 808 901
3 806 900 902
3 809 806 902
3 902 810 809
3 903 810 902
3 808 812 901
3 901 812 904
3 810 903 813
3 903 905 813
3 812 815 904
3 904 815 906
3 813 905 818
3 905 907 818
3 815 820 906
3 906 820 908
3 818 907 909
3 823 818 909
3 909 825 823
3 910 825 909
3 820 827 908
3 908 827 911
3 825 910 831
3 910 912 831
3 913 827 832
3 913 914 827
3 914 911 827
3 832 834 913
3 831 912 837
3 912 915 837
3 913 916 914
3 916 913 834
3 916 834 917
3 917 834 839
3 837 915 842
3 915 918 842
3 839 919 917
3 843 919 839
3 919 843 845
3 920 919 845
3 842 918 921
3 847 842 921
3 921 849 847
3 922 849 921
3 845 850 920
3 920 850 923
3 849 922 851
3 922 924 851
3 854 925 926
3 853 925 854
3 923 850 854
3 926 923 854
3 851 924 927
3 855 851 927
3 927 856 855
3 928 856 927
3 853 858 925
3 925 858 929
3 856 928 859
3 928 930 859
3 858 860 929
3 929 860 931
3 859 930 862
3 930 932 862
3 860 863 931
3 931 863 933
3 934 864 862
3 934 862 935
3 935 862 932
3 864 934 865
3 863 866 933
3 933 866 936
3 937 934 935
3 938 937 935
3 865 937 867
3 934 937 865
3 866 868 936
3 936 868 939
3 870 937 938
3 870 938 871
3 871 938 940
3 867 937 870
3 868 872 939
3 939 872 941
3 942 943 944
3 942 940 943
3 942 874 940
3 874 871 940
3 945 875 946
3 945 941 875
3 941 872 875
3 946 947 948
3 945 946 948
3 947 949 950
3 948 947 950
3 949 951 952
3 950 949 952
3 944 952 951
3 944 951 942
3 942 951 953
3 874 953 877
3 942 953 874
3 946 878 954
3 875 878 946
3 947 946 955
3 955 946 954
3 949 947 956
3 956 947 955
3 951 949 957
3 957 949 956
3 880 957 881
3 880 953 957
3 953 951 957
3 877 953 880
3 954 883 958
3 878 883 954
3 955 954 959
3 959 954 958
3 956 955 960
3 960 955 959
3 957 956 961
3 961 956 960
3 881 961 885
3 957 961 881
3 958 887 962
3 883 887 958
3 959 958 963
3 963 958 962
3 960 959 964
3 964 959 963
3 961 960 965
3 965 960 964
3 885 965 889
3 961 965 885
3 887 890 962
3 893 962 890
3 963 962 893
3 895 963 893
3 964 963 895
3 896 964 895
3 965 964 896
3 889 965 896
3 898 897 966
3 898 967 899
3 966 967 898
3 899 967 900
3 966 901 968
3 897 901 966
3 967 966 969
3 969 966 968
3 900 970 902
3 900 967 970
3 967 969 970
3 902 970 903
3 968 971 972
3 968 901 971
3 901 904 971
3 969 968 972
3 973 969 972
3 970 969 973
3 974 970 973
3 974 903 970
3 974 975 903
3 975 905 903
3 904 906 971
3 971 906 976
3 905 975 907
3 975 977 907
3 906 908 976
3 976 908 978
3 907 977 979
3 909 907 979
3 979 910 909
3 980 910 979
3 908 911 978
3 978 911 981
3 910 980 912
3 980 982 912
3 911 914 981
3 981 914 983
3 912 982 915
3 982 984 915
3 914 985 983
3 916 985 914
3 985 916 917
3 986 985 917
3 915 984 918
3 984 987 918
3 917 988 986
3 919 988 917
3 920 989 990
3 920 990 919
3 919 990 988
3 989 991 992
3 990 989 992
3 921 991 993
3 921 987 991
3 921 918 987
3 992 991 987
3 921 993 922
3 989 923 994
3 920 923 989
3 991 989 995
3 995 989 994
3 993 991 996
3 996 991 995
3 922 996 924
3 993 996 922
3 926 997 998
3 925 997 926
3 994 923 926
3 994 926 999
3 999 926 998
3 995 994 999
3 1000 995 999
3 1000 1001 1002
3 1000 1002 995
3 995 1002 996
3 924 1003 927
3 924 996 1003
3 996 1002 1003
3 927 1003 928
3 925 929 997
3 997 929 1004
3 1005 1002 1001
3 1006 1005 1001
3 1003 1002 1007
3 1007 1002 1005
3 928 1007 930
3 1003 1007 928
3 929 931 1004
3 1004 931 1008
3 1009 1005 1006
3 1010 1009 1006
3 1007 1005 1011
3 1011 1005 1009
3 930 1011 932
3 1007 1011 930
3 931 933 1008
3 1008 933 1012
3 1013 1009 1010
3 1014 1013 1010
3 1011 1009 1015
3 1015 1009 1013
3 932 1015 935
3 1011 1015 932
3 933 936 1012
3 1012 936 1016
3 1017 1013 1014
3 1018 1017 1014
3 1015 1013 1019
3 1019 1013 1017
3 935 1019 938
3 1015 1019 935
3 1020 939 1021
3 1020 1016 939
3 1016 936 939
3 1021 1022 1023
3 1020 1021 1023
3 1022 1024 1025
3 1023 1022 1025
3 1018 1025 1024
3 1018 1024 1017
3 1017 1024 1026
3 1019 1017 1027
3 1027 1017 1026
3 938 1027 940
3 1019 1027 938
3 1021 941 1028
3 939 941 1021
3 1022 1021 1029
3 1029 1021 1028
3 1024 1022 1030
3 1030 1022 1029
3 1026 1024 1031
3 1031 1024 1030
3 943 1031 944
3 943 1027 1031
3 1027 1026 1031
3 940 1027 943
3 941 945 1028
3 948 1028 945
3 1029 1028 948
3 950 1029 948
3 1030 1029 950
3 952 1030 950
3 1031 1030 952
3 944 1031 952
3 972 971 1032
3 972 1033 973
3 1032 1033 972
3 973 1034 974
3 1033 1034 973
3 974 1034 975
3 1032 976 1035
3 971 976 1032
3 1033 1032 1036
3 1036 1032 1035
3 1034 1033 1037
3 1037 1033 1036
3 975 1037 977
3 1034 1037 975
3 1035 978 1038
3 976 978 1035
3 1036 1035 1039
3 1039 1035 1038
3 1037 1036 1040
3 1040 1036 1039
3 977 1041 979
3 977 1037 1041
3 1037 1040 1041
3 979 1041 980
3 1038 981 1042
3 978 981 1038
3 1039 1038 1043
3 1043 1038 1042
3 1040 1039 1044
3 1044 1039 1043
3 1041 1040 1045
3 1045 1040 1044
3 980 1045 982
3 1041 1045 980
3 1042 983 1046
3 981 983 1042
3 1043 1042 1047
3 1047 1042 1046
3 1044 1043 1048
3 1048 1043 1047
3 1045 1044 1049
3 1049 1044 1048
3 982 1049 984
3 1045 1049 982
3 983 985 1046
3 986 1046 985
3 986 1050 1046
3 1050 1047 1046
3 1048 1047 1051
3 1051 1047 1050
3 1049 1048 1052
3 1052 1048 1051
3 984 1052 987
3 1049 1052 984
3 986 988 1050
3 990 1050 988
3 1051 1050 990
3 992 1051 990
3 1052 1051 992
3 987 1052 992
3 998 997 1053
3 998 1054 999
3 1053 1054 998
3 999 1055 1000
3 1054 1055 999
3 1000 1055 1001
3 1053 1004 1056
3 997 1004 1053
3 1054 1053 1057
3 1057 1053 1056
3 1055 1054 1058
3 1058 1054 1057
3 1001 1058 1006
3 1055 1058 1001
3 1056 1008 1059
3 1004 1008 1056
3 1057 1056 1060
3 1060 1056 1059
3 1058 1057 1061
3 1061 1057 1060
3 1006 1061 1010
3 1058 1061 1006
3 1059 1012 1062
3 1008 1012 1059
3 1060 1059 1063
3 1063 1059 1062
3 1061 1060 1064
3 1064 1060 1063
3 1010 1064 1014
3 1061 1064 1010
3 1062 1016 1065
3 1012 1016 1062
3 1063 1062 1066
3 1066 1062 1065
3 1064 1063 1067
3 1067 1063 1066
3 1014 1067 1018
3 1064 1067 1014
3 1016 1020 1065
3 1023 1065 1020
3 1066 1065 1023
3 1025 1066 1023
3 1067 1066 1025
3 1018 1067 1025
