# vtk DataFile Version 3.0
this file was written using fslvtkio
ASCII
DATASET POLYDATA
POINTS 642 float
94.2606 110.04 174.975
78.5552 106.542 173.293
72.9544 91.6252 165.995
90.0442 94.5251 169.481
88.8248 99.4674 180.317
91.0026 102.822 163.957
80.1343 101.067 163.414
78.0893 97.985 179.694
85.2447 113.421 182.318
81.4046 87.7255 170.946
81.3155 88.3031 159.767
87.3557 116.45 169.954
81.3359 106.379 183.017
87.7658 106.92 183.069
83.1804 98.4375 181.971
78.7642 91.2795 176.771
85.2798 92.4628 176.317
84.8142 108.759 167.315
85.723 102.292 163.541
91.065 112.107 166.07
79.5993 93.5791 160.969
85.8585 94.778 163.119
90.4225 96.309 175.095
92.3178 105.856 179.346
94.0597 102.216 172.099
91.6192 97.9081 166.08
94.3539 109.013 168.749
77.6871 102.997 177.267
74.6057 93.4352 173.537
75.1364 98.5764 169.647
79.2651 104.608 168.144
76.1947 94.9242 163.834
92.7242 116.536 172.062
91.2822 113.565 179.768
86.4004 117.451 176.826
82.7439 112.612 172.614
80.6985 111.348 178.917
86.8129 88.9266 163.945
79.309 85.1294 163.883
86.6833 87.7943 169.758
74.1524 89.5031 158.864
75.7259 88.2592 168.041
84.5123 106.959 184.071
85.5633 102.624 183.055
82.255 102.293 183.417
86.145 98.6147 181.291
88.6637 103.31 182.277
86.7616 110.418 183.091
82.9993 110.091 183.102
79.866 102.217 181.638
80.3178 97.6219 181.5
81.0635 94.509 179.926
84.4249 95.4017 179.625
82.1591 91.7472 177.055
87.3076 95.7753 178.395
77.965 94.1969 178.434
80.2251 89.4019 174.114
83.6661 89.7586 173.889
85.5046 105.638 165.288
88.8234 107.422 164.952
87.8692 110.902 166.407
91.3655 107.633 164.663
88.4123 102.687 163.829
82.9213 101.583 163.266
82.5723 104.781 165.909
86.082 112.725 168.514
89.3745 114.953 167.547
82.759 94.0798 161.508
85.932 98.7391 162.948
82.8176 98.0648 162.185
88.667 98.6237 163.536
84.0915 91.2942 160.828
80.207 91.0482 159.317
80.0798 97.3898 162.395
91.8918 101.016 177.455
93.7609 103.649 175.913
92.6924 99.0678 174.066
94.4333 106.059 173.555
93.6758 107.782 177.337
90.8972 102.554 180.166
89.6806 97.692 177.629
90.4354 95.2032 172.29
92.8485 98.1639 170.903
93.0578 100.192 168.964
94.1409 105.591 170.386
93.153 103.503 167.38
94.5553 109.884 171.766
90.9687 95.9874 167.785
91.6508 100.071 164.611
92.918 105.884 165.957
76.0366 98.2938 175.696
74.6696 96.2276 171.933
76.4384 100.502 173.579
74.1884 94.8677 168.001
73.4738 92.3817 169.976
76.1742 95.8473 176.824
77.9169 100.933 178.851
77.9582 104.808 175.309
76.9976 102.258 171.471
76.8344 101.509 168.605
75.0791 96.8187 166.361
76.8517 100.211 165.595
74.0005 93.1369 164.147
78.7921 105.583 170.571
79.6611 102.917 165.808
77.8304 98.1674 163.382
92.3355 115.677 176.189
89.0276 116.486 178.462
90.0238 118.196 174.2
85.6155 115.999 180.024
88.3561 113.726 181.228
93.4007 112.029 177.673
93.9744 113.578 173.907
90.5572 117.658 170.051
86.9181 117.522 173.084
84.4833 115.884 174.773
83.3098 115.228 178.37
81.7025 112.562 175.816
82.5732 112.91 181.071
84.9905 114.557 171.314
80.3258 109.771 173.024
79.6035 109.089 176.152
83.8444 85.37 163.433
83.4871 85.1865 166.632
87.3532 87.3523 166.451
84.1987 87.5016 170.553
80.5224 85.9383 167.381
80.697 85.6652 161.167
84.434 88.2507 161.521
88.71 91.6454 166.886
88.6893 90.7065 169.628
74.2371 88.0396 162.965
77.3933 86.556 165.813
76.481 86.3068 161.085
78.4968 87.8779 169.932
73.6873 89.5884 167.296
72.8712 90.4803 162.058
77.6607 88.1145 159.085
90.5988 106.364 181.954
89.7576 110.659 182.159
92.4196 110.061 180.064
94.112 113.052 170.444
92.252 115.423 168.377
93.0533 110.124 166.552
86.316 90.0634 173.049
87.9463 93.9648 175.597
88.5711 91.8806 172.289
89.0071 93.7075 165.512
89.2087 96.2453 164.336
86.5928 91.674 162.999
80.5363 109.464 181.384
79.1211 104.994 180.507
78.8264 107.351 178.216
80.8617 108.795 170.507
81.8095 106.962 167.687
83.6294 110.985 169.724
74.7113 90.2014 171.066
76.2591 92.2128 175.584
77.3197 89.2472 172.869
76.9197 91.133 158.492
77.4474 93.7378 162.13
73.6969 92.5308 160.558
85.0216 104.764 183.766
83.9109 102.62 183.533
83.4013 104.653 183.997
82.8276 100.45 182.964
84.2991 100.699 182.778
86.4609 104.802 183.269
86.0528 106.622 183.641
82.854 106.392 183.888
81.9754 104.435 183.55
85.8175 100.67 182.321
87.0606 103.025 182.72
87.2516 101.045 182.015
88.0643 105.014 182.812
84.684 98.8215 181.821
87.5195 99.2103 181.008
88.5809 101.261 181.48
85.7082 108.529 183.756
83.6592 108.456 183.975
84.8624 110.088 183.508
82.2048 108.23 183.262
87.2546 108.587 183.191
85.847 111.844 182.99
84.1604 111.631 182.968
81.0172 102.399 182.651
81.3533 100.063 182.802
80.1142 100.011 181.853
81.7412 98.2661 182.075
80.6759 104.367 182.589
79.0771 100.036 180.848
79.2024 97.9768 180.8
82.7907 94.9539 179.889
83.2651 93.5747 178.388
81.6783 93.1041 178.579
83.782 92.3693 177.048
84.7171 93.8483 178.108
83.7906 96.9058 180.862
82.1488 96.4266 180.979
80.0485 92.8667 178.507
80.5247 91.6668 177.253
85.8795 95.413 178.915
85.2931 97.0372 180.581
87.024 97.2047 180.045
86.111 94.0264 177.453
88.1248 97.7067 179.521
80.7809 96.0272 180.957
79.456 94.1281 179.375
79.114 96.002 180.24
78.446 92.6336 177.808
78.0491 96.074 179.256
81.1083 90.4978 175.838
83.0061 90.8935 175.664
82.0205 89.7551 174.305
84.396 91.1219 175.336
79.4915 90.2545 175.645
81.0519 88.6051 172.783
82.5578 88.6697 172.654
87.1529 106.709 165.185
88.3578 109.153 165.638
86.8129 108.337 165.94
89.3848 111.428 165.969
89.9139 109.872 165.344
87.3455 105.135 164.48
85.9065 104.235 164.437
85.3985 107.483 166.201
86.3532 109.656 166.722
90.1019 107.785 164.795
88.5971 105.111 164.364
89.9373 105.259 164.149
87.2225 103.105 163.874
91.2849 110.003 165.279
91.0854 105.082 164.121
89.6892 102.892 163.879
84.4567 103.595 164.544
84.1563 105.442 165.757
82.8733 103.352 164.561
83.8423 106.843 166.631
84.3921 102.01 163.371
81.5496 101.456 163.257
81.4217 102.923 164.629
86.8628 111.689 167.354
88.6009 112.86 166.762
87.5522 113.862 167.697
90.131 113.527 166.606
85.5445 110.708 167.863
86.7661 114.66 168.934
88.1361 115.613 168.45
84.2792 96.3686 162.52
84.4142 98.481 162.52
82.7695 96.094 162.016
84.2256 100.107 162.617
85.8513 100.614 163.093
85.6115 96.5525 162.95
84.3198 94.6636 162.294
81.3327 94.0991 161.212
81.3353 95.7409 161.78
87.125 100.9 163.418
87.1282 98.5347 163.285
88.6093 100.682 163.649
87.0747 96.8126 163.471
89.9256 100.702 163.723
83.4283 92.808 161.079
81.5093 92.5635 160.291
82.2672 91.2957 160.018
79.9181 92.4987 159.91
84.8362 93.0352 162.002
82.8 89.8563 160.121
80.9692 89.7703 159.422
81.5003 97.7402 162.248
83.0401 100.046 162.621
81.4152 99.8491 162.509
80.0167 95.4225 162.005
80.0781 99.2349 162.706
92.8246 102.363 176.708
93.3167 101.414 174.996
92.3724 100.111 175.762
93.5895 100.744 173.468
93.9501 102.528 174.09
92.9534 104.397 177.561
92.2141 103.338 178.196
91.4179 98.8412 176.296
91.6266 97.9956 174.897
94.2562 104.55 174.744
93.7017 105.646 176.806
94.2382 106.632 175.521
92.9716 106.652 178.35
94.2854 104.01 173
94.4115 107.91 174.336
94.2062 108.606 176.064
91.409 101.941 178.755
90.9114 99.3216 177.631
90.4988 100.117 179.124
90.2232 97.0712 176.37
91.6226 104.29 179.681
89.8556 100.957 180.406
89.3553 98.535 179.001
91.6923 97.1258 173.341
92.9395 98.7223 172.543
91.6219 96.7685 171.76
93.6105 100.234 171.77
90.5515 95.8469 173.812
90.3617 94.9858 170.87
91.5442 96.4693 170.257
93.8346 102.862 169.741
93.7326 104.438 168.891
93.1341 101.861 168.265
93.8646 106.029 168.16
94.2023 106.985 169.397
94.1288 103.756 171.126
93.7225 101.471 170.495
92.3595 99.3687 167.437
92.5497 100.949 166.883
94.3161 107.639 170.903
94.3914 105.556 171.956
94.4491 107.843 172.631
94.5585 109.347 170.191
94.4523 109.699 173.409
93.1959 99.4067 170.158
92.2765 98.1461 168.266
92.0776 97.2086 169.28
91.4604 96.944 166.949
90.6544 95.4277 168.746
92.4846 101.854 165.934
93.1646 104.871 166.796
92.4171 103.136 165.218
93.7914 107.428 167.47
91.8524 99.391 165.55
91.4517 101.555 164.259
92.0347 104.346 164.692
75.1429 97.2953 173.826
75.4873 98.3898 172.739
76.1152 99.3553 174.578
75.6009 99.3271 171.732
74.859 97.6078 171.035
74.5873 95.1628 172.983
75.168 96.0879 174.564
76.832 100.459 176.226
76.8978 101.399 175.408
74.3096 95.7488 170.15
74.0342 94.3099 171.125
73.6923 93.8411 169.195
74.0162 93.0742 171.875
74.5219 96.7813 169.104
73.5408 93.3495 167.204
73.1735 92.2207 168.043
75.9395 96.9122 176.199
76.9717 99.594 177.213
76.9645 98.4479 177.975
77.6013 101.841 177.918
75.269 94.6689 175.132
77.0759 97.0654 178.426
78.0627 99.5723 179.445
77.2345 102.516 174.583
76.6086 101.19 172.47
77.4398 103.295 173.445
76.0095 100.32 170.673
77.7453 103.647 176.203
78.076 105.324 174.037
77.7287 104.138 172.346
75.6948 99.1876 167.484
75.7407 98.546 165.916
76.6936 100.75 167.086
76.2656 97.9486 164.637
75.6667 96.1074 164.972
74.9586 97.9123 168.003
75.8983 99.9842 168.982
77.9173 102.802 168.123
77.8554 102.17 166.81
75.2063 94.7511 165.428
74.6009 96.0667 167.386
74.2532 93.9555 166.151
75.1195 93.923 163.891
73.3831 92.5598 165.205
76.746 101.671 170.051
77.9303 103.222 169.467
77.8398 103.889 170.912
78.8952 104.964 169.248
78.552 105.859 171.945
78.1374 101.644 165.573
77.1853 99.4008 164.346
78.4853 100.964 164.182
76.8897 96.7245 163.826
79.2548 103.575 166.981
79.9157 102.193 164.512
78.8977 99.6515 163.225
90.7266 116.421 177.184
89.6995 117.596 176.478
91.229 117.281 175.426
88.4 117.961 175.697
87.9799 117.396 177.525
90.2882 115.245 178.829
91.6105 114.924 177.931
92.5719 116.453 174.314
91.651 117.844 173.388
87.4266 116.507 179.333
88.8072 115.154 179.92
87.0204 115.125 180.847
89.9776 113.86 180.445
86.1928 116.967 178.511
85.2736 114.802 181.319
86.8158 113.657 182.087
92.8688 113.988 177.134
93.5312 114.85 175.253
93.9276 112.711 175.896
93.4705 115.309 173.327
92.3683 113.222 178.676
93.9807 110.821 176.45
94.2375 111.806 174.512
90.3502 118.359 172.176
88.4909 118.108 173.64
88.6952 117.951 171.513
87.0065 117.726 174.981
91.8379 117.727 171.286
88.6933 117.374 169.891
86.8993 117.062 171.581
83.9094 115.714 176.631
82.4324 114.218 177.046
82.9648 114.488 175.511
81.2637 112.395 177.386
81.9648 113.478 178.51
84.71 116.643 177.763
85.2886 116.998 175.834
83.3881 114.276 173.946
82.2855 112.881 174.331
82.7534 114.289 179.663
84.5432 115.947 179.203
83.9072 114.811 180.906
81.6251 112.471 179.898
83.8163 113.202 181.916
85.6873 116.939 174.131
84.5332 115.319 173.142
85.7991 116.237 172.259
83.8191 113.781 172.161
86.2413 115.408 170.547
81.0605 111.238 174.372
80.6511 110.925 176.087
79.8476 109.376 174.519
80.173 110.52 177.556
81.5828 111.385 173.016
79.3146 108.15 173.106
78.9482 107.749 174.744
83.8977 85.0779 165.031
85.7313 85.7588 166.527
85.9913 85.9327 164.802
86.7097 87.1403 167.994
85.1042 86.174 167.906
81.6871 84.884 165.288
81.7721 85.0608 163.796
85.5341 86.6306 163.375
87.024 87.8748 164.937
83.8548 86.2395 168.649
82.0568 85.448 167.093
82.3437 86.5485 169.072
79.9697 85.1723 165.623
85.4036 87.2885 169.854
82.8476 87.5979 170.954
80.8631 86.8983 169.147
82.3346 85.4395 162.307
84.2559 86.539 162.068
82.6488 86.5587 160.753
85.6493 88.2527 162.77
80.0501 85.2356 162.543
80.9941 86.8464 160.072
83.1254 88.4774 160.571
88.1758 89.255 166.501
88.1227 88.6333 168.038
88.7986 91.0972 168.259
87.8442 88.7962 169.492
87.9137 90.043 165.402
89.317 93.1512 168.274
89.297 92.7824 169.734
75.7876 87.0306 164.168
76.6841 85.8663 163.363
75.0387 86.955 161.868
77.8798 85.5866 162.415
78.2105 85.5583 164.879
76.2491 87.4424 166.414
74.9721 87.8686 165.148
73.8872 88.3859 160.791
75.1573 87.6924 159.879
79.159 85.921 166.635
77.7457 87.2439 167.526
79.4325 87.0945 168.665
77.0671 87.9787 168.978
80.0299 87.8158 170.653
73.8725 88.7597 164.843
73.3171 89.1349 162.279
72.9815 89.7777 164.592
73.0863 89.931 160.139
74.596 88.6776 166.99
73.1142 90.5623 166.878
72.7877 91.0394 164.071
77.058 86.7603 160.014
78.9774 85.7179 161.413
79.2677 86.695 159.908
75.92 88.5796 158.937
79.5197 88.1458 159.306
90.324 108.644 182.225
91.2788 110.385 181.424
91.516 108.421 181.228
92.0013 111.875 180.197
90.7083 112.206 181.253
88.8721 108.752 182.699
89.342 106.778 182.704
91.5676 106.318 180.766
92.3818 107.958 179.944
89.2569 112.382 181.611
88.2841 110.437 182.577
87.5209 112.194 182.303
89.6863 104.934 182.358
90.9688 104.453 181.044
89.8457 102.675 181.281
93.0106 108.77 178.831
92.9488 111.278 178.997
93.6123 109.812 177.521
93.2346 114.119 169.369
92.937 112.962 167.597
93.644 111.877 168.415
92.3116 111.294 166.139
91.8932 113.839 166.908
92.6837 116.07 170.192
93.4349 114.782 171.435
94.3898 111.136 169.481
93.8449 109.601 167.613
90.8801 115.207 167.432
91.7964 116.902 169.509
89.5312 116.496 168.827
94.1165 113.457 172.257
94.5555 111.445 171.08
94.3763 111.567 173.001
93.0321 107.824 166.348
92.3488 108.809 165.194
92.1685 106.062 164.696
87.126 91.9864 174.386
88.4104 93.0588 174.043
87.6194 90.8146 172.719
89.3816 94.1228 173.771
89.1804 94.9324 175.155
86.6305 93.0451 175.868
85.8893 91.3015 174.709
86.6377 88.8968 171.452
87.7793 89.6404 170.995
88.9788 95.7313 176.521
87.4564 94.7231 176.924
88.5629 96.6222 178.079
85.1082 89.9832 173.67
85.5442 88.4373 171.712
84.0407 88.5914 172.241
88.6323 91.1217 170.968
89.5482 93.7391 172.561
89.3756 93.2459 171.012
89.2997 95.1405 165.023
87.6672 94.0772 164.086
87.9931 92.618 164.227
86.319 93.3448 163.107
87.5119 95.4625 163.811
90.8184 97.022 164.98
90.5656 95.7643 165.874
87.8505 91.2571 164.797
86.8087 90.3934 163.426
88.8129 97.238 163.86
90.7916 97.9747 164.38
90.3321 99.4285 163.989
90.0196 94.9872 166.682
88.6585 92.5615 166.136
89.4358 94.1519 167.616
85.7427 89.8688 162.257
85.4719 91.7382 161.962
84.447 89.8926 161.044
79.7276 107.278 181.04
78.8298 106.288 179.45
79.5572 108.485 179.869
78.3353 105.153 177.824
78.2835 104.182 178.916
80.0975 105.812 181.903
80.8797 107.918 182.24
80.4047 110.425 180.117
79.6021 109.391 178.668
78.5004 103.01 179.544
79.5912 103.785 181.308
78.7756 101.526 180.347
81.5879 109.842 182.465
81.4432 111.281 181.024
82.807 111.647 182.134
79.2556 108.416 177.208
78.3719 106.003 176.785
78.6171 106.897 175.567
81.3715 107.977 169.039
82.7886 108.94 168.778
82.2212 109.911 170.098
84.1508 109.812 168.431
83.2796 107.905 167.585
80.5218 106.032 168.036
80.1522 106.834 169.268
81.7582 110.668 171.529
83.0821 111.766 171.163
82.2437 105.966 166.784
80.5811 104.798 167.034
81.0514 103.73 165.846
79.7174 107.062 170.385
80.5761 109.436 171.769
79.3869 107.647 171.809
84.1491 112.824 170.694
84.8543 111.528 169.166
85.572 113.676 169.853
75.3443 90.9872 173.536
76.5925 90.4317 174.317
75.9588 89.6787 171.964
77.9549 90.0921 174.907
77.3594 91.5569 176.223
75.2698 92.719 174.62
74.4174 91.6385 172.623
75.2223 89.0674 169.558
76.4972 88.5541 170.634
77.0973 93.1457 177.126
76.0498 94.0569 176.145
77.0105 95.3132 177.897
73.8529 91.3423 170.908
74.2717 89.6432 169.176
73.419 90.8538 168.764
77.9143 88.4091 171.415
78.7575 89.2661 173.696
79.6074 88.3414 172.148
76.8506 92.7181 159.96
75.6118 93.088 161.023
75.0154 92.1165 158.952
75.1677 93.4228 162.276
77.0086 94.2767 163.224
78.6489 93.6342 161.756
78.2093 92.5449 159.684
75.5066 90.2162 158.326
73.4059 91.2259 159.193
77.7686 95.8059 163.077
78.8713 95.5103 162.485
78.8507 97.6426 162.74
78.6327 91.4439 159.077
77.2937 89.5031 158.584
79.3452 89.5723 158.967
73.023 91.3186 161.175
74.0644 92.9212 162.399
73.1678 91.8969 163.487
POLYGONS 1280  5120
3 164 162 163
3 163 44 164
3 162 43 163
3 164 42 162
3 166 165 163
3 163 43 166
3 165 44 163
3 166 14 165
3 168 167 162
3 162 42 168
3 167 43 162
3 168 13 167
3 170 169 164
3 164 44 170
3 169 42 164
3 170 12 169
3 173 171 172
3 172 46 173
3 171 43 172
3 173 45 171
3 167 174 172
3 172 43 167
3 174 46 172
3 167 13 174
3 175 166 171
3 171 45 175
3 166 43 171
3 175 14 166
3 177 176 173
3 173 46 177
3 176 45 173
3 177 4 176
3 180 178 179
3 179 48 180
3 178 42 179
3 180 47 178
3 169 181 179
3 179 42 169
3 181 48 179
3 169 12 181
3 182 168 178
3 178 47 182
3 168 42 178
3 182 13 168
3 184 183 180
3 180 48 184
3 183 47 180
3 184 8 183
3 187 185 186
3 186 50 187
3 185 44 186
3 187 49 185
3 165 188 186
3 186 44 165
3 188 50 186
3 165 14 188
3 189 170 185
3 185 49 189
3 170 44 185
3 189 12 170
3 191 190 187
3 187 50 191
3 190 49 187
3 191 7 190
3 194 192 193
3 193 53 194
3 192 52 193
3 194 51 192
3 196 195 193
3 193 52 196
3 195 53 193
3 196 16 195
3 198 197 192
3 192 51 198
3 197 52 192
3 198 14 197
3 200 199 194
3 194 53 200
3 199 51 194
3 200 15 199
3 203 201 202
3 202 45 203
3 201 52 202
3 203 54 201
3 197 175 202
3 202 52 197
3 175 45 202
3 197 14 175
3 204 196 201
3 201 54 204
3 196 52 201
3 204 16 196
3 176 205 203
3 203 45 176
3 205 54 203
3 176 4 205
3 208 206 207
3 207 55 208
3 206 51 207
3 208 50 206
3 199 209 207
3 207 51 199
3 209 55 207
3 199 15 209
3 188 198 206
3 206 50 188
3 198 51 206
3 188 14 198
3 210 191 208
3 208 55 210
3 191 50 208
3 210 7 191
3 213 211 212
3 212 57 213
3 211 53 212
3 213 56 211
3 195 214 212
3 212 53 195
3 214 57 212
3 195 16 214
3 215 200 211
3 211 56 215
3 200 53 211
3 215 15 200
3 217 216 213
3 213 57 217
3 216 56 213
3 217 9 216
3 220 218 219
3 219 60 220
3 218 59 219
3 220 58 218
3 222 221 219
3 219 59 222
3 221 60 219
3 222 19 221
3 224 223 218
3 218 58 224
3 223 59 218
3 224 18 223
3 226 225 220
3 220 60 226
3 225 58 220
3 226 17 225
3 229 227 228
3 228 62 229
3 227 59 228
3 229 61 227
3 223 230 228
3 228 59 223
3 230 62 228
3 223 18 230
3 231 222 227
3 227 61 231
3 222 59 227
3 231 19 222
3 233 232 229
3 229 62 233
3 232 61 229
3 233 5 232
3 236 234 235
3 235 64 236
3 234 58 235
3 236 63 234
3 225 237 235
3 235 58 225
3 237 64 235
3 225 17 237
3 238 224 234
3 234 63 238
3 224 58 234
3 238 18 224
3 240 239 236
3 236 64 240
3 239 63 236
3 240 6 239
3 243 241 242
3 242 66 243
3 241 60 242
3 243 65 241
3 221 244 242
3 242 60 221
3 244 66 242
3 221 19 244
3 245 226 241
3 241 65 245
3 226 60 241
3 245 17 226
3 247 246 243
3 243 66 247
3 246 65 243
3 247 11 246
3 250 248 249
3 249 69 250
3 248 68 249
3 250 67 248
3 252 251 249
3 249 68 252
3 251 69 249
3 252 18 251
3 254 253 248
3 248 67 254
3 253 68 248
3 254 21 253
3 256 255 250
3 250 69 256
3 255 67 250
3 256 20 255
3 259 257 258
3 258 70 259
3 257 68 258
3 259 62 257
3 253 260 258
3 258 68 253
3 260 70 258
3 253 21 260
3 230 252 257
3 257 62 230
3 252 68 257
3 230 18 252
3 261 233 259
3 259 70 261
3 233 62 259
3 261 5 233
3 264 262 263
3 263 72 264
3 262 67 263
3 264 71 262
3 255 265 263
3 263 67 255
3 265 72 263
3 255 20 265
3 266 254 262
3 262 71 266
3 254 67 262
3 266 21 254
3 268 267 264
3 264 72 268
3 267 71 264
3 268 10 267
3 271 269 270
3 270 63 271
3 269 69 270
3 271 73 269
3 251 238 270
3 270 69 251
3 238 63 270
3 251 18 238
3 272 256 269
3 269 73 272
3 256 69 269
3 272 20 256
3 239 273 271
3 271 63 239
3 273 73 271
3 239 6 273
3 276 274 275
3 275 76 276
3 274 75 275
3 276 74 274
3 278 277 275
3 275 75 278
3 277 76 275
3 278 24 277
3 280 279 274
3 274 74 280
3 279 75 274
3 280 23 279
3 282 281 276
3 276 76 282
3 281 74 276
3 282 22 281
3 285 283 284
3 284 78 285
3 283 75 284
3 285 77 283
3 279 286 284
3 284 75 279
3 286 78 284
3 279 23 286
3 287 278 283
3 283 77 287
3 278 75 283
3 287 24 278
3 289 288 285
3 285 78 289
3 288 77 285
3 289 0 288
3 292 290 291
3 291 80 292
3 290 74 291
3 292 79 290
3 281 293 291
3 291 74 281
3 293 80 291
3 281 22 293
3 294 280 290
3 290 79 294
3 280 74 290
3 294 23 280
3 296 295 292
3 292 80 296
3 295 79 292
3 296 4 295
3 299 297 298
3 298 82 299
3 297 76 298
3 299 81 297
3 277 300 298
3 298 76 277
3 300 82 298
3 277 24 300
3 301 282 297
3 297 81 301
3 282 76 297
3 301 22 282
3 303 302 299
3 299 82 303
3 302 81 299
3 303 3 302
3 306 304 305
3 305 85 306
3 304 84 305
3 306 83 304
3 308 307 305
3 305 84 308
3 307 85 305
3 308 26 307
3 310 309 304
3 304 83 310
3 309 84 304
3 310 24 309
3 312 311 306
3 306 85 312
3 311 83 306
3 312 25 311
3 315 313 314
3 314 77 315
3 313 84 314
3 315 86 313
3 309 287 314
3 314 84 309
3 287 77 314
3 309 24 287
3 316 308 313
3 313 86 316
3 308 84 313
3 316 26 308
3 288 317 315
3 315 77 288
3 317 86 315
3 288 0 317
3 320 318 319
3 319 87 320
3 318 83 319
3 320 82 318
3 311 321 319
3 319 83 311
3 321 87 319
3 311 25 321
3 300 310 318
3 318 82 300
3 310 83 318
3 300 24 310
3 322 303 320
3 320 87 322
3 303 82 320
3 322 3 303
3 325 323 324
3 324 89 325
3 323 85 324
3 325 88 323
3 307 326 324
3 324 85 307
3 326 89 324
3 307 26 326
3 327 312 323
3 323 88 327
3 312 85 323
3 327 25 312
3 329 328 325
3 325 89 329
3 328 88 325
3 329 5 328
3 332 330 331
3 331 92 332
3 330 91 331
3 332 90 330
3 334 333 331
3 331 91 334
3 333 92 331
3 334 29 333
3 336 335 330
3 330 90 336
3 335 91 330
3 336 28 335
3 338 337 332
3 332 92 338
3 337 90 332
3 338 27 337
3 341 339 340
3 340 94 341
3 339 91 340
3 341 93 339
3 335 342 340
3 340 91 335
3 342 94 340
3 335 28 342
3 343 334 339
3 339 93 343
3 334 91 339
3 343 29 334
3 345 344 341
3 341 94 345
3 344 93 341
3 345 2 344
3 348 346 347
3 347 96 348
3 346 90 347
3 348 95 346
3 337 349 347
3 347 90 337
3 349 96 347
3 337 27 349
3 350 336 346
3 346 95 350
3 336 90 346
3 350 28 336
3 352 351 348
3 348 96 352
3 351 95 348
3 352 7 351
3 355 353 354
3 354 98 355
3 353 92 354
3 355 97 353
3 333 356 354
3 354 92 333
3 356 98 354
3 333 29 356
3 357 338 353
3 353 97 357
3 338 92 353
3 357 27 338
3 359 358 355
3 355 98 359
3 358 97 355
3 359 1 358
3 362 360 361
3 361 101 362
3 360 100 361
3 362 99 360
3 364 363 361
3 361 100 364
3 363 101 361
3 364 31 363
3 366 365 360
3 360 99 366
3 365 100 360
3 366 29 365
3 368 367 362
3 362 101 368
3 367 99 362
3 368 30 367
3 371 369 370
3 370 93 371
3 369 100 370
3 371 102 369
3 365 343 370
3 370 100 365
3 343 93 370
3 365 29 343
3 372 364 369
3 369 102 372
3 364 100 369
3 372 31 364
3 344 373 371
3 371 93 344
3 373 102 371
3 344 2 373
3 376 374 375
3 375 103 376
3 374 99 375
3 376 98 374
3 367 377 375
3 375 99 367
3 377 103 375
3 367 30 377
3 356 366 374
3 374 98 356
3 366 99 374
3 356 29 366
3 378 359 376
3 376 103 378
3 359 98 376
3 378 1 359
3 381 379 380
3 380 105 381
3 379 101 380
3 381 104 379
3 363 382 380
3 380 101 363
3 382 105 380
3 363 31 382
3 383 368 379
3 379 104 383
3 368 101 379
3 383 30 368
3 385 384 381
3 381 105 385
3 384 104 381
3 385 6 384
3 388 386 387
3 387 108 388
3 386 107 387
3 388 106 386
3 390 389 387
3 387 107 390
3 389 108 387
3 390 34 389
3 392 391 386
3 386 106 392
3 391 107 386
3 392 33 391
3 394 393 388
3 388 108 394
3 393 106 388
3 394 32 393
3 397 395 396
3 396 110 397
3 395 107 396
3 397 109 395
3 391 398 396
3 396 107 391
3 398 110 396
3 391 33 398
3 399 390 395
3 395 109 399
3 390 107 395
3 399 34 390
3 401 400 397
3 397 110 401
3 400 109 397
3 401 8 400
3 404 402 403
3 403 112 404
3 402 106 403
3 404 111 402
3 393 405 403
3 403 106 393
3 405 112 403
3 393 32 405
3 406 392 402
3 402 111 406
3 392 106 402
3 406 33 392
3 408 407 404
3 404 112 408
3 407 111 404
3 408 0 407
3 411 409 410
3 410 114 411
3 409 108 410
3 411 113 409
3 389 412 410
3 410 108 389
3 412 114 410
3 389 34 412
3 413 394 409
3 409 113 413
3 394 108 409
3 413 32 394
3 415 414 411
3 411 114 415
3 414 113 411
3 415 11 414
3 418 416 417
3 417 117 418
3 416 116 417
3 418 115 416
3 420 419 417
3 417 116 420
3 419 117 417
3 420 36 419
3 422 421 416
3 416 115 422
3 421 116 416
3 422 34 421
3 424 423 418
3 418 117 424
3 423 115 418
3 424 35 423
3 427 425 426
3 426 109 427
3 425 116 426
3 427 118 425
3 421 399 426
3 426 116 421
3 399 109 426
3 421 34 399
3 428 420 425
3 425 118 428
3 420 116 425
3 428 36 420
3 400 429 427
3 427 109 400
3 429 118 427
3 400 8 429
3 432 430 431
3 431 119 432
3 430 115 431
3 432 114 430
3 423 433 431
3 431 115 423
3 433 119 431
3 423 35 433
3 412 422 430
3 430 114 412
3 422 115 430
3 412 34 422
3 434 415 432
3 432 119 434
3 415 114 432
3 434 11 415
3 437 435 436
3 436 121 437
3 435 117 436
3 437 120 435
3 419 438 436
3 436 117 419
3 438 121 436
3 419 36 438
3 439 424 435
3 435 120 439
3 424 117 435
3 439 35 424
3 441 440 437
3 437 121 441
3 440 120 437
3 441 1 440
3 444 442 443
3 443 124 444
3 442 123 443
3 444 122 442
3 446 445 443
3 443 123 446
3 445 124 443
3 446 39 445
3 448 447 442
3 442 122 448
3 447 123 442
3 448 38 447
3 450 449 444
3 444 124 450
3 449 122 444
3 450 37 449
3 453 451 452
3 452 126 453
3 451 123 452
3 453 125 451
3 447 454 452
3 452 123 447
3 454 126 452
3 447 38 454
3 455 446 451
3 451 125 455
3 446 123 451
3 455 39 446
3 457 456 453
3 453 126 457
3 456 125 453
3 457 9 456
3 460 458 459
3 459 128 460
3 458 122 459
3 460 127 458
3 449 461 459
3 459 122 449
3 461 128 459
3 449 37 461
3 462 448 458
3 458 127 462
3 448 122 458
3 462 38 448
3 464 463 460
3 460 128 464
3 463 127 460
3 464 10 463
3 467 465 466
3 466 130 467
3 465 124 466
3 467 129 465
3 445 468 466
3 466 124 445
3 468 130 466
3 445 39 468
3 469 450 465
3 465 129 469
3 450 124 465
3 469 37 450
3 471 470 467
3 467 130 471
3 470 129 467
3 471 3 470
3 474 472 473
3 473 133 474
3 472 132 473
3 474 131 472
3 476 475 473
3 473 132 476
3 475 133 473
3 476 38 475
3 478 477 472
3 472 131 478
3 477 132 472
3 478 41 477
3 480 479 474
3 474 133 480
3 479 131 474
3 480 40 479
3 483 481 482
3 482 134 483
3 481 132 482
3 483 126 481
3 477 484 482
3 482 132 477
3 484 134 482
3 477 41 484
3 454 476 481
3 481 126 454
3 476 132 481
3 454 38 476
3 485 457 483
3 483 134 485
3 457 126 483
3 485 9 457
3 488 486 487
3 487 136 488
3 486 131 487
3 488 135 486
3 479 489 487
3 487 131 479
3 489 136 487
3 479 40 489
3 490 478 486
3 486 135 490
3 478 131 486
3 490 41 478
3 492 491 488
3 488 136 492
3 491 135 488
3 492 2 491
3 495 493 494
3 494 127 495
3 493 133 494
3 495 137 493
3 475 462 494
3 494 133 475
3 462 127 494
3 475 38 462
3 496 480 493
3 493 137 496
3 480 133 493
3 496 40 480
3 463 497 495
3 495 127 463
3 497 137 495
3 463 10 497
3 500 498 499
3 499 140 500
3 498 139 499
3 500 138 498
3 502 501 499
3 499 139 502
3 501 140 499
3 502 33 501
3 504 503 498
3 498 138 504
3 503 139 498
3 504 13 503
3 506 505 500
3 500 140 506
3 505 138 500
3 506 23 505
3 509 507 508
3 508 47 509
3 507 139 508
3 509 110 507
3 503 182 508
3 508 139 503
3 182 47 508
3 503 13 182
3 398 502 507
3 507 110 398
3 502 139 507
3 398 33 502
3 183 401 509
3 509 47 183
3 401 110 509
3 183 8 401
3 512 510 511
3 511 79 512
3 510 138 511
3 512 46 510
3 505 294 511
3 511 138 505
3 294 79 511
3 505 23 294
3 174 504 510
3 510 46 174
3 504 138 510
3 174 13 504
3 295 177 512
3 512 79 295
3 177 46 512
3 295 4 177
3 515 513 514
3 514 111 515
3 513 140 514
3 515 78 513
3 501 406 514
3 514 140 501
3 406 111 514
3 501 33 406
3 286 506 513
3 513 78 286
3 506 140 513
3 286 23 506
3 407 289 515
3 515 111 407
3 289 78 515
3 407 0 289
3 518 516 517
3 517 143 518
3 516 142 517
3 518 141 516
3 520 519 517
3 517 142 520
3 519 143 517
3 520 19 519
3 522 521 516
3 516 141 522
3 521 142 516
3 522 32 521
3 524 523 518
3 518 143 524
3 523 141 518
3 524 26 523
3 527 525 526
3 526 113 527
3 525 142 526
3 527 66 525
3 521 413 526
3 526 142 521
3 413 113 526
3 521 32 413
3 244 520 525
3 525 66 244
3 520 142 525
3 244 19 520
3 414 247 527
3 527 113 414
3 247 66 527
3 414 11 247
3 530 528 529
3 529 86 530
3 528 141 529
3 530 112 528
3 523 316 529
3 529 141 523
3 316 86 529
3 523 26 316
3 405 522 528
3 528 112 405
3 522 141 528
3 405 32 522
3 317 408 530
3 530 86 317
3 408 112 530
3 317 0 408
3 533 531 532
3 532 61 533
3 531 143 532
3 533 89 531
3 519 231 532
3 532 143 519
3 231 61 532
3 519 19 231
3 326 524 531
3 531 89 326
3 524 143 531
3 326 26 524
3 232 329 533
3 533 61 232
3 329 89 533
3 232 5 329
3 536 534 535
3 535 146 536
3 534 145 535
3 536 144 534
3 538 537 535
3 535 145 538
3 537 146 535
3 538 22 537
3 540 539 534
3 534 144 540
3 539 145 534
3 540 16 539
3 542 541 536
3 536 146 542
3 541 144 536
3 542 39 541
3 545 543 544
3 544 54 545
3 543 145 544
3 545 80 543
3 539 204 544
3 544 145 539
3 204 54 544
3 539 16 204
3 293 538 543
3 543 80 293
3 538 145 543
3 293 22 538
3 205 296 545
3 545 54 205
3 296 80 545
3 205 4 296
3 548 546 547
3 547 125 548
3 546 144 547
3 548 57 546
3 541 455 547
3 547 144 541
3 455 125 547
3 541 39 455
3 214 540 546
3 546 57 214
3 540 144 546
3 214 16 540
3 456 217 548
3 548 125 456
3 217 57 548
3 456 9 217
3 551 549 550
3 550 81 551
3 549 146 550
3 551 130 549
3 537 301 550
3 550 146 537
3 301 81 550
3 537 22 301
3 468 542 549
3 549 130 468
3 542 146 549
3 468 39 542
3 302 471 551
3 551 81 302
3 471 130 551
3 302 3 471
3 554 552 553
3 553 149 554
3 552 148 553
3 554 147 552
3 556 555 553
3 553 148 556
3 555 149 553
3 556 21 555
3 558 557 552
3 552 147 558
3 557 148 552
3 558 25 557
3 560 559 554
3 554 149 560
3 559 147 554
3 560 37 559
3 563 561 562
3 562 88 563
3 561 148 562
3 563 70 561
3 557 327 562
3 562 148 557
3 327 88 562
3 557 25 327
3 260 556 561
3 561 70 260
3 556 148 561
3 260 21 556
3 328 261 563
3 563 88 328
3 261 70 563
3 328 5 261
3 566 564 565
3 565 129 566
3 564 147 565
3 566 87 564
3 559 469 565
3 565 147 559
3 469 129 565
3 559 37 469
3 321 558 564
3 564 87 321
3 558 147 564
3 321 25 558
3 470 322 566
3 566 129 470
3 322 87 566
3 470 3 322
3 569 567 568
3 568 71 569
3 567 149 568
3 569 128 567
3 555 266 568
3 568 149 555
3 266 71 568
3 555 21 266
3 461 560 567
3 567 128 461
3 560 149 567
3 461 37 560
3 267 464 569
3 569 71 267
3 464 128 569
3 267 10 464
3 572 570 571
3 571 152 572
3 570 151 571
3 572 150 570
3 574 573 571
3 571 151 574
3 573 152 571
3 574 27 573
3 576 575 570
3 570 150 576
3 575 151 570
3 576 12 575
3 578 577 572
3 572 152 578
3 577 150 572
3 578 36 577
3 581 579 580
3 580 49 581
3 579 151 580
3 581 96 579
3 575 189 580
3 580 151 575
3 189 49 580
3 575 12 189
3 349 574 579
3 579 96 349
3 574 151 579
3 349 27 574
3 190 352 581
3 581 49 190
3 352 96 581
3 190 7 352
3 584 582 583
3 583 118 584
3 582 150 583
3 584 48 582
3 577 428 583
3 583 150 577
3 428 118 583
3 577 36 428
3 181 576 582
3 582 48 181
3 576 150 582
3 181 12 576
3 429 184 584
3 584 118 429
3 184 48 584
3 429 8 184
3 587 585 586
3 586 97 587
3 585 152 586
3 587 121 585
3 573 357 586
3 586 152 573
3 357 97 586
3 573 27 357
3 438 578 585
3 585 121 438
3 578 152 585
3 438 36 578
3 358 441 587
3 587 97 358
3 441 121 587
3 358 1 441
3 590 588 589
3 589 155 590
3 588 154 589
3 590 153 588
3 592 591 589
3 589 154 592
3 591 155 589
3 592 17 591
3 594 593 588
3 588 153 594
3 593 154 588
3 594 30 593
3 596 595 590
3 590 155 596
3 595 153 590
3 596 35 595
3 599 597 598
3 598 104 599
3 597 154 598
3 599 64 597
3 593 383 598
3 598 154 593
3 383 104 598
3 593 30 383
3 237 592 597
3 597 64 237
3 592 154 597
3 237 17 592
3 384 240 599
3 599 104 384
3 240 64 599
3 384 6 240
3 602 600 601
3 601 120 602
3 600 153 601
3 602 103 600
3 595 439 601
3 601 153 595
3 439 120 601
3 595 35 439
3 377 594 600
3 600 103 377
3 594 153 600
3 377 30 594
3 440 378 602
3 602 120 440
3 378 103 602
3 440 1 378
3 605 603 604
3 604 65 605
3 603 155 604
3 605 119 603
3 591 245 604
3 604 155 591
3 245 65 604
3 591 17 245
3 433 596 603
3 603 119 433
3 596 155 603
3 433 35 596
3 246 434 605
3 605 65 246
3 434 119 605
3 246 11 434
3 608 606 607
3 607 158 608
3 606 157 607
3 608 156 606
3 610 609 607
3 607 157 610
3 609 158 607
3 610 15 609
3 612 611 606
3 606 156 612
3 611 157 606
3 612 28 611
3 614 613 608
3 608 158 614
3 613 156 608
3 614 41 613
3 617 615 616
3 616 95 617
3 615 157 616
3 617 55 615
3 611 350 616
3 616 157 611
3 350 95 616
3 611 28 350
3 209 610 615
3 615 55 209
3 610 157 615
3 209 15 610
3 351 210 617
3 617 95 351
3 210 55 617
3 351 7 210
3 620 618 619
3 619 135 620
3 618 156 619
3 620 94 618
3 613 490 619
3 619 156 613
3 490 135 619
3 613 41 490
3 342 612 618
3 618 94 342
3 612 156 618
3 342 28 612
3 491 345 620
3 620 135 491
3 345 94 620
3 491 2 345
3 623 621 622
3 622 56 623
3 621 158 622
3 623 134 621
3 609 215 622
3 622 158 609
3 215 56 622
3 609 15 215
3 484 614 621
3 621 134 484
3 614 158 621
3 484 41 614
3 216 485 623
3 623 56 216
3 485 134 623
3 216 9 485
3 626 624 625
3 625 161 626
3 624 160 625
3 626 159 624
3 628 627 625
3 625 160 628
3 627 161 625
3 628 31 627
3 630 629 624
3 624 159 630
3 629 160 624
3 630 20 629
3 632 631 626
3 626 161 632
3 631 159 626
3 632 40 631
3 635 633 634
3 634 73 635
3 633 160 634
3 635 105 633
3 629 272 634
3 634 160 629
3 272 73 634
3 629 20 272
3 382 628 633
3 633 105 382
3 628 160 633
3 382 31 628
3 273 385 635
3 635 73 273
3 385 105 635
3 273 6 385
3 638 636 637
3 637 137 638
3 636 159 637
3 638 72 636
3 631 496 637
3 637 159 631
3 496 137 637
3 631 40 496
3 265 630 636
3 636 72 265
3 630 159 636
3 265 20 630
3 497 268 638
3 638 137 497
3 268 72 638
3 497 10 268
3 641 639 640
3 640 102 641
3 639 161 640
3 641 136 639
3 627 372 640
3 640 161 627
3 372 102 640
3 627 31 372
3 489 632 639
3 639 136 489
3 632 161 639
3 489 40 632
3 373 492 641
3 641 102 373
3 492 136 641
3 373 2 492
